<svg width="381" height="147" viewBox="0 0 381 147" fill="none" xmlns="http://www.w3.org/2000/svg">
<path d="M101.141 79.5H98.0372V74.844H94.4532V79.5H91.3492V68.076H94.4532V72.316H98.0372V68.076H101.141V79.5ZM107.743 70.492C108.863 70.492 109.738 70.7693 110.367 71.324C110.997 71.8787 111.311 72.668 111.311 73.692V79.5H109.199L108.607 78.332H108.543C108.298 78.6413 108.042 78.8973 107.775 79.1C107.519 79.292 107.221 79.4307 106.879 79.516C106.538 79.612 106.122 79.66 105.631 79.66C105.119 79.66 104.661 79.5587 104.255 79.356C103.85 79.1427 103.53 78.828 103.295 78.412C103.061 77.9853 102.943 77.4467 102.943 76.796C102.943 75.8467 103.269 75.1427 103.919 74.684C104.581 74.2253 105.535 73.9693 106.783 73.916L108.255 73.868V73.74C108.255 73.3453 108.159 73.068 107.967 72.908C107.775 72.7373 107.514 72.652 107.183 72.652C106.831 72.652 106.442 72.716 106.015 72.844C105.589 72.9613 105.157 73.116 104.719 73.308L103.839 71.292C104.351 71.0253 104.927 70.828 105.567 70.7C106.218 70.5613 106.943 70.492 107.743 70.492ZM107.567 75.58C107.013 75.6013 106.618 75.7027 106.383 75.884C106.159 76.0547 106.047 76.3 106.047 76.62C106.047 76.9187 106.127 77.1427 106.287 77.292C106.447 77.4307 106.661 77.5 106.927 77.5C107.301 77.5 107.615 77.3827 107.871 77.148C108.138 76.9133 108.271 76.6093 108.271 76.236V75.548L107.567 75.58ZM112.32 70.652H115.536L117.04 75.724C117.061 75.7987 117.083 75.8893 117.104 75.996C117.125 76.1027 117.141 76.2147 117.152 76.332C117.173 76.4493 117.184 76.5667 117.184 76.684H117.248C117.269 76.4707 117.296 76.2893 117.328 76.14C117.371 75.98 117.408 75.8467 117.44 75.74L118.976 70.652H122.096L118.592 80.06C118.325 80.7747 118.011 81.3773 117.648 81.868C117.296 82.3587 116.859 82.7267 116.336 82.972C115.813 83.2173 115.163 83.34 114.384 83.34C114.107 83.34 113.867 83.324 113.664 83.292C113.461 83.2707 113.285 83.244 113.136 83.212V80.812C113.253 80.8333 113.392 80.8547 113.552 80.876C113.723 80.8973 113.899 80.908 114.08 80.908C114.421 80.908 114.693 80.8387 114.896 80.7C115.109 80.5613 115.285 80.38 115.424 80.156C115.563 79.9427 115.68 79.708 115.776 79.452L115.808 79.372L112.32 70.652ZM125.83 73.756C125.83 74.0547 125.894 74.284 126.022 74.444C126.16 74.5933 126.374 74.668 126.662 74.668C126.971 74.668 127.302 74.636 127.654 74.572C128.006 74.4973 128.363 74.4013 128.726 74.284V70.652H131.782V79.5H128.726V76.284C128.416 76.4227 128.016 76.5667 127.526 76.716C127.035 76.8653 126.502 76.94 125.926 76.94C124.859 76.94 124.064 76.6947 123.542 76.204C123.03 75.7133 122.774 74.9507 122.774 73.916V70.652H125.83V73.756ZM136.676 74.092C136.676 74.2733 136.671 74.4653 136.66 74.668C136.66 74.86 136.655 75.052 136.644 75.244C136.633 75.436 136.617 75.6227 136.596 75.804C136.585 75.9853 136.575 76.156 136.564 76.316L139.908 70.652H143.236V79.5H140.452V76.3C140.452 76.0227 140.452 75.7347 140.452 75.436C140.463 75.1373 140.479 74.8493 140.5 74.572C140.521 74.284 140.543 74.028 140.564 73.804L137.188 79.5H133.892V70.652H136.676V74.092ZM153.553 72.924H150.641V79.5H147.585V72.924H144.673V70.652H153.553V72.924ZM159.05 73.836C159.978 73.836 160.708 73.9427 161.242 74.156C161.775 74.3693 162.148 74.6787 162.362 75.084C162.586 75.4893 162.698 75.98 162.698 76.556C162.698 77.1427 162.575 77.66 162.33 78.108C162.084 78.5453 161.668 78.8867 161.082 79.132C160.506 79.3773 159.711 79.5 158.698 79.5H154.986V70.652H158.042V73.836H159.05ZM159.642 76.7C159.642 76.4227 159.567 76.2093 159.418 76.06C159.268 75.9107 158.97 75.836 158.522 75.836H158.042V77.5H158.554C158.927 77.5 159.199 77.4307 159.37 77.292C159.551 77.1533 159.642 76.956 159.642 76.7ZM168.299 79.66C167.403 79.66 166.624 79.5 165.963 79.18C165.302 78.86 164.79 78.364 164.427 77.692C164.064 77.02 163.883 76.1613 163.883 75.116C163.883 74.0387 164.086 73.164 164.491 72.492C164.896 71.8093 165.446 71.308 166.139 70.988C166.843 70.6573 167.643 70.492 168.539 70.492C169.083 70.492 169.595 70.5507 170.075 70.668C170.566 70.7853 171.019 70.9507 171.435 71.164L170.539 73.42C170.176 73.26 169.835 73.132 169.515 73.036C169.206 72.94 168.88 72.892 168.539 72.892C168.23 72.892 167.958 72.972 167.723 73.132C167.488 73.292 167.307 73.5373 167.179 73.868C167.051 74.188 166.987 74.5987 166.987 75.1C166.987 75.612 167.051 76.0227 167.179 76.332C167.318 76.6413 167.504 76.8707 167.739 77.02C167.974 77.1587 168.246 77.228 168.555 77.228C168.992 77.228 169.43 77.1587 169.867 77.02C170.315 76.8813 170.736 76.6893 171.131 76.444V78.876C170.768 79.1107 170.358 79.3027 169.899 79.452C169.44 79.5907 168.907 79.66 168.299 79.66ZM174.876 79.5H171.644L173.916 76.14C173.649 75.9907 173.399 75.7933 173.164 75.548C172.94 75.3027 172.759 75.0093 172.62 74.668C172.492 74.3267 172.428 73.932 172.428 73.484C172.428 72.5453 172.775 71.8413 173.468 71.372C174.161 70.892 175.105 70.652 176.3 70.652H180.524V79.5H177.468V76.428H176.572L174.876 79.5ZM175.484 73.58C175.484 73.7933 175.564 73.9907 175.724 74.172C175.884 74.3427 176.177 74.428 176.604 74.428H177.468V72.652H176.588C176.193 72.652 175.911 72.7427 175.74 72.924C175.569 73.1053 175.484 73.324 175.484 73.58Z" fill="#60BDFF"/>
<path d="M187.208 70.492H188.68V73.9L188.6 74.188V75.644L188.68 76.108V82.14H187.208V70.492ZM187.992 74.988C188.226 74.0493 188.584 73.228 189.064 72.524C189.554 71.82 190.141 71.2707 190.824 70.876C191.517 70.4813 192.28 70.284 193.112 70.284C193.997 70.284 194.781 70.4813 195.464 70.876C196.146 71.2707 196.68 71.82 197.064 72.524C197.458 73.228 197.656 74.0493 197.656 74.988C197.656 75.916 197.458 76.7373 197.064 77.452C196.68 78.156 196.146 78.7107 195.464 79.116C194.781 79.5107 193.997 79.708 193.112 79.708C192.28 79.708 191.517 79.5107 190.824 79.116C190.141 78.7213 189.554 78.172 189.064 77.468C188.584 76.7533 188.226 75.9267 187.992 74.988ZM196.152 74.988C196.152 74.3053 196.008 73.7027 195.72 73.18C195.442 72.6573 195.053 72.252 194.552 71.964C194.061 71.6653 193.501 71.516 192.872 71.516C192.232 71.516 191.64 71.6653 191.096 71.964C190.562 72.252 190.088 72.6573 189.672 73.18C189.256 73.7027 188.909 74.3053 188.632 74.988C188.909 75.6707 189.256 76.2733 189.672 76.796C190.088 77.3187 190.562 77.7293 191.096 78.028C191.64 78.316 192.232 78.46 192.872 78.46C193.501 78.46 194.061 78.316 194.552 78.028C195.053 77.7293 195.442 77.3187 195.72 76.796C196.008 76.2733 196.152 75.6707 196.152 74.988ZM208.08 79.5L207.76 76.092L208.16 74.988L207.76 73.9L208.08 70.492H209.584L209.168 74.988L209.584 79.5H208.08ZM208.656 74.988C208.422 75.9267 208.059 76.7533 207.568 77.468C207.088 78.172 206.502 78.7213 205.808 79.116C205.126 79.5107 204.368 79.708 203.536 79.708C202.651 79.708 201.867 79.5107 201.184 79.116C200.502 78.7107 199.963 78.156 199.568 77.452C199.184 76.7373 198.992 75.916 198.992 74.988C198.992 74.0493 199.184 73.228 199.568 72.524C199.963 71.82 200.502 71.2707 201.184 70.876C201.867 70.4813 202.651 70.284 203.536 70.284C204.368 70.284 205.126 70.4813 205.808 70.876C206.502 71.2707 207.094 71.82 207.584 72.524C208.075 73.228 208.432 74.0493 208.656 74.988ZM200.496 74.988C200.496 75.6707 200.635 76.2733 200.912 76.796C201.2 77.3187 201.59 77.7293 202.08 78.028C202.582 78.316 203.147 78.46 203.776 78.46C204.416 78.46 205.003 78.316 205.536 78.028C206.08 77.7293 206.56 77.3187 206.976 76.796C207.403 76.2733 207.75 75.6707 208.016 74.988C207.75 74.3053 207.403 73.7027 206.976 73.18C206.56 72.6573 206.08 72.252 205.536 71.964C205.003 71.6653 204.416 71.516 203.776 71.516C203.147 71.516 202.582 71.6653 202.08 71.964C201.59 72.252 201.2 72.6573 200.912 73.18C200.635 73.7027 200.496 74.3053 200.496 74.988ZM216.97 79.708C215.807 79.708 214.81 79.4733 213.978 79.004C213.146 78.524 212.506 77.836 212.058 76.94C211.621 76.044 211.402 74.972 211.402 73.724C211.402 71.8467 211.877 70.3693 212.826 69.292C213.786 68.204 215.146 67.5907 216.906 67.452C217.61 67.388 218.191 67.3347 218.65 67.292C219.119 67.2493 219.503 67.2067 219.802 67.164C220.101 67.1107 220.351 67.0573 220.554 67.004C220.767 66.9507 220.975 66.8867 221.178 66.812V68.156C220.986 68.2413 220.725 68.316 220.394 68.38C220.063 68.444 219.637 68.5027 219.114 68.556C218.602 68.5987 217.973 68.6413 217.226 68.684C215.754 68.7693 214.634 69.2387 213.866 70.092C213.098 70.9453 212.714 72.1507 212.714 73.708V74.3L212.586 74.236C212.842 73.564 213.194 72.9933 213.642 72.524C214.101 72.0547 214.639 71.6973 215.258 71.452C215.887 71.2067 216.575 71.084 217.322 71.084C218.25 71.084 219.061 71.2653 219.754 71.628C220.447 71.98 220.986 72.476 221.37 73.116C221.765 73.756 221.962 74.4973 221.962 75.34C221.962 76.2253 221.754 76.9933 221.338 77.644C220.922 78.2947 220.341 78.8013 219.594 79.164C218.847 79.5267 217.973 79.708 216.97 79.708ZM217.002 78.476C217.706 78.476 218.314 78.348 218.826 78.092C219.349 77.836 219.749 77.4733 220.026 77.004C220.314 76.5347 220.458 75.9907 220.458 75.372C220.458 74.7427 220.314 74.1987 220.026 73.74C219.749 73.2707 219.349 72.908 218.826 72.652C218.314 72.396 217.706 72.268 217.002 72.268C216.063 72.268 215.242 72.524 214.538 73.036C213.845 73.548 213.327 74.2787 212.986 75.228C213.189 76.2413 213.642 77.036 214.346 77.612C215.061 78.188 215.946 78.476 217.002 78.476ZM228.648 79.708C227.592 79.708 226.659 79.5107 225.848 79.116C225.048 78.7213 224.424 78.1667 223.976 77.452C223.528 76.7373 223.304 75.916 223.304 74.988C223.304 74.0493 223.528 73.228 223.976 72.524C224.424 71.82 225.048 71.2707 225.848 70.876C226.659 70.4813 227.592 70.284 228.648 70.284C229.715 70.284 230.648 70.4813 231.448 70.876C232.248 71.2707 232.872 71.82 233.32 72.524C233.779 73.228 234.008 74.0493 234.008 74.988C234.008 75.916 233.779 76.7373 233.32 77.452C232.872 78.1667 232.248 78.7213 231.448 79.116C230.648 79.5107 229.715 79.708 228.648 79.708ZM228.648 78.476C229.438 78.476 230.12 78.3373 230.696 78.06C231.272 77.772 231.715 77.3667 232.024 76.844C232.344 76.3213 232.504 75.7027 232.504 74.988C232.504 74.284 232.344 73.6707 232.024 73.148C231.715 72.6253 231.272 72.22 230.696 71.932C230.12 71.644 229.438 71.5 228.648 71.5C227.87 71.5 227.187 71.644 226.6 71.932C226.024 72.22 225.582 72.6253 225.272 73.148C224.963 73.6707 224.808 74.284 224.808 74.988C224.808 75.7027 224.963 76.3213 225.272 76.844C225.582 77.3667 226.024 77.772 226.6 78.06C227.187 78.3373 227.87 78.476 228.648 78.476ZM238.26 70.988H239.732V79.5H238.26V70.988ZM234.356 70.492H243.636V71.692H234.356V70.492ZM253.143 79.5L252.823 76.092L253.223 74.988L252.823 73.9L253.143 70.492H254.647L254.231 74.988L254.647 79.5H253.143ZM253.719 74.988C253.484 75.9267 253.121 76.7533 252.631 77.468C252.151 78.172 251.564 78.7213 250.871 79.116C250.188 79.5107 249.431 79.708 248.599 79.708C247.713 79.708 246.929 79.5107 246.247 79.116C245.564 78.7107 245.025 78.156 244.631 77.452C244.247 76.7373 244.055 75.916 244.055 74.988C244.055 74.0493 244.247 73.228 244.631 72.524C245.025 71.82 245.564 71.2707 246.247 70.876C246.929 70.4813 247.713 70.284 248.599 70.284C249.431 70.284 250.188 70.4813 250.871 70.876C251.564 71.2707 252.156 71.82 252.647 72.524C253.137 73.228 253.495 74.0493 253.719 74.988ZM245.559 74.988C245.559 75.6707 245.697 76.2733 245.975 76.796C246.263 77.3187 246.652 77.7293 247.143 78.028C247.644 78.316 248.209 78.46 248.839 78.46C249.479 78.46 250.065 78.316 250.599 78.028C251.143 77.7293 251.623 77.3187 252.039 76.796C252.465 76.2733 252.812 75.6707 253.079 74.988C252.812 74.3053 252.465 73.7027 252.039 73.18C251.623 72.6573 251.143 72.252 250.599 71.964C250.065 71.6653 249.479 71.516 248.839 71.516C248.209 71.516 247.644 71.6653 247.143 71.964C246.652 72.252 246.263 72.6573 245.975 73.18C245.697 73.7027 245.559 74.3053 245.559 74.988ZM259.76 70.988H261.232V79.5H259.76V70.988ZM255.856 70.492H265.136V71.692H255.856V70.492ZM266.536 79.5V70.492H268.008V79.036L267.416 78.332H271.624C272.264 78.332 272.771 78.172 273.144 77.852C273.517 77.5213 273.704 77.0787 273.704 76.524C273.704 75.9587 273.517 75.516 273.144 75.196C272.771 74.8653 272.264 74.7 271.624 74.7H267.528V73.564H271.752C272.445 73.564 273.048 73.6867 273.56 73.932C274.083 74.1773 274.488 74.524 274.776 74.972C275.064 75.42 275.208 75.9373 275.208 76.524C275.208 77.1213 275.064 77.644 274.776 78.092C274.488 78.54 274.083 78.8867 273.56 79.132C273.048 79.3773 272.445 79.5 271.752 79.5H266.536ZM290.338 76.076C290.221 76.7907 289.928 77.42 289.458 77.964C289 78.508 288.413 78.9347 287.698 79.244C286.984 79.5533 286.194 79.708 285.33 79.708C284.328 79.708 283.442 79.5107 282.674 79.116C281.906 78.7107 281.304 78.156 280.866 77.452C280.44 76.7373 280.226 75.916 280.226 74.988C280.226 74.06 280.44 73.244 280.866 72.54C281.304 71.8253 281.906 71.2707 282.674 70.876C283.442 70.4813 284.328 70.284 285.33 70.284C286.194 70.284 286.984 70.4387 287.698 70.748C288.413 71.0467 289 71.468 289.458 72.012C289.928 72.556 290.221 73.1907 290.338 73.916H288.818C288.658 73.1693 288.258 72.5827 287.618 72.156C286.989 71.7187 286.226 71.5 285.33 71.5C284.605 71.5 283.97 71.644 283.426 71.932C282.893 72.22 282.477 72.6253 282.178 73.148C281.88 73.66 281.73 74.2733 281.73 74.988C281.73 75.7027 281.88 76.3213 282.178 76.844C282.477 77.3667 282.893 77.772 283.426 78.06C283.97 78.3373 284.605 78.476 285.33 78.476C286.237 78.476 287.005 78.2573 287.634 77.82C288.274 77.3827 288.669 76.8013 288.818 76.076H290.338ZM93.5026 90.988H94.9746V99.5H93.5026V90.988ZM89.5986 90.492H98.8786V91.692H89.5986V90.492ZM100.278 90.492H101.75V93.9L101.67 94.188V95.644L101.75 96.108V102.14H100.278V90.492ZM101.062 94.988C101.297 94.0493 101.654 93.228 102.134 92.524C102.625 91.82 103.211 91.2707 103.894 90.876C104.587 90.4813 105.35 90.284 106.182 90.284C107.067 90.284 107.851 90.4813 108.534 90.876C109.217 91.2707 109.75 91.82 110.134 92.524C110.529 93.228 110.726 94.0493 110.726 94.988C110.726 95.916 110.529 96.7373 110.134 97.452C109.75 98.156 109.217 98.7107 108.534 99.116C107.851 99.5107 107.067 99.708 106.182 99.708C105.35 99.708 104.587 99.5107 103.894 99.116C103.211 98.7213 102.625 98.172 102.134 97.468C101.654 96.7533 101.297 95.9267 101.062 94.988ZM109.222 94.988C109.222 94.3053 109.078 93.7027 108.79 93.18C108.513 92.6573 108.123 92.252 107.622 91.964C107.131 91.6653 106.571 91.516 105.942 91.516C105.302 91.516 104.71 91.6653 104.166 91.964C103.633 92.252 103.158 92.6573 102.742 93.18C102.326 93.7027 101.979 94.3053 101.702 94.988C101.979 95.6707 102.326 96.2733 102.742 96.796C103.158 97.3187 103.633 97.7293 104.166 98.028C104.71 98.316 105.302 98.46 105.942 98.46C106.571 98.46 107.131 98.316 107.622 98.028C108.123 97.7293 108.513 97.3187 108.79 96.796C109.078 96.2733 109.222 95.6707 109.222 94.988ZM117.343 99.708C116.308 99.708 115.391 99.5107 114.591 99.116C113.801 98.7107 113.177 98.156 112.719 97.452C112.271 96.7373 112.047 95.916 112.047 94.988C112.047 94.0493 112.26 93.228 112.687 92.524C113.113 91.82 113.705 91.2707 114.463 90.876C115.22 90.4813 116.089 90.284 117.071 90.284C118.041 90.284 118.889 90.4973 119.615 90.924C120.34 91.3507 120.9 91.9533 121.295 92.732C121.7 93.5 121.903 94.396 121.903 95.42H113.167V94.252H121.279L120.415 94.78C120.383 94.108 120.223 93.5267 119.935 93.036C119.647 92.5453 119.257 92.1667 118.767 91.9C118.276 91.6333 117.705 91.5 117.055 91.5C116.351 91.5 115.737 91.644 115.215 91.932C114.692 92.2093 114.281 92.604 113.983 93.116C113.695 93.628 113.551 94.2307 113.551 94.924C113.551 95.6493 113.716 96.2787 114.047 96.812C114.377 97.3453 114.841 97.756 115.439 98.044C116.036 98.332 116.74 98.476 117.551 98.476C118.287 98.476 119.007 98.3533 119.711 98.108C120.425 97.8627 121.065 97.5267 121.631 97.1V98.252C121.076 98.7 120.415 99.0573 119.647 99.324C118.879 99.58 118.111 99.708 117.343 99.708ZM123.539 99.5L123.955 94.988L123.539 90.492H129.651C130.526 90.492 131.203 90.6947 131.683 91.1C132.174 91.4947 132.419 92.0547 132.419 92.78C132.419 93.4413 132.174 93.9693 131.683 94.364C131.203 94.748 130.537 94.972 129.683 95.036L129.827 94.732C130.851 94.7427 131.635 94.9507 132.179 95.356C132.723 95.7507 132.995 96.316 132.995 97.052C132.995 97.82 132.718 98.4227 132.163 98.86C131.619 99.2867 130.857 99.5 129.875 99.5H123.539ZM124.979 99.068L124.419 98.38H129.635C130.265 98.38 130.729 98.2573 131.027 98.012C131.337 97.7667 131.491 97.4147 131.491 96.956C131.491 96.4867 131.305 96.1187 130.931 95.852C130.569 95.5853 129.998 95.452 129.219 95.452H124.771V94.396H129.123C129.71 94.396 130.153 94.2627 130.451 93.996C130.761 93.7293 130.915 93.3773 130.915 92.94C130.915 92.524 130.777 92.1987 130.499 91.964C130.233 91.7187 129.817 91.596 129.251 91.596H124.435L124.979 90.924L125.379 94.988L124.979 99.068ZM139.641 99.708C138.585 99.708 137.651 99.5107 136.841 99.116C136.041 98.7213 135.417 98.1667 134.969 97.452C134.521 96.7373 134.297 95.916 134.297 94.988C134.297 94.0493 134.521 93.228 134.969 92.524C135.417 91.82 136.041 91.2707 136.841 90.876C137.651 90.4813 138.585 90.284 139.641 90.284C140.707 90.284 141.641 90.4813 142.441 90.876C143.241 91.2707 143.865 91.82 144.313 92.524C144.771 93.228 145.001 94.0493 145.001 94.988C145.001 95.916 144.771 96.7373 144.313 97.452C143.865 98.1667 143.241 98.7213 142.441 99.116C141.641 99.5107 140.707 99.708 139.641 99.708ZM139.641 98.476C140.43 98.476 141.113 98.3373 141.689 98.06C142.265 97.772 142.707 97.3667 143.017 96.844C143.337 96.3213 143.497 95.7027 143.497 94.988C143.497 94.284 143.337 93.6707 143.017 93.148C142.707 92.6253 142.265 92.22 141.689 91.932C141.113 91.644 140.43 91.5 139.641 91.5C138.862 91.5 138.179 91.644 137.593 91.932C137.017 92.22 136.574 92.6253 136.265 93.148C135.955 93.6707 135.801 94.284 135.801 94.988C135.801 95.7027 135.955 96.3213 136.265 96.844C136.574 97.3667 137.017 97.772 137.593 98.06C138.179 98.3373 138.862 98.476 139.641 98.476ZM153.593 90.492V91.692H147.625L148.313 91.02V99.5H146.841V90.492H153.593ZM159.234 99.708C158.178 99.708 157.245 99.5107 156.434 99.116C155.634 98.7213 155.01 98.1667 154.562 97.452C154.114 96.7373 153.89 95.916 153.89 94.988C153.89 94.0493 154.114 93.228 154.562 92.524C155.01 91.82 155.634 91.2707 156.434 90.876C157.245 90.4813 158.178 90.284 159.234 90.284C160.301 90.284 161.234 90.4813 162.034 90.876C162.834 91.2707 163.458 91.82 163.906 92.524C164.365 93.228 164.594 94.0493 164.594 94.988C164.594 95.916 164.365 96.7373 163.906 97.452C163.458 98.1667 162.834 98.7213 162.034 99.116C161.234 99.5107 160.301 99.708 159.234 99.708ZM159.234 98.476C160.024 98.476 160.706 98.3373 161.282 98.06C161.858 97.772 162.301 97.3667 162.61 96.844C162.93 96.3213 163.09 95.7027 163.09 94.988C163.09 94.284 162.93 93.6707 162.61 93.148C162.301 92.6253 161.858 92.22 161.282 91.932C160.706 91.644 160.024 91.5 159.234 91.5C158.456 91.5 157.773 91.644 157.186 91.932C156.61 92.22 156.168 92.6253 155.858 93.148C155.549 93.6707 155.394 94.284 155.394 94.988C155.394 95.7027 155.549 96.3213 155.858 96.844C156.168 97.3667 156.61 97.772 157.186 98.06C157.773 98.3373 158.456 98.476 159.234 98.476ZM166.434 99.5V90.492H167.89V98.828L167.33 98.748L174.226 90.492H176.13V99.5H174.674V91.084L175.25 91.18L168.306 99.5H166.434ZM171.186 89.5C170.312 89.5 169.602 89.276 169.058 88.828C168.525 88.3693 168.2 87.7187 168.082 86.876H169.33C169.426 87.3987 169.634 87.804 169.954 88.092C170.285 88.3693 170.696 88.508 171.186 88.508C171.688 88.508 172.098 88.3693 172.418 88.092C172.738 87.804 172.946 87.3987 173.042 86.876H174.29C174.184 87.7187 173.858 88.3693 173.314 88.828C172.77 89.276 172.061 89.5 171.186 89.5ZM182.95 99.5V90.492H184.406V98.828L183.846 98.748L190.742 90.492H192.646V99.5H191.19V91.084L191.766 91.18L184.822 99.5H182.95ZM209.034 96.076C208.916 96.7907 208.623 97.42 208.154 97.964C207.695 98.508 207.108 98.9347 206.394 99.244C205.679 99.5533 204.89 99.708 204.026 99.708C203.023 99.708 202.138 99.5107 201.37 99.116C200.602 98.7107 199.999 98.156 199.562 97.452C199.135 96.7373 198.922 95.916 198.922 94.988C198.922 94.06 199.135 93.244 199.562 92.54C199.999 91.8253 200.602 91.2707 201.37 90.876C202.138 90.4813 203.023 90.284 204.026 90.284C204.89 90.284 205.679 90.4387 206.394 90.748C207.108 91.0467 207.695 91.468 208.154 92.012C208.623 92.556 208.916 93.1907 209.034 93.916H207.514C207.354 93.1693 206.954 92.5827 206.314 92.156C205.684 91.7187 204.922 91.5 204.026 91.5C203.3 91.5 202.666 91.644 202.122 91.932C201.588 92.22 201.172 92.6253 200.874 93.148C200.575 93.66 200.426 94.2733 200.426 94.988C200.426 95.7027 200.575 96.3213 200.874 96.844C201.172 97.3667 201.588 97.772 202.122 98.06C202.666 98.3373 203.3 98.476 204.026 98.476C204.932 98.476 205.7 98.2573 206.33 97.82C206.97 97.3827 207.364 96.8013 207.514 96.076H209.034ZM213.253 90.988H214.725V99.5H213.253V90.988ZM209.349 90.492H218.629V91.692H209.349V90.492ZM220.028 90.492H221.5V93.9L221.42 94.188V95.644L221.5 96.108V102.14H220.028V90.492ZM220.812 94.988C221.047 94.0493 221.404 93.228 221.884 92.524C222.375 91.82 222.961 91.2707 223.644 90.876C224.337 90.4813 225.1 90.284 225.932 90.284C226.817 90.284 227.601 90.4813 228.284 90.876C228.967 91.2707 229.5 91.82 229.884 92.524C230.279 93.228 230.476 94.0493 230.476 94.988C230.476 95.916 230.279 96.7373 229.884 97.452C229.5 98.156 228.967 98.7107 228.284 99.116C227.601 99.5107 226.817 99.708 225.932 99.708C225.1 99.708 224.337 99.5107 223.644 99.116C222.961 98.7213 222.375 98.172 221.884 97.468C221.404 96.7533 221.047 95.9267 220.812 94.988ZM228.972 94.988C228.972 94.3053 228.828 93.7027 228.54 93.18C228.263 92.6573 227.873 92.252 227.372 91.964C226.881 91.6653 226.321 91.516 225.692 91.516C225.052 91.516 224.46 91.6653 223.916 91.964C223.383 92.252 222.908 92.6573 222.492 93.18C222.076 93.7027 221.729 94.3053 221.452 94.988C221.729 95.6707 222.076 96.2733 222.492 96.796C222.908 97.3187 223.383 97.7293 223.916 98.028C224.46 98.316 225.052 98.46 225.692 98.46C226.321 98.46 226.881 98.316 227.372 98.028C227.873 97.7293 228.263 97.3187 228.54 96.796C228.828 96.2733 228.972 95.6707 228.972 94.988ZM240.901 99.5L240.581 96.092L240.981 94.988L240.581 93.9L240.901 90.492H242.405L241.989 94.988L242.405 99.5H240.901ZM241.477 94.988C241.242 95.9267 240.879 96.7533 240.389 97.468C239.909 98.172 239.322 98.7213 238.629 99.116C237.946 99.5107 237.189 99.708 236.357 99.708C235.471 99.708 234.687 99.5107 234.005 99.116C233.322 98.7107 232.783 98.156 232.389 97.452C232.005 96.7373 231.813 95.916 231.813 94.988C231.813 94.0493 232.005 93.228 232.389 92.524C232.783 91.82 233.322 91.2707 234.005 90.876C234.687 90.4813 235.471 90.284 236.357 90.284C237.189 90.284 237.946 90.4813 238.629 90.876C239.322 91.2707 239.914 91.82 240.405 92.524C240.895 93.228 241.253 94.0493 241.477 94.988ZM233.317 94.988C233.317 95.6707 233.455 96.2733 233.733 96.796C234.021 97.3187 234.41 97.7293 234.901 98.028C235.402 98.316 235.967 98.46 236.597 98.46C237.237 98.46 237.823 98.316 238.357 98.028C238.901 97.7293 239.381 97.3187 239.797 96.796C240.223 96.2733 240.57 95.6707 240.837 94.988C240.57 94.3053 240.223 93.7027 239.797 93.18C239.381 92.6573 238.901 92.252 238.357 91.964C237.823 91.6653 237.237 91.516 236.597 91.516C235.967 91.516 235.402 91.6653 234.901 91.964C234.41 92.252 234.021 92.6573 233.733 93.18C233.455 93.7027 233.317 94.3053 233.317 94.988ZM243.39 99.5L247.822 94.3L247.806 95.372L243.646 90.492H245.39L248.766 94.428H247.902L251.294 90.492H252.974L248.766 95.388L248.734 94.236L253.23 99.5H251.518L247.838 95.228H248.718L245.054 99.5H243.39ZM262.463 99.5L262.143 96.092L262.543 94.988L262.143 93.9L262.463 90.492H263.967L263.551 94.988L263.967 99.5H262.463ZM263.039 94.988C262.804 95.9267 262.442 96.7533 261.951 97.468C261.471 98.172 260.884 98.7213 260.191 99.116C259.508 99.5107 258.751 99.708 257.919 99.708C257.034 99.708 256.25 99.5107 255.567 99.116C254.884 98.7107 254.346 98.156 253.951 97.452C253.567 96.7373 253.375 95.916 253.375 94.988C253.375 94.0493 253.567 93.228 253.951 92.524C254.346 91.82 254.884 91.2707 255.567 90.876C256.25 90.4813 257.034 90.284 257.919 90.284C258.751 90.284 259.508 90.4813 260.191 90.876C260.884 91.2707 261.476 91.82 261.967 92.524C262.458 93.228 262.815 94.0493 263.039 94.988ZM254.879 94.988C254.879 95.6707 255.018 96.2733 255.295 96.796C255.583 97.3187 255.972 97.7293 256.463 98.028C256.964 98.316 257.53 98.46 258.159 98.46C258.799 98.46 259.386 98.316 259.919 98.028C260.463 97.7293 260.943 97.3187 261.359 96.796C261.786 96.2733 262.132 95.6707 262.399 94.988C262.132 94.3053 261.786 93.7027 261.359 93.18C260.943 92.6573 260.463 92.252 259.919 91.964C259.386 91.6653 258.799 91.516 258.159 91.516C257.53 91.516 256.964 91.6653 256.463 91.964C255.972 92.252 255.583 92.6573 255.295 93.18C255.018 93.7027 254.879 94.3053 254.879 94.988ZM266.169 99.5V90.492H268.345L272.633 98.892H271.865L276.137 90.492H278.313V99.5H276.921V90.908H277.417L272.969 99.5H271.513L267.065 90.924H267.561V99.5H266.169ZM280.716 99.5V90.492H282.172V98.828L281.612 98.748L288.508 90.492H290.412V99.5H288.956V91.084L289.532 91.18L282.588 99.5H280.716Z" fill="black"/>
<path d="M143.087 140.678C169.463 151.696 194.928 123.159 194.928 123.159C194.928 123.159 237.364 145.933 257.068 145.933C283 145.933 302.5 113.086 302.5 113.086C302.5 113.086 366.413 127.977 378.611 100.386C389.892 74.8685 346.966 58.3419 346.966 58.3419C346.966 58.3419 366.596 32.4646 358.136 15.4223C341.806 -17.4726 290.176 47.393 290.176 47.393C290.176 47.393 287.824 8.62507 265.78 3.15948C238.913 -3.50219 204.948 40.8237 204.948 40.8237C204.948 40.8237 199.371 8.06489 183.166 3.15948C162.651 -3.05059 143.087 40.8237 143.087 40.8237C143.087 40.8237 134.061 4.55139 116.078 3.15948C95.5186 1.56823 86.8898 47.393 86.8898 47.393C86.8898 47.393 67.7889 -12.6779 42.2978 3.15939C20.1554 16.9161 34.1776 58.3419 34.1776 58.3419C34.1776 58.3419 15.4734 52.0244 3.52591 64.9113C-12.8063 82.5276 42.2978 100.386 42.2978 100.386C42.2978 100.386 29.4977 118.283 34.1776 127.977C44.6633 149.696 93.8601 113.086 93.8601 113.086C93.8601 113.086 129.568 135.03 143.087 140.678Z" stroke="#60BDFF"/>
</svg>
