<svg width="440" height="215" viewBox="0 0 440 215" fill="none" xmlns="http://www.w3.org/2000/svg">
<path d="M135.352 179.684C162.93 198.181 218.701 162.754 218.701 162.754C218.701 162.754 281.395 236.263 308.92 208.053C323.91 192.689 321.285 154.518 321.285 154.518C321.285 154.518 417.748 219.85 421.578 179.684C424.613 147.855 391.917 122.946 391.917 122.946C391.917 122.946 450.662 104.702 437.607 71.6994C424.816 39.3642 348.762 78.5628 348.762 78.5628C348.762 78.5628 359.192 45.3894 348.762 29.1461C330.072 0.0383451 264.497 56.5998 264.497 56.5998C264.497 56.5998 260.904 36.5589 251.674 29.1461C232.723 13.9252 195.803 56.5998 195.803 56.5998C195.803 56.5998 177.478 14.0148 155.044 15.8768C136.514 17.4149 120.697 48.8213 120.697 48.8213C120.697 48.8213 77.4608 -15.8447 53.377 4.43778C29.8927 24.2154 79.4808 78.5628 79.4808 78.5628C79.4808 78.5628 -4.24218 67.3598 0.711391 98.6956C5.07133 126.276 53.377 133.41 53.377 133.41C53.377 133.41 38.5803 152.313 47.4235 170.533C59.0247 194.435 111.538 147.655 111.538 147.655C111.538 147.655 122.404 170.999 135.352 179.684Z" fill="#60BDFF" stroke="#60BDFF"/>
<path d="M112.263 105.5V94.0758H121.623V105.5H118.519V96.6038H115.367V105.5H112.263ZM132.363 101.052C132.363 101.788 132.262 102.444 132.059 103.02C131.857 103.596 131.563 104.081 131.179 104.476C130.795 104.86 130.331 105.153 129.787 105.356C129.243 105.558 128.625 105.66 127.931 105.66C127.291 105.66 126.699 105.558 126.155 105.356C125.622 105.153 125.158 104.86 124.763 104.476C124.379 104.081 124.075 103.596 123.851 103.02C123.638 102.444 123.531 101.788 123.531 101.052C123.531 100.07 123.707 99.2438 124.059 98.5718C124.422 97.8891 124.934 97.3718 125.595 97.0198C126.257 96.6678 127.051 96.4918 127.979 96.4918C128.833 96.4918 129.585 96.6678 130.235 97.0198C130.897 97.3718 131.414 97.8891 131.787 98.5718C132.171 99.2438 132.363 100.07 132.363 101.052ZM126.635 101.052C126.635 101.553 126.678 101.98 126.763 102.332C126.849 102.684 126.987 102.95 127.179 103.132C127.382 103.302 127.643 103.388 127.963 103.388C128.283 103.388 128.534 103.302 128.715 103.132C128.907 102.95 129.046 102.684 129.131 102.332C129.217 101.98 129.259 101.553 129.259 101.052C129.259 100.55 129.217 100.129 129.131 99.7878C129.046 99.4464 128.907 99.1904 128.715 99.0198C128.523 98.8491 128.267 98.7638 127.947 98.7638C127.489 98.7638 127.153 98.9558 126.939 99.3398C126.737 99.7238 126.635 100.294 126.635 101.052ZM136.619 99.7558C136.619 100.054 136.683 100.284 136.811 100.444C136.949 100.593 137.163 100.668 137.451 100.668C137.76 100.668 138.091 100.636 138.443 100.572C138.795 100.497 139.152 100.401 139.515 100.284V96.6518H142.571V105.5H139.515V102.284C139.205 102.422 138.805 102.566 138.315 102.716C137.824 102.865 137.291 102.94 136.715 102.94C135.648 102.94 134.853 102.694 134.331 102.204C133.819 101.713 133.563 100.95 133.563 99.9158V96.6518H136.619V99.7558ZM143.609 96.6518H146.825L148.329 101.724C148.35 101.798 148.372 101.889 148.393 101.996C148.414 102.102 148.43 102.214 148.441 102.332C148.462 102.449 148.473 102.566 148.473 102.684H148.537C148.558 102.47 148.585 102.289 148.617 102.14C148.66 101.98 148.697 101.846 148.729 101.74L150.265 96.6518H153.385L149.881 106.06C149.614 106.774 149.3 107.377 148.937 107.868C148.585 108.358 148.148 108.726 147.625 108.972C147.102 109.217 146.452 109.34 145.673 109.34C145.396 109.34 145.156 109.324 144.953 109.292C144.75 109.27 144.574 109.244 144.425 109.212V106.812C144.542 106.833 144.681 106.854 144.841 106.876C145.012 106.897 145.188 106.908 145.369 106.908C145.71 106.908 145.982 106.838 146.185 106.7C146.398 106.561 146.574 106.38 146.713 106.156C146.852 105.942 146.969 105.708 147.065 105.452L147.097 105.372L143.609 96.6518ZM162.639 98.9398C162.639 99.3984 162.5 99.8091 162.223 100.172C161.945 100.534 161.519 100.764 160.943 100.86V100.924C161.572 100.998 162.057 101.217 162.399 101.58C162.74 101.942 162.911 102.406 162.911 102.972C162.911 103.302 162.847 103.622 162.719 103.932C162.591 104.23 162.372 104.497 162.063 104.732C161.753 104.966 161.332 105.153 160.799 105.292C160.265 105.43 159.593 105.5 158.783 105.5H154.447V96.6518H158.799C159.695 96.6518 160.425 96.7424 160.991 96.9238C161.556 97.0944 161.972 97.3504 162.239 97.6918C162.505 98.0224 162.639 98.4384 162.639 98.9398ZM159.807 102.668C159.807 102.444 159.732 102.262 159.583 102.124C159.433 101.974 159.145 101.9 158.719 101.9H157.503V103.5H158.687C159.092 103.5 159.38 103.425 159.551 103.276C159.721 103.116 159.807 102.913 159.807 102.668ZM159.599 99.3398C159.599 99.1158 159.524 98.9451 159.375 98.8278C159.236 98.7104 159.028 98.6518 158.751 98.6518H157.503V99.9798H158.639C158.959 99.9798 159.199 99.9211 159.359 99.8038C159.519 99.6758 159.599 99.5211 159.599 99.3398ZM168.541 105.66C167.645 105.66 166.866 105.5 166.205 105.18C165.544 104.86 165.032 104.364 164.669 103.692C164.306 103.02 164.125 102.161 164.125 101.116C164.125 100.038 164.328 99.1638 164.733 98.4918C165.138 97.8091 165.688 97.3078 166.381 96.9878C167.085 96.6571 167.885 96.4918 168.781 96.4918C169.325 96.4918 169.837 96.5504 170.317 96.6678C170.808 96.7851 171.261 96.9504 171.677 97.1638L170.781 99.4198C170.418 99.2598 170.077 99.1318 169.757 99.0358C169.448 98.9398 169.122 98.8918 168.781 98.8918C168.472 98.8918 168.2 98.9718 167.965 99.1318C167.73 99.2918 167.549 99.5371 167.421 99.8678C167.293 100.188 167.229 100.598 167.229 101.1C167.229 101.612 167.293 102.022 167.421 102.332C167.56 102.641 167.746 102.87 167.981 103.02C168.216 103.158 168.488 103.228 168.797 103.228C169.234 103.228 169.672 103.158 170.109 103.02C170.557 102.881 170.978 102.689 171.373 102.444V104.876C171.01 105.11 170.6 105.302 170.141 105.452C169.682 105.59 169.149 105.66 168.541 105.66ZM181.342 98.9238H178.43V105.5H175.374V98.9238H172.462V96.6518H181.342V98.9238ZM190.967 98.9398C190.967 99.3984 190.828 99.8091 190.551 100.172C190.273 100.534 189.847 100.764 189.271 100.86V100.924C189.9 100.998 190.385 101.217 190.727 101.58C191.068 101.942 191.239 102.406 191.239 102.972C191.239 103.302 191.175 103.622 191.047 103.932C190.919 104.23 190.7 104.497 190.391 104.732C190.081 104.966 189.66 105.153 189.127 105.292C188.593 105.43 187.921 105.5 187.111 105.5H182.775V96.6518H187.127C188.023 96.6518 188.753 96.7424 189.319 96.9238C189.884 97.0944 190.3 97.3504 190.567 97.6918C190.833 98.0224 190.967 98.4384 190.967 98.9398ZM188.135 102.668C188.135 102.444 188.06 102.262 187.911 102.124C187.761 101.974 187.473 101.9 187.047 101.9H185.831V103.5H187.015C187.42 103.5 187.708 103.425 187.879 103.276C188.049 103.116 188.135 102.913 188.135 102.668ZM187.927 99.3398C187.927 99.1158 187.852 98.9451 187.703 98.8278C187.564 98.7104 187.356 98.6518 187.079 98.6518H185.831V99.9798H186.967C187.287 99.9798 187.527 99.9211 187.687 99.8038C187.847 99.6758 187.927 99.5211 187.927 99.3398ZM201.285 101.052C201.285 101.788 201.184 102.444 200.981 103.02C200.779 103.596 200.485 104.081 200.101 104.476C199.717 104.86 199.253 105.153 198.709 105.356C198.165 105.558 197.547 105.66 196.853 105.66C196.213 105.66 195.621 105.558 195.077 105.356C194.544 105.153 194.08 104.86 193.685 104.476C193.301 104.081 192.997 103.596 192.773 103.02C192.56 102.444 192.453 101.788 192.453 101.052C192.453 100.07 192.629 99.2438 192.981 98.5718C193.344 97.8891 193.856 97.3718 194.517 97.0198C195.179 96.6678 195.973 96.4918 196.901 96.4918C197.755 96.4918 198.507 96.6678 199.157 97.0198C199.819 97.3718 200.336 97.8891 200.709 98.5718C201.093 99.2438 201.285 100.07 201.285 101.052ZM195.557 101.052C195.557 101.553 195.6 101.98 195.685 102.332C195.771 102.684 195.909 102.95 196.101 103.132C196.304 103.302 196.565 103.388 196.885 103.388C197.205 103.388 197.456 103.302 197.637 103.132C197.829 102.95 197.968 102.684 198.053 102.332C198.139 101.98 198.181 101.553 198.181 101.052C198.181 100.55 198.139 100.129 198.053 99.7878C197.968 99.4464 197.829 99.1904 197.637 99.0198C197.445 98.8491 197.189 98.7638 196.869 98.7638C196.411 98.7638 196.075 98.9558 195.861 99.3398C195.659 99.7238 195.557 100.294 195.557 101.052ZM211.217 98.9398C211.217 99.3984 211.078 99.8091 210.801 100.172C210.523 100.534 210.097 100.764 209.521 100.86V100.924C210.15 100.998 210.635 101.217 210.977 101.58C211.318 101.942 211.489 102.406 211.489 102.972C211.489 103.302 211.425 103.622 211.297 103.932C211.169 104.23 210.95 104.497 210.641 104.732C210.331 104.966 209.91 105.153 209.377 105.292C208.843 105.43 208.171 105.5 207.361 105.5H203.025V96.6518H207.377C208.273 96.6518 209.003 96.7424 209.569 96.9238C210.134 97.0944 210.55 97.3504 210.817 97.6918C211.083 98.0224 211.217 98.4384 211.217 98.9398ZM208.385 102.668C208.385 102.444 208.31 102.262 208.161 102.124C208.011 101.974 207.723 101.9 207.297 101.9H206.081V103.5H207.265C207.67 103.5 207.958 103.425 208.129 103.276C208.299 103.116 208.385 102.913 208.385 102.668ZM208.177 99.3398C208.177 99.1158 208.102 98.9451 207.953 98.8278C207.814 98.7104 207.606 98.6518 207.329 98.6518H206.081V99.9798H207.217C207.537 99.9798 207.777 99.9211 207.937 99.8038C208.097 99.6758 208.177 99.5211 208.177 99.3398ZM217.407 96.4918C218.527 96.4918 219.402 96.7691 220.031 97.3238C220.661 97.8784 220.975 98.6678 220.975 99.6918V105.5H218.863L218.271 104.332H218.207C217.962 104.641 217.706 104.897 217.439 105.1C217.183 105.292 216.885 105.43 216.543 105.516C216.202 105.612 215.786 105.66 215.295 105.66C214.783 105.66 214.325 105.558 213.919 105.356C213.514 105.142 213.194 104.828 212.959 104.412C212.725 103.985 212.607 103.446 212.607 102.796C212.607 101.846 212.933 101.142 213.583 100.684C214.245 100.225 215.199 99.9691 216.447 99.9158L217.919 99.8678V99.7398C217.919 99.3451 217.823 99.0678 217.631 98.9078C217.439 98.7371 217.178 98.6518 216.847 98.6518C216.495 98.6518 216.106 98.7158 215.679 98.8438C215.253 98.9611 214.821 99.1158 214.383 99.3078L213.503 97.2918C214.015 97.0251 214.591 96.8278 215.231 96.6998C215.882 96.5611 216.607 96.4918 217.407 96.4918ZM217.231 101.58C216.677 101.601 216.282 101.702 216.047 101.884C215.823 102.054 215.711 102.3 215.711 102.62C215.711 102.918 215.791 103.142 215.951 103.292C216.111 103.43 216.325 103.5 216.591 103.5C216.965 103.5 217.279 103.382 217.535 103.148C217.802 102.913 217.935 102.609 217.935 102.236V101.548L217.231 101.58ZM231.264 98.9238H228.352V105.5H225.296V98.9238H222.384V96.6518H231.264V98.9238ZM236.761 99.8358C237.689 99.8358 238.419 99.9424 238.953 100.156C239.486 100.369 239.859 100.678 240.073 101.084C240.297 101.489 240.409 101.98 240.409 102.556C240.409 103.142 240.286 103.66 240.041 104.108C239.795 104.545 239.379 104.886 238.793 105.132C238.217 105.377 237.422 105.5 236.409 105.5H232.697V96.6518H235.753V99.8358H236.761ZM237.353 102.7C237.353 102.422 237.278 102.209 237.129 102.06C236.979 101.91 236.681 101.836 236.233 101.836H235.753V103.5H236.265C236.638 103.5 236.91 103.43 237.081 103.292C237.262 103.153 237.353 102.956 237.353 102.7ZM124.518 121.652V124.836H126.934V121.652H129.99V130.5H126.934V127.108H124.518V130.5H121.462V121.652H124.518ZM136.423 121.492C137.543 121.492 138.417 121.769 139.047 122.324C139.676 122.878 139.991 123.668 139.991 124.692V130.5H137.879L137.287 129.332H137.223C136.977 129.641 136.721 129.897 136.455 130.1C136.199 130.292 135.9 130.43 135.559 130.516C135.217 130.612 134.801 130.66 134.311 130.66C133.799 130.66 133.34 130.558 132.935 130.356C132.529 130.142 132.209 129.828 131.975 129.412C131.74 128.985 131.623 128.446 131.623 127.796C131.623 126.846 131.948 126.142 132.599 125.684C133.26 125.225 134.215 124.969 135.463 124.916L136.935 124.868V124.74C136.935 124.345 136.839 124.068 136.647 123.908C136.455 123.737 136.193 123.652 135.863 123.652C135.511 123.652 135.121 123.716 134.695 123.844C134.268 123.961 133.836 124.116 133.399 124.308L132.519 122.292C133.031 122.025 133.607 121.828 134.247 121.7C134.897 121.561 135.623 121.492 136.423 121.492ZM136.247 126.58C135.692 126.601 135.297 126.702 135.063 126.884C134.839 127.054 134.727 127.3 134.727 127.62C134.727 127.918 134.807 128.142 134.967 128.292C135.127 128.43 135.34 128.5 135.607 128.5C135.98 128.5 136.295 128.382 136.551 128.148C136.817 127.913 136.951 127.609 136.951 127.236V126.548L136.247 126.58ZM146.104 130.66C145.208 130.66 144.429 130.5 143.768 130.18C143.106 129.86 142.594 129.364 142.232 128.692C141.869 128.02 141.688 127.161 141.688 126.116C141.688 125.038 141.89 124.164 142.296 123.492C142.701 122.809 143.25 122.308 143.944 121.988C144.648 121.657 145.448 121.492 146.344 121.492C146.888 121.492 147.4 121.55 147.88 121.668C148.37 121.785 148.824 121.95 149.24 122.164L148.344 124.42C147.981 124.26 147.64 124.132 147.32 124.036C147.01 123.94 146.685 123.892 146.344 123.892C146.034 123.892 145.762 123.972 145.528 124.132C145.293 124.292 145.112 124.537 144.984 124.868C144.856 125.188 144.792 125.598 144.792 126.1C144.792 126.612 144.856 127.022 144.984 127.332C145.122 127.641 145.309 127.87 145.544 128.02C145.778 128.158 146.05 128.228 146.36 128.228C146.797 128.228 147.234 128.158 147.672 128.02C148.12 127.881 148.541 127.689 148.936 127.444V129.876C148.573 130.11 148.162 130.302 147.704 130.452C147.245 130.59 146.712 130.66 146.104 130.66ZM159.577 130.5H156.521V123.924H154.729C154.622 125.15 154.489 126.196 154.329 127.06C154.169 127.913 153.955 128.606 153.689 129.14C153.422 129.662 153.081 130.046 152.665 130.292C152.259 130.537 151.753 130.66 151.145 130.66C150.91 130.66 150.665 130.638 150.409 130.596C150.163 130.553 149.95 130.494 149.769 130.42V128.148C149.875 128.201 149.982 128.238 150.089 128.26C150.195 128.281 150.318 128.292 150.457 128.292C150.585 128.292 150.707 128.249 150.825 128.164C150.942 128.078 151.049 127.913 151.145 127.668C151.251 127.422 151.353 127.054 151.449 126.564C151.545 126.073 151.635 125.433 151.721 124.644C151.817 123.844 151.902 122.846 151.977 121.652H159.577V130.5ZM166.001 121.492C167.121 121.492 167.996 121.769 168.625 122.324C169.254 122.878 169.569 123.668 169.569 124.692V130.5H167.457L166.865 129.332H166.801C166.556 129.641 166.3 129.897 166.033 130.1C165.777 130.292 165.478 130.43 165.137 130.516C164.796 130.612 164.38 130.66 163.889 130.66C163.377 130.66 162.918 130.558 162.513 130.356C162.108 130.142 161.788 129.828 161.553 129.412C161.318 128.985 161.201 128.446 161.201 127.796C161.201 126.846 161.526 126.142 162.177 125.684C162.838 125.225 163.793 124.969 165.041 124.916L166.513 124.868V124.74C166.513 124.345 166.417 124.068 166.225 123.908C166.033 123.737 165.772 123.652 165.441 123.652C165.089 123.652 164.7 123.716 164.273 123.844C163.846 123.961 163.414 124.116 162.977 124.308L162.097 122.292C162.609 122.025 163.185 121.828 163.825 121.7C164.476 121.561 165.201 121.492 166.001 121.492ZM165.825 126.58C165.27 126.601 164.876 126.702 164.641 126.884C164.417 127.054 164.305 127.3 164.305 127.62C164.305 127.918 164.385 128.142 164.545 128.292C164.705 128.43 164.918 128.5 165.185 128.5C165.558 128.5 165.873 128.382 166.129 128.148C166.396 127.913 166.529 127.609 166.529 127.236V126.548L165.825 126.58ZM185.874 121.652L182.882 125.86L186.178 130.5H182.85L179.842 126.004V130.5H176.866V126.004L173.858 130.5H170.53L173.826 125.86L170.834 121.652H174.114L176.866 125.94V121.652H179.842V125.94L182.594 121.652H185.874ZM195.757 121.652V128.228H197.069V133.748H194.397V130.5H188.973V133.748H186.301V128.228H187.085C187.395 127.705 187.667 127.097 187.901 126.404C188.147 125.7 188.349 124.942 188.509 124.132C188.68 123.321 188.803 122.494 188.877 121.652H195.757ZM191.229 123.924C191.165 124.425 191.085 124.91 190.989 125.38C190.893 125.838 190.776 126.302 190.637 126.772C190.499 127.23 190.333 127.716 190.141 128.228H192.701V123.924H191.229ZM202.306 121.492C203.17 121.492 203.911 121.641 204.53 121.94C205.159 122.238 205.639 122.686 205.97 123.284C206.311 123.881 206.482 124.633 206.482 125.54V126.9H201.026C201.047 127.358 201.218 127.737 201.538 128.036C201.868 128.334 202.343 128.484 202.962 128.484C203.516 128.484 204.023 128.43 204.482 128.324C204.94 128.217 205.415 128.046 205.906 127.812V130.004C205.479 130.228 205.01 130.393 204.498 130.5C203.996 130.606 203.362 130.66 202.594 130.66C201.698 130.66 200.898 130.505 200.194 130.196C199.5 129.876 198.951 129.38 198.546 128.708C198.14 128.036 197.938 127.177 197.938 126.132C197.938 125.065 198.119 124.19 198.482 123.508C198.855 122.825 199.367 122.318 200.018 121.988C200.679 121.657 201.442 121.492 202.306 121.492ZM202.418 123.572C202.055 123.572 201.751 123.684 201.506 123.908C201.271 124.132 201.132 124.489 201.09 124.98H203.714C203.714 124.713 203.66 124.478 203.554 124.276C203.458 124.062 203.314 123.892 203.122 123.764C202.93 123.636 202.695 123.572 202.418 123.572ZM211.268 121.652V124.836H213.684V121.652H216.74V130.5H213.684V127.108H211.268V130.5H208.212V121.652H211.268ZM221.637 125.092C221.637 125.273 221.631 125.465 221.621 125.668C221.621 125.86 221.615 126.052 221.605 126.244C221.594 126.436 221.578 126.622 221.557 126.804C221.546 126.985 221.535 127.156 221.525 127.316L224.869 121.652H228.197V130.5H225.413V127.3C225.413 127.022 225.413 126.734 225.413 126.436C225.423 126.137 225.439 125.849 225.461 125.572C225.482 125.284 225.503 125.028 225.525 124.804L222.149 130.5H218.853V121.652H221.637V125.092ZM234.29 121.492C235.154 121.492 235.895 121.641 236.514 121.94C237.143 122.238 237.623 122.686 237.954 123.284C238.295 123.881 238.466 124.633 238.466 125.54V126.9H233.01C233.031 127.358 233.202 127.737 233.522 128.036C233.853 128.334 234.327 128.484 234.946 128.484C235.501 128.484 236.007 128.43 236.466 128.324C236.925 128.217 237.399 128.046 237.89 127.812V130.004C237.463 130.228 236.994 130.393 236.482 130.5C235.981 130.606 235.346 130.66 234.578 130.66C233.682 130.66 232.882 130.505 232.178 130.196C231.485 129.876 230.935 129.38 230.53 128.708C230.125 128.036 229.922 127.177 229.922 126.132C229.922 125.065 230.103 124.19 230.466 123.508C230.839 122.825 231.351 122.318 232.002 121.988C232.663 121.657 233.426 121.492 234.29 121.492ZM234.402 123.572C234.039 123.572 233.735 123.684 233.49 123.908C233.255 124.132 233.117 124.489 233.074 124.98H235.698C235.698 124.713 235.645 124.478 235.538 124.276C235.442 124.062 235.298 123.892 235.106 123.764C234.914 123.636 234.679 123.572 234.402 123.572Z" fill="white"/>
<path d="M246.278 96.4918H247.75V99.8998L247.67 100.188V101.644L247.75 102.108V108.14H246.278V96.4918ZM247.062 100.988C247.297 100.049 247.654 99.2278 248.134 98.5238C248.625 97.8198 249.211 97.2704 249.894 96.8758C250.587 96.4811 251.35 96.2838 252.182 96.2838C253.067 96.2838 253.851 96.4811 254.534 96.8758C255.217 97.2704 255.75 97.8198 256.134 98.5238C256.529 99.2278 256.726 100.049 256.726 100.988C256.726 101.916 256.529 102.737 256.134 103.452C255.75 104.156 255.217 104.71 254.534 105.116C253.851 105.51 253.067 105.708 252.182 105.708C251.35 105.708 250.587 105.51 249.894 105.116C249.211 104.721 248.625 104.172 248.134 103.468C247.654 102.753 247.297 101.926 247.062 100.988ZM255.222 100.988C255.222 100.305 255.078 99.7024 254.79 99.1798C254.513 98.6571 254.123 98.2518 253.622 97.9638C253.131 97.6651 252.571 97.5158 251.942 97.5158C251.302 97.5158 250.71 97.6651 250.166 97.9638C249.633 98.2518 249.158 98.6571 248.742 99.1798C248.326 99.7024 247.979 100.305 247.702 100.988C247.979 101.67 248.326 102.273 248.742 102.796C249.158 103.318 249.633 103.729 250.166 104.028C250.71 104.316 251.302 104.46 251.942 104.46C252.571 104.46 253.131 104.316 253.622 104.028C254.123 103.729 254.513 103.318 254.79 102.796C255.078 102.273 255.222 101.67 255.222 100.988ZM267.151 105.5L266.831 102.092L267.231 100.988L266.831 99.8998L267.151 96.4918H268.655L268.239 100.988L268.655 105.5H267.151ZM267.727 100.988C267.492 101.926 267.129 102.753 266.639 103.468C266.159 104.172 265.572 104.721 264.879 105.116C264.196 105.51 263.439 105.708 262.607 105.708C261.721 105.708 260.937 105.51 260.255 105.116C259.572 104.71 259.033 104.156 258.639 103.452C258.255 102.737 258.063 101.916 258.063 100.988C258.063 100.049 258.255 99.2278 258.639 98.5238C259.033 97.8198 259.572 97.2704 260.255 96.8758C260.937 96.4811 261.721 96.2838 262.607 96.2838C263.439 96.2838 264.196 96.4811 264.879 96.8758C265.572 97.2704 266.164 97.8198 266.655 98.5238C267.145 99.2278 267.503 100.049 267.727 100.988ZM259.567 100.988C259.567 101.67 259.705 102.273 259.983 102.796C260.271 103.318 260.66 103.729 261.151 104.028C261.652 104.316 262.217 104.46 262.847 104.46C263.487 104.46 264.073 104.316 264.607 104.028C265.151 103.729 265.631 103.318 266.047 102.796C266.473 102.273 266.82 101.67 267.087 100.988C266.82 100.305 266.473 99.7024 266.047 99.1798C265.631 98.6571 265.151 98.2518 264.607 97.9638C264.073 97.6651 263.487 97.5158 262.847 97.5158C262.217 97.5158 261.652 97.6651 261.151 97.9638C260.66 98.2518 260.271 98.6571 259.983 99.1798C259.705 99.7024 259.567 100.305 259.567 100.988ZM281.976 104.3V107.836H280.664V105.5H271.064V107.836H269.768V104.3H271.736L272.168 104.316H279.224L279.656 104.3H281.976ZM271.848 96.4918H280.28V105.068H278.808V97.0038L279.496 97.6758H272.632L273.256 97.1958C273.31 97.6758 273.347 98.1504 273.368 98.6198C273.39 99.0784 273.4 99.5104 273.4 99.9158C273.4 101.516 273.208 102.78 272.824 103.708C272.451 104.625 271.934 105.084 271.272 105.084L270.664 104.556C271.56 103.884 272.008 102.246 272.008 99.6438C272.008 99.1424 271.992 98.6251 271.96 98.0918C271.939 97.5478 271.902 97.0144 271.848 96.4918ZM288.078 105.708C287.022 105.708 286.089 105.51 285.278 105.116C284.478 104.721 283.854 104.166 283.406 103.452C282.958 102.737 282.734 101.916 282.734 100.988C282.734 100.049 282.958 99.2278 283.406 98.5238C283.854 97.8198 284.478 97.2704 285.278 96.8758C286.089 96.4811 287.022 96.2838 288.078 96.2838C289.145 96.2838 290.078 96.4811 290.878 96.8758C291.678 97.2704 292.302 97.8198 292.75 98.5238C293.209 99.2278 293.438 100.049 293.438 100.988C293.438 101.916 293.209 102.737 292.75 103.452C292.302 104.166 291.678 104.721 290.878 105.116C290.078 105.51 289.145 105.708 288.078 105.708ZM288.078 104.476C288.867 104.476 289.55 104.337 290.126 104.06C290.702 103.772 291.145 103.366 291.454 102.844C291.774 102.321 291.934 101.702 291.934 100.988C291.934 100.284 291.774 99.6704 291.454 99.1478C291.145 98.6251 290.702 98.2198 290.126 97.9318C289.55 97.6438 288.867 97.4998 288.078 97.4998C287.299 97.4998 286.617 97.6438 286.03 97.9318C285.454 98.2198 285.011 98.6251 284.702 99.1478C284.393 99.6704 284.238 100.284 284.238 100.988C284.238 101.702 284.393 102.321 284.702 102.844C285.011 103.366 285.454 103.772 286.03 104.06C286.617 104.337 287.299 104.476 288.078 104.476ZM304.846 102.076C304.729 102.79 304.435 103.42 303.966 103.964C303.507 104.508 302.921 104.934 302.206 105.244C301.491 105.553 300.702 105.708 299.838 105.708C298.835 105.708 297.95 105.51 297.182 105.116C296.414 104.71 295.811 104.156 295.374 103.452C294.947 102.737 294.734 101.916 294.734 100.988C294.734 100.06 294.947 99.2438 295.374 98.5398C295.811 97.8251 296.414 97.2704 297.182 96.8758C297.95 96.4811 298.835 96.2838 299.838 96.2838C300.702 96.2838 301.491 96.4384 302.206 96.7478C302.921 97.0464 303.507 97.4678 303.966 98.0118C304.435 98.5558 304.729 99.1904 304.846 99.9158H303.326C303.166 99.1691 302.766 98.5824 302.126 98.1558C301.497 97.7184 300.734 97.4998 299.838 97.4998C299.113 97.4998 298.478 97.6438 297.934 97.9318C297.401 98.2198 296.985 98.6251 296.686 99.1478C296.387 99.6598 296.238 100.273 296.238 100.988C296.238 101.702 296.387 102.321 296.686 102.844C296.985 103.366 297.401 103.772 297.934 104.06C298.478 104.337 299.113 104.476 299.838 104.476C300.745 104.476 301.513 104.257 302.142 103.82C302.782 103.382 303.177 102.801 303.326 102.076H304.846ZM309.065 96.9878H310.537V105.5H309.065V96.9878ZM305.161 96.4918H314.441V97.6918H305.161V96.4918ZM315.841 105.5V96.4918H317.313V105.036L316.721 104.332H320.929C321.569 104.332 322.075 104.172 322.449 103.852C322.822 103.521 323.009 103.078 323.009 102.524C323.009 101.958 322.822 101.516 322.449 101.196C322.075 100.865 321.569 100.7 320.929 100.7H316.833V99.5638H321.057C321.75 99.5638 322.353 99.6864 322.865 99.9318C323.387 100.177 323.793 100.524 324.081 100.972C324.369 101.42 324.513 101.937 324.513 102.524C324.513 103.121 324.369 103.644 324.081 104.092C323.793 104.54 323.387 104.886 322.865 105.132C322.353 105.377 321.75 105.5 321.057 105.5H315.841ZM330.075 105.5V96.4918H331.531V104.828L330.971 104.748L337.867 96.4918H339.771V105.5H338.315V97.0838L338.891 97.1798L331.947 105.5H330.075ZM249.297 130.708C248.241 130.708 247.307 130.51 246.497 130.116C245.697 129.721 245.073 129.166 244.625 128.452C244.177 127.737 243.953 126.916 243.953 125.988C243.953 125.049 244.177 124.228 244.625 123.524C245.073 122.82 245.697 122.27 246.497 121.876C247.307 121.481 248.241 121.284 249.297 121.284C250.363 121.284 251.297 121.481 252.097 121.876C252.897 122.27 253.521 122.82 253.969 123.524C254.427 124.228 254.657 125.049 254.657 125.988C254.657 126.916 254.427 127.737 253.969 128.452C253.521 129.166 252.897 129.721 252.097 130.116C251.297 130.51 250.363 130.708 249.297 130.708ZM249.297 129.476C250.086 129.476 250.769 129.337 251.345 129.06C251.921 128.772 252.363 128.366 252.673 127.844C252.993 127.321 253.153 126.702 253.153 125.988C253.153 125.284 252.993 124.67 252.673 124.148C252.363 123.625 251.921 123.22 251.345 122.932C250.769 122.644 250.086 122.5 249.297 122.5C248.518 122.5 247.835 122.644 247.249 122.932C246.673 123.22 246.23 123.625 245.921 124.148C245.611 124.67 245.457 125.284 245.457 125.988C245.457 126.702 245.611 127.321 245.921 127.844C246.23 128.366 246.673 128.772 247.249 129.06C247.835 129.337 248.518 129.476 249.297 129.476ZM258.909 121.988H260.381V130.5H258.909V121.988ZM255.005 121.492H264.285V122.692H255.005V121.492ZM268.47 130.5L272.246 124.9L273.206 126.004L270.23 130.5H268.47ZM283.734 130.5L280.774 126.004L281.718 124.9L285.494 130.5H283.734ZM277.718 129.124L277.286 128.964L283.478 121.492H285.19L277.558 130.5H276.422L268.774 121.492H270.486L276.694 128.964L276.262 129.124V121.492H277.718V129.124ZM286.747 130.5V121.492H288.203V129.828L287.643 129.748L294.539 121.492H296.443V130.5H294.987V122.084L295.563 122.18L288.619 130.5H286.747ZM302.793 130.708C301.897 130.708 301.102 130.585 300.409 130.34C299.726 130.084 299.187 129.721 298.793 129.252C298.398 128.782 298.179 128.228 298.137 127.588H299.577C299.662 128.206 299.982 128.681 300.537 129.012C301.102 129.332 301.854 129.492 302.793 129.492C303.71 129.492 304.425 129.364 304.937 129.108C305.459 128.841 305.721 128.43 305.721 127.876C305.721 127.417 305.507 127.081 305.081 126.868C304.665 126.644 303.998 126.532 303.081 126.532H301.209V125.428H303.033C303.854 125.428 304.462 125.289 304.857 125.012C305.262 124.734 305.465 124.398 305.465 124.004C305.465 123.513 305.219 123.14 304.729 122.884C304.249 122.617 303.619 122.484 302.841 122.484C301.987 122.484 301.289 122.633 300.745 122.932C300.201 123.22 299.881 123.657 299.785 124.244H298.345C298.409 123.678 298.627 123.172 299.001 122.724C299.374 122.276 299.891 121.924 300.553 121.668C301.214 121.412 301.998 121.284 302.905 121.284C303.737 121.284 304.457 121.396 305.065 121.62C305.673 121.833 306.142 122.132 306.473 122.516C306.803 122.9 306.969 123.337 306.969 123.828C306.969 124.244 306.841 124.622 306.585 124.964C306.339 125.305 305.961 125.577 305.449 125.78C304.947 125.982 304.307 126.084 303.529 126.084V125.812C304.691 125.78 305.598 125.95 306.249 126.324C306.91 126.697 307.241 127.236 307.241 127.94C307.241 128.484 307.065 128.964 306.713 129.38C306.371 129.796 305.87 130.121 305.209 130.356C304.547 130.59 303.742 130.708 302.793 130.708ZM309.106 121.492H310.562V130.5H309.106V121.492ZM316.85 121.492H318.322V130.5H316.85V121.492ZM309.922 125.348H317.538V126.548H309.922V125.348ZM320.7 130.5V121.492H322.156V129.828L321.596 129.748L328.492 121.492H330.396V130.5H328.94V122.084L329.516 122.18L322.572 130.5H320.7Z" fill="black"/>
</svg>
