<svg width="382" height="150" viewBox="0 0 382 150" fill="none" xmlns="http://www.w3.org/2000/svg">
<path d="M169.704 148.359C141.137 152.432 107.704 123.706 107.704 123.706C107.704 123.706 61.6255 159.049 39.7043 134.712C19.8539 112.673 39.7043 91.0002 39.7043 91.0002C39.7043 91.0002 -2.78896 71.9341 0.704332 51.0669C5.38627 23.0994 46.972 51.0669 46.972 51.0669C46.972 51.0669 89.5128 -6.84696 101.107 14.087C108.175 26.8478 115.191 44.4634 115.191 44.4634C115.191 44.4634 126.767 9.93129 145.56 2.20065C174.407 -9.6657 213.339 44.4634 213.339 44.4634C213.339 44.4634 223.5 13.8034 240.187 7.48349C264.797 -1.83702 296.523 44.4634 296.523 44.4634C296.523 44.4634 339.261 -4.5152 359.021 14.087C374.417 28.5798 347.5 68.5002 347.5 68.5002C347.5 68.5002 387.632 87.6689 380.704 113.58C371.897 146.522 312.808 113.58 312.808 113.58C312.808 113.58 296.498 146.322 277.158 148.359C258.455 150.329 235.786 123.706 235.786 123.706C235.786 123.706 193.478 144.97 169.704 148.359Z" fill="#60BDFF" stroke="#60BDFF"/>
<path d="M70.8563 64.5002V76.5002H69.3523V65.1562L70.0403 65.8282H60.3123L61.0003 65.1562V76.5002H59.4963V64.5002H70.8563ZM73.4122 67.4922H74.8842V70.9002L74.8042 71.1882V72.6442L74.8842 73.1082V79.1402H73.4122V67.4922ZM74.1962 71.9882C74.4308 71.0496 74.7882 70.2282 75.2682 69.5242C75.7588 68.8202 76.3455 68.2709 77.0282 67.8762C77.7215 67.4816 78.4842 67.2842 79.3162 67.2842C80.2015 67.2842 80.9855 67.4816 81.6682 67.8762C82.3508 68.2709 82.8842 68.8202 83.2682 69.5242C83.6628 70.2282 83.8602 71.0496 83.8602 71.9882C83.8602 72.9162 83.6628 73.7376 83.2682 74.4522C82.8842 75.1562 82.3508 75.7109 81.6682 76.1162C80.9855 76.5109 80.2015 76.7082 79.3162 76.7082C78.4842 76.7082 77.7215 76.5109 77.0282 76.1162C76.3455 75.7216 75.7588 75.1722 75.2682 74.4682C74.7882 73.7536 74.4308 72.9269 74.1962 71.9882ZM82.3562 71.9882C82.3562 71.3056 82.2122 70.7029 81.9242 70.1802C81.6468 69.6576 81.2575 69.2522 80.7562 68.9642C80.2655 68.6656 79.7055 68.5162 79.0762 68.5162C78.4362 68.5162 77.8442 68.6656 77.3002 68.9642C76.7668 69.2522 76.2922 69.6576 75.8762 70.1802C75.4602 70.7029 75.1135 71.3056 74.8362 71.9882C75.1135 72.6709 75.4602 73.2736 75.8762 73.7962C76.2922 74.3189 76.7668 74.7296 77.3002 75.0282C77.8442 75.3162 78.4362 75.4602 79.0762 75.4602C79.7055 75.4602 80.2655 75.3162 80.7562 75.0282C81.2575 74.7296 81.6468 74.3189 81.9242 73.7962C82.2122 73.2736 82.3562 72.6709 82.3562 71.9882ZM90.5247 76.7082C89.4687 76.7082 88.5353 76.5109 87.7247 76.1162C86.9247 75.7216 86.3007 75.1669 85.8527 74.4522C85.4047 73.7376 85.1807 72.9162 85.1807 71.9882C85.1807 71.0496 85.4047 70.2282 85.8527 69.5242C86.3007 68.8202 86.9247 68.2709 87.7247 67.8762C88.5353 67.4816 89.4687 67.2842 90.5247 67.2842C91.5913 67.2842 92.5247 67.4816 93.3247 67.8762C94.1247 68.2709 94.7487 68.8202 95.1967 69.5242C95.6553 70.2282 95.8847 71.0496 95.8847 71.9882C95.8847 72.9162 95.6553 73.7376 95.1967 74.4522C94.7487 75.1669 94.1247 75.7216 93.3247 76.1162C92.5247 76.5109 91.5913 76.7082 90.5247 76.7082ZM90.5247 75.4762C91.314 75.4762 91.9967 75.3376 92.5727 75.0602C93.1487 74.7722 93.5913 74.3669 93.9007 73.8442C94.2207 73.3216 94.3807 72.7029 94.3807 71.9882C94.3807 71.2842 94.2207 70.6709 93.9007 70.1482C93.5913 69.6256 93.1487 69.2202 92.5727 68.9322C91.9967 68.6442 91.314 68.5002 90.5247 68.5002C89.746 68.5002 89.0633 68.6442 88.4767 68.9322C87.9007 69.2202 87.458 69.6256 87.1487 70.1482C86.8393 70.6709 86.6847 71.2842 86.6847 71.9882C86.6847 72.7029 86.8393 73.3216 87.1487 73.8442C87.458 74.3669 87.9007 74.7722 88.4767 75.0602C89.0633 75.3376 89.746 75.4762 90.5247 75.4762ZM96.1508 76.5002L99.9268 70.9002L100.887 72.0042L97.9108 76.5002H96.1508ZM111.415 76.5002L108.455 72.0042L109.399 70.9002L113.175 76.5002H111.415ZM105.399 75.1242L104.967 74.9642L111.159 67.4922H112.871L105.239 76.5002H104.103L96.4548 67.4922H98.1668L104.375 74.9642L103.943 75.1242V67.4922H105.399V75.1242ZM114.428 76.5002V67.4922H115.884V75.8282L115.324 75.7482L122.22 67.4922H124.124V76.5002H122.668V68.0842L123.244 68.1802L116.3 76.5002H114.428ZM129.434 67.9882H130.906V76.5002H129.434V67.9882ZM125.53 67.4922H134.81V68.6922H125.53V67.4922ZM136.209 76.5002V67.4922H137.681V76.0362L137.089 75.3322H141.297C141.937 75.3322 142.444 75.1722 142.817 74.8522C143.19 74.5216 143.377 74.0789 143.377 73.5242C143.377 72.9589 143.19 72.5162 142.817 72.1962C142.444 71.8656 141.937 71.7002 141.297 71.7002H137.201V70.5642H141.425C142.118 70.5642 142.721 70.6869 143.233 70.9322C143.756 71.1776 144.161 71.5242 144.449 71.9722C144.737 72.4202 144.881 72.9376 144.881 73.5242C144.881 74.1216 144.737 74.6442 144.449 75.0922C144.161 75.5402 143.756 75.8869 143.233 76.1322C142.721 76.3776 142.118 76.5002 141.425 76.5002H136.209ZM256.377 67.4922V76.5002H254.905V68.0042L255.577 68.6762H248.009L248.697 68.0042V76.5002H247.225V67.4922H256.377ZM263.508 76.7082C262.473 76.7082 261.556 76.5109 260.756 76.1162C259.967 75.7109 259.343 75.1562 258.884 74.4522C258.436 73.7376 258.212 72.9162 258.212 71.9882C258.212 71.0496 258.425 70.2282 258.852 69.5242C259.279 68.8202 259.871 68.2709 260.628 67.8762C261.385 67.4816 262.255 67.2842 263.236 67.2842C264.207 67.2842 265.055 67.4976 265.78 67.9242C266.505 68.3509 267.065 68.9536 267.46 69.7322C267.865 70.5002 268.068 71.3962 268.068 72.4202H259.332V71.2522H267.444L266.58 71.7802C266.548 71.1082 266.388 70.5269 266.1 70.0362C265.812 69.5456 265.423 69.1669 264.932 68.9002C264.441 68.6336 263.871 68.5002 263.22 68.5002C262.516 68.5002 261.903 68.6442 261.38 68.9322C260.857 69.2096 260.447 69.6042 260.148 70.1162C259.86 70.6282 259.716 71.2309 259.716 71.9242C259.716 72.6496 259.881 73.2789 260.212 73.8122C260.543 74.3456 261.007 74.7562 261.604 75.0442C262.201 75.3322 262.905 75.4762 263.716 75.4762C264.452 75.4762 265.172 75.3536 265.876 75.1082C266.591 74.8629 267.231 74.5269 267.796 74.1002V75.2522C267.241 75.7002 266.58 76.0576 265.812 76.3242C265.044 76.5802 264.276 76.7082 263.508 76.7082ZM269.897 67.4922H271.369V70.9002L271.289 71.1882V72.6442L271.369 73.1082V79.1402H269.897V67.4922ZM270.681 71.9882C270.915 71.0496 271.273 70.2282 271.753 69.5242C272.243 68.8202 272.83 68.2709 273.513 67.8762C274.206 67.4816 274.969 67.2842 275.801 67.2842C276.686 67.2842 277.47 67.4816 278.153 67.8762C278.835 68.2709 279.369 68.8202 279.753 69.5242C280.147 70.2282 280.345 71.0496 280.345 71.9882C280.345 72.9162 280.147 73.7376 279.753 74.4522C279.369 75.1562 278.835 75.7109 278.153 76.1162C277.47 76.5109 276.686 76.7082 275.801 76.7082C274.969 76.7082 274.206 76.5109 273.513 76.1162C272.83 75.7216 272.243 75.1722 271.753 74.4682C271.273 73.7536 270.915 72.9269 270.681 71.9882ZM278.841 71.9882C278.841 71.3056 278.697 70.7029 278.409 70.1802C278.131 69.6576 277.742 69.2522 277.241 68.9642C276.75 68.6656 276.19 68.5162 275.561 68.5162C274.921 68.5162 274.329 68.6656 273.785 68.9642C273.251 69.2522 272.777 69.6576 272.361 70.1802C271.945 70.7029 271.598 71.3056 271.321 71.9882C271.598 72.6709 271.945 73.2736 272.361 73.7962C272.777 74.3189 273.251 74.7296 273.785 75.0282C274.329 75.3162 274.921 75.4602 275.561 75.4602C276.19 75.4602 276.75 75.3162 277.241 75.0282C277.742 74.7296 278.131 74.3189 278.409 73.7962C278.697 73.2736 278.841 72.6709 278.841 71.9882ZM286.961 76.7082C285.926 76.7082 285.009 76.5109 284.209 76.1162C283.42 75.7109 282.796 75.1562 282.337 74.4522C281.889 73.7376 281.665 72.9162 281.665 71.9882C281.665 71.0496 281.878 70.2282 282.305 69.5242C282.732 68.8202 283.324 68.2709 284.081 67.8762C284.838 67.4816 285.708 67.2842 286.689 67.2842C287.66 67.2842 288.508 67.4976 289.233 67.9242C289.958 68.3509 290.518 68.9536 290.913 69.7322C291.318 70.5002 291.521 71.3962 291.521 72.4202H282.785V71.2522H290.897L290.033 71.7802C290.001 71.1082 289.841 70.5269 289.553 70.0362C289.265 69.5456 288.876 69.1669 288.385 68.9002C287.894 68.6336 287.324 68.5002 286.673 68.5002C285.969 68.5002 285.356 68.6442 284.833 68.9322C284.31 69.2096 283.9 69.6042 283.601 70.1162C283.313 70.6282 283.169 71.2309 283.169 71.9242C283.169 72.6496 283.334 73.2789 283.665 73.8122C283.996 74.3456 284.46 74.7562 285.057 75.0442C285.654 75.3322 286.358 75.4762 287.169 75.4762C287.905 75.4762 288.625 75.3536 289.329 75.1082C290.044 74.8629 290.684 74.5269 291.249 74.1002V75.2522C290.694 75.7002 290.033 76.0576 289.265 76.3242C288.497 76.5802 287.729 76.7082 286.961 76.7082ZM298.102 76.7082C297.067 76.7082 296.15 76.5109 295.35 76.1162C294.56 75.7109 293.936 75.1562 293.478 74.4522C293.03 73.7376 292.806 72.9162 292.806 71.9882C292.806 71.0496 293.019 70.2282 293.446 69.5242C293.872 68.8202 294.464 68.2709 295.222 67.8762C295.979 67.4816 296.848 67.2842 297.83 67.2842C298.8 67.2842 299.648 67.4976 300.374 67.9242C301.099 68.3509 301.659 68.9536 302.054 69.7322C302.459 70.5002 302.662 71.3962 302.662 72.4202H293.926V71.2522H302.038L301.174 71.7802C301.142 71.1082 300.982 70.5269 300.694 70.0362C300.406 69.5456 300.016 69.1669 299.526 68.9002C299.035 68.6336 298.464 68.5002 297.814 68.5002C297.11 68.5002 296.496 68.6442 295.974 68.9322C295.451 69.2096 295.04 69.6042 294.742 70.1162C294.454 70.6282 294.31 71.2309 294.31 71.9242C294.31 72.6496 294.475 73.2789 294.806 73.8122C295.136 74.3456 295.6 74.7562 296.198 75.0442C296.795 75.3322 297.499 75.4762 298.31 75.4762C299.046 75.4762 299.766 75.3536 300.47 75.1082C301.184 74.8629 301.824 74.5269 302.39 74.1002V75.2522C301.835 75.7002 301.174 76.0576 300.406 76.3242C299.638 76.5802 298.87 76.7082 298.102 76.7082ZM308.442 76.7082C307.546 76.7082 306.752 76.5856 306.058 76.3402C305.376 76.0842 304.837 75.7216 304.442 75.2522C304.048 74.7829 303.829 74.2282 303.786 73.5882H305.226C305.312 74.2069 305.632 74.6816 306.186 75.0122C306.752 75.3322 307.504 75.4922 308.442 75.4922C309.36 75.4922 310.074 75.3642 310.586 75.1082C311.109 74.8416 311.37 74.4309 311.37 73.8762C311.37 73.4176 311.157 73.0816 310.73 72.8682C310.314 72.6442 309.648 72.5322 308.73 72.5322H306.858V71.4282H308.682C309.504 71.4282 310.112 71.2896 310.506 71.0122C310.912 70.7349 311.114 70.3989 311.114 70.0042C311.114 69.5136 310.869 69.1402 310.378 68.8842C309.898 68.6176 309.269 68.4842 308.49 68.4842C307.637 68.4842 306.938 68.6336 306.394 68.9322C305.85 69.2202 305.53 69.6576 305.434 70.2442H303.994C304.058 69.6789 304.277 69.1722 304.65 68.7242C305.024 68.2762 305.541 67.9242 306.202 67.6682C306.864 67.4122 307.648 67.2842 308.554 67.2842C309.386 67.2842 310.106 67.3962 310.714 67.6202C311.322 67.8336 311.792 68.1322 312.122 68.5162C312.453 68.9002 312.618 69.3376 312.618 69.8282C312.618 70.2442 312.49 70.6229 312.234 70.9642C311.989 71.3056 311.61 71.5776 311.098 71.7802C310.597 71.9829 309.957 72.0842 309.178 72.0842V71.8122C310.341 71.7802 311.248 71.9509 311.898 72.3242C312.56 72.6976 312.89 73.2362 312.89 73.9402C312.89 74.4842 312.714 74.9642 312.362 75.3802C312.021 75.7962 311.52 76.1216 310.858 76.3562C310.197 76.5909 309.392 76.7082 308.442 76.7082ZM325.767 75.3002V78.8362H324.455V76.5002H314.855V78.8362H313.559V75.3002H315.527L315.959 75.3162H323.015L323.447 75.3002H325.767ZM315.639 67.4922H324.071V76.0682H322.599V68.0042L323.287 68.6762H316.423L317.047 68.1962C317.1 68.6762 317.137 69.1509 317.159 69.6202C317.18 70.0789 317.191 70.5109 317.191 70.9162C317.191 72.5162 316.999 73.7802 316.615 74.7082C316.241 75.6256 315.724 76.0842 315.063 76.0842L314.455 75.5562C315.351 74.8842 315.799 73.2469 315.799 70.6442C315.799 70.1429 315.783 69.6256 315.751 69.0922C315.729 68.5482 315.692 68.0149 315.639 67.4922ZM326.836 78.6122L328.004 76.0522L328.084 76.5802C327.881 76.5802 327.7 76.5376 327.54 76.4522C327.391 76.3562 327.268 76.2282 327.172 76.0682C327.087 75.9082 327.044 75.7376 327.044 75.5562C327.044 75.3642 327.087 75.1936 327.172 75.0442C327.268 74.8842 327.391 74.7616 327.54 74.6762C327.7 74.5802 327.876 74.5322 328.068 74.5322C328.281 74.5322 328.463 74.5802 328.612 74.6762C328.772 74.7722 328.895 74.9056 328.98 75.0762C329.076 75.2362 329.124 75.4176 329.124 75.6202C329.124 75.8336 329.081 76.0522 328.996 76.2762C328.921 76.5002 328.777 76.7989 328.564 77.1722L327.764 78.6122H326.836ZM92.7637 87.4922H94.2357V90.9002L94.1557 91.1882V92.6442L94.2357 93.1082V99.1402H92.7637V87.4922ZM93.5477 91.9882C93.7824 91.0496 94.1397 90.2282 94.6197 89.5242C95.1104 88.8202 95.697 88.2709 96.3797 87.8762C97.073 87.4816 97.8357 87.2842 98.6677 87.2842C99.553 87.2842 100.337 87.4816 101.02 87.8762C101.702 88.2709 102.236 88.8202 102.62 89.5242C103.014 90.2282 103.212 91.0496 103.212 91.9882C103.212 92.9162 103.014 93.7376 102.62 94.4522C102.236 95.1562 101.702 95.7109 101.02 96.1162C100.337 96.5109 99.553 96.7082 98.6677 96.7082C97.8357 96.7082 97.073 96.5109 96.3797 96.1162C95.697 95.7216 95.1104 95.1722 94.6197 94.4682C94.1397 93.7536 93.7824 92.9269 93.5477 91.9882ZM101.708 91.9882C101.708 91.3056 101.564 90.7029 101.276 90.1802C100.998 89.6576 100.609 89.2522 100.108 88.9642C99.617 88.6656 99.057 88.5162 98.4277 88.5162C97.7877 88.5162 97.1957 88.6656 96.6517 88.9642C96.1184 89.2522 95.6437 89.6576 95.2277 90.1802C94.8117 90.7029 94.465 91.3056 94.1877 91.9882C94.465 92.6709 94.8117 93.2736 95.2277 93.7962C95.6437 94.3189 96.1184 94.7296 96.6517 95.0282C97.1957 95.3162 97.7877 95.4602 98.4277 95.4602C99.057 95.4602 99.617 95.3162 100.108 95.0282C100.609 94.7296 100.998 94.3189 101.276 93.7962C101.564 93.2736 101.708 92.6709 101.708 91.9882ZM113.636 96.5002L113.316 93.0922L113.716 91.9882L113.316 90.9002L113.636 87.4922H115.14L114.724 91.9882L115.14 96.5002H113.636ZM114.212 91.9882C113.978 92.9269 113.615 93.7536 113.124 94.4682C112.644 95.1722 112.058 95.7216 111.364 96.1162C110.682 96.5109 109.924 96.7082 109.092 96.7082C108.207 96.7082 107.423 96.5109 106.74 96.1162C106.058 95.7109 105.519 95.1562 105.124 94.4522C104.74 93.7376 104.548 92.9162 104.548 91.9882C104.548 91.0496 104.74 90.2282 105.124 89.5242C105.519 88.8202 106.058 88.2709 106.74 87.8762C107.423 87.4816 108.207 87.2842 109.092 87.2842C109.924 87.2842 110.682 87.4816 111.364 87.8762C112.058 88.2709 112.65 88.8202 113.14 89.5242C113.631 90.2282 113.988 91.0496 114.212 91.9882ZM106.052 91.9882C106.052 92.6709 106.191 93.2736 106.468 93.7962C106.756 94.3189 107.146 94.7296 107.636 95.0282C108.138 95.3162 108.703 95.4602 109.332 95.4602C109.972 95.4602 110.559 95.3162 111.092 95.0282C111.636 94.7296 112.116 94.3189 112.532 93.7962C112.959 93.2736 113.306 92.6709 113.572 91.9882C113.306 91.3056 112.959 90.7029 112.532 90.1802C112.116 89.6576 111.636 89.2522 111.092 88.9642C110.559 88.6656 109.972 88.5162 109.332 88.5162C108.703 88.5162 108.138 88.6656 107.636 88.9642C107.146 89.2522 106.756 89.6576 106.468 90.1802C106.191 90.7029 106.052 91.3056 106.052 91.9882ZM126.91 93.0762C126.793 93.7909 126.499 94.4202 126.03 94.9642C125.571 95.5082 124.985 95.9349 124.27 96.2442C123.555 96.5536 122.766 96.7082 121.902 96.7082C120.899 96.7082 120.014 96.5109 119.246 96.1162C118.478 95.7109 117.875 95.1562 117.438 94.4522C117.011 93.7376 116.798 92.9162 116.798 91.9882C116.798 91.0602 117.011 90.2442 117.438 89.5402C117.875 88.8256 118.478 88.2709 119.246 87.8762C120.014 87.4816 120.899 87.2842 121.902 87.2842C122.766 87.2842 123.555 87.4389 124.27 87.7482C124.985 88.0469 125.571 88.4682 126.03 89.0122C126.499 89.5562 126.793 90.1909 126.91 90.9162H125.39C125.23 90.1696 124.83 89.5829 124.19 89.1562C123.561 88.7189 122.798 88.5002 121.902 88.5002C121.177 88.5002 120.542 88.6442 119.998 88.9322C119.465 89.2202 119.049 89.6256 118.75 90.1482C118.451 90.6602 118.302 91.2736 118.302 91.9882C118.302 92.7029 118.451 93.3216 118.75 93.8442C119.049 94.3669 119.465 94.7722 119.998 95.0602C120.542 95.3376 121.177 95.4762 121.902 95.4762C122.809 95.4762 123.577 95.2576 124.206 94.8202C124.846 94.3829 125.241 93.8016 125.39 93.0762H126.91ZM138.222 93.0762C138.105 93.7909 137.812 94.4202 137.342 94.9642C136.884 95.5082 136.297 95.9349 135.582 96.2442C134.868 96.5536 134.078 96.7082 133.214 96.7082C132.212 96.7082 131.326 96.5109 130.558 96.1162C129.79 95.7109 129.188 95.1562 128.75 94.4522C128.324 93.7376 128.11 92.9162 128.11 91.9882C128.11 91.0602 128.324 90.2442 128.75 89.5402C129.188 88.8256 129.79 88.2709 130.558 87.8762C131.326 87.4816 132.212 87.2842 133.214 87.2842C134.078 87.2842 134.868 87.4389 135.582 87.7482C136.297 88.0469 136.884 88.4682 137.342 89.0122C137.812 89.5562 138.105 90.1909 138.222 90.9162H136.702C136.542 90.1696 136.142 89.5829 135.502 89.1562C134.873 88.7189 134.11 88.5002 133.214 88.5002C132.489 88.5002 131.854 88.6442 131.31 88.9322C130.777 89.2202 130.361 89.6256 130.062 90.1482C129.764 90.6602 129.614 91.2736 129.614 91.9882C129.614 92.7029 129.764 93.3216 130.062 93.8442C130.361 94.3669 130.777 94.7722 131.31 95.0602C131.854 95.3376 132.489 95.4762 133.214 95.4762C134.121 95.4762 134.889 95.2576 135.518 94.8202C136.158 94.3829 136.553 93.8016 136.702 93.0762H138.222ZM142.441 87.9882H143.913V96.5002H142.441V87.9882ZM138.537 87.4922H147.817V88.6922H138.537V87.4922ZM157.324 96.5002L157.004 93.0922L157.404 91.9882L157.004 90.9002L157.324 87.4922H158.828L158.412 91.9882L158.828 96.5002H157.324ZM157.9 91.9882C157.665 92.9269 157.302 93.7536 156.812 94.4682C156.332 95.1722 155.745 95.7216 155.052 96.1162C154.369 96.5109 153.612 96.7082 152.78 96.7082C151.894 96.7082 151.11 96.5109 150.428 96.1162C149.745 95.7109 149.206 95.1562 148.812 94.4522C148.428 93.7376 148.236 92.9162 148.236 91.9882C148.236 91.0496 148.428 90.2282 148.812 89.5242C149.206 88.8202 149.745 88.2709 150.428 87.8762C151.11 87.4816 151.894 87.2842 152.78 87.2842C153.612 87.2842 154.369 87.4816 155.052 87.8762C155.745 88.2709 156.337 88.8202 156.828 89.5242C157.318 90.2282 157.676 91.0496 157.9 91.9882ZM149.74 91.9882C149.74 92.6709 149.878 93.2736 150.156 93.7962C150.444 94.3189 150.833 94.7296 151.324 95.0282C151.825 95.3162 152.39 95.4602 153.02 95.4602C153.66 95.4602 154.246 95.3162 154.78 95.0282C155.324 94.7296 155.804 94.3189 156.22 93.7962C156.646 93.2736 156.993 92.6709 157.26 91.9882C156.993 91.3056 156.646 90.7029 156.22 90.1802C155.804 89.6576 155.324 89.2522 154.78 88.9642C154.246 88.6656 153.66 88.5162 153.02 88.5162C152.39 88.5162 151.825 88.6656 151.324 88.9642C150.833 89.2522 150.444 89.6576 150.156 90.1802C149.878 90.7029 149.74 91.3056 149.74 91.9882ZM160.837 96.5002L161.253 91.9882L160.837 87.4922H166.949C167.824 87.4922 168.501 87.6949 168.981 88.1002C169.472 88.4949 169.717 89.0549 169.717 89.7802C169.717 90.4416 169.472 90.9696 168.981 91.3642C168.501 91.7482 167.835 91.9722 166.981 92.0362L167.125 91.7322C168.149 91.7429 168.933 91.9509 169.477 92.3562C170.021 92.7509 170.293 93.3162 170.293 94.0522C170.293 94.8202 170.016 95.4229 169.461 95.8602C168.917 96.2869 168.155 96.5002 167.173 96.5002H160.837ZM162.277 96.0682L161.717 95.3802H166.933C167.563 95.3802 168.027 95.2576 168.325 95.0122C168.635 94.7669 168.789 94.4149 168.789 93.9562C168.789 93.4869 168.603 93.1189 168.229 92.8522C167.867 92.5856 167.296 92.4522 166.517 92.4522H162.069V91.3962H166.421C167.008 91.3962 167.451 91.2629 167.749 90.9962C168.059 90.7296 168.213 90.3776 168.213 89.9402C168.213 89.5242 168.075 89.1989 167.797 88.9642C167.531 88.7189 167.115 88.5962 166.549 88.5962H161.733L162.277 87.9242L162.677 91.9882L162.277 96.0682ZM180.699 96.5002L180.379 93.0922L180.779 91.9882L180.379 90.9002L180.699 87.4922H182.203L181.787 91.9882L182.203 96.5002H180.699ZM181.275 91.9882C181.04 92.9269 180.677 93.7536 180.187 94.4682C179.707 95.1722 179.12 95.7216 178.427 96.1162C177.744 96.5109 176.987 96.7082 176.155 96.7082C175.269 96.7082 174.485 96.5109 173.803 96.1162C173.12 95.7109 172.581 95.1562 172.187 94.4522C171.803 93.7376 171.611 92.9162 171.611 91.9882C171.611 91.0496 171.803 90.2282 172.187 89.5242C172.581 88.8202 173.12 88.2709 173.803 87.8762C174.485 87.4816 175.269 87.2842 176.155 87.2842C176.987 87.2842 177.744 87.4816 178.427 87.8762C179.12 88.2709 179.712 88.8202 180.203 89.5242C180.693 90.2282 181.051 91.0496 181.275 91.9882ZM173.115 91.9882C173.115 92.6709 173.253 93.2736 173.531 93.7962C173.819 94.3189 174.208 94.7296 174.699 95.0282C175.2 95.3162 175.765 95.4602 176.395 95.4602C177.035 95.4602 177.621 95.3162 178.155 95.0282C178.699 94.7296 179.179 94.3189 179.595 93.7962C180.021 93.2736 180.368 92.6709 180.635 91.9882C180.368 91.3056 180.021 90.7029 179.595 90.1802C179.179 89.6576 178.699 89.2522 178.155 88.9642C177.621 88.6656 177.035 88.5162 176.395 88.5162C175.765 88.5162 175.2 88.6656 174.699 88.9642C174.208 89.2522 173.819 89.6576 173.531 90.1802C173.253 90.7029 173.115 91.3056 173.115 91.9882ZM184.404 87.4922H185.86V96.5002H184.404V87.4922ZM192.148 87.4922H193.62V96.5002H192.148V87.4922ZM185.22 91.3482H192.836V92.5482H185.22V91.3482ZM195.998 96.5002V87.4922H197.454V95.8282L196.894 95.7482L203.79 87.4922H205.694V96.5002H204.238V88.0842L204.814 88.1802L197.87 96.5002H195.998ZM212.844 96.7082C211.809 96.7082 210.892 96.5109 210.092 96.1162C209.303 95.7109 208.679 95.1562 208.22 94.4522C207.772 93.7376 207.548 92.9162 207.548 91.9882C207.548 91.0496 207.761 90.2282 208.188 89.5242C208.615 88.8202 209.207 88.2709 209.964 87.8762C210.721 87.4816 211.591 87.2842 212.572 87.2842C213.543 87.2842 214.391 87.4976 215.116 87.9242C215.841 88.3509 216.401 88.9536 216.796 89.7322C217.201 90.5002 217.404 91.3962 217.404 92.4202H208.668V91.2522H216.78L215.916 91.7802C215.884 91.1082 215.724 90.5269 215.436 90.0362C215.148 89.5456 214.759 89.1669 214.268 88.9002C213.777 88.6336 213.207 88.5002 212.556 88.5002C211.852 88.5002 211.239 88.6442 210.716 88.9322C210.193 89.2096 209.783 89.6042 209.484 90.1162C209.196 90.6282 209.052 91.2309 209.052 91.9242C209.052 92.6496 209.217 93.2789 209.548 93.8122C209.879 94.3456 210.343 94.7562 210.94 95.0442C211.537 95.3322 212.241 95.4762 213.052 95.4762C213.788 95.4762 214.508 95.3536 215.212 95.1082C215.927 94.8629 216.567 94.5269 217.132 94.1002V95.2522C216.577 95.7002 215.916 96.0576 215.148 96.3242C214.38 96.5802 213.612 96.7082 212.844 96.7082ZM218.656 98.6122L219.824 96.0522L219.904 96.5802C219.702 96.5802 219.52 96.5376 219.36 96.4522C219.211 96.3562 219.088 96.2282 218.992 96.0682C218.907 95.9082 218.864 95.7376 218.864 95.5562C218.864 95.3642 218.907 95.1936 218.992 95.0442C219.088 94.8842 219.211 94.7616 219.36 94.6762C219.52 94.5802 219.696 94.5322 219.888 94.5322C220.102 94.5322 220.283 94.5802 220.432 94.6762C220.592 94.7722 220.715 94.9056 220.8 95.0762C220.896 95.2362 220.944 95.4176 220.944 95.6202C220.944 95.8336 220.902 96.0522 220.816 96.2762C220.742 96.5002 220.598 96.7989 220.384 97.1722L219.584 98.6122H218.656ZM226.811 87.4922H228.283V90.9002L228.203 91.1882V92.6442L228.283 93.1082V99.1402H226.811V87.4922ZM227.595 91.9882C227.829 91.0496 228.187 90.2282 228.667 89.5242C229.157 88.8202 229.744 88.2709 230.427 87.8762C231.12 87.4816 231.883 87.2842 232.715 87.2842C233.6 87.2842 234.384 87.4816 235.067 87.8762C235.749 88.2709 236.283 88.8202 236.667 89.5242C237.061 90.2282 237.259 91.0496 237.259 91.9882C237.259 92.9162 237.061 93.7376 236.667 94.4522C236.283 95.1562 235.749 95.7109 235.067 96.1162C234.384 96.5109 233.6 96.7082 232.715 96.7082C231.883 96.7082 231.12 96.5109 230.427 96.1162C229.744 95.7216 229.157 95.1722 228.667 94.4682C228.187 93.7536 227.829 92.9269 227.595 91.9882ZM235.755 91.9882C235.755 91.3056 235.611 90.7029 235.323 90.1802C235.045 89.6576 234.656 89.2522 234.155 88.9642C233.664 88.6656 233.104 88.5162 232.475 88.5162C231.835 88.5162 231.243 88.6656 230.699 88.9642C230.165 89.2522 229.691 89.6576 229.275 90.1802C228.859 90.7029 228.512 91.3056 228.235 91.9882C228.512 92.6709 228.859 93.2736 229.275 93.7962C229.691 94.3189 230.165 94.7296 230.699 95.0282C231.243 95.3162 231.835 95.4602 232.475 95.4602C233.104 95.4602 233.664 95.3162 234.155 95.0282C234.656 94.7296 235.045 94.3189 235.323 93.7962C235.611 93.2736 235.755 92.6709 235.755 91.9882ZM247.683 96.5002L247.363 93.0922L247.763 91.9882L247.363 90.9002L247.683 87.4922H249.187L248.771 91.9882L249.187 96.5002H247.683ZM248.259 91.9882C248.024 92.9269 247.662 93.7536 247.171 94.4682C246.691 95.1722 246.104 95.7216 245.411 96.1162C244.728 96.5109 243.971 96.7082 243.139 96.7082C242.254 96.7082 241.47 96.5109 240.787 96.1162C240.104 95.7109 239.566 95.1562 239.171 94.4522C238.787 93.7376 238.595 92.9162 238.595 91.9882C238.595 91.0496 238.787 90.2282 239.171 89.5242C239.566 88.8202 240.104 88.2709 240.787 87.8762C241.47 87.4816 242.254 87.2842 243.139 87.2842C243.971 87.2842 244.728 87.4816 245.411 87.8762C246.104 88.2709 246.696 88.8202 247.187 89.5242C247.678 90.2282 248.035 91.0496 248.259 91.9882ZM240.099 91.9882C240.099 92.6709 240.238 93.2736 240.515 93.7962C240.803 94.3189 241.192 94.7296 241.683 95.0282C242.184 95.3162 242.75 95.4602 243.379 95.4602C244.019 95.4602 244.606 95.3162 245.139 95.0282C245.683 94.7296 246.163 94.3189 246.579 93.7962C247.006 93.2736 247.352 92.6709 247.619 91.9882C247.352 91.3056 247.006 90.7029 246.579 90.1802C246.163 89.6576 245.683 89.2522 245.139 88.9642C244.606 88.6656 244.019 88.5162 243.379 88.5162C242.75 88.5162 242.184 88.6656 241.683 88.9642C241.192 89.2522 240.803 89.6576 240.515 90.1802C240.238 90.7029 240.099 91.3056 240.099 91.9882ZM255.341 96.7082C254.445 96.7082 253.65 96.5856 252.957 96.3402C252.274 96.0842 251.735 95.7216 251.341 95.2522C250.946 94.7829 250.727 94.2282 250.685 93.5882H252.125C252.21 94.2069 252.53 94.6816 253.085 95.0122C253.65 95.3322 254.402 95.4922 255.341 95.4922C256.258 95.4922 256.973 95.3642 257.485 95.1082C258.007 94.8416 258.269 94.4309 258.269 93.8762C258.269 93.4176 258.055 93.0816 257.629 92.8682C257.213 92.6442 256.546 92.5322 255.629 92.5322H253.757V91.4282H255.581C256.402 91.4282 257.01 91.2896 257.405 91.0122C257.81 90.7349 258.013 90.3989 258.013 90.0042C258.013 89.5136 257.767 89.1402 257.277 88.8842C256.797 88.6176 256.167 88.4842 255.389 88.4842C254.535 88.4842 253.837 88.6336 253.293 88.9322C252.749 89.2202 252.429 89.6576 252.333 90.2442H250.893C250.957 89.6789 251.175 89.1722 251.549 88.7242C251.922 88.2762 252.439 87.9242 253.101 87.6682C253.762 87.4122 254.546 87.2842 255.453 87.2842C256.285 87.2842 257.005 87.3962 257.613 87.6202C258.221 87.8336 258.69 88.1322 259.021 88.5162C259.351 88.9002 259.517 89.3376 259.517 89.8282C259.517 90.2442 259.389 90.6229 259.133 90.9642C258.887 91.3056 258.509 91.5776 257.997 91.7802C257.495 91.9829 256.855 92.0842 256.077 92.0842V91.8122C257.239 91.7802 258.146 91.9509 258.797 92.3242C259.458 92.6976 259.789 93.2362 259.789 93.9402C259.789 94.4842 259.613 94.9642 259.261 95.3802C258.919 95.7962 258.418 96.1216 257.757 96.3562C257.095 96.5909 256.29 96.7082 255.341 96.7082ZM261.462 96.5002L261.878 91.9882L261.462 87.4922H267.574C268.449 87.4922 269.126 87.6949 269.606 88.1002C270.097 88.4949 270.342 89.0549 270.342 89.7802C270.342 90.4416 270.097 90.9696 269.606 91.3642C269.126 91.7482 268.46 91.9722 267.606 92.0362L267.75 91.7322C268.774 91.7429 269.558 91.9509 270.102 92.3562C270.646 92.7509 270.918 93.3162 270.918 94.0522C270.918 94.8202 270.641 95.4229 270.086 95.8602C269.542 96.2869 268.78 96.5002 267.798 96.5002H261.462ZM262.902 96.0682L262.342 95.3802H267.558C268.188 95.3802 268.652 95.2576 268.95 95.0122C269.26 94.7669 269.414 94.4149 269.414 93.9562C269.414 93.4869 269.228 93.1189 268.854 92.8522C268.492 92.5856 267.921 92.4522 267.142 92.4522H262.694V91.3962H267.046C267.633 91.3962 268.076 91.2629 268.374 90.9962C268.684 90.7296 268.838 90.3776 268.838 89.9402C268.838 89.5242 268.7 89.1989 268.422 88.9642C268.156 88.7189 267.74 88.5962 267.174 88.5962H262.358L262.902 87.9242L263.302 91.9882L262.902 96.0682ZM277.564 96.7082C276.508 96.7082 275.574 96.5109 274.764 96.1162C273.964 95.7216 273.34 95.1669 272.892 94.4522C272.444 93.7376 272.22 92.9162 272.22 91.9882C272.22 91.0496 272.444 90.2282 272.892 89.5242C273.34 88.8202 273.964 88.2709 274.764 87.8762C275.574 87.4816 276.508 87.2842 277.564 87.2842C278.63 87.2842 279.564 87.4816 280.364 87.8762C281.164 88.2709 281.788 88.8202 282.236 89.5242C282.694 90.2282 282.924 91.0496 282.924 91.9882C282.924 92.9162 282.694 93.7376 282.236 94.4522C281.788 95.1669 281.164 95.7216 280.364 96.1162C279.564 96.5109 278.63 96.7082 277.564 96.7082ZM277.564 95.4762C278.353 95.4762 279.036 95.3376 279.612 95.0602C280.188 94.7722 280.63 94.3669 280.94 93.8442C281.26 93.3216 281.42 92.7029 281.42 91.9882C281.42 91.2842 281.26 90.6709 280.94 90.1482C280.63 89.6256 280.188 89.2202 279.612 88.9322C279.036 88.6442 278.353 88.5002 277.564 88.5002C276.785 88.5002 276.102 88.6442 275.516 88.9322C274.94 89.2202 274.497 89.6256 274.188 90.1482C273.878 90.6709 273.724 91.2842 273.724 91.9882C273.724 92.7029 273.878 93.3216 274.188 93.8442C274.497 94.3669 274.94 94.7722 275.516 95.0602C276.102 95.3376 276.785 95.4762 277.564 95.4762ZM295.509 95.3002V98.8362H294.197V96.5002H284.597V98.8362H283.301V95.3002H285.269L285.701 95.3162H292.757L293.189 95.3002H295.509ZM285.381 87.4922H293.813V96.0682H292.341V88.0042L293.029 88.6762H286.165L286.789 88.1962C286.842 88.6762 286.879 89.1509 286.901 89.6202C286.922 90.0789 286.933 90.5109 286.933 90.9162C286.933 92.5162 286.741 93.7802 286.357 94.7082C285.983 95.6256 285.466 96.0842 284.805 96.0842L284.197 95.5562C285.093 94.8842 285.541 93.2469 285.541 90.6442C285.541 90.1429 285.525 89.6256 285.493 89.0922C285.471 88.5482 285.434 88.0149 285.381 87.4922Z" fill="black"/>
<path d="M158.699 67.6522V76.5002H155.643V69.9242H153.355V76.5002H150.299V67.6522H158.699ZM164.799 67.4922C165.663 67.4922 166.404 67.6416 167.023 67.9402C167.652 68.2389 168.132 68.6869 168.463 69.2842C168.804 69.8816 168.975 70.6336 168.975 71.5402V72.9002H163.519C163.54 73.3589 163.711 73.7376 164.031 74.0362C164.362 74.3349 164.836 74.4842 165.455 74.4842C166.01 74.4842 166.516 74.4309 166.975 74.3242C167.434 74.2176 167.908 74.0469 168.399 73.8122V76.0042C167.972 76.2282 167.503 76.3936 166.991 76.5002C166.49 76.6069 165.855 76.6602 165.087 76.6602C164.191 76.6602 163.391 76.5056 162.687 76.1962C161.994 75.8762 161.444 75.3802 161.039 74.7082C160.634 74.0362 160.431 73.1776 160.431 72.1322C160.431 71.0656 160.612 70.1909 160.975 69.5082C161.348 68.8256 161.86 68.3189 162.511 67.9882C163.172 67.6576 163.935 67.4922 164.799 67.4922ZM164.911 69.5722C164.548 69.5722 164.244 69.6842 163.999 69.9082C163.764 70.1322 163.626 70.4896 163.583 70.9802H166.207C166.207 70.7136 166.154 70.4789 166.047 70.2762C165.951 70.0629 165.807 69.8922 165.615 69.7642C165.423 69.6362 165.188 69.5722 164.911 69.5722ZM176.114 67.4922C177.095 67.4922 177.863 67.8869 178.418 68.6762C178.972 69.4549 179.25 70.5802 179.25 72.0522C179.25 73.0549 179.106 73.9029 178.818 74.5962C178.54 75.2789 178.156 75.7962 177.666 76.1482C177.186 76.4896 176.636 76.6602 176.018 76.6602C175.602 76.6602 175.25 76.6069 174.962 76.5002C174.674 76.3936 174.434 76.2656 174.242 76.1162C174.05 75.9562 173.89 75.7962 173.762 75.6362H173.666C173.687 75.8389 173.708 76.0576 173.73 76.2922C173.751 76.5269 173.762 76.7989 173.762 77.1082V80.3402H170.706V67.6522H173.186L173.618 68.7722H173.762C173.911 68.5376 174.087 68.3242 174.29 68.1322C174.503 67.9402 174.759 67.7856 175.058 67.6682C175.356 67.5509 175.708 67.4922 176.114 67.4922ZM174.962 69.8922C174.663 69.8922 174.428 69.9669 174.258 70.1162C174.087 70.2549 173.964 70.4629 173.89 70.7402C173.815 71.0176 173.772 71.3696 173.762 71.7962V72.0362C173.762 72.5056 173.794 72.9002 173.858 73.2202C173.932 73.5402 174.06 73.7856 174.242 73.9562C174.423 74.1162 174.668 74.1962 174.978 74.1962C175.234 74.1962 175.447 74.1269 175.618 73.9882C175.799 73.8389 175.932 73.6042 176.018 73.2842C176.103 72.9642 176.146 72.5429 176.146 72.0202C176.146 71.2416 176.044 70.6922 175.842 70.3722C175.639 70.0522 175.346 69.8922 174.962 69.8922ZM184.971 67.4922C185.835 67.4922 186.576 67.6416 187.195 67.9402C187.824 68.2389 188.304 68.6869 188.635 69.2842C188.976 69.8816 189.147 70.6336 189.147 71.5402V72.9002H183.691C183.712 73.3589 183.883 73.7376 184.203 74.0362C184.534 74.3349 185.008 74.4842 185.627 74.4842C186.182 74.4842 186.688 74.4309 187.147 74.3242C187.606 74.2176 188.08 74.0469 188.571 73.8122V76.0042C188.144 76.2282 187.675 76.3936 187.163 76.5002C186.662 76.6069 186.027 76.6602 185.259 76.6602C184.363 76.6602 183.563 76.5056 182.859 76.1962C182.166 75.8762 181.616 75.3802 181.211 74.7082C180.806 74.0362 180.603 73.1776 180.603 72.1322C180.603 71.0656 180.784 70.1909 181.147 69.5082C181.52 68.8256 182.032 68.3189 182.683 67.9882C183.344 67.6576 184.107 67.4922 184.971 67.4922ZM185.083 69.5722C184.72 69.5722 184.416 69.6842 184.171 69.9082C183.936 70.1322 183.798 70.4896 183.755 70.9802H186.379C186.379 70.7136 186.326 70.4789 186.219 70.2762C186.123 70.0629 185.979 69.8922 185.787 69.7642C185.595 69.6362 185.36 69.5722 185.083 69.5722ZM202.51 67.6522V76.5002H199.79V72.2122C199.79 71.7856 199.795 71.3696 199.806 70.9642C199.827 70.5589 199.854 70.1856 199.886 69.8442H199.838L197.742 76.5002H195.662L193.566 69.8282H193.518C193.55 70.1802 193.571 70.5589 193.582 70.9642C193.603 71.3589 193.614 71.7962 193.614 72.2762V76.5002H190.894V67.6522H195.054L196.718 73.0122L198.414 67.6522H202.51ZM208.612 67.4922C209.476 67.4922 210.217 67.6416 210.836 67.9402C211.465 68.2389 211.945 68.6869 212.276 69.2842C212.617 69.8816 212.788 70.6336 212.788 71.5402V72.9002H207.332C207.353 73.3589 207.524 73.7376 207.844 74.0362C208.174 74.3349 208.649 74.4842 209.268 74.4842C209.822 74.4842 210.329 74.4309 210.788 74.3242C211.246 74.2176 211.721 74.0469 212.212 73.8122V76.0042C211.785 76.2282 211.316 76.3936 210.804 76.5002C210.302 76.6069 209.668 76.6602 208.9 76.6602C208.004 76.6602 207.204 76.5056 206.5 76.1962C205.806 75.8762 205.257 75.3802 204.852 74.7082C204.446 74.0362 204.244 73.1776 204.244 72.1322C204.244 71.0656 204.425 70.1909 204.788 69.5082C205.161 68.8256 205.673 68.3189 206.324 67.9882C206.985 67.6576 207.748 67.4922 208.612 67.4922ZM208.724 69.5722C208.361 69.5722 208.057 69.6842 207.812 69.9082C207.577 70.1322 207.438 70.4896 207.396 70.9802H210.02C210.02 70.7136 209.966 70.4789 209.86 70.2762C209.764 70.0629 209.62 69.8922 209.428 69.7642C209.236 69.6362 209.001 69.5722 208.724 69.5722ZM217.574 67.6522V70.8362H219.99V67.6522H223.046V76.5002H219.99V73.1082H217.574V76.5002H214.518V67.6522H217.574ZM225.159 76.5002V67.6522H228.215V70.8362H229.223C230.151 70.8362 230.881 70.9429 231.415 71.1562C231.948 71.3696 232.321 71.6789 232.535 72.0842C232.759 72.4896 232.871 72.9802 232.871 73.5562C232.871 74.1429 232.748 74.6602 232.503 75.1082C232.257 75.5456 231.841 75.8869 231.255 76.1322C230.679 76.3776 229.884 76.5002 228.871 76.5002H225.159ZM228.727 74.5002C229.1 74.5002 229.372 74.4309 229.543 74.2922C229.724 74.1536 229.815 73.9562 229.815 73.7002C229.815 73.4229 229.74 73.2096 229.591 73.0602C229.441 72.9109 229.143 72.8362 228.695 72.8362H228.215V74.5002H228.727ZM233.847 76.5002V67.6522H236.903V76.5002H233.847ZM239.226 75.8922C239.226 75.6256 239.285 75.4282 239.402 75.3002C239.519 75.1722 239.685 75.1082 239.898 75.1082C240.133 75.1082 240.309 75.1722 240.426 75.3002C240.554 75.4282 240.618 75.6256 240.618 75.8922C240.618 76.1482 240.554 76.3456 240.426 76.4842C240.309 76.6122 240.133 76.6762 239.898 76.6762C239.685 76.6762 239.519 76.6122 239.402 76.4842C239.285 76.3456 239.226 76.1482 239.226 75.8922ZM239.226 68.6282C239.226 68.3722 239.285 68.1802 239.402 68.0522C239.519 67.9136 239.685 67.8442 239.898 67.8442C240.133 67.8442 240.309 67.9136 240.426 68.0522C240.554 68.1802 240.618 68.3722 240.618 68.6282C240.618 68.8949 240.554 69.0976 240.426 69.2362C240.309 69.3642 240.133 69.4282 239.898 69.4282C239.685 69.4282 239.519 69.3642 239.402 69.2362C239.285 69.0976 239.226 68.8949 239.226 68.6282Z" fill="white"/>
</svg>
