<svg width="408" height="264" viewBox="0 0 408 264" fill="none" xmlns="http://www.w3.org/2000/svg">
<path d="M81.1232 112L81.2992 111.616C82.2699 111.627 83.0539 111.776 83.6512 112.064C84.2486 112.341 84.6859 112.72 84.9632 113.2C85.2406 113.669 85.3792 114.192 85.3792 114.768C85.3792 115.397 85.2246 115.957 84.9152 116.448C84.6166 116.928 84.1739 117.307 83.5872 117.584C83.0006 117.861 82.2752 118 81.4112 118H73.8432L74.7872 111.84L73.8432 106H81.1392C82.2486 106 83.0966 106.261 83.6832 106.784C84.2806 107.296 84.5792 108 84.5792 108.896C84.5792 109.365 84.4619 109.829 84.2272 110.288C84.0032 110.736 83.6406 111.12 83.1392 111.44C82.6379 111.749 81.9659 111.936 81.1232 112ZM75.3792 117.504L74.8032 116.752H81.3312C82.1206 116.752 82.7339 116.576 83.1712 116.224C83.6192 115.861 83.8432 115.344 83.8432 114.672C83.8432 113.957 83.5819 113.408 83.0592 113.024C82.5366 112.64 81.7632 112.448 80.7392 112.448H75.5552V111.232H80.6592C81.3419 111.232 81.9072 111.045 82.3552 110.672C82.8139 110.299 83.0432 109.755 83.0432 109.04C83.0432 108.517 82.8566 108.091 82.4832 107.76C82.1206 107.419 81.5819 107.248 80.8672 107.248H74.8032L75.3792 106.496L76.2432 111.84L75.3792 117.504ZM97.1245 108.992H98.5965V118H97.1245V108.992ZM87.2845 118V108.992H88.7565V117.536L88.1645 116.832H92.3725C93.0125 116.832 93.5191 116.672 93.8925 116.352C94.2658 116.021 94.4525 115.579 94.4525 115.024C94.4525 114.459 94.2658 114.016 93.8925 113.696C93.5191 113.365 93.0125 113.2 92.3725 113.2H88.2765V112.064H92.5005C93.1938 112.064 93.7965 112.187 94.3085 112.432C94.8311 112.677 95.2365 113.024 95.5245 113.472C95.8125 113.92 95.9565 114.437 95.9565 115.024C95.9565 115.621 95.8125 116.144 95.5245 116.592C95.2365 117.04 94.8311 117.387 94.3085 117.632C93.7965 117.877 93.1938 118 92.5005 118H87.2845ZM110.556 114.576C110.438 115.291 110.145 115.92 109.676 116.464C109.217 117.008 108.63 117.435 107.916 117.744C107.201 118.053 106.412 118.208 105.548 118.208C104.545 118.208 103.66 118.011 102.892 117.616C102.124 117.211 101.521 116.656 101.084 115.952C100.657 115.237 100.444 114.416 100.444 113.488C100.444 112.56 100.657 111.744 101.084 111.04C101.521 110.325 102.124 109.771 102.892 109.376C103.66 108.981 104.545 108.784 105.548 108.784C106.412 108.784 107.201 108.939 107.916 109.248C108.63 109.547 109.217 109.968 109.676 110.512C110.145 111.056 110.438 111.691 110.556 112.416H109.036C108.876 111.669 108.476 111.083 107.836 110.656C107.206 110.219 106.444 110 105.548 110C104.822 110 104.188 110.144 103.644 110.432C103.11 110.72 102.694 111.125 102.396 111.648C102.097 112.16 101.948 112.773 101.948 113.488C101.948 114.203 102.097 114.821 102.396 115.344C102.694 115.867 103.11 116.272 103.644 116.56C104.188 116.837 104.822 116.976 105.548 116.976C106.454 116.976 107.222 116.757 107.852 116.32C108.492 115.883 108.886 115.301 109.036 114.576H110.556ZM114.775 109.488H116.247V118H114.775V109.488ZM110.871 108.992H120.151V110.192H110.871V108.992ZM121.55 108.992H123.022V112.4L122.942 112.688V114.144L123.022 114.608V120.64H121.55V108.992ZM122.334 113.488C122.569 112.549 122.926 111.728 123.406 111.024C123.897 110.32 124.483 109.771 125.166 109.376C125.859 108.981 126.622 108.784 127.454 108.784C128.339 108.784 129.123 108.981 129.806 109.376C130.489 109.771 131.022 110.32 131.406 111.024C131.801 111.728 131.998 112.549 131.998 113.488C131.998 114.416 131.801 115.237 131.406 115.952C131.022 116.656 130.489 117.211 129.806 117.616C129.123 118.011 128.339 118.208 127.454 118.208C126.622 118.208 125.859 118.011 125.166 117.616C124.483 117.221 123.897 116.672 123.406 115.968C122.926 115.253 122.569 114.427 122.334 113.488ZM130.494 113.488C130.494 112.805 130.35 112.203 130.062 111.68C129.785 111.157 129.395 110.752 128.894 110.464C128.403 110.165 127.843 110.016 127.214 110.016C126.574 110.016 125.982 110.165 125.438 110.464C124.905 110.752 124.43 111.157 124.014 111.68C123.598 112.203 123.251 112.805 122.974 113.488C123.251 114.171 123.598 114.773 124.014 115.296C124.43 115.819 124.905 116.229 125.438 116.528C125.982 116.816 126.574 116.96 127.214 116.96C127.843 116.96 128.403 116.816 128.894 116.528C129.395 116.229 129.785 115.819 130.062 115.296C130.35 114.773 130.494 114.171 130.494 113.488ZM142.423 118L142.103 114.592L142.503 113.488L142.103 112.4L142.423 108.992H143.927L143.511 113.488L143.927 118H142.423ZM142.999 113.488C142.764 114.427 142.401 115.253 141.911 115.968C141.431 116.672 140.844 117.221 140.151 117.616C139.468 118.011 138.711 118.208 137.879 118.208C136.993 118.208 136.209 118.011 135.527 117.616C134.844 117.211 134.305 116.656 133.911 115.952C133.527 115.237 133.335 114.416 133.335 113.488C133.335 112.549 133.527 111.728 133.911 111.024C134.305 110.32 134.844 109.771 135.527 109.376C136.209 108.981 136.993 108.784 137.879 108.784C138.711 108.784 139.468 108.981 140.151 109.376C140.844 109.771 141.436 110.32 141.927 111.024C142.417 111.728 142.775 112.549 142.999 113.488ZM134.839 113.488C134.839 114.171 134.977 114.773 135.255 115.296C135.543 115.819 135.932 116.229 136.423 116.528C136.924 116.816 137.489 116.96 138.119 116.96C138.759 116.96 139.345 116.816 139.879 116.528C140.423 116.229 140.903 115.819 141.319 115.296C141.745 114.773 142.092 114.171 142.359 113.488C142.092 112.805 141.745 112.203 141.319 111.68C140.903 111.157 140.423 110.752 139.879 110.464C139.345 110.165 138.759 110.016 138.119 110.016C137.489 110.016 136.924 110.165 136.423 110.464C135.932 110.752 135.543 111.157 135.255 111.68C134.977 112.203 134.839 112.805 134.839 113.488ZM146.128 118V108.992H147.584V117.328L147.024 117.248L153.92 108.992H155.824V118H154.368V109.584L154.944 109.68L148 118H146.128ZM158.03 118L158.446 113.488L158.03 108.992H164.142C165.017 108.992 165.694 109.195 166.174 109.6C166.665 109.995 166.91 110.555 166.91 111.28C166.91 111.941 166.665 112.469 166.174 112.864C165.694 113.248 165.027 113.472 164.174 113.536L164.318 113.232C165.342 113.243 166.126 113.451 166.67 113.856C167.214 114.251 167.486 114.816 167.486 115.552C167.486 116.32 167.209 116.923 166.654 117.36C166.11 117.787 165.347 118 164.366 118H158.03ZM159.47 117.568L158.91 116.88H164.126C164.755 116.88 165.219 116.757 165.518 116.512C165.827 116.267 165.982 115.915 165.982 115.456C165.982 114.987 165.795 114.619 165.422 114.352C165.059 114.085 164.489 113.952 163.71 113.952H159.262V112.896H163.614C164.201 112.896 164.643 112.763 164.942 112.496C165.251 112.229 165.406 111.877 165.406 111.44C165.406 111.024 165.267 110.699 164.99 110.464C164.723 110.219 164.307 110.096 163.742 110.096H158.926L159.47 109.424L159.87 113.488L159.47 117.568ZM177.891 118L177.571 114.592L177.971 113.488L177.571 112.4L177.891 108.992H179.395L178.979 113.488L179.395 118H177.891ZM178.467 113.488C178.233 114.427 177.87 115.253 177.379 115.968C176.899 116.672 176.313 117.221 175.619 117.616C174.937 118.011 174.179 118.208 173.347 118.208C172.462 118.208 171.678 118.011 170.995 117.616C170.313 117.211 169.774 116.656 169.379 115.952C168.995 115.237 168.803 114.416 168.803 113.488C168.803 112.549 168.995 111.728 169.379 111.024C169.774 110.32 170.313 109.771 170.995 109.376C171.678 108.981 172.462 108.784 173.347 108.784C174.179 108.784 174.937 108.981 175.619 109.376C176.313 109.771 176.905 110.32 177.395 111.024C177.886 111.728 178.243 112.549 178.467 113.488ZM170.307 113.488C170.307 114.171 170.446 114.773 170.723 115.296C171.011 115.819 171.401 116.229 171.891 116.528C172.393 116.816 172.958 116.96 173.587 116.96C174.227 116.96 174.814 116.816 175.347 116.528C175.891 116.229 176.371 115.819 176.787 115.296C177.214 114.773 177.561 114.171 177.827 113.488C177.561 112.805 177.214 112.203 176.787 111.68C176.371 111.157 175.891 110.752 175.347 110.464C174.814 110.165 174.227 110.016 173.587 110.016C172.958 110.016 172.393 110.165 171.891 110.464C171.401 110.752 171.011 111.157 170.723 111.68C170.446 112.203 170.307 112.805 170.307 113.488ZM184.509 109.488H185.981V118H184.509V109.488ZM180.605 108.992H189.885V110.192H180.605V108.992ZM191.284 118V108.992H192.756V117.536L192.164 116.832H196.372C197.012 116.832 197.519 116.672 197.892 116.352C198.266 116.021 198.452 115.579 198.452 115.024C198.452 114.459 198.266 114.016 197.892 113.696C197.519 113.365 197.012 113.2 196.372 113.2H192.276V112.064H196.5C197.194 112.064 197.796 112.187 198.308 112.432C198.831 112.677 199.236 113.024 199.524 113.472C199.812 113.92 199.956 114.437 199.956 115.024C199.956 115.621 199.812 116.144 199.524 116.592C199.236 117.04 198.831 117.387 198.308 117.632C197.796 117.877 197.194 118 196.5 118H191.284ZM212.271 108.992V110.192H206.303L206.991 109.52V118H205.519V108.992H212.271ZM221.751 118L221.431 114.592L221.831 113.488L221.431 112.4L221.751 108.992H223.255L222.839 113.488L223.255 118H221.751ZM222.327 113.488C222.092 114.427 221.729 115.253 221.239 115.968C220.759 116.672 220.172 117.221 219.479 117.616C218.796 118.011 218.039 118.208 217.207 118.208C216.321 118.208 215.537 118.011 214.855 117.616C214.172 117.211 213.633 116.656 213.239 115.952C212.855 115.237 212.663 114.416 212.663 113.488C212.663 112.549 212.855 111.728 213.239 111.024C213.633 110.32 214.172 109.771 214.855 109.376C215.537 108.981 216.321 108.784 217.207 108.784C218.039 108.784 218.796 108.981 219.479 109.376C220.172 109.771 220.764 110.32 221.255 111.024C221.745 111.728 222.103 112.549 222.327 113.488ZM214.167 113.488C214.167 114.171 214.305 114.773 214.583 115.296C214.871 115.819 215.26 116.229 215.751 116.528C216.252 116.816 216.817 116.96 217.447 116.96C218.087 116.96 218.673 116.816 219.207 116.528C219.751 116.229 220.231 115.819 220.647 115.296C221.073 114.773 221.42 114.171 221.687 113.488C221.42 112.805 221.073 112.203 220.647 111.68C220.231 111.157 219.751 110.752 219.207 110.464C218.673 110.165 218.087 110.016 217.447 110.016C216.817 110.016 216.252 110.165 215.751 110.464C215.26 110.752 214.871 111.157 214.583 111.68C214.305 112.203 214.167 112.805 214.167 113.488ZM225.456 108.992H226.928V112.4L226.848 112.688V114.144L226.928 114.608V120.64H225.456V108.992ZM226.24 113.488C226.475 112.549 226.832 111.728 227.312 111.024C227.803 110.32 228.39 109.771 229.072 109.376C229.766 108.981 230.528 108.784 231.36 108.784C232.246 108.784 233.03 108.981 233.712 109.376C234.395 109.771 234.928 110.32 235.312 111.024C235.707 111.728 235.904 112.549 235.904 113.488C235.904 114.416 235.707 115.237 235.312 115.952C234.928 116.656 234.395 117.211 233.712 117.616C233.03 118.011 232.246 118.208 231.36 118.208C230.528 118.208 229.766 118.011 229.072 117.616C228.39 117.221 227.803 116.672 227.312 115.968C226.832 115.253 226.475 114.427 226.24 113.488ZM234.4 113.488C234.4 112.805 234.256 112.203 233.968 111.68C233.691 111.157 233.302 110.752 232.8 110.464C232.31 110.165 231.75 110.016 231.12 110.016C230.48 110.016 229.888 110.165 229.344 110.464C228.811 110.752 228.336 111.157 227.92 111.68C227.504 112.203 227.158 112.805 226.88 113.488C227.158 114.171 227.504 114.773 227.92 115.296C228.336 115.819 228.811 116.229 229.344 116.528C229.888 116.816 230.48 116.96 231.12 116.96C231.75 116.96 232.31 116.816 232.8 116.528C233.302 116.229 233.691 115.819 233.968 115.296C234.256 114.773 234.4 114.171 234.4 113.488ZM237.769 118V108.992H239.945L244.233 117.392H243.465L247.737 108.992H249.913V118H248.521V109.408H249.017L244.569 118H243.113L238.665 109.424H239.161V118H237.769ZM257.116 118.208C256.06 118.208 255.126 118.011 254.316 117.616C253.516 117.221 252.892 116.667 252.444 115.952C251.996 115.237 251.772 114.416 251.772 113.488C251.772 112.549 251.996 111.728 252.444 111.024C252.892 110.32 253.516 109.771 254.316 109.376C255.126 108.981 256.06 108.784 257.116 108.784C258.182 108.784 259.116 108.981 259.916 109.376C260.716 109.771 261.34 110.32 261.788 111.024C262.246 111.728 262.476 112.549 262.476 113.488C262.476 114.416 262.246 115.237 261.788 115.952C261.34 116.667 260.716 117.221 259.916 117.616C259.116 118.011 258.182 118.208 257.116 118.208ZM257.116 116.976C257.905 116.976 258.588 116.837 259.164 116.56C259.74 116.272 260.182 115.867 260.492 115.344C260.812 114.821 260.972 114.203 260.972 113.488C260.972 112.784 260.812 112.171 260.492 111.648C260.182 111.125 259.74 110.72 259.164 110.432C258.588 110.144 257.905 110 257.116 110C256.337 110 255.654 110.144 255.068 110.432C254.492 110.72 254.049 111.125 253.74 111.648C253.43 112.171 253.276 112.784 253.276 113.488C253.276 114.203 253.43 114.821 253.74 115.344C254.049 115.867 254.492 116.272 255.068 116.56C255.654 116.837 256.337 116.976 257.116 116.976ZM264.316 108.992H265.772V118H264.316V108.992ZM272.06 108.992H273.532V118H272.06V108.992ZM265.132 112.848H272.748V114.048H265.132V112.848ZM275.909 118V108.992H277.365V117.328L276.805 117.248L283.701 108.992H285.605V118H284.149V109.584L284.725 109.68L277.781 118H275.909ZM291.123 115.04C289.907 115.04 288.985 114.715 288.355 114.064C287.726 113.403 287.411 112.432 287.411 111.152V108.992H288.883V111.104C288.883 112.896 289.721 113.792 291.395 113.792C292.078 113.792 292.713 113.648 293.299 113.36C293.897 113.061 294.457 112.613 294.979 112.016L295.091 113.184C294.665 113.771 294.105 114.229 293.411 114.56C292.718 114.88 291.955 115.04 291.123 115.04ZM294.771 118V108.992H296.243V118H294.771ZM298.644 108.992H300.1V118H298.644V108.992ZM306.388 108.992H307.86V118H306.388V108.992ZM299.46 112.848H307.076V114.048H299.46V112.848ZM320.078 108.992H321.55V118H320.078V108.992ZM310.238 118V108.992H311.71V117.536L311.118 116.832H315.326C315.966 116.832 316.472 116.672 316.846 116.352C317.219 116.021 317.406 115.579 317.406 115.024C317.406 114.459 317.219 114.016 316.846 113.696C316.472 113.365 315.966 113.2 315.326 113.2H311.23V112.064H315.454C316.147 112.064 316.75 112.187 317.262 112.432C317.784 112.677 318.19 113.024 318.478 113.472C318.766 113.92 318.91 114.437 318.91 115.024C318.91 115.621 318.766 116.144 318.478 116.592C318.19 117.04 317.784 117.387 317.262 117.632C316.75 117.877 316.147 118 315.454 118H310.238ZM328.693 118.208C327.658 118.208 326.741 118.011 325.941 117.616C325.151 117.211 324.527 116.656 324.069 115.952C323.621 115.237 323.397 114.416 323.397 113.488C323.397 112.549 323.61 111.728 324.037 111.024C324.463 110.32 325.055 109.771 325.813 109.376C326.57 108.981 327.439 108.784 328.421 108.784C329.391 108.784 330.239 108.997 330.965 109.424C331.69 109.851 332.25 110.453 332.645 111.232C333.05 112 333.253 112.896 333.253 113.92H324.517V112.752H332.629L331.765 113.28C331.733 112.608 331.573 112.027 331.285 111.536C330.997 111.045 330.607 110.667 330.117 110.4C329.626 110.133 329.055 110 328.405 110C327.701 110 327.087 110.144 326.565 110.432C326.042 110.709 325.631 111.104 325.333 111.616C325.045 112.128 324.901 112.731 324.901 113.424C324.901 114.149 325.066 114.779 325.397 115.312C325.727 115.845 326.191 116.256 326.789 116.544C327.386 116.832 328.09 116.976 328.901 116.976C329.637 116.976 330.357 116.853 331.061 116.608C331.775 116.363 332.415 116.027 332.981 115.6V116.752C332.426 117.2 331.765 117.557 330.997 117.824C330.229 118.08 329.461 118.208 328.693 118.208ZM171.626 139.576C171.509 140.291 171.215 140.92 170.746 141.464C170.287 142.008 169.701 142.435 168.986 142.744C168.271 143.053 167.482 143.208 166.618 143.208C165.615 143.208 164.73 143.011 163.962 142.616C163.194 142.211 162.591 141.656 162.154 140.952C161.727 140.237 161.514 139.416 161.514 138.488C161.514 137.56 161.727 136.744 162.154 136.04C162.591 135.325 163.194 134.771 163.962 134.376C164.73 133.981 165.615 133.784 166.618 133.784C167.482 133.784 168.271 133.939 168.986 134.248C169.701 134.547 170.287 134.968 170.746 135.512C171.215 136.056 171.509 136.691 171.626 137.416H170.106C169.946 136.669 169.546 136.083 168.906 135.656C168.277 135.219 167.514 135 166.618 135C165.893 135 165.258 135.144 164.714 135.432C164.181 135.72 163.765 136.125 163.466 136.648C163.167 137.16 163.018 137.773 163.018 138.488C163.018 139.203 163.167 139.821 163.466 140.344C163.765 140.867 164.181 141.272 164.714 141.56C165.258 141.837 165.893 141.976 166.618 141.976C167.525 141.976 168.293 141.757 168.922 141.32C169.562 140.883 169.957 140.301 170.106 139.576H171.626ZM182.976 143.208C181.814 143.208 180.816 142.973 179.984 142.504C179.152 142.024 178.512 141.336 178.064 140.44C177.627 139.544 177.408 138.472 177.408 137.224C177.408 135.347 177.883 133.869 178.832 132.792C179.792 131.704 181.152 131.091 182.912 130.952C183.616 130.888 184.198 130.835 184.656 130.792C185.126 130.749 185.51 130.707 185.808 130.664C186.107 130.611 186.358 130.557 186.56 130.504C186.774 130.451 186.982 130.387 187.184 130.312V131.656C186.992 131.741 186.731 131.816 186.4 131.88C186.07 131.944 185.643 132.003 185.12 132.056C184.608 132.099 183.979 132.141 183.232 132.184C181.76 132.269 180.64 132.739 179.872 133.592C179.104 134.445 178.72 135.651 178.72 137.208V137.8L178.592 137.736C178.848 137.064 179.2 136.493 179.648 136.024C180.107 135.555 180.646 135.197 181.264 134.952C181.894 134.707 182.582 134.584 183.328 134.584C184.256 134.584 185.067 134.765 185.76 135.128C186.454 135.48 186.992 135.976 187.376 136.616C187.771 137.256 187.968 137.997 187.968 138.84C187.968 139.725 187.76 140.493 187.344 141.144C186.928 141.795 186.347 142.301 185.6 142.664C184.854 143.027 183.979 143.208 182.976 143.208ZM183.008 141.976C183.712 141.976 184.32 141.848 184.832 141.592C185.355 141.336 185.755 140.973 186.032 140.504C186.32 140.035 186.464 139.491 186.464 138.872C186.464 138.243 186.32 137.699 186.032 137.24C185.755 136.771 185.355 136.408 184.832 136.152C184.32 135.896 183.712 135.768 183.008 135.768C182.07 135.768 181.248 136.024 180.544 136.536C179.851 137.048 179.334 137.779 178.992 138.728C179.195 139.741 179.648 140.536 180.352 141.112C181.067 141.688 181.952 141.976 183.008 141.976ZM191.079 133.992H199.495V143H198.023V134.504L198.695 135.176H191.847L192.471 134.664C192.535 135.336 192.583 135.997 192.615 136.648C192.658 137.288 192.679 137.859 192.679 138.36C192.679 140.035 192.455 141.256 192.007 142.024C191.559 142.781 190.845 143.16 189.863 143.16C189.607 143.16 189.357 143.128 189.111 143.064C188.877 143.011 188.653 142.925 188.439 142.808V141.64C188.631 141.715 188.818 141.779 188.999 141.832C189.191 141.875 189.373 141.896 189.543 141.896C190.162 141.896 190.61 141.603 190.887 141.016C191.175 140.429 191.319 139.475 191.319 138.152C191.319 137.608 191.298 136.984 191.255 136.28C191.223 135.565 191.165 134.803 191.079 133.992ZM201.886 143V133.992H203.342V142.328L202.782 142.248L209.678 133.992H211.582V143H210.126V134.584L210.702 134.68L203.758 143H201.886ZM217.932 143.208C217.036 143.208 216.241 143.085 215.548 142.84C214.865 142.584 214.326 142.221 213.932 141.752C213.537 141.283 213.318 140.728 213.276 140.088H214.716C214.801 140.707 215.121 141.181 215.676 141.512C216.241 141.832 216.993 141.992 217.932 141.992C218.849 141.992 219.564 141.864 220.076 141.608C220.598 141.341 220.86 140.931 220.86 140.376C220.86 139.917 220.646 139.581 220.22 139.368C219.804 139.144 219.137 139.032 218.22 139.032H216.348V137.928H218.172C218.993 137.928 219.601 137.789 219.996 137.512C220.401 137.235 220.604 136.899 220.604 136.504C220.604 136.013 220.358 135.64 219.868 135.384C219.388 135.117 218.758 134.984 217.98 134.984C217.126 134.984 216.428 135.133 215.884 135.432C215.34 135.72 215.02 136.157 214.924 136.744H213.484C213.548 136.179 213.766 135.672 214.14 135.224C214.513 134.776 215.03 134.424 215.692 134.168C216.353 133.912 217.137 133.784 218.044 133.784C218.876 133.784 219.596 133.896 220.204 134.12C220.812 134.333 221.281 134.632 221.612 135.016C221.942 135.4 222.108 135.837 222.108 136.328C222.108 136.744 221.98 137.123 221.724 137.464C221.478 137.805 221.1 138.077 220.588 138.28C220.086 138.483 219.446 138.584 218.668 138.584V138.312C219.83 138.28 220.737 138.451 221.388 138.824C222.049 139.197 222.38 139.736 222.38 140.44C222.38 140.984 222.204 141.464 221.852 141.88C221.51 142.296 221.009 142.621 220.348 142.856C219.686 143.091 218.881 143.208 217.932 143.208ZM224.245 143V133.992H225.717V141.672L225.269 141.512L231.509 133.992H233.221L225.605 143H224.245ZM231.765 143L228.789 138.504L229.749 137.4L233.525 143H231.765ZM234.73 143V133.992H236.186V142.328L235.626 142.248L242.522 133.992H244.426V143H242.97V134.584L243.546 134.68L236.602 143H234.73ZM246.824 143V133.992H249L253.288 142.392H252.52L256.792 133.992H258.968V143H257.576V134.408H258.072L253.624 143H252.168L247.72 134.424H248.216V143H246.824ZM261.37 143V133.992H262.826V142.328L262.266 142.248L269.162 133.992H271.066V143H269.61V134.584L270.186 134.68L263.242 143H261.37ZM278.97 133.992H287.386V143H285.914V134.504L286.586 135.176H279.738L280.362 134.664C280.426 135.336 280.474 135.997 280.506 136.648C280.549 137.288 280.57 137.859 280.57 138.36C280.57 140.035 280.346 141.256 279.898 142.024C279.45 142.781 278.735 143.16 277.754 143.16C277.498 143.16 277.247 143.128 277.002 143.064C276.767 143.011 276.543 142.925 276.33 142.808V141.64C276.522 141.715 276.709 141.779 276.89 141.832C277.082 141.875 277.263 141.896 277.434 141.896C278.053 141.896 278.501 141.603 278.778 141.016C279.066 140.429 279.21 139.475 279.21 138.152C279.21 137.608 279.189 136.984 279.146 136.28C279.114 135.565 279.055 134.803 278.97 133.992ZM298.561 143.208C297.526 143.208 296.609 143.011 295.809 142.616C295.019 142.211 294.401 141.656 293.953 140.952C293.515 140.248 293.297 139.427 293.297 138.488C293.297 137.549 293.515 136.728 293.953 136.024C294.401 135.32 295.019 134.771 295.809 134.376C296.609 133.981 297.526 133.784 298.561 133.784C299.617 133.784 300.539 133.981 301.329 134.376C302.129 134.771 302.747 135.32 303.185 136.024C303.633 136.728 303.857 137.549 303.857 138.488C303.857 139.416 303.633 140.237 303.185 140.952C302.747 141.667 302.129 142.221 301.329 142.616C300.539 143.011 299.617 143.208 298.561 143.208ZM289.777 143V133.992H291.249V143H289.777ZM290.561 139.048V137.848H294.161V139.048H290.561ZM298.561 141.976C299.35 141.976 300.022 141.832 300.577 141.544C301.142 141.256 301.579 140.851 301.889 140.328C302.198 139.805 302.353 139.192 302.353 138.488C302.353 137.784 302.198 137.171 301.889 136.648C301.579 136.125 301.142 135.72 300.577 135.432C300.022 135.144 299.35 135 298.561 135C297.803 135 297.137 135.144 296.561 135.432C295.995 135.72 295.558 136.125 295.249 136.648C294.939 137.171 294.785 137.784 294.785 138.488C294.785 139.192 294.939 139.805 295.249 140.328C295.558 140.851 295.995 141.256 296.561 141.544C297.137 141.832 297.803 141.976 298.561 141.976ZM316.459 141.8V145.336H315.147V143H305.547V145.336H304.251V141.8H306.219L306.651 141.816H313.707L314.139 141.8H316.459ZM306.331 133.992H314.763V142.568H313.291V134.504L313.979 135.176H307.115L307.739 134.696C307.792 135.176 307.83 135.651 307.851 136.12C307.872 136.579 307.883 137.011 307.883 137.416C307.883 139.016 307.691 140.28 307.307 141.208C306.934 142.125 306.416 142.584 305.755 142.584L305.147 142.056C306.043 141.384 306.491 139.747 306.491 137.144C306.491 136.643 306.475 136.125 306.443 135.592C306.422 135.048 306.384 134.515 306.331 133.992ZM317.995 143V133.992H319.467V142.536L318.875 141.832H323.083C323.723 141.832 324.23 141.672 324.603 141.352C324.977 141.021 325.163 140.579 325.163 140.024C325.163 139.459 324.977 139.016 324.603 138.696C324.23 138.365 323.723 138.2 323.083 138.2H318.987V137.064H323.211C323.905 137.064 324.507 137.187 325.019 137.432C325.542 137.677 325.947 138.024 326.235 138.472C326.523 138.92 326.667 139.437 326.667 140.024C326.667 140.621 326.523 141.144 326.235 141.592C325.947 142.04 325.542 142.387 325.019 142.632C324.507 142.877 323.905 143 323.211 143H317.995ZM328.261 143V133.992H330.437L334.725 142.392H333.957L338.229 133.992H340.405V143H339.013V134.408H339.509L335.061 143H333.605L329.157 134.424H329.653V143H328.261ZM342.808 143V133.992H344.264V142.328L343.704 142.248L350.6 133.992H352.504V143H351.048V134.584L351.624 134.68L344.68 143H342.808Z" fill="black"/>
<path d="M62.4869 138.552C62.4869 139.288 62.3856 139.944 62.1829 140.52C61.9802 141.096 61.6869 141.581 61.3029 141.976C60.9189 142.36 60.4549 142.653 59.9109 142.856C59.3669 143.059 58.7482 143.16 58.0549 143.16C57.4149 143.16 56.8229 143.059 56.2789 142.856C55.7456 142.653 55.2816 142.36 54.8869 141.976C54.5029 141.581 54.1989 141.096 53.9749 140.52C53.7616 139.944 53.6549 139.288 53.6549 138.552C53.6549 137.571 53.8309 136.744 54.1829 136.072C54.5456 135.389 55.0576 134.872 55.7189 134.52C56.3802 134.168 57.1749 133.992 58.1029 133.992C58.9562 133.992 59.7082 134.168 60.3589 134.52C61.0202 134.872 61.5376 135.389 61.9109 136.072C62.2949 136.744 62.4869 137.571 62.4869 138.552ZM56.7589 138.552C56.7589 139.053 56.8016 139.48 56.8869 139.832C56.9722 140.184 57.1109 140.451 57.3029 140.632C57.5056 140.803 57.7669 140.888 58.0869 140.888C58.4069 140.888 58.6576 140.803 58.8389 140.632C59.0309 140.451 59.1696 140.184 59.2549 139.832C59.3402 139.48 59.3829 139.053 59.3829 138.552C59.3829 138.051 59.3402 137.629 59.2549 137.288C59.1696 136.947 59.0309 136.691 58.8389 136.52C58.6469 136.349 58.3909 136.264 58.0709 136.264C57.6122 136.264 57.2762 136.456 57.0629 136.84C56.8602 137.224 56.7589 137.795 56.7589 138.552ZM72.2782 136.424H69.3662V143H66.3102V136.424H63.3982V134.152H72.2782V136.424ZM76.7668 134.152V137.336H79.1828V134.152H82.2388V143H79.1828V139.608H76.7668V143H73.7108V134.152H76.7668ZM92.7994 138.552C92.7994 139.288 92.6981 139.944 92.4954 140.52C92.2927 141.096 91.9994 141.581 91.6154 141.976C91.2314 142.36 90.7674 142.653 90.2234 142.856C89.6794 143.059 89.0607 143.16 88.3674 143.16C87.7274 143.16 87.1354 143.059 86.5914 142.856C86.0581 142.653 85.5941 142.36 85.1994 141.976C84.8154 141.581 84.5114 141.096 84.2874 140.52C84.0741 139.944 83.9674 139.288 83.9674 138.552C83.9674 137.571 84.1434 136.744 84.4954 136.072C84.8581 135.389 85.3701 134.872 86.0314 134.52C86.6927 134.168 87.4874 133.992 88.4154 133.992C89.2687 133.992 90.0207 134.168 90.6714 134.52C91.3327 134.872 91.8501 135.389 92.2234 136.072C92.6074 136.744 92.7994 137.571 92.7994 138.552ZM87.0714 138.552C87.0714 139.053 87.1141 139.48 87.1994 139.832C87.2847 140.184 87.4234 140.451 87.6154 140.632C87.8181 140.803 88.0794 140.888 88.3994 140.888C88.7194 140.888 88.9701 140.803 89.1514 140.632C89.3434 140.451 89.4821 140.184 89.5674 139.832C89.6527 139.48 89.6954 139.053 89.6954 138.552C89.6954 138.051 89.6527 137.629 89.5674 137.288C89.4821 136.947 89.3434 136.691 89.1514 136.52C88.9594 136.349 88.7034 136.264 88.3834 136.264C87.9247 136.264 87.5887 136.456 87.3754 136.84C87.1727 137.224 87.0714 137.795 87.0714 138.552ZM108.491 134.152V143H94.5389V134.152H97.5949V140.728H100.043V134.152H103.019V140.728H105.435V134.152H108.491ZM114.585 133.992C115.449 133.992 116.191 134.141 116.809 134.44C117.439 134.739 117.919 135.187 118.249 135.784C118.591 136.381 118.761 137.133 118.761 138.04V139.4H113.305C113.327 139.859 113.497 140.237 113.817 140.536C114.148 140.835 114.623 140.984 115.241 140.984C115.796 140.984 116.303 140.931 116.761 140.824C117.22 140.717 117.695 140.547 118.185 140.312V142.504C117.759 142.728 117.289 142.893 116.777 143C116.276 143.107 115.641 143.16 114.873 143.16C113.977 143.16 113.177 143.005 112.473 142.696C111.78 142.376 111.231 141.88 110.825 141.208C110.42 140.536 110.217 139.677 110.217 138.632C110.217 137.565 110.399 136.691 110.761 136.008C111.135 135.325 111.647 134.819 112.297 134.488C112.959 134.157 113.721 133.992 114.585 133.992ZM114.697 136.072C114.335 136.072 114.031 136.184 113.785 136.408C113.551 136.632 113.412 136.989 113.369 137.48H115.993C115.993 137.213 115.94 136.979 115.833 136.776C115.737 136.563 115.593 136.392 115.401 136.264C115.209 136.136 114.975 136.072 114.697 136.072ZM123.548 134.152V137.336H125.964V134.152H129.02V143H125.964V139.608H123.548V143H120.492V134.152H123.548ZM133.917 137.592C133.917 137.773 133.911 137.965 133.901 138.168C133.901 138.36 133.895 138.552 133.885 138.744C133.874 138.936 133.858 139.123 133.837 139.304C133.826 139.485 133.815 139.656 133.805 139.816L137.149 134.152H140.477V143H137.693V139.8C137.693 139.523 137.693 139.235 137.693 138.936C137.703 138.637 137.719 138.349 137.741 138.072C137.762 137.784 137.783 137.528 137.805 137.304L134.429 143H131.133V134.152H133.917V137.592ZM144.57 143H141.338L143.61 139.64C143.343 139.491 143.092 139.293 142.858 139.048C142.634 138.803 142.452 138.509 142.314 138.168C142.186 137.827 142.122 137.432 142.122 136.984C142.122 136.045 142.468 135.341 143.162 134.872C143.855 134.392 144.799 134.152 145.994 134.152H150.218V143H147.162V139.928H146.266L144.57 143ZM145.178 137.08C145.178 137.293 145.258 137.491 145.418 137.672C145.578 137.843 145.871 137.928 146.298 137.928H147.162V136.152H146.282C145.887 136.152 145.604 136.243 145.434 136.424C145.263 136.605 145.178 136.824 145.178 137.08Z" fill="#60BDFF"/>
<path d="M159.098 197.444C175.845 197.711 193.214 171.462 193.214 171.462C193.214 171.462 226.982 210.056 248.989 199.53C266.72 191.05 276.083 167.631 276.083 167.631C276.083 167.631 393.711 213.866 388.565 167.631C385.091 136.414 356.571 116.711 356.571 116.711C356.571 116.711 396.314 91.5865 380.903 70.3745C367.126 51.411 321.58 79.891 321.58 79.891C321.58 79.891 341.58 37.9536 324.43 25.0884C304.147 9.87276 276.083 68.4669 276.083 68.4669C276.083 68.4669 273.673 34.2104 257.409 27.4739C234.869 18.1385 215.882 74.1429 215.882 74.1429C215.882 74.1429 215.315 40.9218 200.886 40.3916C185.123 39.8124 191.658 79.6791 191.658 79.6791C191.658 79.6791 180.41 53.2281 165.127 48.5641C139.959 40.8838 117.833 96.5513 117.833 96.5513C117.833 96.5513 102.35 65.3871 85.1493 66.8423C64.2018 68.6144 67.0713 103.939 67.0713 103.939C67.0713 103.939 22.5096 85.9208 9.47263 103.939C-4.16965 122.794 40.5713 154.061 40.5713 154.061C40.5713 154.061 16.754 183.098 30.538 196.112C43.0715 207.946 73.6028 186.27 73.6028 186.27C73.6028 186.27 77.6168 203.605 86.1414 209.268C103.215 220.61 128.959 178.872 128.959 178.872C128.959 178.872 145.267 197.223 159.098 197.444Z" stroke="#60BDFF"/>
</svg>
