<svg width="510" height="218" viewBox="0 0 510 218" fill="none" xmlns="http://www.w3.org/2000/svg">
<path d="M146.03 195.194C176.767 201.453 224.415 177.564 224.415 177.564C224.415 177.564 277.939 225.125 315.5 216.44C342.769 210.135 372.428 171.687 372.428 171.687C372.428 171.687 437.365 214.466 452.565 185.701C460.263 171.132 452.565 143.207 452.565 143.207C452.565 143.207 508.762 152.775 509.493 129.194C509.98 113.486 485.408 97.5498 485.408 97.5498C485.408 97.5498 493.889 69.8823 485.408 56.4127C472.36 35.6903 424.101 56.4127 424.101 56.4127C424.101 56.4127 426.454 24.7364 413.591 13.9195C393.963 -2.58575 355.349 43.3031 355.349 43.3031C355.349 43.3031 324.021 16.328 299.735 13.9195C273.626 11.3303 235.801 35.1661 235.801 35.1661C235.801 35.1661 225.472 12.3884 213.03 4.42637C185.197 -13.3834 134.644 35.1661 134.644 35.1661C134.644 35.1661 102.364 -2.82073 78.592 4.42637C56.2515 11.2371 46.6247 56.4127 46.6247 56.4127C46.6247 56.4127 12.6219 52.8899 3.27188 68.1662C-7.65462 86.0182 16.9265 98.2536 21.664 118.796C26.3264 139.013 13.2183 156.892 27.3568 171.687C45.2355 190.395 92.1671 164.454 92.1671 164.454C92.1671 164.454 122.449 190.392 146.03 195.194Z" fill="#60BDFF" stroke="#60BDFF"/>
<path d="M106.693 64.4998H108.573V79.4998H106.693V64.4998ZM119.093 64.4998H120.973V79.4998H119.093V64.4998ZM107.653 71.1398H120.113V72.7998H107.653V71.1398ZM134.827 79.4998L134.427 75.2398L134.927 73.8598L134.427 72.4998L134.827 68.2398H136.707L136.187 73.8598L136.707 79.4998H134.827ZM135.547 73.8598C135.254 75.0331 134.8 76.0664 134.187 76.9598C133.587 77.8398 132.854 78.5264 131.987 79.0198C131.134 79.5131 130.187 79.7598 129.147 79.7598C128.04 79.7598 127.06 79.5131 126.207 79.0198C125.354 78.5131 124.68 77.8198 124.187 76.9398C123.707 76.0464 123.467 75.0198 123.467 73.8598C123.467 72.6864 123.707 71.6598 124.187 70.7798C124.68 69.8998 125.354 69.2131 126.207 68.7198C127.06 68.2264 128.04 67.9798 129.147 67.9798C130.187 67.9798 131.134 68.2264 131.987 68.7198C132.854 69.2131 133.594 69.8998 134.207 70.7798C134.82 71.6598 135.267 72.6864 135.547 73.8598ZM125.347 73.8598C125.347 74.7131 125.52 75.4664 125.867 76.1198C126.227 76.7731 126.714 77.2864 127.327 77.6598C127.954 78.0198 128.66 78.1998 129.447 78.1998C130.247 78.1998 130.98 78.0198 131.647 77.6598C132.327 77.2864 132.927 76.7731 133.447 76.1198C133.98 75.4664 134.414 74.7131 134.747 73.8598C134.414 73.0064 133.98 72.2531 133.447 71.5998C132.927 70.9464 132.327 70.4398 131.647 70.0798C130.98 69.7064 130.247 69.5198 129.447 69.5198C128.66 69.5198 127.954 69.7064 127.327 70.0798C126.714 70.4398 126.227 70.9464 125.867 71.5998C125.52 72.2531 125.347 73.0064 125.347 73.8598ZM141.699 83.0598C141.126 83.0598 140.612 82.9864 140.159 82.8398C139.706 82.6931 139.259 82.4798 138.819 82.1998V80.7398C139.259 81.0198 139.686 81.2264 140.099 81.3598C140.512 81.4931 140.986 81.5598 141.519 81.5598C142.092 81.5598 142.586 81.4264 142.999 81.1598C143.412 80.9064 143.759 80.4864 144.039 79.8998L149.659 68.2398H151.619L145.459 80.5798C145.179 81.1531 144.846 81.6198 144.459 81.9798C144.086 82.3531 143.666 82.6264 143.199 82.7998C142.746 82.9731 142.246 83.0598 141.699 83.0598ZM143.579 79.1398L138.239 68.2398H140.259L145.439 79.1398H143.579ZM157.246 75.7998C155.726 75.7998 154.572 75.3931 153.786 74.5798C152.999 73.7531 152.606 72.5398 152.606 70.9398V68.2398H154.446V70.8798C154.446 73.1198 155.492 74.2398 157.586 74.2398C158.439 74.2398 159.232 74.0598 159.966 73.6998C160.712 73.3264 161.412 72.7664 162.066 72.0198L162.206 73.4798C161.672 74.2131 160.972 74.7864 160.106 75.1998C159.239 75.5998 158.286 75.7998 157.246 75.7998ZM161.806 79.4998V68.2398H163.646V79.4998H161.806ZM166.646 79.4998V68.2398H168.466V78.6598L167.766 78.5598L176.386 68.2398H178.766V79.4998H176.946V68.9798L177.666 69.0998L168.986 79.4998H166.646ZM185.404 68.8598H187.244V79.4998H185.404V68.8598ZM180.524 68.2398H192.124V69.7398H180.524V68.2398ZM193.873 79.4998V68.2398H195.713V78.9198L194.973 78.0398H200.233C201.033 78.0398 201.666 77.8398 202.133 77.4398C202.6 77.0264 202.833 76.4731 202.833 75.7798C202.833 75.0731 202.6 74.5198 202.133 74.1198C201.666 73.7064 201.033 73.4998 200.233 73.4998H195.113V72.0798H200.393C201.26 72.0798 202.013 72.2331 202.653 72.5398C203.306 72.8464 203.813 73.2798 204.173 73.8398C204.533 74.3998 204.713 75.0464 204.713 75.7798C204.713 76.5264 204.533 77.1798 204.173 77.7398C203.813 78.2998 203.306 78.7331 202.653 79.0398C202.013 79.3464 201.26 79.4998 200.393 79.4998H193.873ZM218.665 75.2198C218.518 76.1131 218.152 76.8998 217.565 77.5798C216.992 78.2598 216.258 78.7931 215.365 79.1798C214.472 79.5664 213.485 79.7598 212.405 79.7598C211.152 79.7598 210.045 79.5131 209.085 79.0198C208.125 78.5131 207.372 77.8198 206.825 76.9398C206.292 76.0464 206.025 75.0198 206.025 73.8598C206.025 72.6998 206.292 71.6798 206.825 70.7998C207.372 69.9064 208.125 69.2131 209.085 68.7198C210.045 68.2264 211.152 67.9798 212.405 67.9798C213.485 67.9798 214.472 68.1731 215.365 68.5598C216.258 68.9331 216.992 69.4598 217.565 70.1398C218.152 70.8198 218.518 71.6131 218.665 72.5198H216.765C216.565 71.5864 216.065 70.8531 215.265 70.3198C214.478 69.7731 213.525 69.4998 212.405 69.4998C211.498 69.4998 210.705 69.6798 210.025 70.0398C209.358 70.3998 208.838 70.9064 208.465 71.5598C208.092 72.1998 207.905 72.9664 207.905 73.8598C207.905 74.7531 208.092 75.5264 208.465 76.1798C208.838 76.8331 209.358 77.3398 210.025 77.6998C210.705 78.0464 211.498 78.2198 212.405 78.2198C213.538 78.2198 214.498 77.9464 215.285 77.3998C216.085 76.8531 216.578 76.1264 216.765 75.2198H218.665ZM230.126 73.6798V75.0798H224.266L224.246 75.0398C223.446 75.0398 222.746 74.8998 222.146 74.6198C221.559 74.3398 221.099 73.9464 220.766 73.4398C220.432 72.9198 220.266 72.3198 220.266 71.6398C220.266 70.9731 220.432 70.3864 220.766 69.8798C221.099 69.3598 221.559 68.9598 222.146 68.6798C222.746 68.3864 223.446 68.2398 224.246 68.2398H231.406V79.4998H229.566V68.8198L230.266 69.6598H224.526C223.779 69.6598 223.192 69.8398 222.766 70.1998C222.339 70.5598 222.126 71.0464 222.126 71.6598C222.126 72.2598 222.339 72.7464 222.766 73.1198C223.192 73.4931 223.779 73.6798 224.526 73.6798H230.126ZM226.746 74.2198L222.286 79.4998H220.066L224.586 74.2198H226.746ZM239.928 68.2398H241.768V72.4998L241.668 72.8598V74.6798L241.768 75.2598V82.7998H239.928V68.2398ZM240.908 73.8598C241.201 72.6864 241.648 71.6598 242.248 70.7798C242.861 69.8998 243.594 69.2131 244.448 68.7198C245.314 68.2264 246.268 67.9798 247.308 67.9798C248.414 67.9798 249.394 68.2264 250.248 68.7198C251.101 69.2131 251.768 69.8998 252.248 70.7798C252.741 71.6598 252.988 72.6864 252.988 73.8598C252.988 75.0198 252.741 76.0464 252.248 76.9398C251.768 77.8198 251.101 78.5131 250.248 79.0198C249.394 79.5131 248.414 79.7598 247.308 79.7598C246.268 79.7598 245.314 79.5131 244.448 79.0198C243.594 78.5264 242.861 77.8398 242.248 76.9598C241.648 76.0664 241.201 75.0331 240.908 73.8598ZM251.108 73.8598C251.108 73.0064 250.928 72.2531 250.568 71.5998C250.221 70.9464 249.734 70.4398 249.108 70.0798C248.494 69.7064 247.794 69.5198 247.008 69.5198C246.208 69.5198 245.468 69.7064 244.788 70.0798C244.121 70.4398 243.528 70.9464 243.008 71.5998C242.488 72.2531 242.054 73.0064 241.708 73.8598C242.054 74.7131 242.488 75.4664 243.008 76.1198C243.528 76.7731 244.121 77.2864 244.788 77.6598C245.468 78.0198 246.208 78.1998 247.008 78.1998C247.794 78.1998 248.494 78.0198 249.108 77.6598C249.734 77.2864 250.221 76.7731 250.568 76.1198C250.928 75.4664 251.108 74.7131 251.108 73.8598ZM261.258 79.7598C259.965 79.7598 258.818 79.5131 257.818 79.0198C256.832 78.5131 256.052 77.8198 255.478 76.9398C254.918 76.0464 254.638 75.0198 254.638 73.8598C254.638 72.6864 254.905 71.6598 255.438 70.7798C255.972 69.8998 256.712 69.2131 257.658 68.7198C258.605 68.2264 259.692 67.9798 260.918 67.9798C262.132 67.9798 263.192 68.2464 264.098 68.7798C265.005 69.3131 265.705 70.0664 266.198 71.0398C266.705 71.9998 266.958 73.1198 266.958 74.3998H256.038V72.9398H266.178L265.098 73.5998C265.058 72.7598 264.858 72.0331 264.498 71.4198C264.138 70.8064 263.652 70.3331 263.038 69.9998C262.425 69.6664 261.712 69.4998 260.898 69.4998C260.018 69.4998 259.252 69.6798 258.598 70.0398C257.945 70.3864 257.432 70.8798 257.058 71.5198C256.698 72.1598 256.518 72.9131 256.518 73.7798C256.518 74.6864 256.725 75.4731 257.138 76.1398C257.552 76.8064 258.132 77.3198 258.878 77.6798C259.625 78.0398 260.505 78.2198 261.518 78.2198C262.438 78.2198 263.338 78.0664 264.218 77.7598C265.112 77.4531 265.912 77.0331 266.618 76.4998V77.9398C265.925 78.4998 265.098 78.9464 264.138 79.2798C263.178 79.5998 262.218 79.7598 261.258 79.7598ZM277.684 68.2398V69.7398H270.224L271.084 68.8998V79.4998H269.244V68.2398H277.684ZM281.66 83.0598C281.087 83.0598 280.573 82.9864 280.12 82.8398C279.667 82.6931 279.22 82.4798 278.78 82.1998V80.7398C279.22 81.0198 279.647 81.2264 280.06 81.3598C280.473 81.4931 280.947 81.5598 281.48 81.5598C282.053 81.5598 282.547 81.4264 282.96 81.1598C283.373 80.9064 283.72 80.4864 284 79.8998L289.62 68.2398H291.58L285.42 80.5798C285.14 81.1531 284.807 81.6198 284.42 81.9798C284.047 82.3531 283.627 82.6264 283.16 82.7998C282.707 82.9731 282.207 83.0598 281.66 83.0598ZM283.54 79.1398L278.2 68.2398H280.22L285.4 79.1398H283.54ZM294.017 68.2398H304.537V79.4998H302.697V68.8798L303.537 69.7198H294.977L295.757 69.0798C295.837 69.9198 295.897 70.7464 295.937 71.5598C295.99 72.3598 296.017 73.0731 296.017 73.6998C296.017 75.7931 295.737 77.3198 295.177 78.2798C294.617 79.2264 293.724 79.6998 292.497 79.6998C292.177 79.6998 291.864 79.6598 291.557 79.5798C291.264 79.5131 290.984 79.4064 290.717 79.2598V77.7998C290.957 77.8931 291.19 77.9731 291.417 78.0398C291.657 78.0931 291.884 78.1198 292.097 78.1198C292.87 78.1198 293.43 77.7531 293.777 77.0198C294.137 76.2864 294.317 75.0931 294.317 73.4398C294.317 72.7598 294.29 71.9798 294.237 71.0998C294.197 70.2064 294.124 69.2531 294.017 68.2398ZM307.525 79.4998V68.2398H309.345V78.6598L308.645 78.5598L317.265 68.2398H319.645V79.4998H317.825V68.9798L318.545 69.0998L309.865 79.4998H307.525ZM322.643 68.2398H324.483V72.4998L324.383 72.8598V74.6798L324.483 75.2598V82.7998H322.643V68.2398ZM323.623 73.8598C323.916 72.6864 324.363 71.6598 324.963 70.7798C325.576 69.8998 326.309 69.2131 327.163 68.7198C328.029 68.2264 328.983 67.9798 330.023 67.9798C331.129 67.9798 332.109 68.2264 332.963 68.7198C333.816 69.2131 334.483 69.8998 334.963 70.7798C335.456 71.6598 335.703 72.6864 335.703 73.8598C335.703 75.0198 335.456 76.0464 334.963 76.9398C334.483 77.8198 333.816 78.5131 332.963 79.0198C332.109 79.5131 331.129 79.7598 330.023 79.7598C328.983 79.7598 328.029 79.5131 327.163 79.0198C326.309 78.5264 325.576 77.8398 324.963 76.9598C324.363 76.0664 323.916 75.0331 323.623 73.8598ZM333.823 73.8598C333.823 73.0064 333.643 72.2531 333.283 71.5998C332.936 70.9464 332.449 70.4398 331.823 70.0798C331.209 69.7064 330.509 69.5198 329.723 69.5198C328.923 69.5198 328.183 69.7064 327.503 70.0798C326.836 70.4398 326.243 70.9464 325.723 71.5998C325.203 72.2531 324.769 73.0064 324.423 73.8598C324.769 74.7131 325.203 75.4664 325.723 76.1198C326.243 76.7731 326.836 77.2864 327.503 77.6598C328.183 78.0198 328.923 78.1998 329.723 78.1998C330.509 78.1998 331.209 78.0198 331.823 77.6598C332.449 77.2864 332.936 76.7731 333.283 76.1198C333.643 75.4664 333.823 74.7131 333.823 73.8598ZM344.033 79.7598C342.713 79.7598 341.547 79.5131 340.533 79.0198C339.533 78.5264 338.753 77.8331 338.193 76.9398C337.633 76.0464 337.353 75.0198 337.353 73.8598C337.353 72.6864 337.633 71.6598 338.193 70.7798C338.753 69.8998 339.533 69.2131 340.533 68.7198C341.547 68.2264 342.713 67.9798 344.033 67.9798C345.367 67.9798 346.533 68.2264 347.533 68.7198C348.533 69.2131 349.313 69.8998 349.873 70.7798C350.447 71.6598 350.733 72.6864 350.733 73.8598C350.733 75.0198 350.447 76.0464 349.873 76.9398C349.313 77.8331 348.533 78.5264 347.533 79.0198C346.533 79.5131 345.367 79.7598 344.033 79.7598ZM344.033 78.2198C345.02 78.2198 345.873 78.0464 346.593 77.6998C347.313 77.3398 347.867 76.8331 348.253 76.1798C348.653 75.5264 348.853 74.7531 348.853 73.8598C348.853 72.9798 348.653 72.2131 348.253 71.5598C347.867 70.9064 347.313 70.3998 346.593 70.0398C345.873 69.6798 345.02 69.4998 344.033 69.4998C343.06 69.4998 342.207 69.6798 341.473 70.0398C340.753 70.3998 340.2 70.9064 339.813 71.5598C339.427 72.2131 339.233 72.9798 339.233 73.8598C339.233 74.7531 339.427 75.5264 339.813 76.1798C340.2 76.8331 340.753 77.3398 341.473 77.6998C342.207 78.0464 343.06 78.2198 344.033 78.2198ZM352.793 79.4998L353.313 73.8598L352.793 68.2398H360.433C361.527 68.2398 362.373 68.4931 362.973 68.9998C363.587 69.4931 363.893 70.1931 363.893 71.0998C363.893 71.9264 363.587 72.5864 362.973 73.0798C362.373 73.5598 361.54 73.8398 360.473 73.9198L360.653 73.5398C361.933 73.5531 362.913 73.8131 363.593 74.3198C364.273 74.8131 364.613 75.5198 364.613 76.4398C364.613 77.3998 364.267 78.1531 363.573 78.6998C362.893 79.2331 361.94 79.4998 360.713 79.4998H352.793ZM354.593 78.9598L353.893 78.0998H360.413C361.2 78.0998 361.78 77.9464 362.153 77.6398C362.54 77.3331 362.733 76.8931 362.733 76.3198C362.733 75.7331 362.5 75.2731 362.033 74.9398C361.58 74.6064 360.867 74.4398 359.893 74.4398H354.333V73.1198H359.773C360.507 73.1198 361.06 72.9531 361.433 72.6198C361.82 72.2864 362.013 71.8464 362.013 71.2998C362.013 70.7798 361.84 70.3731 361.493 70.0798C361.16 69.7731 360.64 69.6198 359.933 69.6198H353.913L354.593 68.7798L355.093 73.8598L354.593 78.9598ZM377.62 79.4998L377.22 75.2398L377.72 73.8598L377.22 72.4998L377.62 68.2398H379.5L378.98 73.8598L379.5 79.4998H377.62ZM378.34 73.8598C378.047 75.0331 377.593 76.0664 376.98 76.9598C376.38 77.8398 375.647 78.5264 374.78 79.0198C373.927 79.5131 372.98 79.7598 371.94 79.7598C370.833 79.7598 369.853 79.5131 369 79.0198C368.147 78.5131 367.473 77.8198 366.98 76.9398C366.5 76.0464 366.26 75.0198 366.26 73.8598C366.26 72.6864 366.5 71.6598 366.98 70.7798C367.473 69.8998 368.147 69.2131 369 68.7198C369.853 68.2264 370.833 67.9798 371.94 67.9798C372.98 67.9798 373.927 68.2264 374.78 68.7198C375.647 69.2131 376.387 69.8998 377 70.7798C377.613 71.6598 378.06 72.6864 378.34 73.8598ZM368.14 73.8598C368.14 74.7131 368.313 75.4664 368.66 76.1198C369.02 76.7731 369.507 77.2864 370.12 77.6598C370.747 78.0198 371.453 78.1998 372.24 78.1998C373.04 78.1998 373.773 78.0198 374.44 77.6598C375.12 77.2864 375.72 76.7731 376.24 76.1198C376.773 75.4664 377.207 74.7131 377.54 73.8598C377.207 73.0064 376.773 72.2531 376.24 71.5998C375.72 70.9464 375.12 70.4398 374.44 70.0798C373.773 69.7064 373.04 69.5198 372.24 69.5198C371.453 69.5198 370.747 69.7064 370.12 70.0798C369.507 70.4398 369.02 70.9464 368.66 71.5998C368.313 72.2531 368.14 73.0064 368.14 73.8598ZM385.892 68.8598H387.732V79.4998H385.892V68.8598ZM381.012 68.2398H392.612V69.7398H381.012V68.2398ZM394.361 79.4998V68.2398H396.201V78.9198L395.461 78.0398H400.721C401.521 78.0398 402.155 77.8398 402.621 77.4398C403.088 77.0264 403.321 76.4731 403.321 75.7798C403.321 75.0731 403.088 74.5198 402.621 74.1198C402.155 73.7064 401.521 73.4998 400.721 73.4998H395.601V72.0798H400.881C401.748 72.0798 402.501 72.2331 403.141 72.5398C403.795 72.8464 404.301 73.2798 404.661 73.8398C405.021 74.3998 405.201 75.0464 405.201 75.7798C405.201 76.5264 405.021 77.1798 404.661 77.7398C404.301 78.2998 403.795 78.7331 403.141 79.0398C402.501 79.3464 401.748 79.4998 400.881 79.4998H394.361ZM117.887 111.76C116.807 111.76 115.827 111.573 114.947 111.2C114.067 110.826 113.334 110.313 112.747 109.66C112.174 108.993 111.794 108.24 111.607 107.4H113.507C113.747 108.253 114.254 108.946 115.027 109.48C115.814 110 116.767 110.26 117.887 110.26C118.807 110.26 119.607 110.08 120.287 109.72C120.981 109.36 121.514 108.853 121.887 108.2C122.261 107.533 122.447 106.753 122.447 105.86C122.447 104.966 122.261 104.193 121.887 103.54C121.514 102.873 120.981 102.36 120.287 102C119.607 101.64 118.807 101.46 117.887 101.46C116.781 101.46 115.834 101.726 115.047 102.26C114.261 102.793 113.747 103.48 113.507 104.32H111.607C111.794 103.466 112.174 102.72 112.747 102.08C113.334 101.426 114.067 100.913 114.947 100.54C115.827 100.166 116.807 99.9798 117.887 99.9798C119.154 99.9798 120.267 100.226 121.227 100.72C122.187 101.213 122.934 101.906 123.467 102.8C124.014 103.68 124.287 104.7 124.287 105.86C124.287 107.02 124.014 108.046 123.467 108.94C122.934 109.82 122.187 110.513 121.227 111.02C120.267 111.513 119.154 111.76 117.887 111.76ZM123.307 106.58H116.007V105.16H123.307V106.58ZM126.607 111.5V100.24H129.327L134.687 110.74H133.727L139.067 100.24H141.787V111.5H140.047V100.76H140.667L135.107 111.5H133.287L127.727 100.78H128.347V111.5H126.607ZM150.791 111.76C149.471 111.76 148.304 111.513 147.291 111.02C146.291 110.526 145.511 109.833 144.951 108.94C144.391 108.046 144.111 107.02 144.111 105.86C144.111 104.686 144.391 103.66 144.951 102.78C145.511 101.9 146.291 101.213 147.291 100.72C148.304 100.226 149.471 99.9798 150.791 99.9798C152.124 99.9798 153.291 100.226 154.291 100.72C155.291 101.213 156.071 101.9 156.631 102.78C157.204 103.66 157.491 104.686 157.491 105.86C157.491 107.02 157.204 108.046 156.631 108.94C156.071 109.833 155.291 110.526 154.291 111.02C153.291 111.513 152.124 111.76 150.791 111.76ZM150.791 110.22C151.778 110.22 152.631 110.046 153.351 109.7C154.071 109.34 154.624 108.833 155.011 108.18C155.411 107.526 155.611 106.753 155.611 105.86C155.611 104.98 155.411 104.213 155.011 103.56C154.624 102.906 154.071 102.4 153.351 102.04C152.631 101.68 151.778 101.5 150.791 101.5C149.818 101.5 148.964 101.68 148.231 102.04C147.511 102.4 146.958 102.906 146.571 103.56C146.184 104.213 145.991 104.98 145.991 105.86C145.991 106.753 146.184 107.526 146.571 108.18C146.958 108.833 147.511 109.34 148.231 109.7C148.964 110.046 149.818 110.22 150.791 110.22ZM171.071 100.24V110.54L170.711 110H173.171V114.42H171.551V111.02L172.011 111.5H159.791V100.24H161.631V110.54L161.171 110H169.551L169.231 110.54V100.24H171.071ZM175.084 111.5V100.24H176.904V110.66L176.204 110.56L184.824 100.24H187.204V111.5H185.384V100.98L186.104 101.1L177.424 111.5H175.084ZM190.201 111.5V100.24H192.021V110.66L191.321 110.56L199.941 100.24H202.321V111.5H200.501V100.98L201.221 101.1L192.541 111.5H190.201ZM204.598 114.14L206.058 110.94L206.158 111.6C205.905 111.6 205.678 111.546 205.478 111.44C205.292 111.32 205.138 111.16 205.018 110.96C204.912 110.76 204.858 110.546 204.858 110.32C204.858 110.08 204.912 109.866 205.018 109.68C205.138 109.48 205.292 109.326 205.478 109.22C205.678 109.1 205.898 109.04 206.138 109.04C206.405 109.04 206.632 109.1 206.818 109.22C207.018 109.34 207.172 109.506 207.278 109.72C207.398 109.92 207.458 110.146 207.458 110.4C207.458 110.666 207.405 110.94 207.298 111.22C207.205 111.5 207.025 111.873 206.758 112.34L205.758 114.14H204.598ZM316.373 111.5V100.24H318.193V110.66L317.493 110.56L326.113 100.24H328.493V111.5H326.673V100.98L327.393 101.1L318.713 111.5H316.373ZM95.6738 136.76C94.3538 136.76 93.1871 136.513 92.1738 136.02C91.1738 135.526 90.3938 134.833 89.8338 133.94C89.2738 133.046 88.9938 132.02 88.9938 130.86C88.9938 129.686 89.2738 128.66 89.8338 127.78C90.3938 126.9 91.1738 126.213 92.1738 125.72C93.1871 125.226 94.3538 124.98 95.6738 124.98C97.0071 124.98 98.1738 125.226 99.1738 125.72C100.174 126.213 100.954 126.9 101.514 127.78C102.087 128.66 102.374 129.686 102.374 130.86C102.374 132.02 102.087 133.046 101.514 133.94C100.954 134.833 100.174 135.526 99.1738 136.02C98.1738 136.513 97.0071 136.76 95.6738 136.76ZM95.6738 135.22C96.6605 135.22 97.5138 135.046 98.2338 134.7C98.9538 134.34 99.5071 133.833 99.8938 133.18C100.294 132.526 100.494 131.753 100.494 130.86C100.494 129.98 100.294 129.213 99.8938 128.56C99.5071 127.906 98.9538 127.4 98.2338 127.04C97.5138 126.68 96.6605 126.5 95.6738 126.5C94.7005 126.5 93.8471 126.68 93.1138 127.04C92.3938 127.4 91.8405 127.906 91.4538 128.56C91.0671 129.213 90.8738 129.98 90.8738 130.86C90.8738 131.753 91.0671 132.526 91.4538 133.18C91.8405 133.833 92.3938 134.34 93.1138 134.7C93.8471 135.046 94.7005 135.22 95.6738 135.22ZM107.689 125.86H109.529V136.5H107.689V125.86ZM102.809 125.24H114.409V126.74H102.809V125.24ZM116.158 125.24H117.978V136.5H116.158V125.24ZM125.838 125.24H127.678V136.5H125.838V125.24ZM117.178 130.06H126.698V131.56H117.178V130.06ZM136.65 136.76C135.33 136.76 134.164 136.513 133.15 136.02C132.15 135.526 131.37 134.833 130.81 133.94C130.25 133.046 129.97 132.02 129.97 130.86C129.97 129.686 130.25 128.66 130.81 127.78C131.37 126.9 132.15 126.213 133.15 125.72C134.164 125.226 135.33 124.98 136.65 124.98C137.984 124.98 139.15 125.226 140.15 125.72C141.15 126.213 141.93 126.9 142.49 127.78C143.064 128.66 143.35 129.686 143.35 130.86C143.35 132.02 143.064 133.046 142.49 133.94C141.93 134.833 141.15 135.526 140.15 136.02C139.15 136.513 137.984 136.76 136.65 136.76ZM136.65 135.22C137.637 135.22 138.49 135.046 139.21 134.7C139.93 134.34 140.484 133.833 140.87 133.18C141.27 132.526 141.47 131.753 141.47 130.86C141.47 129.98 141.27 129.213 140.87 128.56C140.484 127.906 139.93 127.4 139.21 127.04C138.49 126.68 137.637 126.5 136.65 126.5C135.677 126.5 134.824 126.68 134.09 127.04C133.37 127.4 132.817 127.906 132.43 128.56C132.044 129.213 131.85 129.98 131.85 130.86C131.85 131.753 132.044 132.526 132.43 133.18C132.817 133.833 133.37 134.34 134.09 134.7C134.824 135.046 135.677 135.22 136.65 135.22ZM157.61 132.22C157.464 133.113 157.097 133.9 156.51 134.58C155.937 135.26 155.204 135.793 154.31 136.18C153.417 136.566 152.43 136.76 151.35 136.76C150.097 136.76 148.99 136.513 148.03 136.02C147.07 135.513 146.317 134.82 145.77 133.94C145.237 133.046 144.97 132.02 144.97 130.86C144.97 129.7 145.237 128.68 145.77 127.8C146.317 126.906 147.07 126.213 148.03 125.72C148.99 125.226 150.097 124.98 151.35 124.98C152.43 124.98 153.417 125.173 154.31 125.56C155.204 125.933 155.937 126.46 156.51 127.14C157.097 127.82 157.464 128.613 157.61 129.52H155.71C155.51 128.586 155.01 127.853 154.21 127.32C153.424 126.773 152.47 126.5 151.35 126.5C150.444 126.5 149.65 126.68 148.97 127.04C148.304 127.4 147.784 127.906 147.41 128.56C147.037 129.2 146.85 129.966 146.85 130.86C146.85 131.753 147.037 132.526 147.41 133.18C147.784 133.833 148.304 134.34 148.97 134.7C149.65 135.046 150.444 135.22 151.35 135.22C152.484 135.22 153.444 134.946 154.23 134.4C155.03 133.853 155.524 133.126 155.71 132.22H157.61ZM159.791 136.5V125.24H161.611V135.66L160.911 135.56L169.531 125.24H171.911V136.5H170.091V125.98L170.811 126.1L162.131 136.5H159.791ZM178.548 125.86H180.388V136.5H178.548V125.86ZM173.668 125.24H185.268V126.74H173.668V125.24ZM187.018 136.5V125.24H188.858V135.92L188.118 135.04H193.378C194.178 135.04 194.811 134.84 195.278 134.44C195.744 134.026 195.978 133.473 195.978 132.78C195.978 132.073 195.744 131.52 195.278 131.12C194.811 130.706 194.178 130.5 193.378 130.5H188.258V129.08H193.538C194.404 129.08 195.158 129.233 195.798 129.54C196.451 129.846 196.958 130.28 197.318 130.84C197.678 131.4 197.858 132.046 197.858 132.78C197.858 133.526 197.678 134.18 197.318 134.74C196.958 135.3 196.451 135.733 195.798 136.04C195.158 136.346 194.404 136.5 193.538 136.5H187.018ZM211.81 132.22C211.663 133.113 211.296 133.9 210.71 134.58C210.136 135.26 209.403 135.793 208.51 136.18C207.616 136.566 206.63 136.76 205.55 136.76C204.296 136.76 203.19 136.513 202.23 136.02C201.27 135.513 200.516 134.82 199.97 133.94C199.436 133.046 199.17 132.02 199.17 130.86C199.17 129.7 199.436 128.68 199.97 127.8C200.516 126.906 201.27 126.213 202.23 125.72C203.19 125.226 204.296 124.98 205.55 124.98C206.63 124.98 207.616 125.173 208.51 125.56C209.403 125.933 210.136 126.46 210.71 127.14C211.296 127.82 211.663 128.613 211.81 129.52H209.91C209.71 128.586 209.21 127.853 208.41 127.32C207.623 126.773 206.67 126.5 205.55 126.5C204.643 126.5 203.85 126.68 203.17 127.04C202.503 127.4 201.983 127.906 201.61 128.56C201.236 129.2 201.05 129.966 201.05 130.86C201.05 131.753 201.236 132.526 201.61 133.18C201.983 133.833 202.503 134.34 203.17 134.7C203.85 135.046 204.643 135.22 205.55 135.22C206.683 135.22 207.643 134.946 208.43 134.4C209.23 133.853 209.723 133.126 209.91 132.22H211.81ZM223.27 130.68V132.08H217.41L217.39 132.04C216.59 132.04 215.89 131.9 215.29 131.62C214.704 131.34 214.244 130.946 213.91 130.44C213.577 129.92 213.41 129.32 213.41 128.64C213.41 127.973 213.577 127.386 213.91 126.88C214.244 126.36 214.704 125.96 215.29 125.68C215.89 125.386 216.59 125.24 217.39 125.24H224.55V136.5H222.71V125.82L223.41 126.66H217.67C216.924 126.66 216.337 126.84 215.91 127.2C215.484 127.56 215.27 128.046 215.27 128.66C215.27 129.26 215.484 129.746 215.91 130.12C216.337 130.493 216.924 130.68 217.67 130.68H223.27ZM219.89 131.22L215.43 136.5H213.21L217.73 131.22H219.89ZM233.072 136.5V125.24H234.912V134.84L234.352 134.64L242.152 125.24H244.292L234.772 136.5H233.072ZM242.472 136.5L238.752 130.88L239.952 129.5L244.672 136.5H242.472ZM263.665 132.22C263.518 133.113 263.152 133.9 262.565 134.58C261.992 135.26 261.258 135.793 260.365 136.18C259.472 136.566 258.485 136.76 257.405 136.76C256.152 136.76 255.045 136.513 254.085 136.02C253.125 135.513 252.372 134.82 251.825 133.94C251.292 133.046 251.025 132.02 251.025 130.86C251.025 129.7 251.292 128.68 251.825 127.8C252.372 126.906 253.125 126.213 254.085 125.72C255.045 125.226 256.152 124.98 257.405 124.98C258.485 124.98 259.472 125.173 260.365 125.56C261.258 125.933 261.992 126.46 262.565 127.14C263.152 127.82 263.518 128.613 263.665 129.52H261.765C261.565 128.586 261.065 127.853 260.265 127.32C259.478 126.773 258.525 126.5 257.405 126.5C256.498 126.5 255.705 126.68 255.025 127.04C254.358 127.4 253.838 127.906 253.465 128.56C253.092 129.2 252.905 129.966 252.905 130.86C252.905 131.753 253.092 132.526 253.465 133.18C253.838 133.833 254.358 134.34 255.025 134.7C255.705 135.046 256.498 135.22 257.405 135.22C258.538 135.22 259.498 134.946 260.285 134.4C261.085 133.853 261.578 133.126 261.765 132.22H263.665ZM271.786 136.76C270.492 136.76 269.346 136.513 268.346 136.02C267.359 135.513 266.579 134.82 266.006 133.94C265.446 133.046 265.166 132.02 265.166 130.86C265.166 129.686 265.432 128.66 265.966 127.78C266.499 126.9 267.239 126.213 268.186 125.72C269.132 125.226 270.219 124.98 271.446 124.98C272.659 124.98 273.719 125.246 274.626 125.78C275.532 126.313 276.232 127.066 276.726 128.04C277.232 129 277.486 130.12 277.486 131.4H266.566V129.94H276.706L275.626 130.6C275.586 129.76 275.386 129.033 275.026 128.42C274.666 127.806 274.179 127.333 273.566 127C272.952 126.666 272.239 126.5 271.426 126.5C270.546 126.5 269.779 126.68 269.126 127.04C268.472 127.386 267.959 127.88 267.586 128.52C267.226 129.16 267.046 129.913 267.046 130.78C267.046 131.686 267.252 132.473 267.666 133.14C268.079 133.806 268.659 134.32 269.406 134.68C270.152 135.04 271.032 135.22 272.046 135.22C272.966 135.22 273.866 135.066 274.746 134.76C275.639 134.453 276.439 134.033 277.146 133.5V134.94C276.452 135.5 275.626 135.946 274.666 136.28C273.706 136.6 272.746 136.76 271.786 136.76ZM286.251 136.76C284.798 136.76 283.551 136.466 282.511 135.88C281.471 135.28 280.671 134.42 280.111 133.3C279.565 132.18 279.291 130.84 279.291 129.28C279.291 126.933 279.885 125.086 281.071 123.74C282.271 122.38 283.971 121.613 286.171 121.44C287.051 121.36 287.778 121.293 288.351 121.24C288.938 121.186 289.418 121.133 289.791 121.08C290.165 121.013 290.478 120.946 290.731 120.88C290.998 120.813 291.258 120.733 291.511 120.64V122.32C291.271 122.426 290.945 122.52 290.531 122.6C290.118 122.68 289.585 122.753 288.931 122.82C288.291 122.873 287.505 122.926 286.571 122.98C284.731 123.086 283.331 123.673 282.371 124.74C281.411 125.806 280.931 127.313 280.931 129.26V130L280.771 129.92C281.091 129.08 281.531 128.366 282.091 127.78C282.665 127.193 283.338 126.746 284.111 126.44C284.898 126.133 285.758 125.98 286.691 125.98C287.851 125.98 288.865 126.206 289.731 126.66C290.598 127.1 291.271 127.72 291.751 128.52C292.245 129.32 292.491 130.246 292.491 131.3C292.491 132.406 292.231 133.366 291.711 134.18C291.191 134.993 290.465 135.626 289.531 136.08C288.598 136.533 287.505 136.76 286.251 136.76ZM286.291 135.22C287.171 135.22 287.931 135.06 288.571 134.74C289.225 134.42 289.725 133.966 290.071 133.38C290.431 132.793 290.611 132.113 290.611 131.34C290.611 130.553 290.431 129.873 290.071 129.3C289.725 128.713 289.225 128.26 288.571 127.94C287.931 127.62 287.171 127.46 286.291 127.46C285.118 127.46 284.091 127.78 283.211 128.42C282.345 129.06 281.698 129.973 281.271 131.16C281.525 132.426 282.091 133.42 282.971 134.14C283.865 134.86 284.971 135.22 286.291 135.22ZM300.79 136.76C299.496 136.76 298.35 136.513 297.35 136.02C296.363 135.513 295.583 134.82 295.01 133.94C294.45 133.046 294.17 132.02 294.17 130.86C294.17 129.686 294.436 128.66 294.97 127.78C295.503 126.9 296.243 126.213 297.19 125.72C298.136 125.226 299.223 124.98 300.45 124.98C301.663 124.98 302.723 125.246 303.63 125.78C304.536 126.313 305.236 127.066 305.73 128.04C306.236 129 306.49 130.12 306.49 131.4H295.57V129.94H305.71L304.63 130.6C304.59 129.76 304.39 129.033 304.03 128.42C303.67 127.806 303.183 127.333 302.57 127C301.956 126.666 301.243 126.5 300.43 126.5C299.55 126.5 298.783 126.68 298.13 127.04C297.476 127.386 296.963 127.88 296.59 128.52C296.23 129.16 296.05 129.913 296.05 130.78C296.05 131.686 296.256 132.473 296.67 133.14C297.083 133.806 297.663 134.32 298.41 134.68C299.156 135.04 300.036 135.22 301.05 135.22C301.97 135.22 302.87 135.066 303.75 134.76C304.643 134.453 305.443 134.033 306.15 133.5V134.94C305.456 135.5 304.63 135.946 303.67 136.28C302.71 136.6 301.75 136.76 300.79 136.76ZM314.303 136.5V125.24H316.123V135.66L315.423 135.56L324.043 125.24H326.423V136.5H324.603V125.98L325.323 126.1L316.643 136.5H314.303ZM346.907 132.22C346.761 133.113 346.394 133.9 345.807 134.58C345.234 135.26 344.501 135.793 343.607 136.18C342.714 136.566 341.727 136.76 340.647 136.76C339.394 136.76 338.287 136.513 337.327 136.02C336.367 135.513 335.614 134.82 335.067 133.94C334.534 133.046 334.267 132.02 334.267 130.86C334.267 129.7 334.534 128.68 335.067 127.8C335.614 126.906 336.367 126.213 337.327 125.72C338.287 125.226 339.394 124.98 340.647 124.98C341.727 124.98 342.714 125.173 343.607 125.56C344.501 125.933 345.234 126.46 345.807 127.14C346.394 127.82 346.761 128.613 346.907 129.52H345.007C344.807 128.586 344.307 127.853 343.507 127.32C342.721 126.773 341.767 126.5 340.647 126.5C339.741 126.5 338.947 126.68 338.267 127.04C337.601 127.4 337.081 127.906 336.707 128.56C336.334 129.2 336.147 129.966 336.147 130.86C336.147 131.753 336.334 132.526 336.707 133.18C337.081 133.833 337.601 134.34 338.267 134.7C338.947 135.046 339.741 135.22 340.647 135.22C341.781 135.22 342.741 134.946 343.527 134.4C344.327 133.853 344.821 133.126 345.007 132.22H346.907ZM348.848 136.5L349.368 130.86L348.848 125.24H356.488C357.581 125.24 358.428 125.493 359.028 126C359.641 126.493 359.948 127.193 359.948 128.1C359.948 128.926 359.641 129.586 359.028 130.08C358.428 130.56 357.595 130.84 356.528 130.92L356.708 130.54C357.988 130.553 358.968 130.813 359.648 131.32C360.328 131.813 360.668 132.52 360.668 133.44C360.668 134.4 360.321 135.153 359.628 135.7C358.948 136.233 357.995 136.5 356.768 136.5H348.848ZM350.648 135.96L349.948 135.1H356.468C357.255 135.1 357.835 134.946 358.208 134.64C358.595 134.333 358.788 133.893 358.788 133.32C358.788 132.733 358.555 132.273 358.088 131.94C357.635 131.606 356.921 131.44 355.948 131.44H350.388V130.12H355.828C356.561 130.12 357.115 129.953 357.488 129.62C357.875 129.286 358.068 128.846 358.068 128.3C358.068 127.78 357.895 127.373 357.548 127.08C357.215 126.773 356.695 126.62 355.988 126.62H349.968L350.648 125.78L351.148 130.86L350.648 135.96ZM368.975 136.76C367.655 136.76 366.488 136.513 365.475 136.02C364.475 135.526 363.695 134.833 363.135 133.94C362.575 133.046 362.295 132.02 362.295 130.86C362.295 129.686 362.575 128.66 363.135 127.78C363.695 126.9 364.475 126.213 365.475 125.72C366.488 125.226 367.655 124.98 368.975 124.98C370.308 124.98 371.475 125.226 372.475 125.72C373.475 126.213 374.255 126.9 374.815 127.78C375.388 128.66 375.675 129.686 375.675 130.86C375.675 132.02 375.388 133.046 374.815 133.94C374.255 134.833 373.475 135.526 372.475 136.02C371.475 136.513 370.308 136.76 368.975 136.76ZM368.975 135.22C369.961 135.22 370.815 135.046 371.535 134.7C372.255 134.34 372.808 133.833 373.195 133.18C373.595 132.526 373.795 131.753 373.795 130.86C373.795 129.98 373.595 129.213 373.195 128.56C372.808 127.906 372.255 127.4 371.535 127.04C370.815 126.68 369.961 126.5 368.975 126.5C368.001 126.5 367.148 126.68 366.415 127.04C365.695 127.4 365.141 127.906 364.755 128.56C364.368 129.213 364.175 129.98 364.175 130.86C364.175 131.753 364.368 132.526 364.755 133.18C365.141 133.833 365.695 134.34 366.415 134.7C367.148 135.046 368.001 135.22 368.975 135.22ZM383.915 136.76C382.621 136.76 381.475 136.513 380.475 136.02C379.488 135.513 378.708 134.82 378.135 133.94C377.575 133.046 377.295 132.02 377.295 130.86C377.295 129.686 377.561 128.66 378.095 127.78C378.628 126.9 379.368 126.213 380.315 125.72C381.261 125.226 382.348 124.98 383.575 124.98C384.788 124.98 385.848 125.246 386.755 125.78C387.661 126.313 388.361 127.066 388.855 128.04C389.361 129 389.615 130.12 389.615 131.4H378.695V129.94H388.835L387.755 130.6C387.715 129.76 387.515 129.033 387.155 128.42C386.795 127.806 386.308 127.333 385.695 127C385.081 126.666 384.368 126.5 383.555 126.5C382.675 126.5 381.908 126.68 381.255 127.04C380.601 127.386 380.088 127.88 379.715 128.52C379.355 129.16 379.175 129.913 379.175 130.78C379.175 131.686 379.381 132.473 379.795 133.14C380.208 133.806 380.788 134.32 381.535 134.68C382.281 135.04 383.161 135.22 384.175 135.22C385.095 135.22 385.995 135.066 386.875 134.76C387.768 134.453 388.568 134.033 389.275 133.5V134.94C388.581 135.5 387.755 135.946 386.795 136.28C385.835 136.6 384.875 136.76 383.915 136.76ZM391.9 136.5V125.24H394.62L399.98 135.74H399.02L404.36 125.24H407.08V136.5H405.34V125.76H405.96L400.4 136.5H398.58L393.02 125.78H393.64V136.5H391.9ZM412.324 140.06C411.751 140.06 411.237 139.986 410.784 139.84C410.331 139.693 409.884 139.48 409.444 139.2V137.74C409.884 138.02 410.311 138.226 410.724 138.36C411.137 138.493 411.611 138.56 412.144 138.56C412.717 138.56 413.211 138.426 413.624 138.16C414.037 137.906 414.384 137.486 414.664 136.9L420.284 125.24H422.244L416.084 137.58C415.804 138.153 415.471 138.62 415.084 138.98C414.711 139.353 414.291 139.626 413.824 139.8C413.371 139.973 412.871 140.06 412.324 140.06ZM414.204 136.14L408.864 125.24H410.884L416.064 136.14H414.204ZM139.435 161.5L144.155 154.5L145.355 155.88L141.635 161.5H139.435ZM158.515 161.5L154.815 155.88L155.995 154.5L160.715 161.5H158.515ZM150.995 159.78L150.455 159.58L158.195 150.24H160.335L150.795 161.5H149.375L139.815 150.24H141.955L149.715 159.58L149.175 159.78V150.24H150.995V159.78ZM162.281 161.5V150.24H164.101V160.66L163.401 160.56L172.021 150.24H174.401V161.5H172.581V150.98L173.301 151.1L164.621 161.5H162.281ZM182.338 161.76C181.218 161.76 180.225 161.606 179.358 161.3C178.505 160.98 177.832 160.526 177.338 159.94C176.845 159.353 176.572 158.66 176.518 157.86H178.318C178.425 158.633 178.825 159.226 179.518 159.64C180.225 160.04 181.165 160.24 182.338 160.24C183.485 160.24 184.378 160.08 185.018 159.76C185.672 159.426 185.998 158.913 185.998 158.22C185.998 157.646 185.732 157.226 185.198 156.96C184.678 156.68 183.845 156.54 182.698 156.54H180.358V155.16H182.638C183.665 155.16 184.425 154.986 184.918 154.64C185.425 154.293 185.678 153.873 185.678 153.38C185.678 152.766 185.372 152.3 184.758 151.98C184.158 151.646 183.372 151.48 182.398 151.48C181.332 151.48 180.458 151.666 179.778 152.04C179.098 152.4 178.698 152.946 178.578 153.68H176.778C176.858 152.973 177.132 152.34 177.598 151.78C178.065 151.22 178.712 150.78 179.538 150.46C180.365 150.14 181.345 149.98 182.478 149.98C183.518 149.98 184.418 150.12 185.178 150.4C185.938 150.666 186.525 151.04 186.938 151.52C187.352 152 187.558 152.546 187.558 153.16C187.558 153.68 187.398 154.153 187.078 154.58C186.772 155.006 186.298 155.346 185.658 155.6C185.032 155.853 184.232 155.98 183.258 155.98V155.64C184.712 155.6 185.845 155.813 186.658 156.28C187.485 156.746 187.898 157.42 187.898 158.3C187.898 158.98 187.678 159.58 187.238 160.1C186.812 160.62 186.185 161.026 185.358 161.32C184.532 161.613 183.525 161.76 182.338 161.76ZM190.23 150.24H192.05V161.5H190.23V150.24ZM199.91 150.24H201.75V161.5H199.91V150.24ZM191.25 155.06H200.77V156.56H191.25V155.06ZM210.663 161.76C209.369 161.76 208.223 161.513 207.223 161.02C206.236 160.513 205.456 159.82 204.883 158.94C204.323 158.046 204.043 157.02 204.043 155.86C204.043 154.686 204.309 153.66 204.843 152.78C205.376 151.9 206.116 151.213 207.063 150.72C208.009 150.226 209.096 149.98 210.323 149.98C211.536 149.98 212.596 150.246 213.503 150.78C214.409 151.313 215.109 152.066 215.603 153.04C216.109 154 216.363 155.12 216.363 156.4H205.443V154.94H215.583L214.503 155.6C214.463 154.76 214.263 154.033 213.903 153.42C213.543 152.806 213.056 152.333 212.443 152C211.829 151.666 211.116 151.5 210.303 151.5C209.423 151.5 208.656 151.68 208.003 152.04C207.349 152.386 206.836 152.88 206.463 153.52C206.103 154.16 205.923 154.913 205.923 155.78C205.923 156.686 206.129 157.473 206.543 158.14C206.956 158.806 207.536 159.32 208.283 159.68C209.029 160.04 209.909 160.22 210.923 160.22C211.843 160.22 212.743 160.066 213.623 159.76C214.516 159.453 215.316 159.033 216.023 158.5V159.94C215.329 160.5 214.503 160.946 213.543 161.28C212.583 161.6 211.623 161.76 210.663 161.76ZM218.648 150.24H220.468V161.5H218.648V150.24ZM228.328 150.24H230.168V161.5H228.328V150.24ZM219.668 155.06H229.188V156.56H219.668V155.06ZM233.141 150.24H234.961V161.5H233.141V150.24ZM242.821 150.24H244.661V161.5H242.821V150.24ZM234.161 155.06H243.681V156.56H234.161V155.06ZM253.633 161.76C252.313 161.76 251.146 161.513 250.133 161.02C249.133 160.526 248.353 159.833 247.793 158.94C247.233 158.046 246.953 157.02 246.953 155.86C246.953 154.686 247.233 153.66 247.793 152.78C248.353 151.9 249.133 151.213 250.133 150.72C251.146 150.226 252.313 149.98 253.633 149.98C254.966 149.98 256.133 150.226 257.133 150.72C258.133 151.213 258.913 151.9 259.473 152.78C260.046 153.66 260.333 154.686 260.333 155.86C260.333 157.02 260.046 158.046 259.473 158.94C258.913 159.833 258.133 160.526 257.133 161.02C256.133 161.513 254.966 161.76 253.633 161.76ZM253.633 160.22C254.619 160.22 255.473 160.046 256.193 159.7C256.913 159.34 257.466 158.833 257.853 158.18C258.253 157.526 258.453 156.753 258.453 155.86C258.453 154.98 258.253 154.213 257.853 153.56C257.466 152.906 256.913 152.4 256.193 152.04C255.473 151.68 254.619 151.5 253.633 151.5C252.659 151.5 251.806 151.68 251.073 152.04C250.353 152.4 249.799 152.906 249.413 153.56C249.026 154.213 248.833 154.98 248.833 155.86C248.833 156.753 249.026 157.526 249.413 158.18C249.799 158.833 250.353 159.34 251.073 159.7C251.806 160.046 252.659 160.22 253.633 160.22ZM262.633 161.5V150.24H265.353L270.713 160.74H269.753L275.093 150.24H277.813V161.5H276.073V150.76H276.693L271.133 161.5H269.313L263.753 150.78H264.373V161.5H262.633ZM283.056 165.06C282.483 165.06 281.97 164.986 281.516 164.84C281.063 164.693 280.616 164.48 280.176 164.2V162.74C280.616 163.02 281.043 163.226 281.456 163.36C281.87 163.493 282.343 163.56 282.876 163.56C283.45 163.56 283.943 163.426 284.356 163.16C284.77 162.906 285.116 162.486 285.396 161.9L291.016 150.24H292.976L286.816 162.58C286.536 163.153 286.203 163.62 285.816 163.98C285.443 164.353 285.023 164.626 284.556 164.8C284.103 164.973 283.603 165.06 283.056 165.06ZM284.936 161.14L279.596 150.24H281.616L286.796 161.14H284.936ZM305.586 161.76C304.266 161.76 303.099 161.513 302.086 161.02C301.086 160.526 300.306 159.833 299.746 158.94C299.186 158.046 298.906 157.02 298.906 155.86C298.906 154.686 299.186 153.66 299.746 152.78C300.306 151.9 301.086 151.213 302.086 150.72C303.099 150.226 304.266 149.98 305.586 149.98C306.919 149.98 308.086 150.226 309.086 150.72C310.086 151.213 310.866 151.9 311.426 152.78C311.999 153.66 312.286 154.686 312.286 155.86C312.286 157.02 311.999 158.046 311.426 158.94C310.866 159.833 310.086 160.526 309.086 161.02C308.086 161.513 306.919 161.76 305.586 161.76ZM305.586 160.22C306.573 160.22 307.426 160.046 308.146 159.7C308.866 159.34 309.419 158.833 309.806 158.18C310.206 157.526 310.406 156.753 310.406 155.86C310.406 154.98 310.206 154.213 309.806 153.56C309.419 152.906 308.866 152.4 308.146 152.04C307.426 151.68 306.573 151.5 305.586 151.5C304.613 151.5 303.759 151.68 303.026 152.04C302.306 152.4 301.753 152.906 301.366 153.56C300.979 154.213 300.786 154.98 300.786 155.86C300.786 156.753 300.979 157.526 301.366 158.18C301.753 158.833 302.306 159.34 303.026 159.7C303.759 160.046 304.613 160.22 305.586 160.22ZM326.026 150.24V161.5H324.186V150.88L325.026 151.72H315.566L316.426 150.88V161.5H314.586V150.24H326.026ZM341.3 150.24H343.14V161.5H341.3V150.24ZM329 161.5V150.24H330.84V160.92L330.1 160.04H335.36C336.16 160.04 336.793 159.84 337.26 159.44C337.727 159.026 337.96 158.473 337.96 157.78C337.96 157.073 337.727 156.52 337.26 156.12C336.793 155.706 336.16 155.5 335.36 155.5H330.24V154.08H335.52C336.387 154.08 337.14 154.233 337.78 154.54C338.433 154.846 338.94 155.28 339.3 155.84C339.66 156.4 339.84 157.046 339.84 157.78C339.84 158.526 339.66 159.18 339.3 159.74C338.94 160.3 338.433 160.733 337.78 161.04C337.14 161.346 336.387 161.5 335.52 161.5H329ZM349.769 150.86H351.609V161.5H349.769V150.86ZM344.889 150.24H356.489V151.74H344.889V150.24ZM360.478 165.06C359.905 165.06 359.392 164.986 358.938 164.84C358.485 164.693 358.038 164.48 357.598 164.2V162.74C358.038 163.02 358.465 163.226 358.878 163.36C359.292 163.493 359.765 163.56 360.298 163.56C360.872 163.56 361.365 163.426 361.778 163.16C362.192 162.906 362.538 162.486 362.818 161.9L368.438 150.24H370.398L364.238 162.58C363.958 163.153 363.625 163.62 363.238 163.98C362.865 164.353 362.445 164.626 361.978 164.8C361.525 164.973 361.025 165.06 360.478 165.06ZM362.358 161.14L357.018 150.24H359.038L364.218 161.14H362.358Z" fill="black"/>
<path d="M214.151 104.88C214.151 103.293 214.358 101.926 214.771 100.78C215.198 99.6198 215.911 98.6864 216.911 97.9798C217.911 97.2731 219.284 96.7998 221.031 96.5598C221.618 96.4798 222.264 96.3998 222.971 96.3198C223.691 96.2398 224.404 96.1731 225.111 96.1198L225.471 99.2798C225.138 99.3064 224.784 99.3398 224.411 99.3798C224.038 99.4064 223.658 99.4398 223.271 99.4798C222.898 99.5198 222.531 99.5598 222.171 99.5998C221.824 99.6398 221.498 99.6798 221.191 99.7198C220.511 99.7998 219.958 99.9264 219.531 100.1C219.118 100.26 218.798 100.466 218.571 100.72C218.358 100.973 218.204 101.273 218.111 101.62C218.018 101.953 217.958 102.34 217.931 102.78H218.091C218.224 102.54 218.424 102.3 218.691 102.06C218.958 101.806 219.291 101.6 219.691 101.44C220.091 101.266 220.558 101.18 221.091 101.18C221.918 101.18 222.651 101.346 223.291 101.68C223.944 102 224.458 102.506 224.831 103.2C225.218 103.893 225.411 104.806 225.411 105.94C225.411 107.206 225.171 108.273 224.691 109.14C224.211 109.993 223.544 110.633 222.691 111.06C221.851 111.486 220.871 111.7 219.751 111.7C218.898 111.7 218.124 111.553 217.431 111.26C216.751 110.953 216.164 110.513 215.671 109.94C215.178 109.353 214.798 108.64 214.531 107.8C214.278 106.946 214.151 105.973 214.151 104.88ZM219.951 108.86C220.271 108.86 220.544 108.78 220.771 108.62C221.011 108.446 221.198 108.18 221.331 107.82C221.464 107.446 221.531 106.96 221.531 106.36C221.531 105.653 221.424 105.066 221.211 104.6C221.011 104.133 220.638 103.9 220.091 103.9C219.784 103.9 219.484 103.986 219.191 104.16C218.911 104.32 218.664 104.506 218.451 104.72C218.238 104.933 218.098 105.12 218.031 105.28C218.031 105.693 218.064 106.113 218.131 106.54C218.198 106.966 218.304 107.353 218.451 107.7C218.611 108.046 218.811 108.326 219.051 108.54C219.304 108.753 219.604 108.86 219.951 108.86ZM232.638 100.24C233.718 100.24 234.645 100.426 235.418 100.8C236.205 101.173 236.805 101.733 237.218 102.48C237.645 103.226 237.858 104.166 237.858 105.3V107H231.038C231.065 107.573 231.278 108.046 231.678 108.42C232.091 108.793 232.685 108.98 233.458 108.98C234.151 108.98 234.785 108.913 235.358 108.78C235.931 108.646 236.525 108.433 237.138 108.14V110.88C236.605 111.16 236.018 111.366 235.378 111.5C234.751 111.633 233.958 111.7 232.998 111.7C231.878 111.7 230.878 111.506 229.998 111.12C229.131 110.72 228.445 110.1 227.938 109.26C227.431 108.42 227.178 107.346 227.178 106.04C227.178 104.706 227.405 103.613 227.858 102.76C228.325 101.906 228.965 101.273 229.778 100.86C230.605 100.446 231.558 100.24 232.638 100.24ZM232.778 102.84C232.325 102.84 231.945 102.98 231.638 103.26C231.345 103.54 231.171 103.986 231.118 104.6H234.398C234.398 104.266 234.331 103.973 234.198 103.72C234.078 103.453 233.898 103.24 233.658 103.08C233.418 102.92 233.125 102.84 232.778 102.84ZM246.781 100.24C248.008 100.24 248.968 100.733 249.661 101.72C250.354 102.693 250.701 104.1 250.701 105.94C250.701 107.193 250.521 108.253 250.161 109.12C249.814 109.973 249.334 110.62 248.721 111.06C248.121 111.486 247.434 111.7 246.661 111.7C246.141 111.7 245.701 111.633 245.341 111.5C244.981 111.366 244.681 111.206 244.441 111.02C244.201 110.82 244.001 110.62 243.841 110.42H243.721C243.748 110.673 243.774 110.946 243.801 111.24C243.828 111.533 243.841 111.873 243.841 112.26V116.3H240.021V100.44H243.121L243.661 101.84H243.841C244.028 101.546 244.248 101.28 244.501 101.04C244.768 100.8 245.088 100.606 245.461 100.46C245.834 100.313 246.274 100.24 246.781 100.24ZM245.341 103.24C244.968 103.24 244.674 103.333 244.461 103.52C244.248 103.693 244.094 103.953 244.001 104.3C243.908 104.646 243.854 105.086 243.841 105.62V105.92C243.841 106.506 243.881 107 243.961 107.4C244.054 107.8 244.214 108.106 244.441 108.32C244.668 108.52 244.974 108.62 245.361 108.62C245.681 108.62 245.948 108.533 246.161 108.36C246.388 108.173 246.554 107.88 246.661 107.48C246.768 107.08 246.821 106.553 246.821 105.9C246.821 104.926 246.694 104.24 246.441 103.84C246.188 103.44 245.821 103.24 245.341 103.24ZM257.853 100.24C258.933 100.24 259.859 100.426 260.633 100.8C261.419 101.173 262.019 101.733 262.433 102.48C262.859 103.226 263.073 104.166 263.073 105.3V107H256.253C256.279 107.573 256.493 108.046 256.893 108.42C257.306 108.793 257.899 108.98 258.673 108.98C259.366 108.98 259.999 108.913 260.573 108.78C261.146 108.646 261.739 108.433 262.353 108.14V110.88C261.819 111.16 261.233 111.366 260.593 111.5C259.966 111.633 259.173 111.7 258.213 111.7C257.093 111.7 256.093 111.506 255.213 111.12C254.346 110.72 253.659 110.1 253.153 109.26C252.646 108.42 252.393 107.346 252.393 106.04C252.393 104.706 252.619 103.613 253.073 102.76C253.539 101.906 254.179 101.273 254.993 100.86C255.819 100.446 256.773 100.24 257.853 100.24ZM257.993 102.84C257.539 102.84 257.159 102.98 256.853 103.26C256.559 103.54 256.386 103.986 256.333 104.6H259.613C259.613 104.266 259.546 103.973 259.413 103.72C259.293 103.453 259.113 103.24 258.873 103.08C258.633 102.92 258.339 102.84 257.993 102.84ZM283.016 100.44L279.276 105.7L283.396 111.5H279.236L275.476 105.88V111.5H271.756V105.88L267.996 111.5H263.836L267.956 105.7L264.216 100.44H268.316L271.756 105.8V100.44H275.476V105.8L278.916 100.44H283.016ZM288.451 100.44V104.42H291.471V100.44H295.291V111.5H291.471V107.26H288.451V111.5H284.631V100.44H288.451ZM308.491 105.94C308.491 106.86 308.365 107.68 308.111 108.4C307.858 109.12 307.491 109.726 307.011 110.22C306.531 110.7 305.951 111.066 305.271 111.32C304.591 111.573 303.818 111.7 302.951 111.7C302.151 111.7 301.411 111.573 300.731 111.32C300.065 111.066 299.485 110.7 298.991 110.22C298.511 109.726 298.131 109.12 297.851 108.4C297.585 107.68 297.451 106.86 297.451 105.94C297.451 104.713 297.671 103.68 298.111 102.84C298.565 101.986 299.205 101.34 300.031 100.9C300.858 100.46 301.851 100.24 303.011 100.24C304.078 100.24 305.018 100.46 305.831 100.9C306.658 101.34 307.305 101.986 307.771 102.84C308.251 103.68 308.491 104.713 308.491 105.94ZM301.331 105.94C301.331 106.566 301.385 107.1 301.491 107.54C301.598 107.98 301.771 108.313 302.011 108.54C302.265 108.753 302.591 108.86 302.991 108.86C303.391 108.86 303.705 108.753 303.931 108.54C304.171 108.313 304.345 107.98 304.451 107.54C304.558 107.1 304.611 106.566 304.611 105.94C304.611 105.313 304.558 104.786 304.451 104.36C304.345 103.933 304.171 103.613 303.931 103.4C303.691 103.186 303.371 103.08 302.971 103.08C302.398 103.08 301.978 103.32 301.711 103.8C301.458 104.28 301.331 104.993 301.331 105.94ZM340.178 104.32C340.178 104.693 340.258 104.98 340.418 105.18C340.591 105.366 340.858 105.46 341.218 105.46C341.604 105.46 342.018 105.42 342.458 105.34C342.898 105.246 343.344 105.126 343.798 104.98V100.44H347.618V111.5H343.798V107.48C343.411 107.653 342.911 107.833 342.298 108.02C341.684 108.206 341.018 108.3 340.298 108.3C338.964 108.3 337.971 107.993 337.318 107.38C336.678 106.766 336.358 105.813 336.358 104.52V100.44H340.178V104.32ZM348.916 100.44H352.936L354.816 106.78C354.842 106.873 354.869 106.986 354.896 107.12C354.922 107.253 354.942 107.393 354.956 107.54C354.982 107.686 354.996 107.833 354.996 107.98H355.076C355.102 107.713 355.136 107.486 355.176 107.3C355.229 107.1 355.276 106.933 355.316 106.8L357.236 100.44H361.136L356.756 112.2C356.422 113.093 356.029 113.846 355.576 114.46C355.136 115.073 354.589 115.533 353.936 115.84C353.282 116.146 352.469 116.3 351.496 116.3C351.149 116.3 350.849 116.28 350.596 116.24C350.342 116.213 350.122 116.18 349.936 116.14V113.14C350.082 113.166 350.256 113.193 350.456 113.22C350.669 113.246 350.889 113.26 351.116 113.26C351.542 113.26 351.882 113.173 352.136 113C352.402 112.826 352.622 112.6 352.796 112.32C352.969 112.053 353.116 111.76 353.236 111.44L353.276 111.34L348.916 100.44ZM372.723 103.28H369.083V111.5H365.263V103.28H361.623V100.44H372.723V103.28ZM382.253 100.44H386.473L382.333 105.74L386.793 111.5H382.433L378.333 105.88V111.5H374.513V100.44H378.333V105.8L382.253 100.44ZM398.198 105.94C398.198 106.86 398.072 107.68 397.818 108.4C397.565 109.12 397.198 109.726 396.718 110.22C396.238 110.7 395.658 111.066 394.978 111.32C394.298 111.573 393.525 111.7 392.658 111.7C391.858 111.7 391.118 111.573 390.438 111.32C389.772 111.066 389.192 110.7 388.698 110.22C388.218 109.726 387.838 109.12 387.558 108.4C387.292 107.68 387.158 106.86 387.158 105.94C387.158 104.713 387.378 103.68 387.818 102.84C388.272 101.986 388.912 101.34 389.738 100.9C390.565 100.46 391.558 100.24 392.718 100.24C393.785 100.24 394.725 100.46 395.538 100.9C396.365 101.34 397.012 101.986 397.478 102.84C397.958 103.68 398.198 104.713 398.198 105.94ZM391.038 105.94C391.038 106.566 391.092 107.1 391.198 107.54C391.305 107.98 391.478 108.313 391.718 108.54C391.972 108.753 392.298 108.86 392.698 108.86C393.098 108.86 393.412 108.753 393.638 108.54C393.878 108.313 394.052 107.98 394.158 107.54C394.265 107.1 394.318 106.566 394.318 105.94C394.318 105.313 394.265 104.786 394.158 104.36C394.052 103.933 393.878 103.613 393.638 103.4C393.398 103.186 393.078 103.08 392.678 103.08C392.105 103.08 391.685 103.32 391.418 103.8C391.165 104.28 391.038 104.993 391.038 105.94Z" fill="white"/>
</svg>
