<svg width="446" height="198" viewBox="0 0 446 198" fill="none" xmlns="http://www.w3.org/2000/svg">
<path d="M54.6823 101.876C54.5756 102.826 54.2396 103.668 53.6743 104.404C53.109 105.13 52.3676 105.695 51.4503 106.1C50.5436 106.506 49.5036 106.708 48.3303 106.708C47.0076 106.708 45.845 106.447 44.8423 105.924C43.8503 105.402 43.077 104.676 42.5223 103.748C41.9676 102.81 41.6903 101.727 41.6903 100.5C41.6903 99.2629 41.9676 98.1802 42.5223 97.2522C43.077 96.3242 43.8503 95.5989 44.8423 95.0762C45.845 94.5536 47.0076 94.2922 48.3303 94.2922C49.5036 94.2922 50.5436 94.4949 51.4503 94.9002C52.3676 95.3056 53.109 95.8709 53.6743 96.5962C54.2396 97.3109 54.5756 98.1482 54.6823 99.1082H53.1623C53.0343 98.4042 52.757 97.7962 52.3303 97.2842C51.9036 96.7616 51.349 96.3616 50.6663 96.0842C49.9836 95.7962 49.1996 95.6522 48.3143 95.6522C47.2796 95.6522 46.3783 95.8496 45.6103 96.2442C44.853 96.6389 44.2663 97.1989 43.8503 97.9242C43.4343 98.6496 43.2263 99.5082 43.2263 100.5C43.2263 101.482 43.4343 102.335 43.8503 103.06C44.2663 103.786 44.853 104.351 45.6103 104.756C46.3783 105.151 47.2796 105.348 48.3143 105.348C49.1996 105.348 49.9836 105.21 50.6663 104.932C51.349 104.644 51.9036 104.244 52.3303 103.732C52.757 103.21 53.0343 102.591 53.1623 101.876H54.6823ZM59.3308 97.9882H60.8028V106.5H59.3308V97.9882ZM55.4268 97.4922H64.7068V98.6922H55.4268V97.4922ZM74.2132 106.5L73.8932 103.092L74.2932 101.988L73.8932 100.9L74.2132 97.4922H75.7172L75.3012 101.988L75.7172 106.5H74.2132ZM74.7892 101.988C74.5545 102.927 74.1919 103.754 73.7012 104.468C73.2212 105.172 72.6345 105.722 71.9412 106.116C71.2585 106.511 70.5012 106.708 69.6692 106.708C68.7839 106.708 67.9999 106.511 67.3172 106.116C66.6345 105.711 66.0959 105.156 65.7012 104.452C65.3172 103.738 65.1252 102.916 65.1252 101.988C65.1252 101.05 65.3172 100.228 65.7012 99.5242C66.0959 98.8202 66.6345 98.2709 67.3172 97.8762C67.9999 97.4816 68.7839 97.2842 69.6692 97.2842C70.5012 97.2842 71.2585 97.4816 71.9412 97.8762C72.6345 98.2709 73.2265 98.8202 73.7172 99.5242C74.2079 100.228 74.5652 101.05 74.7892 101.988ZM66.6292 101.988C66.6292 102.671 66.7679 103.274 67.0452 103.796C67.3332 104.319 67.7225 104.73 68.2132 105.028C68.7145 105.316 69.2799 105.46 69.9092 105.46C70.5492 105.46 71.1359 105.316 71.6692 105.028C72.2132 104.73 72.6932 104.319 73.1092 103.796C73.5359 103.274 73.8825 102.671 74.1492 101.988C73.8825 101.306 73.5359 100.703 73.1092 100.18C72.6932 99.6576 72.2132 99.2522 71.6692 98.9642C71.1359 98.6656 70.5492 98.5162 69.9092 98.5162C69.2799 98.5162 68.7145 98.6656 68.2132 98.9642C67.7225 99.2522 67.3332 99.6576 67.0452 100.18C66.7679 100.703 66.6292 101.306 66.6292 101.988ZM80.8308 97.9882H82.3028V106.5H80.8308V97.9882ZM76.9268 97.4922H86.2068V98.6922H76.9268V97.4922ZM87.6063 106.5V97.4922H89.0783V106.036L88.4863 105.332H92.6943C93.3343 105.332 93.841 105.172 94.2143 104.852C94.5876 104.522 94.7743 104.079 94.7743 103.524C94.7743 102.959 94.5876 102.516 94.2143 102.196C93.841 101.866 93.3343 101.7 92.6943 101.7H88.5983V100.564H92.8223C93.5156 100.564 94.1183 100.687 94.6303 100.932C95.153 101.178 95.5583 101.524 95.8463 101.972C96.1343 102.42 96.2783 102.938 96.2783 103.524C96.2783 104.122 96.1343 104.644 95.8463 105.092C95.5583 105.54 95.153 105.887 94.6303 106.132C94.1183 106.378 93.5156 106.5 92.8223 106.5H87.6063ZM103.117 109.348C102.658 109.348 102.248 109.29 101.885 109.172C101.522 109.055 101.165 108.884 100.813 108.66V107.492C101.165 107.716 101.506 107.882 101.837 107.988C102.168 108.095 102.546 108.148 102.973 108.148C103.432 108.148 103.826 108.042 104.157 107.828C104.488 107.626 104.765 107.29 104.989 106.82L109.485 97.4922H111.053L106.125 107.364C105.901 107.823 105.634 108.196 105.325 108.484C105.026 108.783 104.69 109.002 104.317 109.14C103.954 109.279 103.554 109.348 103.117 109.348ZM104.621 106.212L100.349 97.4922H101.965L106.109 106.212H104.621ZM121.565 103.076C121.448 103.791 121.154 104.42 120.685 104.964C120.226 105.508 119.64 105.935 118.925 106.244C118.21 106.554 117.421 106.708 116.557 106.708C115.554 106.708 114.669 106.511 113.901 106.116C113.133 105.711 112.53 105.156 112.093 104.452C111.666 103.738 111.453 102.916 111.453 101.988C111.453 101.06 111.666 100.244 112.093 99.5402C112.53 98.8256 113.133 98.2709 113.901 97.8762C114.669 97.4816 115.554 97.2842 116.557 97.2842C117.421 97.2842 118.21 97.4389 118.925 97.7482C119.64 98.0469 120.226 98.4682 120.685 99.0122C121.154 99.5562 121.448 100.191 121.565 100.916H120.045C119.885 100.17 119.485 99.5829 118.845 99.1562C118.216 98.7189 117.453 98.5002 116.557 98.5002C115.832 98.5002 115.197 98.6442 114.653 98.9322C114.12 99.2202 113.704 99.6256 113.405 100.148C113.106 100.66 112.957 101.274 112.957 101.988C112.957 102.703 113.106 103.322 113.405 103.844C113.704 104.367 114.12 104.772 114.653 105.06C115.197 105.338 115.832 105.476 116.557 105.476C117.464 105.476 118.232 105.258 118.861 104.82C119.501 104.383 119.896 103.802 120.045 103.076H121.565ZM125.784 97.9882H127.256V106.5H125.784V97.9882ZM121.88 97.4922H131.16V98.6922H121.88V97.4922ZM136.859 106.708C135.803 106.708 134.87 106.511 134.059 106.116C133.259 105.722 132.635 105.167 132.187 104.452C131.739 103.738 131.515 102.916 131.515 101.988C131.515 101.05 131.739 100.228 132.187 99.5242C132.635 98.8202 133.259 98.2709 134.059 97.8762C134.87 97.4816 135.803 97.2842 136.859 97.2842C137.926 97.2842 138.859 97.4816 139.659 97.8762C140.459 98.2709 141.083 98.8202 141.531 99.5242C141.99 100.228 142.219 101.05 142.219 101.988C142.219 102.916 141.99 103.738 141.531 104.452C141.083 105.167 140.459 105.722 139.659 106.116C138.859 106.511 137.926 106.708 136.859 106.708ZM136.859 105.476C137.649 105.476 138.331 105.338 138.907 105.06C139.483 104.772 139.926 104.367 140.235 103.844C140.555 103.322 140.715 102.703 140.715 101.988C140.715 101.284 140.555 100.671 140.235 100.148C139.926 99.6256 139.483 99.2202 138.907 98.9322C138.331 98.6442 137.649 98.5002 136.859 98.5002C136.081 98.5002 135.398 98.6442 134.811 98.9322C134.235 99.2202 133.793 99.6256 133.483 100.148C133.174 100.671 133.019 101.284 133.019 101.988C133.019 102.703 133.174 103.322 133.483 103.844C133.793 104.367 134.235 104.772 134.811 105.06C135.398 105.338 136.081 105.476 136.859 105.476ZM144.059 106.5V97.4922H145.515V105.828L144.955 105.748L151.851 97.4922H153.755V106.5H152.299V98.0842L152.875 98.1802L145.931 106.5H144.059ZM148.811 96.5002C147.937 96.5002 147.227 96.2762 146.683 95.8282C146.15 95.3696 145.825 94.7189 145.707 93.8762H146.955C147.051 94.3989 147.259 94.8042 147.579 95.0922C147.91 95.3696 148.321 95.5082 148.811 95.5082C149.313 95.5082 149.723 95.3696 150.043 95.0922C150.363 94.8042 150.571 94.3989 150.667 93.8762H151.915C151.809 94.7189 151.483 95.3696 150.939 95.8282C150.395 96.2762 149.686 96.5002 148.811 96.5002ZM159.273 103.54C158.057 103.54 157.135 103.215 156.505 102.564C155.876 101.903 155.561 100.932 155.561 99.6522V97.4922H157.033V99.6042C157.033 101.396 157.871 102.292 159.545 102.292C160.228 102.292 160.863 102.148 161.449 101.86C162.047 101.562 162.607 101.114 163.129 100.516L163.241 101.684C162.815 102.271 162.255 102.73 161.561 103.06C160.868 103.38 160.105 103.54 159.273 103.54ZM162.921 106.5V97.4922H164.393V106.5H162.921ZM166.794 106.5V97.4922H168.25V105.828L167.69 105.748L174.586 97.4922H176.49V106.5H175.034V98.0842L175.61 98.1802L168.666 106.5H166.794ZM178.696 106.5L179.112 101.988L178.696 97.4922H184.808C185.682 97.4922 186.36 97.6949 186.84 98.1002C187.33 98.4949 187.576 99.0549 187.576 99.7802C187.576 100.442 187.33 100.97 186.84 101.364C186.36 101.748 185.693 101.972 184.84 102.036L184.984 101.732C186.008 101.743 186.792 101.951 187.336 102.356C187.88 102.751 188.152 103.316 188.152 104.052C188.152 104.82 187.874 105.423 187.32 105.86C186.776 106.287 186.013 106.5 185.032 106.5H178.696ZM180.136 106.068L179.576 105.38H184.792C185.421 105.38 185.885 105.258 186.184 105.012C186.493 104.767 186.648 104.415 186.648 103.956C186.648 103.487 186.461 103.119 186.088 102.852C185.725 102.586 185.154 102.452 184.376 102.452H179.928V101.396H184.28C184.866 101.396 185.309 101.263 185.608 100.996C185.917 100.73 186.072 100.378 186.072 99.9402C186.072 99.5242 185.933 99.1989 185.656 98.9642C185.389 98.7189 184.973 98.5962 184.408 98.5962H179.592L180.136 97.9242L180.536 101.988L180.136 106.068ZM194.749 106.708C193.714 106.708 192.797 106.511 191.997 106.116C191.208 105.711 190.584 105.156 190.125 104.452C189.677 103.738 189.453 102.916 189.453 101.988C189.453 101.05 189.666 100.228 190.093 99.5242C190.52 98.8202 191.112 98.2709 191.869 97.8762C192.626 97.4816 193.496 97.2842 194.477 97.2842C195.448 97.2842 196.296 97.4976 197.021 97.9242C197.746 98.3509 198.306 98.9536 198.701 99.7322C199.106 100.5 199.309 101.396 199.309 102.42H190.573V101.252H198.685L197.821 101.78C197.789 101.108 197.629 100.527 197.341 100.036C197.053 99.5456 196.664 99.1669 196.173 98.9002C195.682 98.6336 195.112 98.5002 194.461 98.5002C193.757 98.5002 193.144 98.6442 192.621 98.9322C192.098 99.2096 191.688 99.6042 191.389 100.116C191.101 100.628 190.957 101.231 190.957 101.924C190.957 102.65 191.122 103.279 191.453 103.812C191.784 104.346 192.248 104.756 192.845 105.044C193.442 105.332 194.146 105.476 194.957 105.476C195.693 105.476 196.413 105.354 197.117 105.108C197.832 104.863 198.472 104.527 199.037 104.1V105.252C198.482 105.7 197.821 106.058 197.053 106.324C196.285 106.58 195.517 106.708 194.749 106.708ZM205.89 106.708C204.855 106.708 203.938 106.511 203.138 106.116C202.348 105.711 201.724 105.156 201.266 104.452C200.818 103.738 200.594 102.916 200.594 101.988C200.594 101.05 200.807 100.228 201.234 99.5242C201.66 98.8202 202.252 98.2709 203.01 97.8762C203.767 97.4816 204.636 97.2842 205.618 97.2842C206.588 97.2842 207.436 97.4976 208.162 97.9242C208.887 98.3509 209.447 98.9536 209.842 99.7322C210.247 100.5 210.45 101.396 210.45 102.42H201.714V101.252H209.826L208.962 101.78C208.93 101.108 208.77 100.527 208.482 100.036C208.194 99.5456 207.804 99.1669 207.314 98.9002C206.823 98.6336 206.252 98.5002 205.602 98.5002C204.898 98.5002 204.284 98.6442 203.762 98.9322C203.239 99.2096 202.828 99.6042 202.53 100.116C202.242 100.628 202.098 101.231 202.098 101.924C202.098 102.65 202.263 103.279 202.594 103.812C202.924 104.346 203.388 104.756 203.986 105.044C204.583 105.332 205.287 105.476 206.098 105.476C206.834 105.476 207.554 105.354 208.258 105.108C208.972 104.863 209.612 104.527 210.178 104.1V105.252C209.623 105.7 208.962 106.058 208.194 106.324C207.426 106.58 206.658 106.708 205.89 106.708ZM216.7 106.5V97.4922H218.156V105.828L217.596 105.748L224.492 97.4922H226.396V106.5H224.94V98.0842L225.516 98.1802L218.572 106.5H216.7ZM328.399 106.5L328.815 101.988L328.399 97.4922H334.511C335.385 97.4922 336.063 97.6949 336.543 98.1002C337.033 98.4949 337.279 99.0549 337.279 99.7802C337.279 100.442 337.033 100.97 336.543 101.364C336.063 101.748 335.396 101.972 334.543 102.036L334.687 101.732C335.711 101.743 336.495 101.951 337.039 102.356C337.583 102.751 337.855 103.316 337.855 104.052C337.855 104.82 337.577 105.423 337.023 105.86C336.479 106.287 335.716 106.5 334.735 106.5H328.399ZM329.839 106.068L329.279 105.38H334.495C335.124 105.38 335.588 105.258 335.887 105.012C336.196 104.767 336.351 104.415 336.351 103.956C336.351 103.487 336.164 103.119 335.791 102.852C335.428 102.586 334.857 102.452 334.079 102.452H329.631V101.396H333.983C334.569 101.396 335.012 101.263 335.311 100.996C335.62 100.73 335.775 100.378 335.775 99.9402C335.775 99.5242 335.636 99.1989 335.359 98.9642C335.092 98.7189 334.676 98.5962 334.111 98.5962H329.295L329.839 97.9242L330.239 101.988L329.839 106.068ZM353.69 103.076C353.573 103.791 353.279 104.42 352.81 104.964C352.351 105.508 351.765 105.935 351.05 106.244C350.335 106.554 349.546 106.708 348.682 106.708C347.679 106.708 346.794 106.511 346.026 106.116C345.258 105.711 344.655 105.156 344.218 104.452C343.791 103.738 343.578 102.916 343.578 101.988C343.578 101.06 343.791 100.244 344.218 99.5402C344.655 98.8256 345.258 98.2709 346.026 97.8762C346.794 97.4816 347.679 97.2842 348.682 97.2842C349.546 97.2842 350.335 97.4389 351.05 97.7482C351.765 98.0469 352.351 98.4682 352.81 99.0122C353.279 99.5562 353.573 100.191 353.69 100.916H352.17C352.01 100.17 351.61 99.5829 350.97 99.1562C350.341 98.7189 349.578 98.5002 348.682 98.5002C347.957 98.5002 347.322 98.6442 346.778 98.9322C346.245 99.2202 345.829 99.6256 345.53 100.148C345.231 100.66 345.082 101.274 345.082 101.988C345.082 102.703 345.231 103.322 345.53 103.844C345.829 104.367 346.245 104.772 346.778 105.06C347.322 105.338 347.957 105.476 348.682 105.476C349.589 105.476 350.357 105.258 350.986 104.82C351.626 104.383 352.021 103.802 352.17 103.076H353.69ZM360.186 106.708C359.152 106.708 358.234 106.511 357.434 106.116C356.645 105.711 356.021 105.156 355.562 104.452C355.114 103.738 354.89 102.916 354.89 101.988C354.89 101.05 355.104 100.228 355.53 99.5242C355.957 98.8202 356.549 98.2709 357.306 97.8762C358.064 97.4816 358.933 97.2842 359.914 97.2842C360.885 97.2842 361.733 97.4976 362.458 97.9242C363.184 98.3509 363.744 98.9536 364.138 99.7322C364.544 100.5 364.746 101.396 364.746 102.42H356.01V101.252H364.122L363.258 101.78C363.226 101.108 363.066 100.527 362.778 100.036C362.49 99.5456 362.101 99.1669 361.61 98.9002C361.12 98.6336 360.549 98.5002 359.898 98.5002C359.194 98.5002 358.581 98.6442 358.058 98.9322C357.536 99.2096 357.125 99.6042 356.826 100.116C356.538 100.628 356.394 101.231 356.394 101.924C356.394 102.65 356.56 103.279 356.89 103.812C357.221 104.346 357.685 104.756 358.282 105.044C358.88 105.332 359.584 105.476 360.394 105.476C361.13 105.476 361.85 105.354 362.554 105.108C363.269 104.863 363.909 104.527 364.474 104.1V105.252C363.92 105.7 363.258 106.058 362.49 106.324C361.722 106.58 360.954 106.708 360.186 106.708ZM371.759 106.708C370.596 106.708 369.599 106.474 368.767 106.004C367.935 105.524 367.295 104.836 366.847 103.94C366.41 103.044 366.191 101.972 366.191 100.724C366.191 98.8469 366.666 97.3696 367.615 96.2922C368.575 95.2042 369.935 94.5909 371.695 94.4522C372.399 94.3882 372.98 94.3349 373.439 94.2922C373.908 94.2496 374.292 94.2069 374.591 94.1642C374.89 94.1109 375.14 94.0576 375.343 94.0042C375.556 93.9509 375.764 93.8869 375.967 93.8122V95.1562C375.775 95.2416 375.514 95.3162 375.183 95.3802C374.852 95.4442 374.426 95.5029 373.903 95.5562C373.391 95.5989 372.762 95.6416 372.015 95.6842C370.543 95.7696 369.423 96.2389 368.655 97.0922C367.887 97.9456 367.503 99.1509 367.503 100.708V101.3L367.375 101.236C367.631 100.564 367.983 99.9936 368.431 99.5242C368.89 99.0549 369.428 98.6976 370.047 98.4522C370.676 98.2069 371.364 98.0842 372.111 98.0842C373.039 98.0842 373.85 98.2656 374.543 98.6282C375.236 98.9802 375.775 99.4762 376.159 100.116C376.554 100.756 376.751 101.498 376.751 102.34C376.751 103.226 376.543 103.994 376.127 104.644C375.711 105.295 375.13 105.802 374.383 106.164C373.636 106.527 372.762 106.708 371.759 106.708ZM371.791 105.476C372.495 105.476 373.103 105.348 373.615 105.092C374.138 104.836 374.538 104.474 374.815 104.004C375.103 103.535 375.247 102.991 375.247 102.372C375.247 101.743 375.103 101.199 374.815 100.74C374.538 100.271 374.138 99.9082 373.615 99.6522C373.103 99.3962 372.495 99.2682 371.791 99.2682C370.852 99.2682 370.031 99.5242 369.327 100.036C368.634 100.548 368.116 101.279 367.775 102.228C367.978 103.242 368.431 104.036 369.135 104.612C369.85 105.188 370.735 105.476 371.791 105.476ZM383.39 106.708C382.355 106.708 381.438 106.511 380.638 106.116C379.848 105.711 379.224 105.156 378.766 104.452C378.318 103.738 378.094 102.916 378.094 101.988C378.094 101.05 378.307 100.228 378.734 99.5242C379.16 98.8202 379.752 98.2709 380.51 97.8762C381.267 97.4816 382.136 97.2842 383.118 97.2842C384.088 97.2842 384.936 97.4976 385.662 97.9242C386.387 98.3509 386.947 98.9536 387.342 99.7322C387.747 100.5 387.95 101.396 387.95 102.42H379.214V101.252H387.326L386.462 101.78C386.43 101.108 386.27 100.527 385.982 100.036C385.694 99.5456 385.304 99.1669 384.814 98.9002C384.323 98.6336 383.752 98.5002 383.102 98.5002C382.398 98.5002 381.784 98.6442 381.262 98.9322C380.739 99.2096 380.328 99.6042 380.03 100.116C379.742 100.628 379.598 101.231 379.598 101.924C379.598 102.65 379.763 103.279 380.094 103.812C380.424 104.346 380.888 104.756 381.486 105.044C382.083 105.332 382.787 105.476 383.598 105.476C384.334 105.476 385.054 105.354 385.758 105.108C386.472 104.863 387.112 104.527 387.678 104.1V105.252C387.123 105.7 386.462 106.058 385.694 106.324C384.926 106.58 384.158 106.708 383.39 106.708ZM394.2 106.5V97.4922H395.656V105.828L395.096 105.748L401.992 97.4922H403.896V106.5H402.44V98.0842L403.016 98.1802L396.072 106.5H394.2ZM50.823 117.988H52.295V126.5H50.823V117.988ZM46.919 117.492H56.199V118.692H46.919V117.492ZM61.8985 126.708C60.8425 126.708 59.9092 126.511 59.0985 126.116C58.2985 125.722 57.6745 125.167 57.2265 124.452C56.7785 123.738 56.5545 122.916 56.5545 121.988C56.5545 121.05 56.7785 120.228 57.2265 119.524C57.6745 118.82 58.2985 118.271 59.0985 117.876C59.9092 117.482 60.8425 117.284 61.8985 117.284C62.9652 117.284 63.8985 117.482 64.6985 117.876C65.4985 118.271 66.1225 118.82 66.5705 119.524C67.0292 120.228 67.2585 121.05 67.2585 121.988C67.2585 122.916 67.0292 123.738 66.5705 124.452C66.1225 125.167 65.4985 125.722 64.6985 126.116C63.8985 126.511 62.9652 126.708 61.8985 126.708ZM61.8985 125.476C62.6878 125.476 63.3705 125.338 63.9465 125.06C64.5225 124.772 64.9652 124.367 65.2745 123.844C65.5945 123.322 65.7545 122.703 65.7545 121.988C65.7545 121.284 65.5945 120.671 65.2745 120.148C64.9652 119.626 64.5225 119.22 63.9465 118.932C63.3705 118.644 62.6878 118.5 61.8985 118.5C61.1198 118.5 60.4372 118.644 59.8505 118.932C59.2745 119.22 58.8318 119.626 58.5225 120.148C58.2132 120.671 58.0585 121.284 58.0585 121.988C58.0585 122.703 58.2132 123.322 58.5225 123.844C58.8318 124.367 59.2745 124.772 59.8505 125.06C60.4372 125.338 61.1198 125.476 61.8985 125.476ZM72.1404 123.54C70.9244 123.54 70.0017 123.215 69.3724 122.564C68.743 121.903 68.4284 120.932 68.4284 119.652V117.492H69.9004V119.604C69.9004 121.396 70.7377 122.292 72.4124 122.292C73.095 122.292 73.7297 122.148 74.3164 121.86C74.9137 121.562 75.4737 121.114 75.9964 120.516L76.1084 121.684C75.6817 122.271 75.1217 122.73 74.4284 123.06C73.735 123.38 72.9724 123.54 72.1404 123.54ZM75.7884 126.5V117.492H77.2604V126.5H75.7884ZM79.661 117.492H81.117V126.5H79.661V117.492ZM87.405 117.492H88.877V126.5H87.405V117.492ZM80.477 121.348H88.093V122.548H80.477V121.348ZM96.0547 126.708C94.9987 126.708 94.0654 126.511 93.2547 126.116C92.4547 125.722 91.8307 125.167 91.3827 124.452C90.9347 123.738 90.7107 122.916 90.7107 121.988C90.7107 121.05 90.9347 120.228 91.3827 119.524C91.8307 118.82 92.4547 118.271 93.2547 117.876C94.0654 117.482 94.9987 117.284 96.0547 117.284C97.1214 117.284 98.0547 117.482 98.8547 117.876C99.6547 118.271 100.279 118.82 100.727 119.524C101.185 120.228 101.415 121.05 101.415 121.988C101.415 122.916 101.185 123.738 100.727 124.452C100.279 125.167 99.6547 125.722 98.8547 126.116C98.0547 126.511 97.1214 126.708 96.0547 126.708ZM96.0547 125.476C96.8441 125.476 97.5267 125.338 98.1027 125.06C98.6787 124.772 99.1214 124.367 99.4307 123.844C99.7507 123.322 99.9107 122.703 99.9107 121.988C99.9107 121.284 99.7507 120.671 99.4307 120.148C99.1214 119.626 98.6787 119.22 98.1027 118.932C97.5267 118.644 96.8441 118.5 96.0547 118.5C95.2761 118.5 94.5934 118.644 94.0067 118.932C93.4307 119.22 92.9881 119.626 92.6787 120.148C92.3694 120.671 92.2147 121.284 92.2147 121.988C92.2147 122.703 92.3694 123.322 92.6787 123.844C92.9881 124.367 93.4307 124.772 94.0067 125.06C94.5934 125.338 95.2761 125.476 96.0547 125.476ZM112.477 126.708C111.421 126.708 110.487 126.511 109.677 126.116C108.877 125.722 108.253 125.167 107.805 124.452C107.357 123.738 107.133 122.916 107.133 121.988C107.133 121.05 107.357 120.228 107.805 119.524C108.253 118.82 108.877 118.271 109.677 117.876C110.487 117.482 111.421 117.284 112.477 117.284C113.543 117.284 114.477 117.482 115.277 117.876C116.077 118.271 116.701 118.82 117.149 119.524C117.607 120.228 117.837 121.05 117.837 121.988C117.837 122.916 117.607 123.738 117.149 124.452C116.701 125.167 116.077 125.722 115.277 126.116C114.477 126.511 113.543 126.708 112.477 126.708ZM112.477 125.476C113.266 125.476 113.949 125.338 114.525 125.06C115.101 124.772 115.543 124.367 115.853 123.844C116.173 123.322 116.333 122.703 116.333 121.988C116.333 121.284 116.173 120.671 115.853 120.148C115.543 119.626 115.101 119.22 114.525 118.932C113.949 118.644 113.266 118.5 112.477 118.5C111.698 118.5 111.015 118.644 110.429 118.932C109.853 119.22 109.41 119.626 109.101 120.148C108.791 120.671 108.637 121.284 108.637 121.988C108.637 122.703 108.791 123.322 109.101 123.844C109.41 124.367 109.853 124.772 110.429 125.06C111.015 125.338 111.698 125.476 112.477 125.476ZM128.829 117.492V126.5H127.357V118.004L128.029 118.676H120.461L121.149 118.004V126.5H119.677V117.492H128.829ZM131.208 117.492H132.68V120.9L132.6 121.188V122.644L132.68 123.108V129.14H131.208V117.492ZM131.992 121.988C132.227 121.05 132.584 120.228 133.064 119.524C133.555 118.82 134.141 118.271 134.824 117.876C135.517 117.482 136.28 117.284 137.112 117.284C137.997 117.284 138.781 117.482 139.464 117.876C140.147 118.271 140.68 118.82 141.064 119.524C141.459 120.228 141.656 121.05 141.656 121.988C141.656 122.916 141.459 123.738 141.064 124.452C140.68 125.156 140.147 125.711 139.464 126.116C138.781 126.511 137.997 126.708 137.112 126.708C136.28 126.708 135.517 126.511 134.824 126.116C134.141 125.722 133.555 125.172 133.064 124.468C132.584 123.754 132.227 122.927 131.992 121.988ZM140.152 121.988C140.152 121.306 140.008 120.703 139.72 120.18C139.443 119.658 139.053 119.252 138.552 118.964C138.061 118.666 137.501 118.516 136.872 118.516C136.232 118.516 135.64 118.666 135.096 118.964C134.563 119.252 134.088 119.658 133.672 120.18C133.256 120.703 132.909 121.306 132.632 121.988C132.909 122.671 133.256 123.274 133.672 123.796C134.088 124.319 134.563 124.73 135.096 125.028C135.64 125.316 136.232 125.46 136.872 125.46C137.501 125.46 138.061 125.316 138.552 125.028C139.053 124.73 139.443 124.319 139.72 123.796C140.008 123.274 140.152 122.671 140.152 121.988ZM148.272 126.708C147.238 126.708 146.32 126.511 145.52 126.116C144.731 125.711 144.107 125.156 143.648 124.452C143.2 123.738 142.976 122.916 142.976 121.988C142.976 121.05 143.19 120.228 143.616 119.524C144.043 118.82 144.635 118.271 145.392 117.876C146.15 117.482 147.019 117.284 148 117.284C148.971 117.284 149.819 117.498 150.544 117.924C151.27 118.351 151.83 118.954 152.224 119.732C152.63 120.5 152.832 121.396 152.832 122.42H144.096V121.252H152.208L151.344 121.78C151.312 121.108 151.152 120.527 150.864 120.036C150.576 119.546 150.187 119.167 149.696 118.9C149.206 118.634 148.635 118.5 147.984 118.5C147.28 118.5 146.667 118.644 146.144 118.932C145.622 119.21 145.211 119.604 144.912 120.116C144.624 120.628 144.48 121.231 144.48 121.924C144.48 122.65 144.646 123.279 144.976 123.812C145.307 124.346 145.771 124.756 146.368 125.044C146.966 125.332 147.67 125.476 148.48 125.476C149.216 125.476 149.936 125.354 150.64 125.108C151.355 124.863 151.995 124.527 152.56 124.1V125.252C152.006 125.7 151.344 126.058 150.576 126.324C149.808 126.58 149.04 126.708 148.272 126.708ZM165.672 125.3V128.836H164.36V126.5H154.76V128.836H153.464V125.3H155.432L155.864 125.316H162.92L163.352 125.3H165.672ZM155.544 117.492H163.976V126.068H162.504V118.004L163.192 118.676H156.328L156.952 118.196C157.005 118.676 157.042 119.151 157.064 119.62C157.085 120.079 157.096 120.511 157.096 120.916C157.096 122.516 156.904 123.78 156.52 124.708C156.146 125.626 155.629 126.084 154.968 126.084L154.36 125.556C155.256 124.884 155.704 123.247 155.704 120.644C155.704 120.143 155.688 119.626 155.656 119.092C155.634 118.548 155.597 118.015 155.544 117.492ZM171.725 126.708C170.691 126.708 169.773 126.511 168.973 126.116C168.184 125.711 167.56 125.156 167.101 124.452C166.653 123.738 166.429 122.916 166.429 121.988C166.429 121.05 166.643 120.228 167.069 119.524C167.496 118.82 168.088 118.271 168.845 117.876C169.603 117.482 170.472 117.284 171.453 117.284C172.424 117.284 173.272 117.498 173.997 117.924C174.723 118.351 175.283 118.954 175.677 119.732C176.083 120.5 176.285 121.396 176.285 122.42H167.549V121.252H175.661L174.797 121.78C174.765 121.108 174.605 120.527 174.317 120.036C174.029 119.546 173.64 119.167 173.149 118.9C172.659 118.634 172.088 118.5 171.437 118.5C170.733 118.5 170.12 118.644 169.597 118.932C169.075 119.21 168.664 119.604 168.365 120.116C168.077 120.628 167.933 121.231 167.933 121.924C167.933 122.65 168.099 123.279 168.429 123.812C168.76 124.346 169.224 124.756 169.821 125.044C170.419 125.332 171.123 125.476 171.933 125.476C172.669 125.476 173.389 125.354 174.093 125.108C174.808 124.863 175.448 124.527 176.013 124.1V125.252C175.459 125.7 174.797 126.058 174.029 126.324C173.261 126.58 172.493 126.708 171.725 126.708ZM179.495 117.492H187.911V126.5H186.439V118.004L187.111 118.676H180.263L180.887 118.164C180.951 118.836 180.999 119.498 181.031 120.148C181.074 120.788 181.095 121.359 181.095 121.86C181.095 123.535 180.871 124.756 180.423 125.524C179.975 126.282 179.26 126.66 178.279 126.66C178.023 126.66 177.772 126.628 177.527 126.564C177.292 126.511 177.068 126.426 176.855 126.308V125.14C177.047 125.215 177.234 125.279 177.415 125.332C177.607 125.375 177.788 125.396 177.959 125.396C178.578 125.396 179.026 125.103 179.303 124.516C179.591 123.93 179.735 122.975 179.735 121.652C179.735 121.108 179.714 120.484 179.671 119.78C179.639 119.066 179.58 118.303 179.495 117.492ZM197.726 121.844V122.964H193.038L193.022 122.932C192.382 122.932 191.822 122.82 191.342 122.596C190.872 122.372 190.504 122.058 190.238 121.652C189.971 121.236 189.838 120.756 189.838 120.212C189.838 119.679 189.971 119.21 190.238 118.804C190.504 118.388 190.872 118.068 191.342 117.844C191.822 117.61 192.382 117.492 193.022 117.492H198.75V126.5H197.278V117.956L197.838 118.628H193.246C192.648 118.628 192.179 118.772 191.838 119.06C191.496 119.348 191.326 119.738 191.326 120.228C191.326 120.708 191.496 121.098 191.838 121.396C192.179 121.695 192.648 121.844 193.246 121.844H197.726ZM195.022 122.276L191.454 126.5H189.678L193.294 122.276H195.022ZM204.057 117.988H205.529V126.5H204.057V117.988ZM200.153 117.492H209.433V118.692H200.153V117.492ZM210.833 126.5V117.492H212.305V126.036L211.713 125.332H215.921C216.561 125.332 217.068 125.172 217.441 124.852C217.814 124.522 218.001 124.079 218.001 123.524C218.001 122.959 217.814 122.516 217.441 122.196C217.068 121.866 216.561 121.7 215.921 121.7H211.825V120.564H216.049C216.742 120.564 217.345 120.687 217.857 120.932C218.38 121.178 218.785 121.524 219.073 121.972C219.361 122.42 219.505 122.938 219.505 123.524C219.505 124.122 219.361 124.644 219.073 125.092C218.785 125.54 218.38 125.887 217.857 126.132C217.345 126.378 216.742 126.5 216.049 126.5H210.833ZM234.635 123.076C234.518 123.791 234.225 124.42 233.755 124.964C233.297 125.508 232.71 125.935 231.995 126.244C231.281 126.554 230.491 126.708 229.627 126.708C228.625 126.708 227.739 126.511 226.971 126.116C226.203 125.711 225.601 125.156 225.163 124.452C224.737 123.738 224.523 122.916 224.523 121.988C224.523 121.06 224.737 120.244 225.163 119.54C225.601 118.826 226.203 118.271 226.971 117.876C227.739 117.482 228.625 117.284 229.627 117.284C230.491 117.284 231.281 117.439 231.995 117.748C232.71 118.047 233.297 118.468 233.755 119.012C234.225 119.556 234.518 120.191 234.635 120.916H233.115C232.955 120.17 232.555 119.583 231.915 119.156C231.286 118.719 230.523 118.5 229.627 118.5C228.902 118.5 228.267 118.644 227.723 118.932C227.19 119.22 226.774 119.626 226.475 120.148C226.177 120.66 226.027 121.274 226.027 121.988C226.027 122.703 226.177 123.322 226.475 123.844C226.774 124.367 227.19 124.772 227.723 125.06C228.267 125.338 228.902 125.476 229.627 125.476C230.534 125.476 231.302 125.258 231.931 124.82C232.571 124.383 232.966 123.802 233.115 123.076H234.635ZM236.188 126.5L236.604 121.988L236.188 117.492H242.3C243.174 117.492 243.852 117.695 244.332 118.1C244.822 118.495 245.068 119.055 245.068 119.78C245.068 120.442 244.822 120.97 244.332 121.364C243.852 121.748 243.185 121.972 242.332 122.036L242.476 121.732C243.5 121.743 244.284 121.951 244.828 122.356C245.372 122.751 245.644 123.316 245.644 124.052C245.644 124.82 245.366 125.423 244.812 125.86C244.268 126.287 243.505 126.5 242.524 126.5H236.188ZM237.628 126.068L237.068 125.38H242.284C242.913 125.38 243.377 125.258 243.676 125.012C243.985 124.767 244.14 124.415 244.14 123.956C244.14 123.487 243.953 123.119 243.58 122.852C243.217 122.586 242.646 122.452 241.868 122.452H237.42V121.396H241.772C242.358 121.396 242.801 121.263 243.1 120.996C243.409 120.73 243.564 120.378 243.564 119.94C243.564 119.524 243.425 119.199 243.148 118.964C242.881 118.719 242.465 118.596 241.9 118.596H237.084L237.628 117.924L238.028 121.988L237.628 126.068ZM252.289 126.708C251.233 126.708 250.3 126.511 249.489 126.116C248.689 125.722 248.065 125.167 247.617 124.452C247.169 123.738 246.945 122.916 246.945 121.988C246.945 121.05 247.169 120.228 247.617 119.524C248.065 118.82 248.689 118.271 249.489 117.876C250.3 117.482 251.233 117.284 252.289 117.284C253.356 117.284 254.289 117.482 255.089 117.876C255.889 118.271 256.513 118.82 256.961 119.524C257.42 120.228 257.649 121.05 257.649 121.988C257.649 122.916 257.42 123.738 256.961 124.452C256.513 125.167 255.889 125.722 255.089 126.116C254.289 126.511 253.356 126.708 252.289 126.708ZM252.289 125.476C253.078 125.476 253.761 125.338 254.337 125.06C254.913 124.772 255.356 124.367 255.665 123.844C255.985 123.322 256.145 122.703 256.145 121.988C256.145 121.284 255.985 120.671 255.665 120.148C255.356 119.626 254.913 119.22 254.337 118.932C253.761 118.644 253.078 118.5 252.289 118.5C251.51 118.5 250.828 118.644 250.241 118.932C249.665 119.22 249.222 119.626 248.913 120.148C248.604 120.671 248.449 121.284 248.449 121.988C248.449 122.703 248.604 123.322 248.913 123.844C249.222 124.367 249.665 124.772 250.241 125.06C250.828 125.338 251.51 125.476 252.289 125.476ZM259.489 126.5V117.492H260.945V125.828L260.385 125.748L267.281 117.492H269.185V126.5H267.729V118.084L268.305 118.18L261.361 126.5H259.489ZM285.157 117.492V126.5H283.685V118.004L284.357 118.676H276.789L277.477 118.004V126.5H276.005V117.492H285.157ZM292.336 126.708C291.28 126.708 290.347 126.511 289.536 126.116C288.736 125.722 288.112 125.167 287.664 124.452C287.216 123.738 286.992 122.916 286.992 121.988C286.992 121.05 287.216 120.228 287.664 119.524C288.112 118.82 288.736 118.271 289.536 117.876C290.347 117.482 291.28 117.284 292.336 117.284C293.403 117.284 294.336 117.482 295.136 117.876C295.936 118.271 296.56 118.82 297.008 119.524C297.467 120.228 297.696 121.05 297.696 121.988C297.696 122.916 297.467 123.738 297.008 124.452C296.56 125.167 295.936 125.722 295.136 126.116C294.336 126.511 293.403 126.708 292.336 126.708ZM292.336 125.476C293.125 125.476 293.808 125.338 294.384 125.06C294.96 124.772 295.403 124.367 295.712 123.844C296.032 123.322 296.192 122.703 296.192 121.988C296.192 121.284 296.032 120.671 295.712 120.148C295.403 119.626 294.96 119.22 294.384 118.932C293.808 118.644 293.125 118.5 292.336 118.5C291.557 118.5 290.875 118.644 290.288 118.932C289.712 119.22 289.269 119.626 288.96 120.148C288.651 120.671 288.496 121.284 288.496 121.988C288.496 122.703 288.651 123.322 288.96 123.844C289.269 124.367 289.712 124.772 290.288 125.06C290.875 125.338 291.557 125.476 292.336 125.476ZM301.948 117.988H303.42V126.5H301.948V117.988ZM298.044 117.492H307.324V118.692H298.044V117.492ZM308.723 117.492H310.195V120.9L310.115 121.188V122.644L310.195 123.108V129.14H308.723V117.492ZM309.507 121.988C309.742 121.05 310.099 120.228 310.579 119.524C311.07 118.82 311.657 118.271 312.339 117.876C313.033 117.482 313.795 117.284 314.627 117.284C315.513 117.284 316.297 117.482 316.979 117.876C317.662 118.271 318.195 118.82 318.579 119.524C318.974 120.228 319.171 121.05 319.171 121.988C319.171 122.916 318.974 123.738 318.579 124.452C318.195 125.156 317.662 125.711 316.979 126.116C316.297 126.511 315.513 126.708 314.627 126.708C313.795 126.708 313.033 126.511 312.339 126.116C311.657 125.722 311.07 125.172 310.579 124.468C310.099 123.754 309.742 122.927 309.507 121.988ZM317.667 121.988C317.667 121.306 317.523 120.703 317.235 120.18C316.958 119.658 316.569 119.252 316.067 118.964C315.577 118.666 315.017 118.516 314.387 118.516C313.747 118.516 313.155 118.666 312.611 118.964C312.078 119.252 311.603 119.658 311.187 120.18C310.771 120.703 310.425 121.306 310.147 121.988C310.425 122.671 310.771 123.274 311.187 123.796C311.603 124.319 312.078 124.73 312.611 125.028C313.155 125.316 313.747 125.46 314.387 125.46C315.017 125.46 315.577 125.316 316.067 125.028C316.569 124.73 316.958 124.319 317.235 123.796C317.523 123.274 317.667 122.671 317.667 121.988ZM325.788 126.708C324.753 126.708 323.836 126.511 323.036 126.116C322.247 125.711 321.623 125.156 321.164 124.452C320.716 123.738 320.492 122.916 320.492 121.988C320.492 121.05 320.705 120.228 321.132 119.524C321.559 118.82 322.151 118.271 322.908 117.876C323.665 117.482 324.535 117.284 325.516 117.284C326.487 117.284 327.335 117.498 328.06 117.924C328.785 118.351 329.345 118.954 329.74 119.732C330.145 120.5 330.348 121.396 330.348 122.42H321.612V121.252H329.724L328.86 121.78C328.828 121.108 328.668 120.527 328.38 120.036C328.092 119.546 327.703 119.167 327.212 118.9C326.721 118.634 326.151 118.5 325.5 118.5C324.796 118.5 324.183 118.644 323.66 118.932C323.137 119.21 322.727 119.604 322.428 120.116C322.14 120.628 321.996 121.231 321.996 121.924C321.996 122.65 322.161 123.279 322.492 123.812C322.823 124.346 323.287 124.756 323.884 125.044C324.481 125.332 325.185 125.476 325.996 125.476C326.732 125.476 327.452 125.354 328.156 125.108C328.871 124.863 329.511 124.527 330.076 124.1V125.252C329.521 125.7 328.86 126.058 328.092 126.324C327.324 126.58 326.556 126.708 325.788 126.708ZM337.361 126.708C336.198 126.708 335.201 126.474 334.369 126.004C333.537 125.524 332.897 124.836 332.449 123.94C332.011 123.044 331.793 121.972 331.793 120.724C331.793 118.847 332.267 117.37 333.217 116.292C334.177 115.204 335.537 114.591 337.297 114.452C338.001 114.388 338.582 114.335 339.041 114.292C339.51 114.25 339.894 114.207 340.193 114.164C340.491 114.111 340.742 114.058 340.945 114.004C341.158 113.951 341.366 113.887 341.569 113.812V115.156C341.377 115.242 341.115 115.316 340.785 115.38C340.454 115.444 340.027 115.503 339.505 115.556C338.993 115.599 338.363 115.642 337.617 115.684C336.145 115.77 335.025 116.239 334.257 117.092C333.489 117.946 333.105 119.151 333.105 120.708V121.3L332.977 121.236C333.233 120.564 333.585 119.994 334.033 119.524C334.491 119.055 335.03 118.698 335.649 118.452C336.278 118.207 336.966 118.084 337.713 118.084C338.641 118.084 339.451 118.266 340.145 118.628C340.838 118.98 341.377 119.476 341.761 120.116C342.155 120.756 342.353 121.498 342.353 122.34C342.353 123.226 342.145 123.994 341.729 124.644C341.313 125.295 340.731 125.802 339.985 126.164C339.238 126.527 338.363 126.708 337.361 126.708ZM337.393 125.476C338.097 125.476 338.705 125.348 339.217 125.092C339.739 124.836 340.139 124.474 340.417 124.004C340.705 123.535 340.849 122.991 340.849 122.372C340.849 121.743 340.705 121.199 340.417 120.74C340.139 120.271 339.739 119.908 339.217 119.652C338.705 119.396 338.097 119.268 337.393 119.268C336.454 119.268 335.633 119.524 334.929 120.036C334.235 120.548 333.718 121.279 333.377 122.228C333.579 123.242 334.033 124.036 334.737 124.612C335.451 125.188 336.337 125.476 337.393 125.476ZM344.239 117.492H345.695V126.5H344.239V117.492ZM351.983 117.492H353.455V126.5H351.983V117.492ZM345.055 121.348H352.671V122.548H345.055V121.348ZM360.633 126.708C359.577 126.708 358.644 126.511 357.833 126.116C357.033 125.722 356.409 125.167 355.961 124.452C355.513 123.738 355.289 122.916 355.289 121.988C355.289 121.05 355.513 120.228 355.961 119.524C356.409 118.82 357.033 118.271 357.833 117.876C358.644 117.482 359.577 117.284 360.633 117.284C361.7 117.284 362.633 117.482 363.433 117.876C364.233 118.271 364.857 118.82 365.305 119.524C365.764 120.228 365.993 121.05 365.993 121.988C365.993 122.916 365.764 123.738 365.305 124.452C364.857 125.167 364.233 125.722 363.433 126.116C362.633 126.511 361.7 126.708 360.633 126.708ZM360.633 125.476C361.422 125.476 362.105 125.338 362.681 125.06C363.257 124.772 363.7 124.367 364.009 123.844C364.329 123.322 364.489 122.703 364.489 121.988C364.489 121.284 364.329 120.671 364.009 120.148C363.7 119.626 363.257 119.22 362.681 118.932C362.105 118.644 361.422 118.5 360.633 118.5C359.854 118.5 359.172 118.644 358.585 118.932C358.009 119.22 357.566 119.626 357.257 120.148C356.948 120.671 356.793 121.284 356.793 121.988C356.793 122.703 356.948 123.322 357.257 123.844C357.566 124.367 358.009 124.772 358.585 125.06C359.172 125.338 359.854 125.476 360.633 125.476ZM377.401 123.076C377.284 123.791 376.99 124.42 376.521 124.964C376.062 125.508 375.476 125.935 374.761 126.244C374.046 126.554 373.257 126.708 372.393 126.708C371.39 126.708 370.505 126.511 369.737 126.116C368.969 125.711 368.366 125.156 367.929 124.452C367.502 123.738 367.289 122.916 367.289 121.988C367.289 121.06 367.502 120.244 367.929 119.54C368.366 118.826 368.969 118.271 369.737 117.876C370.505 117.482 371.39 117.284 372.393 117.284C373.257 117.284 374.046 117.439 374.761 117.748C375.476 118.047 376.062 118.468 376.521 119.012C376.99 119.556 377.284 120.191 377.401 120.916H375.881C375.721 120.17 375.321 119.583 374.681 119.156C374.052 118.719 373.289 118.5 372.393 118.5C371.668 118.5 371.033 118.644 370.489 118.932C369.956 119.22 369.54 119.626 369.241 120.148C368.942 120.66 368.793 121.274 368.793 121.988C368.793 122.703 368.942 123.322 369.241 123.844C369.54 124.367 369.956 124.772 370.489 125.06C371.033 125.338 371.668 125.476 372.393 125.476C373.3 125.476 374.068 125.258 374.697 124.82C375.337 124.383 375.732 123.802 375.881 123.076H377.401ZM381.62 117.988H383.092V126.5H381.62V117.988ZM377.716 117.492H386.996V118.692H377.716V117.492ZM388.395 126.5V117.492H389.851V125.828L389.291 125.748L396.187 117.492H398.091V126.5H396.635V118.084L397.211 118.18L390.267 126.5H388.395Z" fill="black"/>
<path d="M232 97.6522H235.216L236.72 102.724C236.741 102.799 236.762 102.89 236.784 102.996C236.805 103.103 236.821 103.215 236.832 103.332C236.853 103.45 236.864 103.567 236.864 103.684H236.928C236.949 103.471 236.976 103.29 237.008 103.14C237.05 102.98 237.088 102.847 237.12 102.74L238.656 97.6522H241.776L238.272 107.06C238.005 107.775 237.69 108.378 237.328 108.868C236.976 109.359 236.538 109.727 236.016 109.972C235.493 110.218 234.842 110.34 234.064 110.34C233.786 110.34 233.546 110.324 233.344 110.292C233.141 110.271 232.965 110.244 232.816 110.212V107.812C232.933 107.834 233.072 107.855 233.232 107.876C233.402 107.898 233.578 107.908 233.76 107.908C234.101 107.908 234.373 107.839 234.576 107.7C234.789 107.562 234.965 107.38 235.104 107.156C235.242 106.943 235.36 106.708 235.456 106.452L235.488 106.372L232 97.6522ZM251.029 99.9402C251.029 100.399 250.891 100.81 250.613 101.172C250.336 101.535 249.909 101.764 249.333 101.86V101.924C249.963 101.999 250.448 102.218 250.789 102.58C251.131 102.943 251.301 103.407 251.301 103.972C251.301 104.303 251.237 104.623 251.109 104.932C250.981 105.231 250.763 105.498 250.453 105.732C250.144 105.967 249.723 106.154 249.189 106.292C248.656 106.431 247.984 106.5 247.173 106.5H242.837V97.6522H247.189C248.085 97.6522 248.816 97.7429 249.381 97.9242C249.947 98.0949 250.363 98.3509 250.629 98.6922C250.896 99.0229 251.029 99.4389 251.029 99.9402ZM248.197 103.668C248.197 103.444 248.123 103.263 247.973 103.124C247.824 102.975 247.536 102.9 247.109 102.9H245.893V104.5H247.077C247.483 104.5 247.771 104.426 247.941 104.276C248.112 104.116 248.197 103.914 248.197 103.668ZM247.989 100.34C247.989 100.116 247.915 99.9456 247.765 99.8282C247.627 99.7109 247.419 99.6522 247.141 99.6522H245.893V100.98H247.029C247.349 100.98 247.589 100.922 247.749 100.804C247.909 100.676 247.989 100.522 247.989 100.34ZM256.884 97.4922C257.748 97.4922 258.489 97.6416 259.108 97.9402C259.737 98.2389 260.217 98.6869 260.548 99.2842C260.889 99.8816 261.06 100.634 261.06 101.54V102.9H255.604C255.625 103.359 255.796 103.738 256.116 104.036C256.446 104.335 256.921 104.484 257.54 104.484C258.094 104.484 258.601 104.431 259.06 104.324C259.518 104.218 259.993 104.047 260.484 103.812V106.004C260.057 106.228 259.588 106.394 259.076 106.5C258.574 106.607 257.94 106.66 257.172 106.66C256.276 106.66 255.476 106.506 254.772 106.196C254.078 105.876 253.529 105.38 253.124 104.708C252.718 104.036 252.516 103.178 252.516 102.132C252.516 101.066 252.697 100.191 253.06 99.5082C253.433 98.8256 253.945 98.3189 254.596 97.9882C255.257 97.6576 256.02 97.4922 256.884 97.4922ZM256.996 99.5722C256.633 99.5722 256.329 99.6842 256.084 99.9082C255.849 100.132 255.71 100.49 255.668 100.98H258.292C258.292 100.714 258.238 100.479 258.132 100.276C258.036 100.063 257.892 99.8922 257.7 99.7642C257.508 99.6362 257.273 99.5722 256.996 99.5722ZM268.198 97.4922C269.18 97.4922 269.948 97.8869 270.502 98.6762C271.057 99.4549 271.334 100.58 271.334 102.052C271.334 103.055 271.19 103.903 270.902 104.596C270.625 105.279 270.241 105.796 269.75 106.148C269.27 106.49 268.721 106.66 268.102 106.66C267.686 106.66 267.334 106.607 267.046 106.5C266.758 106.394 266.518 106.266 266.326 106.116C266.134 105.956 265.974 105.796 265.846 105.636H265.75C265.772 105.839 265.793 106.058 265.814 106.292C265.836 106.527 265.846 106.799 265.846 107.108V110.34H262.79V97.6522H265.27L265.702 98.7722H265.846C265.996 98.5376 266.172 98.3242 266.374 98.1322C266.588 97.9402 266.844 97.7856 267.142 97.6682C267.441 97.5509 267.793 97.4922 268.198 97.4922ZM267.046 99.8922C266.748 99.8922 266.513 99.9669 266.342 100.116C266.172 100.255 266.049 100.463 265.974 100.74C265.9 101.018 265.857 101.37 265.846 101.796V102.036C265.846 102.506 265.878 102.9 265.942 103.22C266.017 103.54 266.145 103.786 266.326 103.956C266.508 104.116 266.753 104.196 267.062 104.196C267.318 104.196 267.532 104.127 267.702 103.988C267.884 103.839 268.017 103.604 268.102 103.284C268.188 102.964 268.23 102.543 268.23 102.02C268.23 101.242 268.129 100.692 267.926 100.372C267.724 100.052 267.43 99.8922 267.046 99.8922ZM277.056 97.4922C277.92 97.4922 278.661 97.6416 279.28 97.9402C279.909 98.2389 280.389 98.6869 280.72 99.2842C281.061 99.8816 281.232 100.634 281.232 101.54V102.9H275.776C275.797 103.359 275.968 103.738 276.288 104.036C276.618 104.335 277.093 104.484 277.712 104.484C278.266 104.484 278.773 104.431 279.232 104.324C279.69 104.218 280.165 104.047 280.656 103.812V106.004C280.229 106.228 279.76 106.394 279.248 106.5C278.746 106.607 278.112 106.66 277.344 106.66C276.448 106.66 275.648 106.506 274.944 106.196C274.25 105.876 273.701 105.38 273.296 104.708C272.89 104.036 272.688 103.178 272.688 102.132C272.688 101.066 272.869 100.191 273.232 99.5082C273.605 98.8256 274.117 98.3189 274.768 97.9882C275.429 97.6576 276.192 97.4922 277.056 97.4922ZM277.168 99.5722C276.805 99.5722 276.501 99.6842 276.256 99.9082C276.021 100.132 275.882 100.49 275.84 100.98H278.464C278.464 100.714 278.41 100.479 278.304 100.276C278.208 100.063 278.064 99.8922 277.872 99.7642C277.68 99.6362 277.445 99.5722 277.168 99.5722ZM286.018 97.6522V100.836H288.434V97.6522H291.49V106.5H288.434V103.108H286.018V106.5H282.962V97.6522H286.018ZM296.659 97.6522V100.836H299.075V97.6522H302.131V106.5H299.075V103.108H296.659V106.5H293.603V97.6522H296.659ZM308.228 97.4922C309.092 97.4922 309.833 97.6416 310.452 97.9402C311.081 98.2389 311.561 98.6869 311.892 99.2842C312.233 99.8816 312.404 100.634 312.404 101.54V102.9H306.948C306.969 103.359 307.14 103.738 307.46 104.036C307.79 104.335 308.265 104.484 308.884 104.484C309.438 104.484 309.945 104.431 310.404 104.324C310.862 104.218 311.337 104.047 311.828 103.812V106.004C311.401 106.228 310.932 106.394 310.42 106.5C309.918 106.607 309.284 106.66 308.516 106.66C307.62 106.66 306.82 106.506 306.116 106.196C305.422 105.876 304.873 105.38 304.468 104.708C304.062 104.036 303.86 103.178 303.86 102.132C303.86 101.066 304.041 100.191 304.404 99.5082C304.777 98.8256 305.289 98.3189 305.94 97.9882C306.601 97.6576 307.364 97.4922 308.228 97.4922ZM308.34 99.5722C307.977 99.5722 307.673 99.6842 307.428 99.9082C307.193 100.132 307.054 100.49 307.012 100.98H309.636C309.636 100.714 309.582 100.479 309.476 100.276C309.38 100.063 309.236 99.8922 309.044 99.7642C308.852 99.6362 308.617 99.5722 308.34 99.5722ZM318.118 97.4922C318.982 97.4922 319.724 97.6416 320.342 97.9402C320.972 98.2389 321.452 98.6869 321.782 99.2842C322.124 99.8816 322.294 100.634 322.294 101.54V102.9H316.838C316.86 103.359 317.03 103.738 317.35 104.036C317.681 104.335 318.156 104.484 318.774 104.484C319.329 104.484 319.836 104.431 320.294 104.324C320.753 104.218 321.228 104.047 321.718 103.812V106.004C321.292 106.228 320.822 106.394 320.31 106.5C319.809 106.607 319.174 106.66 318.406 106.66C317.51 106.66 316.71 106.506 316.006 106.196C315.313 105.876 314.764 105.38 314.358 104.708C313.953 104.036 313.75 103.178 313.75 102.132C313.75 101.066 313.932 100.191 314.294 99.5082C314.668 98.8256 315.18 98.3189 315.83 97.9882C316.492 97.6576 317.254 97.4922 318.118 97.4922ZM318.23 99.5722C317.868 99.5722 317.564 99.6842 317.318 99.9082C317.084 100.132 316.945 100.49 316.902 100.98H319.526C319.526 100.714 319.473 100.479 319.366 100.276C319.27 100.063 319.126 99.8922 318.934 99.7642C318.742 99.6362 318.508 99.5722 318.23 99.5722Z" fill="#60BDFF"/>
<path d="M101.956 183.237C128.18 194.679 170.272 156.804 170.272 156.804C170.272 156.804 190.131 201.387 211.835 196.214C229.66 191.966 237.633 156.804 237.633 156.804C237.633 156.804 266.707 204.852 291.139 196.214C307.333 190.488 317.892 161.129 317.892 161.129C317.892 161.129 344.508 205.537 365.666 196.214C381.333 189.31 385.253 156.804 385.253 156.804C385.253 156.804 412.947 196.188 429.682 183.237C448.314 168.819 417.261 130.37 417.261 130.37C417.261 130.37 453.137 108.09 444.015 92.4021C435.878 78.4097 417.261 84.0002 417.261 84.0002C417.261 84.0002 432.367 57.3506 422.516 39.0544C409.714 15.2747 359.933 67.891 359.933 67.891C359.933 67.891 368.643 24.1578 349.901 14.0627C326.269 1.33397 306.905 67.891 306.905 67.891C306.905 67.891 303.663 28.3478 284.929 20.3107C260.662 9.90028 230.945 61.1625 230.945 61.1625C230.945 61.1625 216.679 -2.4316 187.948 0.605676C162.162 3.33171 152.118 56.837 152.118 56.837C152.118 56.837 115.16 14.4427 96.701 29.9229C84.9866 39.7466 86.6686 67.891 86.6686 67.891C86.6686 67.891 12.2865 36.2485 1.63171 67.891C-6.59007 92.308 32.6845 126.045 32.6845 126.045C32.6845 126.045 8.65834 145.066 10.7087 161.129C13.9237 186.317 75.2029 156.804 75.2029 156.804C75.2029 156.804 88.5212 177.376 101.956 183.237Z" stroke="#60BDFF"/>
</svg>
