<svg width="99" height="78" viewBox="0 0 99 78" fill="none" xmlns="http://www.w3.org/2000/svg">
<path d="M37.1253 12.8063C38.8445 7.78495 41.2305 4.38089 46.1406 1.94002C50.6792 -0.30698 55.937 -0.615654 60.709 1.08496C66.643 3.21048 69.6243 6.75269 71.3149 12.6891C81.6256 13.1783 83.5354 17.4341 83.2925 26.6203C83.202 30.0244 90.8886 26.3716 89.817 40.5153L86.3881 45.3227C89.4456 49.3599 91.4172 55.4544 91.4506 60.4219C94.0128 62.022 98.5133 64.8773 98.961 68.1185C100.071 76.0961 81.7209 75.8279 76.7584 75.5912L73.2151 75.5959C71.5197 75.4149 70.7101 75.9775 69.1861 76.4038C57.9039 79.5526 45.5453 77.4023 34.5869 75.4249L32.5677 76.7754C30.3722 76.1257 17.0902 75.6884 12.041 74.7337L10.6427 73.6314C11.6386 73.3103 11.4186 73.2723 12.2201 72.3233C9.63883 71.7088 9.20307 72.1099 7.02091 70.5013C5.57408 68.3109 4.65159 67.5454 4.14249 64.9274C4.29679 63.6664 4.30585 61.6462 4.35538 60.3167L5.48073 58.6008L6.33608 58.143C6.2194 53.8258 1.40505 49.0088 3.25621 44.2471C5.75031 43.4978 12.6158 44.1632 15.2066 44.6043L16.3325 44.6572C17.5493 43.6731 17.5054 42.9985 18.1212 41.3784C19.8824 39.1314 20.7573 38.2383 23.1137 36.711C18.3865 28.5757 24.3524 28.49 25.6764 24.9359C27.9481 18.8432 27.2242 11.5711 37.1253 12.8063Z" fill="#70C5F9"/>
<path d="M37.1253 12.8063C38.8445 7.78496 41.2305 4.38089 46.1406 1.94002C50.6792 -0.30698 55.9369 -0.615654 60.7089 1.08496C66.6429 3.21048 69.6242 6.75269 71.3149 12.6891C81.6256 13.1783 83.5353 17.4341 83.2925 26.6203C83.202 30.0244 90.8885 26.3716 89.817 40.5153L86.3881 45.3227C84.1402 43.7307 79.5491 43.8727 77.006 44.6334C75.4534 43.1381 73.2818 39.9922 72.4912 37.9886C71.5054 36.5986 70.6958 35.8546 69.5099 34.6646C66.6381 35.0309 63.5854 31.2663 62.6901 28.8092C62.471 28.6096 61.4852 27.8159 61.2709 27.824C56.2989 28.0127 52.727 28.7163 47.7979 27.846C46.1882 27.6087 43.4307 26.5569 41.8972 25.9739C40.9733 26.1616 40.3161 26.3578 39.3731 26.3611C35.6108 28.9802 32.058 29.0855 29.0529 32.4571C27.6623 34.3702 26.2526 36.2723 24.8334 38.1625L23.1137 36.711C18.3865 28.5757 24.3524 28.49 25.6763 24.9359C27.948 18.8432 27.2241 11.5711 37.1253 12.8063Z" fill="#2A70AB"/>
<path d="M47.7979 27.846C52.4412 26.2254 59.7992 28.8378 61.0041 25.4937C61.2422 24.842 62.0185 22.2559 62.2519 21.3903L62.3472 22.3283L61.9185 22.4083C62.6615 23.5468 62.209 26.3578 62.69 28.8092C62.471 28.6096 61.4851 27.8159 61.2708 27.824C56.2988 28.0127 52.727 28.7163 47.7979 27.846Z" fill="#235A89"/>
<path d="M29.0527 32.4574C29.1099 31.9592 29.6671 30.6763 29.8814 30.1342C32.2245 28.8561 36.9155 25.9227 39.3729 26.3614C35.6106 28.9805 32.0578 29.0858 29.0527 32.4574Z" fill="#235A89"/>
<path d="M69.5098 34.6645C70.9623 34.302 71.1909 34.1353 72.5482 34.5754C73.234 36.0202 73.0006 36.0264 72.4911 37.9885C71.5052 36.5985 70.6956 35.8545 69.5098 34.6645Z" fill="#235A89"/>
<path d="M39.373 26.3609C40.4541 24.7327 40.2065 25.5102 39.9636 23.1503C40.6209 23.8591 41.4781 24.6051 42.2067 25.2687L41.8972 25.9737C40.9733 26.1613 40.316 26.3576 39.373 26.3609Z" fill="#235A89"/>
<path d="M37.125 12.8062L38.0632 13.6051L37.7727 14.503C37.2869 13.7156 37.1774 13.7065 37.125 12.8062Z" fill="#336894"/>
<path d="M70.5957 13.2153L71.3719 13.423L71.229 13.8584L67.7287 15.196C67.5239 15.2008 66.8524 15.025 66.6143 14.9716C67.3524 14.0013 69.3241 13.6102 70.5957 13.2153Z" fill="#235A89"/>
<path d="M23.1137 36.7111L24.8334 38.1625C23.598 40.6186 23.1656 42.2945 22.3855 44.9426C23.8809 48.8154 26.0717 55.212 28.0719 58.6723C29.4054 60.9774 37.0205 61.3942 32.3628 68.0518C32.22 70.5332 33.663 72.4634 34.9679 74.5046L34.5869 75.4249L32.5677 76.7754C30.3722 76.1257 17.0902 75.6884 12.041 74.7337L10.6427 73.6314C11.6386 73.3104 11.4186 73.2723 12.2201 72.3234C9.63883 71.7089 9.20307 72.1099 7.02091 70.5013C5.57408 68.311 4.65159 67.5455 4.14249 64.9274C4.29679 63.6664 4.30585 61.6462 4.35538 60.3167L5.48073 58.6008L6.33608 58.143C6.2194 53.8258 1.40505 49.0088 3.25621 44.2471C5.75031 43.4978 12.6158 44.1633 15.2066 44.6044L16.3325 44.6573C17.5493 43.6731 17.5054 42.9986 18.1212 41.3785C19.8824 39.1315 20.7573 38.2383 23.1137 36.7111Z" fill="#336894"/>
<path d="M23.1136 36.7111L24.8333 38.1625C23.5979 40.6186 23.1655 42.2945 22.3854 44.9426C23.8808 48.8154 26.0715 55.212 28.0718 58.6723C29.4053 60.9774 37.0204 61.3942 32.3627 68.0518C32.2198 70.5332 33.6629 72.4634 34.9678 74.5046L34.5868 75.4249L32.5675 76.7754C29.6767 75.3687 29.7053 72.4782 28.4575 69.0226C26.4573 67.8598 24.8 66.9624 24.0427 64.6997C24.0808 63.041 24.2189 62.8709 25.2953 61.5876C23.8094 57.8715 20.9495 51.3592 20.1366 47.7769L21.0033 46.8671L20.8643 45.5342C19.1007 45.0531 19.2312 45.378 18.1716 44.2476L18.3516 42.2249L18.1211 41.3785C19.8822 39.1315 20.7571 38.2383 23.1136 36.7111Z" fill="#235A89"/>
<path d="M25.2955 61.5875C33.063 57.5037 35.5062 67.3972 28.4578 69.0225C26.4575 67.8597 24.8002 66.9623 24.043 64.6995C24.0811 63.0409 24.2192 62.8708 25.2955 61.5875Z" fill="#70C5F9"/>
<path d="M18.3514 42.2251C20.6645 39.6856 21.5465 38.7234 24.2616 36.6846C23.3148 39.5713 22.2938 42.8816 20.8641 45.5344C19.1005 45.0533 19.231 45.3782 18.1714 44.2478L18.3514 42.2251Z" fill="#6BB9EB"/>
<path d="M5.48034 58.6008L6.33568 58.1431L7.2934 59.5478C8.76024 59.686 9.04265 59.6193 10.5219 59.4059C12.0363 60.0685 11.763 59.6827 12.465 60.875C11.6277 61.9073 11.1772 62.0502 9.98897 62.7171C11.7992 63.8727 13.9894 62.2245 14.6142 64.7397C14.0313 65.4886 14.0337 65.6219 13.256 66.1559L15.4477 66.9162C14.1761 70.498 15.0286 68.1995 12.7478 70.7719C10.5195 71.5693 9.80036 71.0034 7.70393 70.0402L7.02052 70.5013C5.57368 68.311 4.6512 67.5455 4.14209 64.9274C4.29639 63.6665 4.30545 61.6462 4.35498 60.3167L5.48034 58.6008Z" fill="#70C5F9"/>
<path d="M5.48034 58.601C4.96599 63.7228 4.62215 65.7002 7.70393 70.0403L7.02052 70.5015C5.57368 68.3112 4.6512 67.5456 4.14209 64.9276C4.29639 63.6666 4.30545 61.6464 4.35498 60.3169L5.48034 58.601Z" fill="#154775"/>
<path d="M15.448 66.9161C13.8393 67.1133 13.3735 67.0809 11.7528 66.9337L11.6343 66.5941L13.2564 66.1558L15.448 66.9161Z" fill="#53A1D8"/>
<path d="M3.25635 44.2472C5.75044 43.4979 12.616 44.1634 15.2067 44.6045C12.4821 45.2943 5.67281 45.8168 3.25635 44.2472Z" fill="#154775"/>
<path d="M7.70392 70.04C9.80035 71.0032 10.5195 71.5692 12.7478 70.7717C14.0451 72.4747 14.0051 71.8874 14.0037 73.6366L13.3117 73.7199C12.9874 73.3169 12.4868 72.7377 12.2197 72.3233C9.63842 71.7087 9.20266 72.1098 7.02051 70.5012L7.70392 70.04Z" fill="#235A89"/>
<path d="M77.006 44.6335C79.5492 43.8727 84.1402 43.7308 86.3881 45.3228C89.4456 49.3599 91.4172 55.4545 91.4506 60.422C94.0128 62.0221 98.5133 64.8774 98.961 68.1186C100.071 76.0962 81.7209 75.828 76.7584 75.5912L73.2151 75.596C71.5197 75.415 70.7101 75.9776 69.1861 76.4039C57.9039 79.5527 45.5453 77.4024 34.5869 75.425L34.9679 74.5047C33.663 72.4634 32.22 70.5332 32.3628 68.0519C34.2535 68.8479 39.5304 71.2644 41.2591 70.5651L41.402 70.387C43.2927 65.0618 44.2118 66.9672 46.9598 64.7264C51.5698 60.9617 50.8412 60.3129 57.3324 62.7733C61.6329 64.4034 61.5567 63.4816 64.838 61.8987C64.7475 63.4688 61.4043 64.0204 59.504 66.0426C54.1749 61.6577 53.8892 61.1551 47.2265 65.3685C45.0929 66.719 43.3546 67.9647 42.7879 70.6114C44.007 74.4851 45.15 76.6326 49.3553 77.1294C52.4556 77.4953 54.675 75.9504 57.4086 75.8042C62.152 75.5498 67.6383 77.8149 71.734 74.1941C77.7776 69.0075 74.4962 63.8994 74.9868 59.0663L75.4535 58.8581C77.1489 66.2731 82.8924 65.7539 87.0215 60.3563C89.8266 56.6926 90.079 48.6349 85.5547 46.2574C82.821 44.8221 79.6207 46.0488 76.8584 46.9448C77.4442 45.6067 77.3489 46.1845 77.006 44.6335Z" fill="#235A89"/>
<path d="M84.3352 64.5163C88.1023 61.2098 88.4691 60.2305 90.2026 55.6174C90.4122 57.8558 90.5979 59.8122 90.6455 62.0602L90.7646 61.3075C94.4697 63.2944 99.137 65.6019 97.5653 70.7066C94.3221 75.2192 86.6355 72.8483 81.6921 74.5146C78.5489 72.7854 80.13 70.6823 75.3057 71.4292L76.001 69.4823L76.6868 67.4626C78.387 66.688 79.7347 67.2734 82.0064 67.1524C83.8352 66.0106 83.197 66.617 84.3352 64.5163Z" fill="#084570"/>
<path d="M32.3628 68.0516C34.2535 68.8476 39.5304 71.2642 41.2591 70.5649L41.402 70.3868C41.983 72.4261 42.5068 72.9548 41.9925 74.7336C39.9637 75.8349 37.3634 74.9784 34.9679 74.5044C33.663 72.4632 32.22 70.533 32.3628 68.0516Z" fill="#53A1D8"/>
<path d="M75.3056 71.4294C80.1299 70.6825 78.5488 72.7856 81.692 74.5148L76.7581 75.5914L73.2148 75.5962C73.3768 73.2777 73.8197 73.8984 75.3056 71.4294Z" fill="#53A1D8"/>
<path d="M76.001 69.4825C76.0105 67.7628 76.1105 67.1474 76.4296 65.4511C78.3394 63.6309 79.4966 65.8655 83.8162 64.6646L84.3353 64.5164C83.197 66.6172 83.8352 66.0108 82.0064 67.1526C79.7347 67.2736 78.387 66.6881 76.6868 67.4627L76.001 69.4825Z" fill="#53A1D8"/>
<path d="M48.393 43.4736C54.2651 43.7818 52.9506 49.0065 50.3599 52.4149C44.8069 51.6203 46.4356 46.8891 48.393 43.4736Z" fill="#2A2A2B"/>
<path d="M37.1156 41.6536C38.7538 43.8158 39.8302 46.583 37.7966 48.8534C36.4441 49.5403 36.2488 49.5093 34.7439 49.2349C33.2723 48.1221 33.6866 48.7066 33.0913 47.0655C33.2247 45.1954 34.0771 43.449 35.4678 42.1914L37.1156 41.6536Z" fill="#2A2A2B"/>
<path d="M35.0154 41.3164C34.4201 41.3226 33.72 41.2035 33.1199 41.1283L32.9199 40.5671C34.6058 39.6158 38.3586 37.5246 40.1684 37.8028L40.1541 38.4997C39.1016 39.6549 38.7397 40.0836 37.2252 40.51L35.0154 41.3164Z" fill="#151516"/>
<path d="M48.9978 37.9688C51.8124 42.6653 53.9651 41.2867 55.3843 44.2968C51.7077 43.9057 47.6215 42.3894 48.9978 37.9688Z" fill="#151516"/>
<path d="M37.7633 54.6454C40.3255 54.3903 44.345 54.365 44.4593 57.4365L43.7211 57.4807L42.4257 56.4097C40.6779 54.8466 38.4014 56.2624 36.2202 56.4961C36.4488 55.3598 36.5251 55.6301 37.7633 54.6454Z" fill="#151516"/>
<path d="M4.35527 60.3167C4.30574 61.6462 4.29668 63.6665 4.14238 64.9274C4.65149 67.5455 5.57398 68.311 7.02081 70.5013C9.20296 72.11 9.63872 71.7089 12.22 72.3234C11.4184 73.2723 11.6385 73.3104 10.6426 73.6315L12.0409 74.7338C6.92176 74.9553 5.02487 75.1625 0.713905 72.6997C-0.42051 66.9929 -0.820558 64.0142 4.35527 60.3167Z" fill="#084570"/>
<path d="M4.35527 60.3167C4.30574 61.6462 4.29668 63.6665 4.14238 64.9274L3.02702 63.6655C0.987267 64.0938 0.0733543 66.5261 0.379104 68.3463C1.29968 73.832 6.84887 73.661 10.6426 73.6315L12.0409 74.7338C6.92176 74.9553 5.02487 75.1625 0.713905 72.6997C-0.42051 66.9929 -0.820558 64.0142 4.35527 60.3167Z" fill="#235A89"/>
</svg>
