<svg width="62" height="61" viewBox="0 0 62 61" fill="none" xmlns="http://www.w3.org/2000/svg">
<path d="M9.62091 17.5539C9.67209 17.0807 9.72691 16.6083 9.7854 16.1362C10.9918 6.47829 13.6348 10.0939 19.4289 7.44142C20.9058 5.61425 21.4871 3.05798 23.5379 1.64364C26.02 -0.0657869 29.6354 -0.158668 32.5307 0.120324C37.3415 0.584336 38.2262 4.61347 40.266 8.06888C40.9679 9.25432 42.1303 8.74934 43.3038 9.07696C47.6101 9.1457 50.2386 12.0541 49.416 16.6617L50.1691 17.2998C54.9908 19.0198 55.4515 23.518 52.7244 27.4192C54.5741 28.454 54.8885 28.8086 56.3983 30.3334C57.3268 33.2915 57.2354 34.6554 56.8442 37.7488C54.4535 41.2335 53.4519 40.7691 50.7028 41.9611C49.5879 42.4438 51.2402 48.0492 53.3093 49.1462C54.9909 48.5831 56.0254 47.6287 57.5133 47.764C59.2277 49.7568 56.2118 49.8409 60.4706 50.9489C61.0958 51.746 61.1688 51.9397 60.997 53.0111C59.9917 59.1358 53.8247 56.8066 49.6683 56.759C49.087 56.7517 47.899 59.5343 47.1751 59.8415C44.0423 61.1578 36.8919 61.0116 34.1575 59.0883C31.6022 59.187 29.566 59.2893 27.0034 59.5965C24.0058 61.1103 18.0727 61.6222 14.9508 60.006C13.1486 59.0773 12.8525 58.1303 12.2201 56.3751C9.88046 57.249 8.73622 57.5928 6.29426 58.1193C4.32022 57.5598 1.72842 57.0443 0.52206 55.1868C-1.19974 52.5358 1.70281 49.5192 3.92908 48.3418C4.45915 48.0602 6.83899 48.9304 7.56646 49.1718C8.2793 48.6781 10.2533 43.7748 10.7651 42.6047C10.0523 42.4255 9.34673 42.228 8.64485 42.0123C2.51802 40.1219 2.52534 35.7268 4.17768 30.5894C5.01117 29.8946 5.70938 29.2547 6.499 28.5125C5.44252 26.7098 5.26341 25.8871 4.68216 23.8617C5.63262 19.9467 5.62166 18.8662 9.62091 17.5539Z" fill="#BEA4DA"/>
<path d="M9.62088 17.5539C9.67206 17.0807 9.72688 16.6083 9.78537 16.1362C10.9917 6.47829 13.6347 10.0939 19.4289 7.44142C20.9058 5.61425 21.487 3.05798 23.5378 1.64364C26.02 -0.0657869 29.6354 -0.158668 32.5307 0.120324C37.3415 0.584336 38.2261 4.61347 40.266 8.06888C40.9678 9.25432 42.1303 8.74934 43.3038 9.07696C47.6101 9.14571 50.2385 12.0541 49.416 16.6617L50.169 17.2998C54.9908 19.0198 55.4514 23.518 52.7243 27.4192C51.1195 27.3351 50.3518 28.2565 48.6776 27.357C47.3031 24.724 45.8773 23.2515 43.9033 21.1069C42.3387 20.5877 41.7026 20.0842 40.5182 19.0373C37.0563 18.1353 37.8459 17.0661 34.4097 17.7426C32.3844 17.8552 25.2231 17.7389 24.2836 17.8895C23.5488 20.3376 19.6958 22.6668 17.2904 22.8493C16.3874 23.7605 16.1535 24.019 15.4662 25.0962C14.9033 26.0406 14.4499 26.9292 13.6969 27.7227C13.101 27.9421 12.6477 28.1102 12.0628 28.3735C9.74149 28.0517 8.67772 27.719 6.49896 28.5125C5.44249 26.7098 5.26337 25.8871 4.68213 23.8617C5.63259 19.9467 5.62163 18.8662 9.62088 17.5539Z" fill="#856BB1"/>
<path d="M24.2839 17.8896L23.9805 17.8209C24.1267 16.9861 24.2912 14.9897 24.7884 14.613C25.8193 19.1471 31.522 15.7656 34.41 17.7427C32.3848 17.8553 25.2234 17.739 24.2839 17.8896Z" fill="#5C498B"/>
<path d="M40.5183 19.0374C41.8453 18.727 43.1321 20.0785 43.9034 21.1071C42.3388 20.5878 41.7027 20.0843 40.5183 19.0374Z" fill="#5C498B"/>
<path d="M15.4666 25.0962C15.3861 23.8794 15.0863 23.1349 15.7041 22.4167L17.2907 22.8493C16.3878 23.7605 16.1538 24.019 15.4666 25.0962Z" fill="#5C498B"/>
<path d="M50.1691 17.2994L49.2625 17.947L48.6593 17.8187L48.6045 17.1725L49.4161 16.6614L50.1691 17.2994Z" fill="#6B5A98"/>
<path d="M48.6776 27.3569C50.3519 28.2564 51.1195 27.335 52.7244 27.4191C54.5741 28.4539 54.8885 28.8086 56.3983 30.3333C57.3268 33.2914 57.2354 34.6553 56.8442 37.7487C54.4535 41.2334 53.4519 40.769 50.7028 41.961C49.5879 42.4437 51.2402 48.0492 53.3093 49.1461C54.9909 48.583 56.0254 47.6286 57.5133 47.7639C59.2277 49.7567 56.2118 49.8409 60.4706 50.9488C61.0958 51.7459 61.1688 51.9397 60.997 53.011C59.9917 59.1357 53.8247 56.8065 49.6683 56.759C49.087 56.7516 47.899 59.5343 47.1751 59.8414C44.0423 61.1578 36.8919 61.0115 34.1575 59.0882C31.6022 59.1869 29.566 59.2893 27.0034 59.5964C24.0058 61.1102 18.0727 61.6221 14.9508 60.0059C13.1486 59.0772 12.8525 58.1302 12.2201 56.3751C9.88046 57.249 8.73622 57.5927 6.29426 58.1192C4.32022 57.5598 1.72842 57.0442 0.52206 55.1867C-1.19974 52.5357 1.70281 49.5191 3.92908 48.3417C4.45915 48.0601 6.83899 48.9304 7.56646 49.1717C8.2793 48.6781 10.2533 43.7747 10.7651 42.6046C10.0523 42.4254 9.34673 42.228 8.64485 42.0122C2.51802 40.1218 2.52534 35.7267 4.17768 30.5893C5.01117 29.8945 5.70938 29.2547 6.499 28.5124C8.67775 27.7189 9.74153 28.0517 12.0628 28.3734C12.6477 28.1102 13.101 27.942 13.6969 27.7226C11.6424 31.1085 11.361 38.3484 12.3188 42.1512C13.5836 47.1679 14.9764 48.6342 19.0012 51.2486L19.0889 51.6984C17.2136 51.8154 16.3107 51.1755 14.5377 51.9689C12.0153 54.2323 12.4028 59.2235 16.5629 59.4758C19.3814 59.6476 25.9688 61.4064 26.3161 56.6712C26.4733 54.5504 25.4754 55.6803 24.28 54.3457C25.2304 53.9983 30.3739 54.7698 31.9495 54.7735C35.2066 54.7772 37.0527 53.6729 39.7103 53.395C39.4508 54.3822 38.3431 54.1629 37.3342 54.4481C34.6254 55.2123 35.1737 56.9235 35.2285 59.0516C38.493 59.5087 44.1007 60.1815 47.102 58.9017C47.8002 58.2728 48.2864 57.6951 48.3084 56.7041C48.3632 54.4993 46.3161 51.5631 43.9216 51.6984C43.2855 51.7313 43.4683 51.8227 42.8944 51.5155C50.9697 44.5535 52.1358 37.3283 48.6776 27.3569Z" fill="#6B5A98"/>
<path d="M26.8792 58.0862L27.0912 56.0459C28.5936 54.9197 33.1083 55.0586 34.3732 56.5761C34.4353 57.2379 34.5267 57.7316 34.4573 58.3897L34.1575 59.0881C31.6022 59.1869 29.566 59.2892 27.0034 59.5964L26.8792 58.0862Z" fill="#FAF4EE"/>
<path d="M3.86716 53.4902L4.82494 52.3677C4.52152 49.9398 3.22742 50.7332 3.81598 49.4132C5.31844 48.5941 5.49753 48.9013 7.02558 49.7898C9.41271 48.9744 10.429 45.0985 11.3429 42.7876C12.6114 45.6872 13.3645 47.1791 15.3239 49.6728C13.2219 52.5505 11.65 56.5983 7.83351 57.2528C5.39155 57.6733 2.57306 56.3021 0.884161 54.6201C0.650201 52.832 0.599029 52.9381 1.34843 51.8046C2.64983 51.2524 2.10514 51.2853 3.39557 51.6035C4.13401 52.4445 3.92931 52.0569 3.86716 53.4902Z" fill="#BEA4DA"/>
<path d="M0.884161 54.62C0.650201 52.832 0.599029 52.938 1.34843 51.8045C2.64983 51.2524 2.10514 51.2853 3.39557 51.6034C4.13401 52.4444 3.92931 52.0568 3.86716 53.4902L0.884161 54.62Z" fill="#BEA4DA"/>
<path d="M49.4199 44.7913C50.7725 46.2063 51.7741 48.7184 52.8013 50.4406C54.1868 49.7349 55.5576 48.8793 57.1223 48.7001C57.2977 50.1115 55.9598 51.4388 55.1373 52.5577C55.7002 52.8393 57.8863 50.9927 59.1182 50.9891C59.9919 51.7789 60.0102 52.0933 60.3246 53.2524C59.5679 54.598 58.7307 55.6292 57.2648 56.2179C55.1299 57.0625 52.7428 56.9712 50.6774 55.9766C48.8459 55.1027 47.2886 53.4718 46.7037 51.5083C46.0311 49.2559 48.3159 46.6963 49.4199 44.7913Z" fill="#BEA4DA"/>
<path d="M7.34357 28.8781C7.80417 28.8562 8.26845 28.8452 8.72906 28.8416C9.86231 28.8452 10.5459 28.9622 11.3648 29.7776C11.2332 31.7046 11.2149 40.4473 10.3229 41.5187L8.65231 41.4053C6.437 40.7215 5.55962 39.6283 4.23994 37.8293C4.0462 36.2716 3.85248 34.6627 4.18515 33.1124C4.60554 31.1305 5.67295 29.9348 7.34357 28.8781Z" fill="#BEA4DA"/>
<path d="M50.6772 27.9238C52.3917 28.1469 53.6347 28.9074 55.0859 29.774C55.7001 30.9295 56.3581 32.2641 56.5299 33.5695C56.8735 36.1949 55.7476 37.9975 54.1793 39.9172C53.9673 40.0415 53.7553 40.1658 53.536 40.2719C52.6257 40.707 51.8653 40.9703 50.9222 40.6339C50.977 40.0342 51.0099 39.4272 51.0867 38.8312C51.5473 35.1125 49.9717 30.8527 50.1764 28.8087C50.1947 28.6259 50.5712 28.114 50.6772 27.9238Z" fill="#BFA5DB"/>
<path d="M29.4124 38.3557C29.745 38.5056 30.0777 38.6409 30.4104 38.7835C32.6038 39.7233 34.4316 39.2004 36.6249 38.5714L37.0782 39.1967C36.6103 39.6355 36.1314 40.067 35.5283 40.3119C34.1574 40.8604 32.1833 41.0871 30.8344 40.3668C29.8839 39.8585 29.7633 39.3028 29.4124 38.3557Z" fill="#151516"/>
<path d="M29.8621 33.3027C30.0303 33.4746 30.0668 33.7635 30.1326 33.9902C29.8182 34.3375 29.5806 34.5679 29.1419 34.758C27.581 35.4455 26.4551 35.493 24.8868 34.8421C24.6199 34.3704 24.609 34.3851 24.7259 33.8585C26.8974 34.1328 27.8588 34.4143 29.8621 33.3027Z" fill="#151516"/>
<path d="M35.7109 33.6793L36.1569 33.4233C36.6358 33.7232 37.122 34.0011 37.6118 34.2753C38.6135 34.2314 39.4799 34.012 40.4413 33.7305L41.0591 34.2936C39.9661 34.8859 38.2991 35.6319 37.0416 35.109C36.2483 34.7836 35.9741 34.4508 35.7109 33.6793Z" fill="#151516"/>
<path d="M35.989 26.5232C36.4496 26.6073 36.3582 26.5561 36.6909 26.706C38.2262 27.4117 40.2003 27.8395 41.3701 29.0828C40.5805 29.1998 39.8018 29.3095 39.0122 29.1084C37.5572 28.739 36.7677 27.7298 35.989 26.5232Z" fill="#151516"/>
<path d="M28.1295 27.0095L28.612 27.1558L28.3123 27.803C27.1827 28.6659 26.2176 29.1303 24.8796 29.5837L24.2983 29.229L24.3788 28.7061C25.6071 28.0662 26.85 27.5324 28.1295 27.0095Z" fill="#151516"/>
</svg>
