<svg width="554" height="356" viewBox="0 0 554 356" fill="none" xmlns="http://www.w3.org/2000/svg">
<path d="M116.387 45.2731C115.944 45.9814 115.359 46.5188 114.635 46.8852C113.914 47.2432 113.115 47.4082 112.238 47.3805C111.369 47.3567 110.472 47.1226 109.547 46.6782C108.503 46.1771 107.685 45.5306 107.093 44.7385C106.508 43.9505 106.173 43.0855 106.087 42.1434C106.005 41.1929 106.196 40.2339 106.661 39.2663C107.13 38.2904 107.759 37.5415 108.548 37.0196C109.337 36.4978 110.221 36.2186 111.202 36.1821C112.191 36.1497 113.207 36.384 114.25 36.885C115.175 37.3294 115.919 37.8833 116.481 38.5464C117.051 39.2136 117.421 39.9403 117.592 40.7266C117.767 41.5044 117.715 42.2922 117.436 43.0898L116.237 42.514C116.403 41.9102 116.414 41.3256 116.272 40.7601C116.133 40.1863 115.847 39.6607 115.414 39.1833C114.984 38.6976 114.42 38.287 113.722 37.9516C112.906 37.5597 112.12 37.3739 111.365 37.3943C110.618 37.4187 109.943 37.6382 109.34 38.0527C108.738 38.4672 108.248 39.0657 107.873 39.8482C107.501 40.6222 107.342 41.3741 107.395 42.1038C107.448 42.8335 107.697 43.5016 108.141 44.1082C108.597 44.7104 109.233 45.2075 110.049 45.5994C110.748 45.9348 111.418 46.1224 112.062 46.1622C112.71 46.1937 113.299 46.0883 113.829 45.846C114.364 45.5954 114.817 45.2125 115.188 44.6973L116.387 45.2731ZM130.276 47.2792L126.939 54.4202L125.772 53.875L128.919 47.1399L129.203 47.9215L123.203 45.1183L123.998 44.8404L120.851 51.5755L119.684 51.0303L123.02 43.8893L130.276 47.2792ZM131.673 57.4845C130.889 56.9958 130.287 56.4173 129.867 55.749C129.456 55.0857 129.249 54.3851 129.247 53.647C129.245 52.909 129.459 52.1954 129.889 51.5063C130.323 50.8092 130.869 50.303 131.528 49.9875C132.186 49.672 132.904 49.5529 133.681 49.63C134.465 49.7121 135.25 49.9975 136.034 50.4862C136.826 50.9799 137.428 51.5583 137.839 52.2216C138.251 52.885 138.46 53.5817 138.467 54.3118C138.482 55.0468 138.272 55.7629 137.837 56.4599C137.408 57.1491 136.858 57.6529 136.186 57.9713C135.523 58.2947 134.803 58.4178 134.026 58.3407C133.249 58.2635 132.465 57.9781 131.673 57.4845ZM132.243 56.5696C132.829 56.9349 133.4 57.1478 133.956 57.2085C134.517 57.2612 135.034 57.165 135.505 56.92C135.985 56.68 136.39 56.2946 136.721 55.7639C137.046 55.2411 137.211 54.7116 137.216 54.1754C137.228 53.6441 137.087 53.1382 136.792 52.6578C136.498 52.1774 136.057 51.7545 135.471 51.3892C134.893 51.0289 134.319 50.8199 133.751 50.7622C133.189 50.7095 132.673 50.8057 132.202 51.0506C131.73 51.2956 131.331 51.6795 131.005 52.2023C130.675 52.733 130.503 53.264 130.491 53.7953C130.479 54.3266 130.62 54.8324 130.915 55.3129C131.222 55.7903 131.665 56.2092 132.243 56.5696ZM141.518 54.362L142.475 55.2032L137.271 61.1227L136.314 60.2815L141.518 54.362ZM146.607 58.8362L147.575 59.6866L142.37 65.6061L141.403 64.7556L146.607 58.8362ZM139.827 57.3674L144.832 61.7676L144.138 62.5561L139.134 58.156L139.827 57.3674ZM143.05 66.3419L149.332 61.5813L150.101 62.5967L144.288 67.0021L144.048 66.5693L153.45 67.0153L154.456 68.3431L148.174 73.1036L147.404 72.0883L153.274 67.6406L153.511 68.093L144.039 67.6474L143.05 66.3419ZM148.548 73.7568L155.811 70.696L156.55 72.4506L151.234 78.7624L150.973 78.1431L159.198 78.7335L159.937 80.4881L152.674 83.5489L152.201 82.4265L159.129 79.507L159.298 79.907L150.858 79.2399L150.363 78.0659L155.767 71.5653L155.936 71.9652L149.021 74.8792L148.548 73.7568ZM154.204 91.7596L157.093 90.9705L158.105 91.149L158.982 90.6404L161.968 90.4029L162.194 91.6993L158.256 92.0178L154.43 93.0559L154.204 91.7596ZM158.179 91.5765C157.335 91.5156 156.568 91.3275 155.878 91.0122C155.199 90.7045 154.637 90.2816 154.192 89.7434C153.749 89.2144 153.465 88.5913 153.34 87.8742C153.207 87.1111 153.259 86.4056 153.496 85.7578C153.743 85.1083 154.139 84.5605 154.687 84.1143C155.245 83.6757 155.924 83.3865 156.724 83.2467C157.533 83.1053 158.27 83.1471 158.935 83.3721C159.601 83.6062 160.155 83.9878 160.598 84.5168C161.041 85.0458 161.33 85.6918 161.463 86.4549C161.588 87.1721 161.532 87.8546 161.295 88.5024C161.059 89.1595 160.675 89.7525 160.142 90.2814C159.609 90.8104 158.955 91.2421 158.179 91.5765ZM156.95 84.5431C156.362 84.6459 155.863 84.8562 155.455 85.1739C155.048 85.5009 154.752 85.8983 154.569 86.3662C154.396 86.8417 154.357 87.3507 154.452 87.8931C154.548 88.4448 154.761 88.9288 155.089 89.3451C155.429 89.769 155.855 90.1209 156.368 90.4007C156.883 90.6898 157.454 90.8978 158.083 91.0249C158.631 90.6922 159.098 90.3026 159.485 89.8562C159.873 89.4189 160.15 88.9441 160.316 88.4318C160.493 87.9271 160.533 87.399 160.437 86.8473C160.342 86.3049 160.128 85.8401 159.796 85.453C159.473 85.0734 159.065 84.7989 158.571 84.6293C158.079 84.469 157.539 84.4403 156.95 84.5431ZM162.398 94.005L162.419 95.2789L154.538 95.4071L154.517 94.1332L162.398 94.005ZM162.508 100.78L162.529 102.068L154.648 102.196L154.627 100.908L162.508 100.78ZM159.036 94.7738L159.145 101.437L158.095 101.454L157.986 94.7909L159.036 94.7738ZM154.589 103.689L162.437 104.423L162.318 105.692L155.056 105.012L155.171 104.531L161.802 111.212L161.647 112.87L153.799 112.136L153.918 110.868L161.25 111.554L161.119 112.048L154.437 105.32L154.589 103.689ZM152.715 117.908C152.864 117.015 153.166 116.252 153.622 115.618C154.085 114.995 154.654 114.536 155.327 114.242C156.008 113.958 156.75 113.883 157.551 114.016C158.361 114.151 159.039 114.453 159.585 114.923C160.131 115.392 160.52 115.982 160.752 116.693C160.984 117.403 161.029 118.182 160.888 119.029C160.748 119.867 160.442 120.568 159.97 121.132C159.497 121.697 158.897 122.094 158.168 122.322C157.447 122.562 156.644 122.608 155.76 122.461L157.017 114.921L158.025 115.089L156.858 122.09L156.527 121.268C157.111 121.337 157.636 121.283 158.101 121.105C158.566 120.927 158.949 120.645 159.249 120.26C159.55 119.875 159.747 119.402 159.841 118.84C159.942 118.232 159.906 117.682 159.733 117.19C159.568 116.699 159.287 116.288 158.888 115.956C158.487 115.634 157.988 115.423 157.389 115.323C156.763 115.219 156.196 115.271 155.689 115.48C155.181 115.689 154.76 116.03 154.425 116.504C154.091 116.978 153.865 117.565 153.749 118.265C153.643 118.9 153.645 119.539 153.755 120.182C153.864 120.834 154.062 121.435 154.349 121.984L153.355 121.819C153.048 121.275 152.835 120.653 152.715 119.952C152.605 119.252 152.605 118.571 152.715 117.908ZM151.974 123.196L159.678 124.86L159.276 126.721L151.299 128.836L151.441 128.18L157.836 133.385L157.434 135.247L149.73 133.582L149.987 132.391L157.336 133.979L157.244 134.403L150.717 129.011L150.986 127.766L159.143 125.547L159.051 125.971L151.717 124.386L151.974 123.196ZM148.421 139.353L156.108 141.096L155.827 142.338L148.713 140.726L148.89 140.264L154.601 147.745L154.233 149.37L146.546 147.628L146.828 146.385L154.009 148.013L153.816 148.486L148.059 140.951L148.421 139.353ZM144.249 158.095C144.434 157.094 144.795 156.273 145.331 155.632C145.876 154.993 146.57 154.552 147.412 154.309C148.253 154.075 149.21 154.057 150.284 154.256C151.899 154.554 153.094 155.198 153.87 156.186C154.654 157.185 154.965 158.453 154.805 159.989C154.748 160.605 154.701 161.114 154.665 161.515C154.627 161.926 154.602 162.263 154.592 162.527C154.59 162.792 154.596 163.017 154.61 163.199C154.622 163.391 154.644 163.581 154.676 163.767L153.519 163.553C153.476 163.374 153.454 163.138 153.451 162.843C153.449 162.548 153.466 162.172 153.503 161.714C153.548 161.266 153.612 160.718 153.694 160.069C153.854 158.789 153.629 157.75 153.017 156.954C152.405 156.157 151.429 155.635 150.089 155.387L149.579 155.293L149.655 155.193C150.192 155.52 150.627 155.914 150.96 156.374C151.291 156.843 151.512 157.364 151.625 157.935C151.736 158.516 151.732 159.127 151.613 159.769C151.466 160.568 151.181 161.237 150.758 161.775C150.345 162.316 149.833 162.701 149.221 162.929C148.608 163.167 147.938 163.219 147.213 163.085C146.451 162.944 145.824 162.643 145.33 162.181C144.836 161.72 144.493 161.139 144.3 160.439C144.106 159.739 144.09 158.957 144.249 158.095ZM145.304 158.318C145.192 158.924 145.205 159.467 145.344 159.949C145.481 160.439 145.73 160.841 146.089 161.154C146.447 161.477 146.893 161.687 147.425 161.786C147.966 161.886 148.457 161.848 148.898 161.674C149.346 161.51 149.721 161.223 150.025 160.814C150.327 160.414 150.533 159.912 150.645 159.306C150.795 158.498 150.705 157.751 150.377 157.064C150.046 156.386 149.5 155.824 148.738 155.379C147.833 155.393 147.078 155.656 146.47 156.17C145.861 156.694 145.472 157.41 145.304 158.318ZM142.731 168.566C142.827 167.666 143.085 166.886 143.503 166.227C143.929 165.578 144.47 165.087 145.125 164.753C145.789 164.43 146.524 164.312 147.332 164.399C148.148 164.486 148.843 164.749 149.416 165.186C149.988 165.623 150.411 166.189 150.683 166.885C150.956 167.58 151.047 168.355 150.955 169.209C150.864 170.053 150.6 170.771 150.161 171.362C149.722 171.954 149.145 172.385 148.431 172.655C147.725 172.936 146.926 173.029 146.036 172.933L146.851 165.333L147.867 165.442L147.11 172.499L146.731 171.698C147.319 171.733 147.84 171.648 148.293 171.444C148.747 171.239 149.113 170.936 149.391 170.534C149.669 170.132 149.838 169.648 149.899 169.081C149.964 168.469 149.896 167.922 149.695 167.44C149.502 166.96 149.197 166.566 148.779 166.258C148.361 165.96 147.85 165.778 147.247 165.713C146.616 165.646 146.053 165.731 145.558 165.969C145.063 166.206 144.662 166.572 144.356 167.065C144.05 167.557 143.859 168.156 143.783 168.862C143.714 169.502 143.754 170.14 143.902 170.775C144.048 171.42 144.281 172.008 144.599 172.54L143.597 172.432C143.259 171.908 143.01 171.299 142.85 170.606C142.699 169.914 142.659 169.234 142.731 168.566ZM142.281 178.241C142.27 177.457 142.367 176.76 142.573 176.151C142.788 175.55 143.099 175.074 143.505 174.723C143.91 174.372 144.393 174.174 144.952 174.129L144.97 175.388C144.43 175.471 144.019 175.757 143.736 176.246C143.463 176.745 143.333 177.405 143.345 178.226C143.356 179.029 143.477 179.652 143.707 180.097C143.947 180.551 144.31 180.774 144.795 180.767C145.196 180.762 145.488 180.571 145.669 180.195C145.86 179.828 145.949 179.243 145.938 178.441L145.915 176.803L146.88 176.789L146.903 178.385C146.914 179.104 147.042 179.634 147.29 179.976C147.538 180.327 147.834 180.5 148.18 180.495C148.609 180.489 148.932 180.27 149.15 179.837C149.378 179.414 149.486 178.861 149.477 178.18C149.466 177.434 149.327 176.824 149.058 176.352C148.8 175.88 148.413 175.605 147.899 175.529L147.88 174.269C148.376 174.318 148.822 174.503 149.219 174.824C149.615 175.145 149.93 175.593 150.162 176.168C150.394 176.744 150.516 177.428 150.527 178.221C150.538 178.949 150.449 179.58 150.26 180.115C150.081 180.65 149.826 181.064 149.494 181.358C149.162 181.652 148.782 181.803 148.352 181.809C147.988 181.814 147.656 181.707 147.354 181.487C147.052 181.277 146.809 180.949 146.626 180.503C146.442 180.067 146.345 179.508 146.336 178.827L146.574 178.824C146.616 179.841 146.478 180.636 146.16 181.21C145.841 181.793 145.374 182.089 144.758 182.098C144.282 182.105 143.86 181.957 143.492 181.654C143.123 181.361 142.833 180.926 142.619 180.351C142.405 179.775 142.293 179.072 142.281 178.241ZM144.811 193.179C144.515 192.304 144.417 191.475 144.516 190.692C144.619 189.918 144.904 189.246 145.37 188.674C145.837 188.102 146.455 187.686 147.224 187.425C148.002 187.162 148.746 187.117 149.455 187.291C150.164 187.465 150.794 187.828 151.346 188.38C151.9 188.941 152.326 189.66 152.622 190.535C152.921 191.419 153.02 192.248 152.917 193.022C152.814 193.795 152.534 194.467 152.076 195.035C151.621 195.613 151.005 196.034 150.227 196.297C149.458 196.557 148.713 196.598 147.992 196.418C147.274 196.247 146.639 195.886 146.088 195.333C145.536 194.781 145.111 194.063 144.811 193.179ZM145.832 192.833C146.054 193.487 146.36 194.014 146.752 194.414C147.152 194.81 147.612 195.064 148.132 195.173C148.655 195.292 149.213 195.251 149.805 195.05C150.389 194.853 150.852 194.548 151.195 194.136C151.542 193.733 151.754 193.253 151.831 192.695C151.908 192.136 151.836 191.53 151.614 190.876C151.396 190.231 151.085 189.705 150.682 189.3C150.281 188.903 149.821 188.65 149.301 188.54C148.781 188.431 148.229 188.474 147.646 188.672C147.054 188.872 146.584 189.174 146.238 189.577C145.891 189.98 145.68 190.461 145.603 191.019C145.537 191.583 145.614 192.188 145.832 192.833ZM155.457 205.267C154.894 205.559 154.3 205.683 153.673 205.638C153.051 205.602 152.445 205.414 151.854 205.074C151.263 204.735 150.741 204.263 150.289 203.657C149.764 202.954 149.439 202.23 149.313 201.485C149.196 200.734 149.269 200.021 149.534 199.346C149.811 198.673 150.275 198.093 150.926 197.608C151.577 197.122 152.261 196.844 152.977 196.775C153.707 196.707 154.412 196.839 155.091 197.171C155.769 197.503 156.371 198.021 156.896 198.724C157.348 199.329 157.653 199.964 157.81 200.627C157.975 201.284 157.987 201.916 157.846 202.522C157.71 203.136 157.419 203.674 156.971 204.136L156.176 203.07C156.615 202.567 156.817 201.98 156.781 201.308C156.759 200.638 156.513 199.988 156.044 199.36C155.664 198.852 155.231 198.482 154.744 198.251C154.263 198.028 153.761 197.949 153.238 198.013C152.723 198.072 152.215 198.288 151.713 198.662C151.212 199.036 150.857 199.465 150.647 199.948C150.437 200.431 150.37 200.935 150.447 201.459C150.538 201.986 150.773 202.504 151.153 203.012C151.627 203.648 152.183 204.072 152.819 204.284C153.46 204.504 154.075 204.476 154.661 204.201L155.457 205.267ZM154.861 211.786C154.537 211.549 154.277 211.296 154.082 211.025C153.886 210.755 153.722 210.45 153.589 210.11L154.192 209.285C154.325 209.625 154.481 209.918 154.659 210.164C154.838 210.41 155.078 210.644 155.379 210.864C155.703 211.101 156.037 211.229 156.381 211.249C156.719 211.277 157.088 211.183 157.489 210.967L165.482 206.701L166.59 207.511L158.01 211.938C157.615 212.146 157.234 212.272 156.867 212.316C156.502 212.373 156.151 212.354 155.816 212.259C155.488 212.169 155.17 212.012 154.861 211.786ZM157.543 210.348L159.029 201.982L160.171 202.817L158.594 211.116L157.543 210.348ZM163.257 214.612L168.125 211.261L168.553 212.467L164.69 215.175L163.257 214.612ZM175.686 219.5L174.716 214.891L175.838 214.294L177.119 220.064L175.686 219.5ZM171.228 216.453L170.927 216.184L178.362 212.083L179.756 212.631L170.657 217.522L169.732 217.158L166.389 207.374L167.783 207.922L170.445 215.995L170.042 215.987L172.487 209.772L173.672 210.238L171.228 216.453ZM188.771 221.515L188.137 224.543L187.013 224.308L187.433 222.307L179.211 220.585L178.792 222.586L177.682 222.353L178.316 219.325L180.002 219.678L180.369 219.769L186.412 221.035L186.785 221.099L188.771 221.515ZM181.499 213.011L188.72 214.524L187.181 221.869L185.921 221.604L187.367 214.698L187.836 215.397L181.958 214.166L182.578 213.867C182.538 214.287 182.485 214.701 182.419 215.106C182.355 215.503 182.286 215.875 182.213 216.222C181.926 217.592 181.535 218.64 181.04 219.366C180.556 220.085 180.03 220.385 179.464 220.266L179.038 219.705C179.926 219.29 180.603 217.968 181.07 215.739C181.16 215.31 181.239 214.864 181.307 214.402C181.387 213.932 181.451 213.468 181.499 213.011ZM194.21 223.455C193.312 223.343 192.537 223.073 191.885 222.643C191.243 222.206 190.761 221.657 190.439 220.996C190.127 220.327 190.022 219.59 190.122 218.784C190.223 217.969 190.497 217.279 190.944 216.714C191.39 216.149 191.964 215.736 192.664 215.475C193.364 215.214 194.141 215.137 194.993 215.243C195.835 215.348 196.549 215.624 197.132 216.073C197.716 216.522 198.137 217.106 198.396 217.825C198.665 218.535 198.744 219.335 198.633 220.224L191.048 219.28L191.174 218.266L198.218 219.143L197.41 219.508C197.455 218.921 197.379 218.399 197.182 217.942C196.985 217.485 196.688 217.114 196.291 216.829C195.893 216.544 195.412 216.367 194.847 216.297C194.236 216.221 193.688 216.279 193.203 216.473C192.719 216.657 192.32 216.956 192.005 217.368C191.7 217.781 191.51 218.289 191.435 218.891C191.356 219.521 191.432 220.085 191.661 220.584C191.891 221.083 192.249 221.49 192.737 221.804C193.224 222.119 193.82 222.32 194.524 222.408C195.163 222.487 195.802 222.458 196.439 222.321C197.086 222.186 197.678 221.963 198.215 221.654L198.091 222.654C197.561 222.983 196.948 223.222 196.252 223.37C195.558 223.51 194.877 223.538 194.21 223.455ZM200.594 216.063L201.866 216.141L201.38 224.008L200.108 223.93L200.594 216.063ZM207.357 216.481L208.643 216.56L208.157 224.427L206.871 224.348L207.357 216.481ZM201.099 219.474L207.75 219.885L207.685 220.933L201.034 220.522L201.099 219.474ZM210.739 224.461L210.466 216.584L211.739 216.539L211.992 223.829L211.5 223.776L217.28 216.347L218.945 216.289L219.218 224.166L217.945 224.211L217.69 216.851L218.196 216.918L212.376 224.404L210.739 224.461ZM226.778 215.579L227.334 216.387L223.955 218.713L223.928 218.698C223.466 219.015 223.007 219.212 222.55 219.289C222.101 219.36 221.679 219.316 221.286 219.156C220.887 218.989 220.553 218.709 220.283 218.317C220.019 217.933 219.882 217.528 219.873 217.104C219.859 216.672 219.965 216.258 220.192 215.864C220.422 215.457 220.767 215.094 221.228 214.777L225.357 211.935L229.826 218.427L228.765 219.157L224.526 213L225.263 213.206L221.954 215.484C221.523 215.781 221.256 216.117 221.153 216.494C221.05 216.871 221.12 217.237 221.364 217.59C221.602 217.936 221.918 218.132 222.312 218.178C222.706 218.224 223.119 218.099 223.549 217.802L226.778 215.579ZM225.044 217.232L224.568 222.047L223.288 222.928L223.798 218.09L225.044 217.232ZM237.924 205.102L241.495 212.129L240.347 212.712L236.979 206.085L237.77 206.343L231.866 209.343L232.136 208.546L235.504 215.173L234.356 215.757L230.785 208.73L237.924 205.102ZM246.99 209.93C246.139 210.291 245.32 210.451 244.532 210.411C243.753 210.366 243.061 210.133 242.455 209.711C241.85 209.289 241.389 208.704 241.071 207.956C240.75 207.2 240.65 206.462 240.77 205.742C240.89 205.022 241.204 204.366 241.714 203.774C242.232 203.179 242.916 202.701 243.766 202.34C244.625 201.975 245.444 201.815 246.224 201.859C247.003 201.903 247.693 202.132 248.295 202.546C248.905 202.956 249.371 203.539 249.692 204.295C250.009 205.042 250.106 205.782 249.981 206.515C249.864 207.243 249.552 207.904 249.042 208.495C248.533 209.087 247.849 209.565 246.99 209.93ZM246.568 208.937C247.204 208.667 247.706 208.322 248.075 207.902C248.441 207.473 248.659 206.995 248.729 206.468C248.808 205.938 248.725 205.385 248.481 204.809C248.24 204.242 247.901 203.803 247.465 203.492C247.037 203.176 246.542 203.001 245.979 202.967C245.417 202.932 244.818 203.049 244.182 203.319C243.555 203.586 243.054 203.935 242.68 204.368C242.315 204.797 242.097 205.274 242.027 205.801C241.957 206.328 242.042 206.875 242.283 207.442C242.527 208.017 242.863 208.463 243.291 208.778C243.719 209.093 244.214 209.268 244.777 209.303C245.344 209.326 245.941 209.204 246.568 208.937ZM252.439 207.477L249.808 200.047L251.603 199.411L257.593 205.087L256.959 205.312L258.03 197.136L259.825 196.5L262.455 203.93L261.307 204.337L258.798 197.25L259.207 197.105L258.047 205.491L256.847 205.916L250.673 200.141L251.082 199.997L253.587 207.07L252.439 207.477ZM268.291 202.309C267.406 202.577 266.575 202.648 265.796 202.523C265.026 202.395 264.363 202.089 263.806 201.604C263.25 201.119 262.854 200.488 262.619 199.711C262.381 198.925 262.361 198.18 262.557 197.477C262.754 196.774 263.137 196.156 263.707 195.622C264.286 195.086 265.018 194.684 265.902 194.417C266.796 194.147 267.627 194.075 268.397 194.203C269.167 194.331 269.829 194.633 270.383 195.109C270.945 195.582 271.346 196.212 271.584 196.998C271.819 197.775 271.835 198.521 271.632 199.236C271.438 199.948 271.056 200.571 270.486 201.104C269.916 201.637 269.184 202.039 268.291 202.309ZM267.979 201.278C268.64 201.078 269.176 200.788 269.588 200.41C269.998 200.023 270.266 199.571 270.392 199.055C270.528 198.536 270.505 197.978 270.324 197.379C270.146 196.79 269.856 196.316 269.456 195.96C269.064 195.6 268.591 195.373 268.035 195.278C267.48 195.183 266.872 195.235 266.211 195.435C265.558 195.633 265.023 195.926 264.605 196.316C264.195 196.703 263.927 197.155 263.801 197.671C263.674 198.187 263.7 198.74 263.879 199.33C264.06 199.928 264.346 200.407 264.738 200.766C265.129 201.126 265.603 201.353 266.158 201.448C266.72 201.532 267.326 201.475 267.979 201.278ZM272.725 200.774L274.717 195.21L275.769 195.939L274.217 200.394L272.725 200.774ZM285.667 197.477L282.186 194.304L282.748 193.164L287.16 197.097L285.667 197.477ZM280.269 197.61L279.868 197.568L283.505 189.895L284.956 189.525L280.43 198.811L279.467 199.057L271.037 193.07L272.488 192.701L279.366 197.695L279.034 197.924L277.386 191.453L278.621 191.139L280.269 197.61ZM291.787 196.299C290.902 196.49 290.081 196.491 289.324 196.301C288.574 196.101 287.938 195.742 287.416 195.224C286.9 194.696 286.557 194.035 286.386 193.241C286.212 192.438 286.243 191.696 286.477 191.016C286.712 190.335 287.117 189.755 287.692 189.278C288.267 188.8 288.974 188.471 289.813 188.289C290.643 188.11 291.408 188.136 292.107 188.367C292.806 188.597 293.397 189.009 293.878 189.602C294.367 190.184 294.706 190.913 294.895 191.789L287.423 193.404L287.207 192.405L294.145 190.905L293.504 191.517C293.352 190.948 293.108 190.48 292.771 190.114C292.434 189.747 292.031 189.495 291.562 189.358C291.093 189.221 290.58 189.212 290.024 189.332C289.422 189.463 288.924 189.699 288.53 190.042C288.134 190.376 287.856 190.789 287.695 191.282C287.544 191.773 287.532 192.315 287.66 192.908C287.794 193.529 288.052 194.036 288.433 194.432C288.815 194.827 289.287 195.092 289.851 195.228C290.416 195.364 291.044 195.357 291.738 195.207C292.367 195.071 292.96 194.833 293.517 194.493C294.083 194.151 294.568 193.745 294.973 193.276L295.186 194.261C294.794 194.747 294.294 195.175 293.687 195.545C293.077 195.906 292.444 196.157 291.787 196.299ZM297.062 195.003L295.632 187.252L297.504 186.906L302.528 193.454L301.867 193.576L304.209 185.669L306.082 185.324L307.512 193.075L306.314 193.296L304.95 185.903L305.377 185.824L302.914 193.923L301.661 194.155L296.472 187.481L296.898 187.403L298.26 194.782L297.062 195.003ZM312.064 184.34L313.338 184.151L313.776 187.1L313.744 187.36L313.931 188.62L314.06 189.011L314.837 194.232L313.563 194.421L312.064 184.34ZM313.321 188.13C313.403 187.288 313.607 186.531 313.931 185.86C314.265 185.187 314.703 184.636 315.243 184.207C315.792 183.776 316.426 183.507 317.147 183.4C317.913 183.286 318.617 183.356 319.258 183.61C319.9 183.863 320.432 184.27 320.855 184.83C321.287 185.389 321.564 186.074 321.685 186.886C321.804 187.69 321.739 188.426 321.49 189.095C321.248 189.754 320.858 190.303 320.319 190.741C319.779 191.171 319.126 191.442 318.36 191.556C317.64 191.664 316.954 191.591 316.303 191.339C315.662 191.085 315.083 190.685 314.568 190.139C314.06 189.582 313.645 188.913 313.321 188.13ZM320.383 187.08C320.295 186.489 320.093 185.986 319.777 185.571C319.469 185.154 319.08 184.854 318.609 184.669C318.146 184.473 317.642 184.416 317.097 184.497C316.544 184.58 316.05 184.785 315.618 185.114C315.194 185.432 314.835 185.843 314.542 186.349C314.249 186.855 314.027 187.422 313.875 188.048C314.203 188.603 314.58 189.08 315.008 189.479C315.435 189.878 315.899 190.172 316.399 190.362C316.907 190.541 317.437 190.59 317.991 190.507C318.536 190.426 319.002 190.229 319.39 189.917C319.785 189.594 320.069 189.188 320.242 188.7C320.424 188.211 320.471 187.671 320.383 187.08ZM331.196 189.658L330.546 186.734L330.773 185.732L330.307 184.831L330.213 181.837L331.519 181.673L331.648 185.622L332.501 189.493L331.196 189.658ZM331.203 185.677C331.102 186.518 330.877 187.275 330.529 187.949C330.189 188.613 329.74 189.154 329.181 189.572C328.632 189.989 327.996 190.243 327.273 190.334C326.505 190.43 325.802 190.345 325.167 190.076C324.53 189.799 324.002 189.376 323.582 188.808C323.171 188.23 322.915 187.537 322.813 186.732C322.711 185.917 322.788 185.183 323.045 184.53C323.31 183.875 323.718 183.34 324.268 182.923C324.817 182.506 325.477 182.249 326.245 182.152C326.968 182.061 327.647 182.15 328.282 182.418C328.927 182.685 329.501 183.098 330.004 183.655C330.507 184.213 330.907 184.887 331.203 185.677ZM324.119 186.568C324.194 187.16 324.38 187.668 324.677 188.092C324.985 188.514 325.367 188.828 325.826 189.034C326.293 189.229 326.799 189.293 327.345 189.224C327.901 189.154 328.395 188.965 328.826 188.657C329.266 188.338 329.638 187.93 329.942 187.43C330.256 186.93 330.491 186.369 330.648 185.747C330.342 185.184 329.975 184.698 329.548 184.291C329.129 183.883 328.669 183.583 328.165 183.392C327.669 183.191 327.144 183.126 326.588 183.196C326.042 183.264 325.567 183.456 325.164 183.77C324.77 184.073 324.476 184.467 324.283 184.953C324.099 185.437 324.045 185.975 324.119 186.568ZM337.773 189.1C336.994 189.183 336.291 189.149 335.665 189C335.047 188.841 334.545 188.575 334.158 188.203C333.771 187.831 333.53 187.369 333.433 186.816L334.686 186.683C334.818 187.213 335.14 187.596 335.653 187.833C336.175 188.059 336.844 188.128 337.661 188.041C338.459 187.957 339.069 187.779 339.491 187.509C339.921 187.228 340.11 186.847 340.059 186.364C340.016 185.965 339.799 185.693 339.408 185.546C339.026 185.39 338.435 185.354 337.637 185.439L336.008 185.613L335.906 184.652L337.493 184.483C338.208 184.407 338.724 184.23 339.042 183.952C339.369 183.673 339.514 183.362 339.477 183.019C339.432 182.592 339.184 182.29 338.733 182.113C338.291 181.925 337.731 181.867 337.053 181.939C336.311 182.019 335.717 182.213 335.271 182.523C334.824 182.824 334.587 183.235 334.557 183.754L333.304 183.887C333.308 183.389 333.451 182.928 333.734 182.504C334.018 182.08 334.435 181.725 334.987 181.441C335.539 181.157 336.209 180.973 336.998 180.889C337.722 180.812 338.359 180.843 338.908 180.982C339.457 181.111 339.893 181.327 340.216 181.631C340.54 181.934 340.724 182.3 340.77 182.727C340.808 183.088 340.732 183.43 340.541 183.751C340.359 184.07 340.054 184.342 339.628 184.566C339.21 184.788 338.663 184.936 337.985 185.008L337.96 184.771C338.969 184.636 339.774 184.7 340.374 184.965C340.984 185.229 341.322 185.667 341.387 186.279C341.437 186.752 341.329 187.186 341.061 187.581C340.803 187.975 340.396 188.304 339.843 188.569C339.289 188.835 338.599 189.012 337.773 189.1ZM347.351 188.178C346.43 188.259 345.602 188.158 344.865 187.876C344.137 187.593 343.551 187.157 343.106 186.568C342.661 185.979 342.403 185.28 342.332 184.471C342.261 183.653 342.393 182.92 342.73 182.272C343.067 181.625 343.569 181.098 344.236 180.693C344.913 180.287 345.711 180.044 346.632 179.963C347.562 179.882 348.39 179.983 349.118 180.266C349.845 180.549 350.431 180.98 350.875 181.56C351.329 182.138 351.591 182.837 351.663 183.655C351.734 184.464 351.596 185.197 351.251 185.855C350.915 186.512 350.413 187.043 349.746 187.448C349.079 187.853 348.28 188.097 347.351 188.178ZM347.257 187.104C347.945 187.044 348.529 186.871 349.01 186.585C349.49 186.29 349.845 185.903 350.075 185.424C350.314 184.944 350.406 184.393 350.352 183.77C350.298 183.156 350.112 182.634 349.793 182.202C349.484 181.77 349.067 181.451 348.543 181.244C348.019 181.037 347.413 180.963 346.725 181.023C346.046 181.083 345.462 181.26 344.972 181.556C344.492 181.851 344.137 182.238 343.908 182.717C343.678 183.197 343.59 183.743 343.643 184.357C343.698 184.98 343.88 185.507 344.189 185.939C344.499 186.371 344.916 186.691 345.44 186.898C345.972 187.095 346.578 187.164 347.257 187.104ZM358.049 187.349C357.034 187.418 356.149 187.273 355.395 186.913C354.64 186.543 354.04 185.98 353.596 185.225C353.161 184.468 352.906 183.546 352.832 182.456C352.721 180.817 353.048 179.499 353.812 178.503C354.586 177.496 355.737 176.88 357.265 176.654C357.876 176.556 358.38 176.475 358.778 176.411C359.185 176.346 359.518 176.286 359.776 176.231C360.033 176.166 360.249 176.105 360.423 176.046C360.606 175.987 360.784 175.919 360.956 175.842L361.036 177.015C360.873 177.101 360.65 177.181 360.365 177.257C360.08 177.332 359.711 177.409 359.258 177.487C358.813 177.554 358.267 177.629 357.617 177.71C356.337 177.872 355.387 178.349 354.768 179.139C354.148 179.93 353.884 181.005 353.977 182.364L354.012 182.881L353.896 182.833C354.08 182.231 354.353 181.712 354.717 181.276C355.089 180.839 355.538 180.495 356.064 180.244C356.598 179.992 357.192 179.844 357.844 179.8C358.654 179.745 359.372 179.855 359.999 180.13C360.625 180.396 361.125 180.798 361.498 181.333C361.881 181.869 362.097 182.504 362.147 183.24C362.2 184.013 362.064 184.695 361.739 185.288C361.415 185.881 360.937 186.358 360.307 186.719C359.677 187.08 358.924 187.29 358.049 187.349ZM358.003 186.272C358.618 186.23 359.141 186.082 359.573 185.828C360.014 185.574 360.342 185.234 360.556 184.807C360.779 184.381 360.873 183.897 360.836 183.357C360.799 182.808 360.641 182.341 360.362 181.958C360.092 181.565 359.721 181.272 359.25 181.079C358.788 180.886 358.249 180.811 357.635 180.853C356.815 180.908 356.113 181.181 355.529 181.669C354.954 182.157 354.546 182.826 354.304 183.675C354.542 184.548 354.985 185.214 355.633 185.675C356.291 186.136 357.081 186.335 358.003 186.272ZM363.558 178.913L364.845 178.85L364.989 181.829L364.931 182.084L364.993 183.357L365.083 183.759L365.339 189.031L364.052 189.093L363.558 178.913ZM364.434 182.809C364.599 181.979 364.877 181.246 365.266 180.61C365.665 179.974 366.155 179.469 366.735 179.095C367.324 178.721 367.982 178.516 368.709 178.481C369.483 178.443 370.176 178.582 370.79 178.898C371.403 179.214 371.893 179.672 372.258 180.271C372.633 180.869 372.84 181.579 372.88 182.399C372.919 183.21 372.782 183.936 372.467 184.578C372.161 185.209 371.719 185.717 371.139 186.1C370.559 186.474 369.883 186.68 369.109 186.717C368.382 186.752 367.707 186.612 367.084 186.297C366.471 185.981 365.935 185.525 365.476 184.931C365.026 184.327 364.679 183.619 364.434 182.809ZM371.566 182.463C371.537 181.866 371.385 181.346 371.111 180.901C370.847 180.456 370.489 180.118 370.039 179.888C369.597 179.648 369.102 179.541 368.552 179.568C367.992 179.595 367.481 179.75 367.018 180.035C366.565 180.309 366.167 180.683 365.826 181.158C365.484 181.632 365.207 182.174 364.993 182.782C365.265 183.367 365.593 183.879 365.979 184.318C366.365 184.757 366.797 185.096 367.276 185.334C367.763 185.563 368.287 185.664 368.846 185.637C369.396 185.61 369.879 185.46 370.296 185.188C370.722 184.905 371.044 184.53 371.265 184.061C371.494 183.592 371.594 183.06 371.566 182.463ZM382.08 186.082L381.717 183.109L382.04 182.134L381.664 181.192L381.862 178.203L383.177 178.167L382.922 182.109L383.395 186.046L382.08 186.082ZM382.474 182.122C382.292 182.949 381.994 183.68 381.583 184.317C381.18 184.945 380.68 185.439 380.083 185.801C379.495 186.163 378.838 186.354 378.11 186.374C377.336 186.396 376.645 186.242 376.039 185.913C375.432 185.575 374.947 185.103 374.585 184.497C374.232 183.881 374.044 183.167 374.021 182.356C373.999 181.535 374.147 180.812 374.466 180.187C374.794 179.561 375.252 179.068 375.839 178.706C376.427 178.344 377.108 178.153 377.882 178.131C378.61 178.111 379.277 178.265 379.884 178.594C380.5 178.923 381.031 179.389 381.477 179.993C381.923 180.597 382.256 181.306 382.474 182.122ZM375.337 182.319C375.353 182.916 375.489 183.44 375.744 183.891C376.009 184.341 376.36 184.691 376.796 184.94C377.241 185.18 377.739 185.292 378.29 185.277C378.85 185.261 379.359 185.121 379.819 184.856C380.287 184.582 380.697 184.211 381.048 183.744C381.409 183.276 381.698 182.741 381.914 182.137C381.665 181.547 381.347 181.028 380.961 180.581C380.584 180.134 380.155 179.791 379.672 179.552C379.198 179.304 378.682 179.188 378.122 179.203C377.571 179.218 377.08 179.363 376.649 179.636C376.227 179.9 375.896 180.264 375.657 180.728C375.427 181.192 375.32 181.722 375.337 182.319ZM387.705 178.546L388.993 178.535L389.056 185.983L387.768 185.993L387.705 178.546ZM384.286 178.14L392.406 178.072L392.414 179.122L384.295 179.19L384.286 178.14ZM393.622 185.959L393.667 178.077L394.955 178.084L394.912 185.56L394.398 184.941L398.08 184.962C398.64 184.965 399.084 184.828 399.412 184.55C399.74 184.262 399.906 183.876 399.909 183.391C399.912 182.896 399.75 182.508 399.425 182.226C399.1 181.935 398.658 181.787 398.098 181.784L394.514 181.764L394.52 180.77L398.216 180.791C398.822 180.794 399.349 180.905 399.796 181.122C400.252 181.339 400.605 181.645 400.854 182.038C401.104 182.431 401.228 182.885 401.225 183.398C401.222 183.921 401.093 184.377 400.839 184.768C400.585 185.158 400.228 185.46 399.77 185.672C399.32 185.884 398.792 185.988 398.186 185.985L393.622 185.959ZM410.952 183.223C410.835 183.846 410.566 184.39 410.144 184.857C409.732 185.324 409.21 185.685 408.579 185.941C407.948 186.198 407.254 186.317 406.498 186.3C405.621 186.28 404.851 186.09 404.187 185.729C403.523 185.359 403.007 184.862 402.638 184.237C402.279 183.603 402.109 182.881 402.128 182.069C402.146 181.257 402.349 180.548 402.737 179.94C403.134 179.324 403.672 178.851 404.352 178.521C405.031 178.191 405.81 178.036 406.687 178.056C407.443 178.073 408.13 178.224 408.749 178.509C409.368 178.785 409.873 179.165 410.263 179.65C410.663 180.136 410.907 180.697 410.995 181.333L409.665 181.303C409.54 180.647 409.202 180.125 408.651 179.739C408.109 179.344 407.446 179.138 406.662 179.12C406.028 179.105 405.47 179.219 404.988 179.46C404.516 179.701 404.144 180.047 403.872 180.498C403.601 180.94 403.458 181.474 403.443 182.099C403.429 182.724 403.547 183.268 403.798 183.732C404.049 184.195 404.405 184.558 404.866 184.82C405.336 185.074 405.888 185.208 406.523 185.222C407.316 185.24 407.992 185.064 408.551 184.694C409.12 184.325 409.477 183.824 409.622 183.193L410.952 183.223ZM418.97 182.466L418.93 183.445L414.832 183.276L414.819 183.248C414.259 183.225 413.774 183.107 413.362 182.893C412.96 182.681 412.649 182.392 412.431 182.028C412.213 181.655 412.113 181.231 412.133 180.755C412.152 180.289 412.285 179.883 412.533 179.539C412.781 179.184 413.115 178.918 413.533 178.739C413.961 178.551 414.455 178.469 415.014 178.492L420.022 178.698L419.698 186.573L418.411 186.52L418.718 179.05L419.184 179.658L415.169 179.493C414.647 179.471 414.232 179.58 413.923 179.82C413.614 180.059 413.451 180.394 413.433 180.823C413.416 181.242 413.551 181.589 413.839 181.862C414.126 182.136 414.531 182.283 415.054 182.304L418.97 182.466ZM416.591 182.746L413.32 186.311L411.767 186.247L415.08 182.684L416.591 182.746ZM425.332 186.903L425.972 182.991L425.886 179.041L431.22 179.416C431.984 179.47 432.563 179.689 432.957 180.072C433.361 180.447 433.54 180.95 433.496 181.584C433.455 182.161 433.209 182.607 432.756 182.921C432.314 183.227 431.718 183.381 430.969 183.385L431.113 183.128C432.007 183.2 432.678 183.43 433.128 183.817C433.579 184.195 433.781 184.705 433.736 185.348C433.689 186.018 433.41 186.527 432.899 186.875C432.398 187.214 431.719 187.353 430.862 187.293L425.332 186.903ZM426.615 186.615L426.169 185.98L430.722 186.3C431.271 186.339 431.684 186.26 431.959 186.065C432.244 185.87 432.401 185.572 432.429 185.172C432.458 184.762 432.318 184.429 432.008 184.173C431.708 183.918 431.218 183.767 430.539 183.719L426.656 183.446L426.721 182.524L430.52 182.792C431.032 182.828 431.426 182.738 431.703 182.524C431.99 182.31 432.146 182.013 432.173 181.631C432.199 181.268 432.098 180.975 431.87 180.753C431.652 180.523 431.297 180.39 430.803 180.355L426.6 180.059L427.116 179.506L427.215 183.078L426.615 186.615ZM438.714 187.928L439.479 184.037L439.518 180.087L444.838 180.633C445.6 180.711 446.171 180.948 446.553 181.343C446.945 181.731 447.108 182.24 447.043 182.871C446.984 183.447 446.724 183.885 446.261 184.184C445.809 184.476 445.209 184.611 444.46 184.591L444.613 184.339C445.503 184.44 446.167 184.691 446.604 185.092C447.043 185.484 447.229 186.001 447.163 186.641C447.095 187.31 446.799 187.81 446.277 188.141C445.766 188.464 445.083 188.581 444.229 188.494L438.714 187.928ZM440.006 187.68L439.58 187.031L444.12 187.497C444.668 187.553 445.082 187.488 445.364 187.301C445.656 187.115 445.822 186.823 445.863 186.423C445.904 186.015 445.775 185.678 445.474 185.413C445.182 185.148 444.697 184.981 444.019 184.911L440.148 184.514L440.242 183.595L444.03 183.984C444.541 184.036 444.938 183.96 445.222 183.754C445.515 183.55 445.681 183.257 445.72 182.876C445.757 182.514 445.665 182.219 445.445 181.99C445.235 181.752 444.884 181.608 444.392 181.558L440.2 181.128L440.733 180.591L440.718 184.165L440.006 187.68ZM455.859 189.882L455.954 186.888L456.422 185.974L456.193 184.985L456.843 182.062L458.149 182.226L457.297 186.084L457.165 190.046L455.859 189.882ZM456.852 186.028C456.546 186.817 456.141 187.495 455.637 188.062C455.143 188.621 454.574 189.034 453.929 189.3C453.293 189.569 452.614 189.657 451.892 189.566C451.123 189.47 450.464 189.213 449.915 188.796C449.366 188.369 448.959 187.829 448.693 187.174C448.438 186.512 448.361 185.778 448.462 184.972C448.565 184.157 448.821 183.465 449.231 182.896C449.651 182.328 450.179 181.91 450.814 181.642C451.45 181.374 452.152 181.288 452.921 181.385C453.643 181.476 454.279 181.73 454.829 182.147C455.388 182.565 455.842 183.107 456.191 183.772C456.54 184.436 456.76 185.188 456.852 186.028ZM449.768 185.137C449.693 185.729 449.748 186.268 449.932 186.752C450.125 187.237 450.418 187.636 450.811 187.949C451.215 188.254 451.69 188.44 452.236 188.509C452.792 188.579 453.317 188.518 453.812 188.326C454.316 188.126 454.778 187.822 455.196 187.414C455.624 187.007 455.991 186.521 456.297 185.958C456.14 185.336 455.904 184.775 455.591 184.275C455.287 183.775 454.915 183.371 454.474 183.062C454.043 182.744 453.55 182.55 452.995 182.481C452.448 182.412 451.941 182.48 451.473 182.684C451.016 182.881 450.634 183.19 450.327 183.612C450.029 184.036 449.843 184.544 449.768 185.137ZM458.859 190.298L460.159 182.524L461.429 182.736L460.235 189.875L459.847 189.399L465.19 190.292L464.875 190.651L466.069 183.512L467.339 183.725L466.145 190.864L465.895 190.41L471.294 191.313L470.785 191.64L471.979 184.501L473.249 184.713L471.949 192.487L458.859 190.298ZM477.801 193.872C476.915 193.684 476.166 193.349 475.553 192.866C474.95 192.376 474.517 191.789 474.251 191.103C473.997 190.41 473.954 189.666 474.123 188.872C474.293 188.068 474.624 187.404 475.117 186.878C475.61 186.353 476.216 185.99 476.936 185.789C477.655 185.589 478.435 185.577 479.275 185.755C480.106 185.931 480.794 186.267 481.337 186.764C481.881 187.26 482.251 187.878 482.448 188.616C482.656 189.347 482.667 190.15 482.481 191.027L475.003 189.444L475.215 188.445L482.159 189.914L481.324 190.21C481.418 189.628 481.386 189.102 481.229 188.63C481.071 188.157 480.806 187.763 480.435 187.446C480.063 187.128 479.598 186.911 479.041 186.793C478.439 186.666 477.888 186.678 477.388 186.83C476.89 186.972 476.467 187.236 476.119 187.62C475.78 188.006 475.547 188.496 475.422 189.089C475.29 189.71 475.318 190.279 475.504 190.795C475.691 191.312 476.013 191.748 476.473 192.102C476.932 192.457 477.508 192.708 478.202 192.855C478.832 192.988 479.471 193.013 480.118 192.931C480.774 192.85 481.383 192.679 481.944 192.416L481.736 193.402C481.18 193.685 480.549 193.871 479.843 193.96C479.139 194.04 478.459 194.011 477.801 193.872ZM483.059 194.842L485.047 187.215L486.889 187.695L488.666 195.754L488.016 195.584L493.487 189.415L495.329 189.895L493.341 197.522L492.162 197.215L494.059 189.94L494.479 190.049L488.816 196.343L487.583 196.022L485.71 187.778L486.13 187.888L484.237 195.149L483.059 194.842ZM498.472 199.081L500.126 195.478L501.088 191.646L506.133 193.421C506.855 193.675 507.355 194.039 507.634 194.513C507.924 194.982 507.964 195.515 507.753 196.114C507.561 196.66 507.205 197.024 506.686 197.207C506.178 197.385 505.562 197.376 504.84 197.181L505.047 196.972C505.889 197.278 506.475 197.678 506.807 198.17C507.141 198.654 507.201 199.2 506.988 199.807C506.765 200.441 506.361 200.858 505.776 201.058C505.203 201.252 504.511 201.206 503.701 200.921L498.472 199.081ZM499.786 199.143L499.523 198.412L503.829 199.927C504.348 200.11 504.767 200.144 505.084 200.028C505.411 199.915 505.641 199.67 505.774 199.291C505.91 198.904 505.863 198.546 505.633 198.217C505.411 197.892 504.978 197.616 504.336 197.39L500.664 196.098L500.971 195.226L504.563 196.49C505.047 196.661 505.452 196.679 505.776 196.546C506.108 196.416 506.338 196.17 506.465 195.809C506.586 195.466 506.566 195.157 506.405 194.883C506.257 194.603 505.949 194.381 505.482 194.216L501.507 192.817L502.151 192.421L501.301 195.891L499.786 199.143ZM511.188 204.141C510.342 203.771 509.662 203.286 509.15 202.686C508.647 202.09 508.341 201.426 508.232 200.696C508.123 199.966 508.231 199.229 508.555 198.485C508.884 197.732 509.351 197.152 509.957 196.745C510.563 196.337 511.255 196.115 512.035 196.078C512.823 196.046 513.641 196.214 514.488 196.584C515.343 196.957 516.022 197.442 516.526 198.039C517.029 198.635 517.337 199.294 517.45 200.016C517.571 200.741 517.468 201.48 517.139 202.233C516.814 202.977 516.343 203.555 515.725 203.968C515.115 204.384 514.421 204.61 513.641 204.647C512.861 204.683 512.044 204.515 511.188 204.141ZM511.62 203.153C512.253 203.429 512.849 203.557 513.408 203.537C513.97 203.507 514.467 203.337 514.898 203.026C515.338 202.719 515.683 202.279 515.933 201.706C516.179 201.142 516.266 200.594 516.192 200.063C516.127 199.535 515.914 199.055 515.553 198.622C515.192 198.19 514.695 197.835 514.062 197.559C513.438 197.286 512.84 197.163 512.268 197.188C511.706 197.218 511.209 197.388 510.778 197.699C510.347 198.009 510.008 198.447 509.762 199.012C509.511 199.585 509.419 200.135 509.484 200.663C509.549 201.19 509.762 201.67 510.123 202.103C510.496 202.53 510.995 202.881 511.62 203.153ZM527.341 203.466L523.434 210.312L522.316 209.673L526.001 203.217L526.22 204.019L520.469 200.737L521.283 200.524L517.598 206.981L516.479 206.342L520.387 199.497L527.341 203.466ZM529.394 204.866L530.398 205.672L528.532 207.997L528.319 208.15L527.522 209.143L527.322 209.504L524.018 213.62L523.014 212.814L529.394 204.866ZM527.466 208.363C528.141 207.851 528.834 207.486 529.547 207.269C530.268 207.057 530.969 207.004 531.651 207.108C532.34 207.219 532.969 207.502 533.537 207.957C534.141 208.442 534.568 209.006 534.817 209.65C535.067 210.293 535.13 210.96 535.006 211.651C534.89 212.347 534.575 213.016 534.061 213.656C533.552 214.289 532.968 214.742 532.307 215.013C531.66 215.283 530.992 215.37 530.304 215.272C529.622 215.168 528.979 214.873 528.375 214.388C527.807 213.932 527.395 213.38 527.138 212.731C526.888 212.088 526.789 211.391 526.84 210.642C526.903 209.892 527.112 209.132 527.466 208.363ZM533.034 212.832C533.408 212.367 533.64 211.876 533.73 211.362C533.827 210.853 533.783 210.364 533.599 209.892C533.428 209.42 533.127 209.011 532.698 208.667C532.261 208.316 531.776 208.094 531.241 208C530.719 207.904 530.173 207.921 529.603 208.049C529.033 208.178 528.466 208.399 527.903 208.713C527.718 209.331 527.625 209.932 527.622 210.517C527.62 211.101 527.719 211.641 527.919 212.137C528.133 212.632 528.458 213.054 528.895 213.405C529.324 213.75 529.785 213.958 530.278 214.03C530.783 214.101 531.274 214.034 531.749 213.829C532.232 213.631 532.661 213.298 533.034 212.832ZM534.148 220.456C533.591 219.719 533.236 218.964 533.084 218.19C532.937 217.423 532.994 216.695 533.257 216.005C533.519 215.315 533.974 214.725 534.622 214.236C535.277 213.74 535.968 213.463 536.696 213.404C537.424 213.345 538.136 213.491 538.834 213.841C539.537 214.198 540.168 214.745 540.725 215.482C541.288 216.227 541.643 216.982 541.79 217.749C541.937 218.515 541.883 219.241 541.628 219.925C541.379 220.617 540.926 221.21 540.271 221.706C539.624 222.196 538.93 222.469 538.189 222.526C537.453 222.591 536.737 222.448 536.039 222.098C535.342 221.748 534.711 221.201 534.148 220.456ZM535.008 219.806C535.425 220.357 535.882 220.76 536.379 221.016C536.884 221.266 537.401 221.361 537.929 221.301C538.463 221.248 538.979 221.033 539.478 220.656C539.969 220.285 540.312 219.849 540.508 219.35C540.71 218.858 540.759 218.335 540.656 217.781C540.553 217.227 540.293 216.675 539.877 216.124C539.466 215.581 539.005 215.18 538.494 214.923C537.989 214.673 537.473 214.578 536.945 214.638C536.416 214.698 535.907 214.914 535.416 215.285C534.917 215.662 534.567 216.097 534.365 216.589C534.164 217.08 534.114 217.603 534.217 218.157C534.334 218.713 534.597 219.263 535.008 219.806ZM542.243 231C541.615 231.086 541.013 231.003 540.437 230.751C539.864 230.508 539.356 230.127 538.914 229.609C538.471 229.092 538.138 228.471 537.915 227.749C537.657 226.91 537.594 226.119 537.726 225.375C537.867 224.629 538.175 223.982 538.651 223.435C539.139 222.894 539.77 222.504 540.546 222.264C541.322 222.025 542.06 221.993 542.758 222.169C543.469 222.35 544.088 222.711 544.616 223.252C545.144 223.792 545.537 224.481 545.795 225.32C546.018 226.042 546.092 226.742 546.018 227.419C545.952 228.094 545.751 228.693 545.414 229.217C545.08 229.75 544.625 230.158 544.049 230.444L543.657 229.173C544.24 228.846 544.628 228.361 544.82 227.716C545.023 227.077 545.009 226.382 544.778 225.633C544.592 225.027 544.308 224.533 543.926 224.153C543.548 223.781 543.102 223.537 542.588 223.422C542.083 223.305 541.532 223.338 540.934 223.522C540.336 223.706 539.858 223.991 539.498 224.375C539.137 224.76 538.906 225.212 538.802 225.732C538.711 226.258 538.758 226.825 538.945 227.431C539.179 228.189 539.56 228.775 540.088 229.189C540.618 229.611 541.206 229.791 541.851 229.729L542.243 231ZM539.272 236.128C539.24 235.224 539.385 234.416 539.706 233.704C540.036 233.001 540.503 232.439 541.104 232.016C541.716 231.603 542.427 231.382 543.239 231.354C544.059 231.326 544.784 231.487 545.413 231.839C546.041 232.191 546.54 232.692 546.908 233.342C547.276 233.992 547.475 234.746 547.505 235.605C547.534 236.453 547.373 237.201 547.022 237.849C546.671 238.496 546.161 239.004 545.492 239.373C544.833 239.75 544.055 239.955 543.16 239.986L542.895 232.347L543.916 232.311L544.162 239.405L543.674 238.665C544.261 238.617 544.765 238.459 545.185 238.193C545.605 237.926 545.925 237.574 546.143 237.137C546.361 236.7 546.461 236.197 546.441 235.628C546.419 235.012 546.275 234.48 546.007 234.032C545.749 233.583 545.391 233.236 544.934 232.99C544.478 232.754 543.947 232.646 543.34 232.667C542.706 232.689 542.161 232.853 541.704 233.158C541.248 233.464 540.903 233.882 540.669 234.413C540.435 234.944 540.331 235.564 540.355 236.273C540.378 236.917 540.507 237.542 540.743 238.151C540.979 238.768 541.292 239.318 541.683 239.799L540.675 239.834C540.267 239.363 539.934 238.795 539.678 238.132C539.43 237.468 539.295 236.8 539.272 236.128ZM539.528 242.211C539.526 242.043 539.562 241.889 539.635 241.748C539.717 241.607 539.828 241.494 539.967 241.409C540.107 241.333 540.26 241.294 540.428 241.292C540.605 241.29 540.76 241.326 540.891 241.399C541.032 241.482 541.141 241.588 541.217 241.718C541.302 241.857 541.346 242.015 541.348 242.193C541.349 242.361 541.309 242.51 541.226 242.642C541.153 242.783 541.047 242.896 540.908 242.981C540.768 243.067 540.615 243.11 540.447 243.112C540.279 243.114 540.125 243.073 539.984 242.991C539.852 242.908 539.744 242.797 539.658 242.658C539.573 242.528 539.529 242.379 539.528 242.211Z" fill="black"/>
</svg>
