<svg width="93" height="78" viewBox="0 0 93 78" fill="none" xmlns="http://www.w3.org/2000/svg">
<path d="M28.9859 10.5718C31.4367 9.77789 34.4845 11.5535 35.1013 9.3603C38.4583 -2.5779 53.4599 -3.27602 57.7726 8.30001C58.2666 9.62538 57.9655 11.8065 58.9182 12.7457L59.2248 12.7182C60.9261 11.8121 63.5006 12.0544 65.259 12.6348C72.5573 15.0424 69.7934 27.5606 72.0947 31.5908C74.4433 28.3275 85.675 26.8513 84.752 35.0149C83.8591 42.9143 80.3066 47.0579 73.9661 51.1809C72.4225 57.5066 70.4759 60.8267 65.4154 64.9815C63.1201 66.8658 62.7528 68.3502 63.7751 71.226C66.929 80.0968 51.4154 78.6537 48.1688 75.8487C46.6423 72.905 49.52 70.4931 43.6542 70.7633C41.6591 73.4008 46.147 76.6714 37.3816 77.6338C34.3664 77.9646 30.6988 78.1953 27.8258 76.3325C27.0578 75.8345 26.6158 74.956 26.4698 74.1131C26.173 72.3993 27.3984 70.9146 27.7154 69.7275C27.715 69.7292 27.0557 66.0839 26.9844 65.684C21.792 61.0965 18.9795 57.9298 18.0342 50.827C13.1824 47.2886 8.86152 43.2098 6.14614 37.6931C4.23009 33.8008 4.82239 26.2232 10.5388 26.2271C12.4681 26.1424 16.5713 27.2113 17.4634 26.2374C17.7288 24.7445 18.0879 21.9275 18.7828 20.7232C19.2317 19.8241 20.5395 18.5309 21.2693 17.7396C24.0358 14.3198 23.2674 12.2671 28.9859 10.5718Z" fill="#C0891E"/>
<path d="M28.9857 10.5718C31.4365 9.77789 34.4843 11.5535 35.1011 9.3603C38.4582 -2.5779 53.4597 -3.27602 57.7725 8.30001C58.2664 9.62538 57.9653 11.8065 58.918 12.7457L59.2246 12.7182C68.7177 12.5983 74.1274 20.9458 66.9335 28.2274C63.0971 23.8852 59.768 22.458 54.4699 20.2038C55.018 18.9519 55.7001 18.0089 55.5356 16.8455C54.4467 17.9166 54.3583 18.231 53.6324 19.6153C49.5031 19.0559 41.0971 19.6904 39.3902 18.2358C39.1973 17.4539 39.0771 16.989 38.8091 16.2157L38.3877 16.3141C38.5191 18.1455 38.8666 18.5782 38.1012 19.9761C34.6742 21.8024 30.7703 23.908 27.3029 25.8009C26.769 26.0922 25.3765 25.7781 24.6992 25.6432L24.4084 25.9594L25.5857 27.2216C25.0127 28.8877 22.6233 31.8933 21.1724 33.009L20.1622 33.2599C17.3115 30.8115 19.0816 23.6683 18.7826 20.7232C19.2315 19.8241 20.5393 18.5309 21.2691 17.7396C24.0356 14.3198 23.2672 12.2671 28.9857 10.5718Z" fill="#FFCF4D"/>
<path d="M21.269 17.7399C24.0355 14.3201 23.2671 12.2674 28.9857 10.5721C26.5782 12.1561 23.1756 14.7759 22.3317 17.614C22.543 20.6802 24.2125 21.6142 23.0661 25.1091C22.0495 23.0603 21.4593 20.0173 21.269 17.7399Z" fill="#C0891E"/>
<path d="M45.4787 19.9414C51.6181 19.4757 59.1195 22.5629 63.8622 26.3423C76.465 36.385 77.4223 57.7391 62.1777 65.8357C56.8762 68.6514 52.8005 69.1051 46.9772 69.5175C7.29115 70.6401 11.3857 22.6523 45.4787 19.9414Z" fill="#FFCF4D"/>
<path d="M40.0645 52.2503C38.6866 50.8064 36.2968 46.6747 37.0356 44.674C39.4499 43.4573 44.2342 45.4563 47.1476 45.3494C50.0575 45.2424 55.703 42.0198 57.1045 45.2712C56.8541 48.1526 55.1786 50.6452 53.0113 52.4771C52.7708 52.6825 52.5255 52.8831 52.276 53.0782C48.0637 56.2436 43.9864 54.9629 40.0645 52.2503Z" fill="#2A2A2B"/>
<path d="M41.4445 52.2274C45.7911 50.4737 47.3279 50.2593 51.5363 52.4615L52.2759 53.0784C48.0637 56.2439 43.9863 54.9632 40.0645 52.2506L41.4445 52.2274Z" fill="#D1432B"/>
<path d="M40.0645 52.2503L41.4445 52.2271C44.1715 53.5632 45.9672 54.4632 49.0799 53.4081C49.9114 53.1271 50.731 52.8113 51.5363 52.4612L52.2759 53.0781C48.0637 56.2435 43.9863 54.9629 40.0645 52.2503Z" fill="#4D261E"/>
<path d="M39.0387 33.1995C44.344 33.2588 43.7917 37.2246 41.9701 40.8196L40.6322 41.211C36.9753 40.1559 37.98 35.9641 39.0387 33.1995Z" fill="#151516"/>
<path d="M51.5613 33.3C52.3761 33.3817 52.9387 33.5076 53.7342 33.6639C56.3817 35.855 55.2787 39.2644 53.2914 41.5178C49.4726 40.5082 49.2815 36.0784 51.5613 33.3Z" fill="#2A2A2B"/>
<path d="M11.0586 25.9295C12.2523 26.073 12.3326 26.1933 13.3694 26.8764C13.8234 28.069 13.8973 28.6799 14.8847 29.3759C15.7154 28.4724 15.7945 28.3431 16.8364 27.733L17.4708 27.9749C19.7099 31.435 16.6311 31.9652 17.2526 34.4136C18.2452 34.6628 18.841 34.8402 19.8022 35.1843C20.2176 36.8517 18.4673 41.0447 18.2027 42.9453C17.9553 44.721 17.9003 46.6194 17.8303 48.4096C17.8445 48.6262 17.7174 48.9797 17.6534 49.2178C15.6622 48.279 12.6792 45.8745 11.4302 44.0185C6.95466 37.3689 2.29187 31.9158 11.0586 25.9295Z" fill="#FFCF4D"/>
<path d="M77.2224 29.3872C89.0941 29.0323 82.611 43.4266 77.1094 48.1125C76.2216 48.7685 75.7629 49.2712 74.6728 49.3141C74.4396 44.4702 72.1507 34.9554 73.5153 31.1542C74.4679 31.1177 74.5611 31.3119 75.4953 31.7496L75.3403 31.8566L75.829 31.7969C76.2985 30.9965 76.7628 30.1931 77.2224 29.3872Z" fill="#FFCF4D"/>
<path d="M27.6025 66.2812C33.3743 67.9692 34.6324 69.4569 41.767 70.6457C41.9976 72.9239 42.3949 74.303 41.2095 76.0756C38.3176 76.5121 30.5013 77.3 28.4354 75.5021C27.2967 72.2378 29.1243 70.4734 27.7898 66.7868L27.6025 66.2812Z" fill="#FFCF4D"/>
<path d="M61.2207 67.4352C61.3968 67.4653 61.8517 67.7355 62.0372 67.8339C64.6585 78.4008 60.5631 76.6875 51.634 76.2969C50.3378 76.1363 50.2712 76.123 49.1063 75.5567C48.2576 73.7055 48.6828 73.0508 48.8555 70.7231C54.4662 69.8462 56.0099 69.3612 61.2207 67.4352Z" fill="#FFCF4D"/>
<path d="M5.63872 11.0173L6.9047 14.9135H11.0015L7.68711 17.3216L8.95308 21.2178L5.63872 18.8098L2.32437 21.2178L3.59034 17.3216L0.275979 14.9135H4.37275L5.63872 11.0173Z" fill="#FFCF4D"/>
<path d="M86.4604 12.8969L85.1944 16.7931H81.0977L84.412 19.2011L83.146 23.0974L86.4604 20.6894L89.7748 23.0974L88.5088 19.2011L91.8231 16.7931H87.7264L86.4604 12.8969Z" fill="#FFCF4D"/>
<path d="M16.916 4.43878L17.549 6.38691H19.5974L17.9402 7.59092L18.5732 9.53906L16.916 8.33504L15.2589 9.53906L15.8918 7.59092L14.2347 6.38691H16.2831L16.916 4.43878Z" fill="#FFCF4D"/>
<path d="M75.1831 6.3183L74.5501 8.26643H72.5017L74.1589 9.47044L73.5259 11.4186L75.1831 10.2146L76.8403 11.4186L76.2073 9.47044L77.8645 8.26643H75.8161L75.1831 6.3183Z" fill="#FFCF4D"/>
</svg>
