<svg width="45" height="45" viewBox="0 0 45 45" fill="none" xmlns="http://www.w3.org/2000/svg">
<path d="M18.8125 1.31722C21.6198 -0.229655 24.2012 -0.679819 26.9046 1.43386C27.4111 1.66426 27.7123 1.72946 27.9928 2.20482L28.1901 2.43705C29.7379 4.27798 29.1329 6.53763 31.0702 6.58491C32.5063 6.62024 32.6881 6.37762 34.0489 7.18756L34.119 7.28419C37.8561 8.94432 36.0876 12.0365 37.1393 12.7176C41.3049 15.4121 41.1465 16.5223 39.4117 21.1253C39.326 21.3437 40.1544 21.8708 40.3466 21.9872L40.531 22.0321C45.6444 25.1521 45.0393 31.6051 39.6065 34.9742C39.2429 35.2002 37.1653 34.9666 36.6225 35.0986C35.3006 35.8 34.7215 37.1769 33.1452 38.05L33.0777 38.6789C32.8387 41.5511 35.1241 41.3318 34.0463 43.8915C33.449 44.3573 31.1637 44.9721 30.1379 44.8612C24.5518 44.2573 17.2725 45.9023 12.1616 44.2066C10.4268 43.6307 12.8628 40.3528 12.7278 39.9325C12.1409 38.0869 9.6062 35.1433 8.13631 33.9767C7.32086 34.1645 7.19881 34.2523 6.45347 33.984C3.38645 30.4564 2.3996 33.7343 0 27.2473C0.836226 23.5239 1.7919 22.3682 4.89009 20.2655C4.34213 18.8607 4.27202 18.0391 4.22008 16.6322C4.1188 13.8735 7.42215 13.5346 7.9831 12.2376C8.80374 10.3405 7.74157 9.48722 9.8581 7.54914C11.6396 5.47521 13.6679 5.69523 15.9948 6.36126C16.5765 4.02341 16.7686 2.72616 18.8125 1.31722Z" fill="#C0891E"/>
<path d="M27.3721 39.6594C27.1929 39.7098 27.0137 39.7561 26.8319 39.7981C22.0172 40.9447 11.1358 39.8343 9.32833 33.9289C8.87905 32.4654 10.8917 31.9014 10.6684 29.9805C10.4165 27.3439 7.42994 27.999 7.6351 25.2476C7.79871 23.0386 8.44536 21.6778 9.39065 19.7171C14.8573 8.3993 33.9061 9.42587 37.4146 21.8009C38.2223 24.6523 38.1833 26.4303 37.9911 29.2778C34.815 30.4969 35.6409 31.9536 35.5604 35.0261C33.8152 37.1803 32.6258 37.6582 30.2625 39.0872C28.9433 39.0389 28.5615 38.968 27.3721 39.6594Z" fill="#FFCF4D"/>
<path d="M19.7214 26.293C21.0381 26.6579 22.7962 27.9165 24.4505 27.3393C25.3387 27.0296 25.5049 26.6288 26.6346 26.3327L26.9384 26.7704C24.8609 28.8789 21.0381 29.5543 19.7214 26.293Z" fill="#151516"/>
<path d="M25.0763 22.0706C26.1385 22.1623 26.393 22.8145 27.0007 23.0628C27.8525 23.4101 28.442 22.2846 29.4262 22.4449L29.6626 23.1849C27.8395 24.105 25.7437 24.4559 25.0763 22.0706Z" fill="#151516"/>
<path d="M16.979 22.0334C18.2489 22.5158 18.4541 23.2894 20.1473 22.6112L20.7212 22.3755L21.0225 22.2457L21.6094 22.6325C20.0954 23.8983 17.3088 24.7687 16.979 22.0334Z" fill="#151516"/>
<path d="M26.7955 18.0099L27.1123 17.7759C28.2628 18.2193 29.1458 18.5887 29.5431 19.7467C29.1588 19.6519 27.0812 18.7747 26.6085 18.5824L26.7955 18.0099Z" fill="#151516"/>
<path d="M19.4383 17.689C19.5863 17.6988 20.1239 17.8461 20.3005 17.8903L20.381 18.2573C19.7344 18.7584 18.6436 18.9935 17.823 19.2392L17.488 19.5063L17.1997 19.2314C17.7762 18.3542 18.4956 18.1248 19.4383 17.689Z" fill="#151516"/>
<path d="M22.9132 0.50293C24.1184 0.465279 25.3272 0.835528 26.5968 1.82812L26.6437 1.86426L26.6974 1.88867C27.2675 2.14806 27.3812 2.15145 27.5626 2.45898L27.5841 2.49609L27.6115 2.52832L27.8087 2.76074V2.75977C28.5065 3.59032 28.7068 4.48864 29.0128 5.35059C29.1578 5.75884 29.341 6.19317 29.6613 6.52344C30.005 6.87775 30.462 7.07037 31.0577 7.08496C31.4307 7.09413 31.7244 7.08512 31.9611 7.08008C32.2026 7.07493 32.3715 7.07456 32.5314 7.09277C32.8112 7.12467 33.1098 7.21942 33.7052 7.56641L33.714 7.57812L33.7365 7.6084L33.7628 7.63477C35.6671 9.57103 35.8044 10.1953 35.7677 10.624C35.7272 11.0973 35.2655 11.9622 35.6915 13.6104L35.7863 13.9746L36.1613 13.9854C36.2698 13.9885 36.3682 13.993 36.4347 13.9932C36.5109 13.9934 36.6014 13.9895 36.7032 13.9609C36.7919 13.936 36.8705 13.8963 36.9181 13.873C36.9271 13.8686 36.9366 13.8642 36.9464 13.8594C38.4442 14.6114 39.1652 15.5628 39.3654 16.5957C39.5716 17.6609 39.2484 18.931 38.4093 20.3398L38.2482 20.3848C38.1088 20.2353 37.9323 20.0097 37.7247 19.7031C37.4347 19.2747 37.1175 18.7482 36.7833 18.1904C36.133 17.1049 35.3992 15.8596 34.7511 15.1787C33.8336 14.2144 32.5114 13.5391 31.3156 12.9717C30.7027 12.6809 30.1282 12.4211 29.6105 12.1543C29.1936 11.9394 28.8412 11.7313 28.5636 11.5225C28.599 11.094 28.6408 10.7548 28.7111 10.2852L28.7716 9.87402L28.38 9.73828L28.1378 9.65527L27.7628 9.52441L27.5509 9.86133C27.4447 10.0305 27.3277 10.2352 27.2804 10.3125C27.2146 10.4199 27.1817 10.4589 27.1564 10.4814C27.1134 10.5197 27.0174 10.582 26.4904 10.6699C25.9571 10.7589 24.2518 10.8533 22.5656 10.875C21.7299 10.8857 20.9154 10.8781 20.2726 10.8447C19.9504 10.828 19.6792 10.8051 19.4738 10.7764C19.4417 10.7719 19.4124 10.7643 19.3849 10.7598L19.2462 9.62988L19.212 9.34668L18.9493 9.23242L18.6329 9.09473L18.045 8.83887L17.9406 9.47168L17.8859 9.79688C17.8018 10.2882 17.7635 10.5835 17.6759 10.8672C17.6027 11.1039 17.4906 11.3312 17.2677 11.626C14.8339 12.8671 13.0957 13.6495 11.6906 14.8008C10.2894 15.9487 9.22921 17.4485 8.03333 20.0625C7.59974 20.0451 7.24107 20.0408 6.87415 19.9912C6.47527 19.9372 6.14472 19.8322 5.85168 19.6182C5.42987 18.9311 5.35756 18.248 5.17883 17.2812L6.00989 14.8213C6.9233 14.0821 7.30853 13.7233 8.31165 13.4238L8.60559 13.5088L9.60657 13.7979L9.2052 12.8359C8.86195 12.0127 9.08102 10.9347 9.46692 9.8916C9.65453 9.38449 9.86652 8.92357 10.0382 8.53809C10.1219 8.35013 10.2003 8.1718 10.256 8.02148C10.2839 7.94604 10.3096 7.86765 10.3282 7.79199C10.33 7.78473 10.3303 7.77653 10.3322 7.76855C11.1168 6.8978 11.9259 6.5252 12.7804 6.42383C13.6967 6.31521 14.7054 6.512 15.8575 6.8418L16.3546 6.98438L16.4796 6.48242C16.7781 5.28267 16.958 4.43993 17.3068 3.70508C17.6377 3.00794 18.1283 2.39935 19.0743 1.74316C20.4374 0.994529 21.6975 0.540918 22.9132 0.50293Z" fill="#FFCF4D" stroke="#C0891E"/>
<path d="M34.049 7.18757C32.0493 7.4333 31.5351 6.53453 29.242 7.7445C29.1511 4.7214 28.5771 4.79387 27.9928 2.20483L28.1902 2.43706C29.738 4.27799 29.1329 6.53764 31.0702 6.58492C32.5064 6.62025 32.6881 6.37763 34.049 7.18757Z" fill="#C0891E"/>
<path d="M18.8125 1.31722C21.6198 -0.229655 24.2012 -0.679819 26.9047 1.43386C22.0224 -0.0166495 23.1131 0.878228 19.0203 1.29748L18.8125 1.31722Z" fill="#C0891E"/>
<path d="M37.9599 21.4338L40.3465 21.9869L40.5309 22.0318C40.6555 23.0075 44.5614 26.2337 43.8836 28.5136C43.2941 30.4901 40.8166 33.7208 39.2168 34.704L38.9805 34.5949L38.7727 33.5844C37.7391 34.0286 37.2613 34.564 36.3627 34.4292L36.2251 33.8185C36.69 33.4436 36.8873 33.3418 37.3937 33.0618C37.6067 32.3443 37.6274 32.6799 37.4093 32.0212C36.9808 32.3685 36.8613 32.5207 36.3134 32.6355C35.9732 31.8004 36.0848 32.0394 36.2069 31.0307C36.9938 29.7415 37.6638 29.987 38.7208 29.0339C39.5778 27.3411 38.4221 23.4122 37.9599 21.4338Z" fill="#FFCF4D"/>
<path d="M30.2626 39.087L30.4937 39.1935C31.3897 39.1403 32.3194 38.5041 33.1453 38.0498L33.0777 38.6787C32.5609 39.731 32.6414 39.2808 32.7063 40.3936C33.5322 41.5441 33.901 41.7413 33.8516 42.9489C32.361 44.5298 23.5001 46.3544 24.796 41.0111C25.8841 40.1528 26.4684 41.0319 27.5098 40.0791L27.3722 39.6593C28.5616 38.9678 28.9433 39.0387 30.2626 39.087Z" fill="#FFCF4D"/>
<path d="M5.09528 20.8408C6.25613 20.7875 6.83004 20.615 7.6377 21.4553C7.84286 22.4747 7.23776 24.6107 7.08714 26.0191L6.75992 26.2601L5.79385 25.6492L5.77829 26.1235C6.67164 27.706 9.41924 27.0955 9.7984 29.676C9.43222 29.9649 9.41145 29.9552 9.15435 30.3379C9.42444 30.8545 9.50232 30.9317 9.61399 31.5162L9.17252 32.0915C8.77258 32.0619 8.40122 32.0151 8.01168 31.9175L8.43239 32.5469C8.45056 32.989 8.31553 32.9809 7.94935 33.4397C6.32105 33.1893 6.27691 32.7812 4.90311 31.5933C3.33194 31.7011 2.72422 31.6663 1.75814 30.1724C0.888156 28.7983 0.612894 27.1285 0.997246 25.5474C1.60754 23.0874 3.06704 22.0554 5.09528 20.8408Z" fill="#FFCF4D"/>
<path d="M13.333 38.7329C15.6702 39.6413 20.7655 40.3845 21.7653 42.1844C21.8147 43.0842 21.6926 43.2751 21.342 44.1167L20.7265 44.1855C20.4383 44.2292 20.1474 44.2658 19.8566 44.2954C18.0023 44.4832 13.7459 44.889 12.4033 43.7918C11.8579 41.8456 13.5485 41.1404 13.333 38.7329Z" fill="#FFCF4D"/>
<path d="M21.947 40.9341C22.8404 40.9286 23.0429 40.8987 23.8922 41.119C24.331 41.9583 24.0557 42.2308 23.835 43.368C23.1806 43.5135 23.1624 43.4847 22.5209 43.4208C21.8821 42.5165 22.0561 42.1734 21.947 40.9341Z" fill="#EFECEC"/>
</svg>
