<svg width="225" height="81" viewBox="0 0 225 81" fill="none" xmlns="http://www.w3.org/2000/svg">
<path d="M111.071 51V28.6416L95.4938 51H92.2469V24.6138H95.0006V46.89L110.578 24.6138H113.865V51H111.071ZM142.371 49.7259C141.22 50.2739 139.796 50.7123 138.097 51.0411C136.425 51.3699 134.631 51.5343 132.713 51.5343C130.685 51.5343 128.849 51.3562 127.205 51C125.589 50.6712 124.205 50.0136 123.054 49.0272C121.903 48.0408 121.013 46.6571 120.383 44.8761C119.753 43.0677 119.437 40.7113 119.437 37.8069C119.437 34.9025 119.753 32.5598 120.383 30.7788C121.013 28.9704 121.903 27.573 123.054 26.5866C124.205 25.6002 125.589 24.9426 127.205 24.6138C128.849 24.2576 130.685 24.0795 132.713 24.0795C136.549 24.0795 139.631 24.6275 141.96 25.7235L140.604 27.9018C139.809 27.6278 138.727 27.3127 137.357 26.9565C135.987 26.6003 134.466 26.4222 132.795 26.4222C131.315 26.4222 129.945 26.5318 128.685 26.751C127.425 26.9428 126.329 27.4223 125.397 28.1895C124.493 28.9567 123.78 30.1075 123.26 31.6419C122.739 33.1489 122.479 35.2039 122.479 37.8069C122.479 40.4373 122.739 42.5197 123.26 44.0541C123.78 45.5611 124.493 46.6982 125.397 47.4654C126.329 48.2052 127.425 48.6847 128.685 48.9039C129.945 49.0957 131.315 49.1916 132.795 49.1916C133.617 49.1916 134.439 49.1368 135.261 49.0272C136.083 48.8902 136.85 48.7395 137.563 48.5751C138.275 48.4107 138.933 48.2326 139.535 48.0408C140.138 47.849 140.631 47.6846 141.015 47.5476L142.371 49.7259ZM169.637 51C168.952 51.1096 168.308 51.137 167.705 51.0822C167.129 51.0548 166.554 50.8904 165.979 50.589C165.403 50.2876 164.8 49.8355 164.17 49.2327C163.567 48.6299 162.882 47.8079 162.115 46.7667L156.279 38.9988H149.785V51H146.867V24.6138H149.785V36.6561H156.279L165.444 24.6138H169.102C167.431 26.8058 165.746 29.0115 164.047 31.2309C162.376 33.4229 160.69 35.6149 158.992 37.8069L164.828 45.4515C165.458 46.2735 166.006 46.9174 166.472 47.3832C166.938 47.849 167.362 48.2052 167.746 48.4518C168.157 48.671 168.541 48.808 168.897 48.8628C169.28 48.8902 169.678 48.8765 170.089 48.8217L169.637 51ZM174.848 51V24.6138H185.493C187.439 24.6138 189.069 24.7234 190.384 24.9426C191.699 25.1344 192.754 25.5317 193.549 26.1345C194.343 26.7373 194.905 27.6004 195.234 28.7238C195.59 29.8198 195.768 31.272 195.768 33.0804C195.768 34.8888 195.59 36.3547 195.234 37.4781C194.905 38.5741 194.343 39.4235 193.549 40.0263C192.754 40.6017 191.699 40.999 190.384 41.2182C189.069 41.41 187.439 41.5059 185.493 41.5059H177.807V51H174.848ZM192.686 32.9571C192.686 31.5323 192.549 30.4226 192.275 29.628C192.028 28.806 191.617 28.2032 191.042 27.8196C190.494 27.4086 189.768 27.162 188.863 27.0798C187.959 26.9976 186.863 26.9565 185.575 26.9565H177.807V39.1632H185.575C186.863 39.1632 187.959 39.1221 188.863 39.0399C189.768 38.9577 190.494 38.7248 191.042 38.3412C191.617 37.9576 192.028 37.3685 192.275 36.5739C192.549 35.7793 192.686 34.6559 192.686 33.2037V32.9571ZM222.677 51.0411C221.307 50.8493 220.294 50.452 219.636 49.8492C218.978 49.2464 218.54 48.2737 218.321 46.9311C217.362 48.3833 216.074 49.493 214.457 50.2602C212.868 51.0274 210.923 51.411 208.621 51.411C207.059 51.411 205.621 51.2877 204.306 51.0411C203.018 50.7945 201.908 50.3698 200.977 49.767C200.045 49.1368 199.319 48.3011 198.798 47.2599C198.278 46.1913 198.017 44.8624 198.017 43.2732C198.017 41.684 198.278 40.3688 198.798 39.3276C199.319 38.259 200.045 37.4233 200.977 36.8205C201.908 36.1903 203.018 35.7519 204.306 35.5053C205.621 35.2587 207.059 35.1354 208.621 35.1354H217.581C217.499 33.1078 217.293 31.5186 216.965 30.3678C216.636 29.1896 216.129 28.3128 215.444 27.7374C214.786 27.162 213.923 26.8058 212.855 26.6688C211.813 26.5044 210.512 26.4222 208.95 26.4222C208.128 26.4222 207.32 26.477 206.525 26.5866C205.731 26.6962 204.977 26.8332 204.265 26.9976C203.58 27.162 202.949 27.3401 202.374 27.5319C201.799 27.6963 201.319 27.847 200.936 27.984L199.579 25.8057C200.73 25.2577 202.114 24.833 203.73 24.5316C205.347 24.2302 207.114 24.0795 209.032 24.0795C211.252 24.0795 213.101 24.2439 214.581 24.5727C216.088 24.9015 217.28 25.5454 218.156 26.5044C219.061 27.4634 219.705 28.8334 220.088 30.6144C220.472 32.3954 220.664 34.7381 220.664 37.6425V38.3001V42.9033C220.664 43.9445 220.705 44.8213 220.787 45.5337C220.896 46.2187 221.047 46.7941 221.239 47.2599C221.431 47.6983 221.677 48.0408 221.979 48.2874C222.308 48.534 222.691 48.7121 223.13 48.8217L222.677 51.0411ZM217.622 37.5192H208.621C207.47 37.5192 206.416 37.5877 205.457 37.7247C204.498 37.8343 203.676 38.0946 202.991 38.5056C202.306 38.8892 201.771 39.4646 201.388 40.2318C201.004 40.9716 200.812 41.9854 200.812 43.2732C200.812 44.561 201.004 45.5885 201.388 46.3557C201.771 47.0955 202.306 47.6709 202.991 48.0819C203.703 48.4655 204.539 48.7258 205.498 48.8628C206.457 48.9724 207.512 49.0272 208.662 49.0272C210.608 49.0272 212.17 48.7806 213.348 48.2874C214.526 47.7942 215.43 47.0681 216.06 46.1091C216.691 45.1227 217.102 43.9308 217.293 42.5334C217.513 41.1086 217.622 39.4646 217.622 37.6014V37.5192Z" fill="black"/>
<path d="M46.3223 26.2295L46.3535 26.3682L46.4736 26.293L68.8174 12.1816L54.707 34.5264L54.6318 34.6465L54.7705 34.6777L80.5449 40.5L54.7705 46.3223L54.6318 46.3535L54.707 46.4736L68.8174 68.8174L46.4736 54.707L46.3535 54.6318L46.3223 54.7705L40.5 80.5449L34.6777 54.7705L34.6465 54.6318L34.5264 54.707L12.1816 68.8174L26.293 46.4736L26.3682 46.3535L26.2295 46.3223L0.454102 40.5L26.2295 34.6777L26.3682 34.6465L26.293 34.5264L12.1816 12.1816L34.5264 26.293L34.6465 26.3682L34.6777 26.2295L40.5 0.454102L46.3223 26.2295Z" fill="url(#paint0_linear_1421_72)" stroke="black" stroke-width="0.2"/>
<path d="M31.8393 37.8112L30.1065 34.0356" stroke="black" stroke-width="0.43784" stroke-linecap="round"/>
<path d="M29.8725 39.4779L28.0092 37.0531" stroke="black" stroke-width="0.43784" stroke-linecap="round"/>
<path d="M27.9779 41.8341L23.0254 39.956" stroke="black" stroke-width="0.43784" stroke-linecap="round"/>
<path d="M39.1945 47.5887C39.1945 47.5887 27.3126 43.7723 26.6831 44.0084C26.0536 44.2445 30.8706 36.2147 34.7093 37.4773C38.1786 38.6184 39.1945 47.5887 39.1945 47.5887Z" stroke="black" stroke-width="0.43784"/>
<path d="M34.9554 41.3264C36.1419 41.5838 36.8303 39.769 36.8303 39.769L36.8303 38.7868L34.3588 37.2813L32.4142 37.5095L32.4142 39.3673C32.4142 39.3673 34.1693 41.1558 34.9554 41.3264Z" fill="black" stroke="black" stroke-width="0.21892"/>
<circle cx="34.0108" cy="39.6384" r="0.63236" fill="white" stroke="black" stroke-width="0.0729733"/>
<circle cx="32.5559" cy="40.1496" r="0.356952" fill="white" stroke="black" stroke-width="0.0729733"/>
<path d="M51.3757 37.3284L54.1348 35.0417" stroke="black" stroke-width="0.377678" stroke-linecap="round"/>
<path d="M47.7221 35.4755L48.8408 32.0711" stroke="black" stroke-width="0.377678" stroke-linecap="round"/>
<path d="M49.5478 36.0623L51.1522 33.9685" stroke="black" stroke-width="0.377678" stroke-linecap="round"/>
<path d="M53.5201 39.0147C53.5201 39.0147 43.7758 43.5901 43.5172 44.1092C43.2586 44.6283 41.5792 36.7276 44.7447 35.2681C47.6057 33.9491 53.5201 39.0147 53.5201 39.0147Z" stroke="black" stroke-width="0.377678"/>
<path d="M45.7673 38.9063C45.2592 37.1462 43.2156 37.0625 43.2156 37.0625L43.0657 37.8976L42.9238 41.8787L43.4953 44.0362L45.1123 43.1333C45.1123 43.1333 46.1039 40.0726 45.7673 38.9063Z" fill="black" stroke="black" stroke-width="0.188839"/>
<circle cx="44.6534" cy="40.1491" r="0.545471" transform="rotate(-42.9589 44.6534 40.1491)" fill="white" stroke="black" stroke-width="0.0629464"/>
<circle cx="44.0935" cy="41.0825" r="0.149288" transform="rotate(-42.9589 44.0935 41.0825)" fill="white" stroke="black" stroke-width="0.0629464"/>
<rect x="91.1" y="55.1" width="23.8" height="2.8" rx="1.4" fill="#F2CA17" stroke="black" stroke-width="0.2"/>
<defs>
<linearGradient id="paint0_linear_1421_72" x1="25.2868" y1="24.0533" x2="92.5127" y2="66.198" gradientUnits="userSpaceOnUse">
<stop stop-color="#FFD92F"/>
<stop offset="1" stop-color="#E6BC00"/>
</linearGradient>
</defs>
</svg>
