<svg width="159" height="80" viewBox="0 0 159 80" fill="none" xmlns="http://www.w3.org/2000/svg">
<path d="M28.9307 14.0751L28.8508 14.1289L28.9411 14.1627L43.4695 19.5708L28.3127 16.1754L28.2179 16.1541L28.2565 16.244L32.0217 25.1751L26.7594 16.8678L26.714 16.7962L26.6732 16.8705L14.0642 39.5869L25.2505 16.0939L25.2843 16.0213L25.2041 16.0232L14.4677 16.2007L24.9126 14.428L25.0102 14.4112L24.9393 14.3422L11.7934 1.64145L26.0108 13.1256L26.0794 13.1818L26.0915 13.0934L27.3724 3.5039L27.7107 13.1726L27.7134 13.2568L27.7859 13.2144L45.7134 2.58986L28.9307 14.0751Z" fill="#FFE500" stroke="black" stroke-width="0.1"/>
<path d="M25.776 67.0107V40.8987L7.584 67.0107H3.792V36.1947H7.008V62.2107L25.2 36.1947H29.04V67.0107H25.776ZM62.3314 65.5227C60.9874 66.1627 59.3234 66.6747 57.3394 67.0587C55.3874 67.4427 53.2914 67.6347 51.0514 67.6347C48.6834 67.6347 46.5394 67.4267 44.6194 67.0107C42.7314 66.6267 41.1154 65.8587 39.7714 64.7067C38.4274 63.5547 37.3874 61.9387 36.6514 59.8587C35.9154 57.7467 35.5474 54.9947 35.5474 51.6027C35.5474 48.2107 35.9154 45.4747 36.6514 43.3947C37.3874 41.2827 38.4274 39.6507 39.7714 38.4987C41.1154 37.3467 42.7314 36.5787 44.6194 36.1947C46.5394 35.7787 48.6834 35.5707 51.0514 35.5707C55.5314 35.5707 59.1314 36.2107 61.8514 37.4907L60.2674 40.0347C59.3394 39.7147 58.0754 39.3467 56.4754 38.9307C54.8754 38.5147 53.0994 38.3067 51.1474 38.3067C49.4194 38.3067 47.8194 38.4347 46.3474 38.6907C44.8754 38.9147 43.5954 39.4747 42.5074 40.3707C41.4514 41.2667 40.6194 42.6107 40.0114 44.4027C39.4034 46.1627 39.0994 48.5627 39.0994 51.6027C39.0994 54.6747 39.4034 57.1067 40.0114 58.8987C40.6194 60.6587 41.4514 61.9867 42.5074 62.8827C43.5954 63.7467 44.8754 64.3067 46.3474 64.5627C47.8194 64.7867 49.4194 64.8987 51.1474 64.8987C52.1074 64.8987 53.0674 64.8347 54.0274 64.7067C54.9874 64.5467 55.8834 64.3707 56.7154 64.1787C57.5474 63.9867 58.3154 63.7787 59.0194 63.5547C59.7234 63.3307 60.2994 63.1387 60.7474 62.9787L62.3314 65.5227ZM94.1741 67.0107C93.3741 67.1387 92.6221 67.1707 91.9181 67.1067C91.2461 67.0747 90.5741 66.8827 89.9021 66.5307C89.2301 66.1787 88.5261 65.6507 87.7901 64.9467C87.0861 64.2427 86.2861 63.2827 85.3901 62.0667L78.5741 52.9947H70.9901V67.0107H67.5821V36.1947H70.9901V50.2587H78.5741L89.2781 36.1947H93.5501C91.5981 38.7547 89.6301 41.3307 87.6461 43.9227C85.6941 46.4827 83.7261 49.0427 81.7421 51.6027L88.5581 60.5307C89.2941 61.4907 89.9341 62.2427 90.4781 62.7867C91.0221 63.3307 91.5181 63.7467 91.9661 64.0347C92.4461 64.2907 92.8941 64.4507 93.3101 64.5147C93.7581 64.5467 94.2221 64.5307 94.7021 64.4667L94.1741 67.0107ZM100.261 67.0107V36.1947H112.693C114.965 36.1947 116.869 36.3227 118.405 36.5787C119.941 36.8027 121.173 37.2667 122.101 37.9707C123.029 38.6747 123.685 39.6827 124.069 40.9947C124.485 42.2747 124.693 43.9707 124.693 46.0827C124.693 48.1947 124.485 49.9067 124.069 51.2187C123.685 52.4987 123.029 53.4907 122.101 54.1947C121.173 54.8667 119.941 55.3307 118.405 55.5867C116.869 55.8107 114.965 55.9227 112.693 55.9227H103.717V67.0107H100.261ZM121.093 45.9387C121.093 44.2747 120.933 42.9787 120.613 42.0507C120.325 41.0907 119.845 40.3867 119.173 39.9387C118.533 39.4587 117.685 39.1707 116.629 39.0747C115.573 38.9787 114.293 38.9307 112.789 38.9307H103.717V53.1867H112.789C114.293 53.1867 115.573 53.1387 116.629 53.0427C117.685 52.9467 118.533 52.6747 119.173 52.2267C119.845 51.7787 120.325 51.0907 120.613 50.1627C120.933 49.2347 121.093 47.9227 121.093 46.2267V45.9387ZM156.12 67.0587C154.52 66.8347 153.336 66.3707 152.568 65.6667C151.8 64.9627 151.288 63.8267 151.032 62.2587C149.912 63.9547 148.408 65.2507 146.52 66.1467C144.664 67.0427 142.392 67.4907 139.704 67.4907C137.88 67.4907 136.2 67.3467 134.664 67.0587C133.16 66.7707 131.864 66.2747 130.776 65.5707C129.688 64.8347 128.84 63.8587 128.232 62.6427C127.624 61.3947 127.32 59.8427 127.32 57.9867C127.32 56.1307 127.624 54.5947 128.232 53.3787C128.84 52.1307 129.688 51.1547 130.776 50.4507C131.864 49.7147 133.16 49.2027 134.664 48.9147C136.2 48.6267 137.88 48.4827 139.704 48.4827H150.168C150.072 46.1147 149.832 44.2587 149.448 42.9147C149.064 41.5387 148.472 40.5147 147.672 39.8427C146.904 39.1707 145.896 38.7547 144.648 38.5947C143.432 38.4027 141.912 38.3067 140.088 38.3067C139.128 38.3067 138.184 38.3707 137.256 38.4987C136.328 38.6267 135.448 38.7867 134.616 38.9787C133.816 39.1707 133.08 39.3787 132.408 39.6027C131.736 39.7947 131.176 39.9707 130.728 40.1307L129.144 37.5867C130.488 36.9467 132.104 36.4507 133.992 36.0987C135.88 35.7467 137.944 35.5707 140.184 35.5707C142.776 35.5707 144.936 35.7627 146.664 36.1467C148.424 36.5307 149.816 37.2827 150.84 38.4027C151.896 39.5227 152.648 41.1227 153.096 43.2027C153.544 45.2827 153.768 48.0187 153.768 51.4107V52.1787V57.5547C153.768 58.7707 153.816 59.7947 153.912 60.6267C154.04 61.4267 154.216 62.0987 154.44 62.6427C154.664 63.1547 154.952 63.5547 155.304 63.8427C155.688 64.1307 156.136 64.3387 156.648 64.4667L156.12 67.0587ZM150.216 51.2667H139.704C138.36 51.2667 137.128 51.3467 136.008 51.5067C134.888 51.6347 133.928 51.9387 133.128 52.4187C132.328 52.8667 131.704 53.5387 131.256 54.4347C130.808 55.2987 130.584 56.4827 130.584 57.9867C130.584 59.4907 130.808 60.6907 131.256 61.5867C131.704 62.4507 132.328 63.1227 133.128 63.6027C133.96 64.0507 134.936 64.3547 136.056 64.5147C137.176 64.6427 138.408 64.7067 139.752 64.7067C142.024 64.7067 143.848 64.4187 145.224 63.8427C146.6 63.2667 147.656 62.4187 148.392 61.2987C149.128 60.1467 149.608 58.7547 149.832 57.1227C150.088 55.4587 150.216 53.5387 150.216 51.3627V51.2667Z" fill="black"/>
</svg>
