<svg width="137" height="112" viewBox="0 0 137 112" fill="none" xmlns="http://www.w3.org/2000/svg">
<path d="M90.9092 62.6787L90.918 62.9365L91.0654 62.7246L105.938 41.2412L94.7002 64.8145L94.5996 65.0254L94.8125 64.9297L114.154 56.2168L96.9111 68.5498L96.7129 68.6914L96.9561 68.7041L135.422 70.7939L96.9561 72.8848L96.7129 72.8975L96.9111 73.0391L114.154 85.3711L94.8125 76.6592L94.5781 76.5547L94.7021 76.7793L112.99 110.001L91.0645 78.8633L90.9326 78.6758L90.9102 78.9043L88.8115 99.9512L86.7129 78.9043L86.6904 78.6797L86.5586 78.8633L74.1787 96.041L82.9238 76.7734L83.0176 76.5664L82.8105 76.6592L63.4678 85.3711L80.7119 73.0391L80.8906 72.9111L80.6719 72.8848L63.4268 70.7939L80.6719 68.7041L80.8701 68.6797L80.7168 68.5527L52.5791 45.3682L82.7988 64.9229L83.0254 65.0693L82.9248 64.8193L77.5107 51.2969L86.5605 62.7285L86.7051 62.9111L86.7129 62.6787L88.8105 2.45508L90.9092 62.6787Z" fill="#FFD754" stroke="#6D6D6D" stroke-width="0.17125"/>
<path d="M32.3868 78.2231C32.5512 78.2231 32.6197 78.2779 32.5923 78.3875C32.5649 78.4697 32.4827 78.5108 32.3457 78.5108C31.3593 78.4286 30.6195 78.3875 30.1263 78.3875H24.7011C24.2079 78.3875 23.4681 78.4286 22.4817 78.5108C22.3447 78.5108 22.2625 78.4697 22.2351 78.3875C22.2351 78.2779 22.3173 78.2231 22.4817 78.2231C23.4681 78.1683 24.2079 77.8806 24.7011 77.36C25.1943 76.812 25.4409 75.8667 25.4409 74.5241V55.7003C25.4409 55.4263 25.3998 55.2893 25.3176 55.2893C25.2354 55.2893 25.1258 55.3989 24.9888 55.6181C22.6872 59.5637 20.3171 62.8791 17.8785 65.5643C15.4673 68.2221 12.604 70.5922 9.2886 72.6746C8.8228 72.9486 8.5899 73.3733 8.5899 73.9487V74.5241C8.5899 75.8667 8.8365 76.812 9.3297 77.36C9.8229 77.8806 10.5627 78.1683 11.5491 78.2231C11.7135 78.2231 11.782 78.2779 11.7546 78.3875C11.7546 78.4697 11.6861 78.5108 11.5491 78.5108C10.5627 78.4286 9.8229 78.3875 9.3297 78.3875H3.9045C3.4113 78.3875 2.6715 78.4286 1.6851 78.5108C1.5481 78.5108 1.4659 78.4697 1.4385 78.3875C1.4385 78.2779 1.5207 78.2231 1.6851 78.2231C2.6715 78.1683 3.4113 77.8806 3.9045 77.36C4.3977 76.812 4.6443 75.8667 4.6443 74.5241V53.4809C4.6443 52.1383 4.3977 51.2067 3.9045 50.6861C3.4113 50.1381 2.6715 49.8367 1.6851 49.7819C1.5207 49.7819 1.4385 49.7408 1.4385 49.6586C1.4659 49.549 1.5481 49.4942 1.6851 49.4942C2.6715 49.5764 3.4113 49.6175 3.9045 49.6175H9.3297C9.8229 49.6175 10.5627 49.5764 11.5491 49.4942C11.6861 49.4942 11.7546 49.549 11.7546 49.6586C11.782 49.7408 11.7135 49.7819 11.5491 49.7819C10.5627 49.8367 9.8229 50.1381 9.3297 50.6861C8.8365 51.2067 8.5899 52.1383 8.5899 53.4809V71.8115C8.5899 71.9759 8.6173 72.1266 8.6721 72.2636C8.7269 72.4006 8.8091 72.4691 8.9187 72.4691C9.0009 72.4691 9.1242 72.428 9.2886 72.3458C12.604 70.236 15.4673 67.8522 17.8785 65.1944C20.2897 62.5092 22.6324 59.1801 24.9066 55.2071C25.208 54.6865 25.3861 54.1659 25.4409 53.6453V53.4809C25.4409 52.1383 25.1943 51.2067 24.7011 50.6861C24.2079 50.1381 23.4681 49.8367 22.4817 49.7819C22.3173 49.7819 22.2351 49.7408 22.2351 49.6586C22.2625 49.549 22.3447 49.4942 22.4817 49.4942C23.4681 49.5764 24.2079 49.6175 24.7011 49.6175H30.1263C30.6195 49.6175 31.3593 49.5764 32.3457 49.4942C32.4827 49.4942 32.5649 49.549 32.5923 49.6586C32.6197 49.7408 32.5512 49.7819 32.3868 49.7819C31.4004 49.8367 30.6469 50.1381 30.1263 50.6861C29.6331 51.2067 29.3865 52.1383 29.3865 53.4809V74.5241C29.3865 75.8667 29.6331 76.812 30.1263 77.36C30.6469 77.8806 31.4004 78.1683 32.3868 78.2231ZM49.547 69.2633C49.5196 69.4003 49.4511 69.4551 49.3415 69.4277C49.2593 69.4003 49.2456 69.3181 49.3004 69.1811C49.4374 68.5509 49.5059 67.9755 49.5059 67.4549C49.5059 66.2219 49.2319 65.03 48.6839 63.8792C48.1359 62.7284 47.3824 61.8105 46.4234 61.1255C45.4918 60.4131 44.4506 60.0569 43.2998 60.0569C39.4912 60.0569 37.5869 62.1804 37.5869 66.4274C37.5869 68.455 38.039 70.2771 38.9432 71.8937C39.8748 73.5103 41.053 74.7707 42.4778 75.6749C43.93 76.5517 45.3822 76.9901 46.8344 76.9901C47.7112 76.9901 48.6154 76.8394 49.547 76.538C50.4786 76.2366 51.2732 75.6749 51.9308 74.8529C52.0404 74.7707 52.1089 74.757 52.1363 74.8118C52.1911 74.8666 52.1911 74.9351 52.1363 75.0173C51.0403 76.3873 49.8073 77.3874 48.4373 78.0176C47.0673 78.6478 45.5329 78.9629 43.8341 78.9629C42.1353 78.9629 40.5598 78.5656 39.1076 77.771C37.6828 76.9764 36.5457 75.853 35.6963 74.4008C34.8469 72.9486 34.4222 71.2909 34.4222 69.4277C34.4222 67.5371 34.888 65.8246 35.8196 64.2902C36.7512 62.7284 37.9979 61.4954 39.5597 60.5912C41.1489 59.687 42.8751 59.2349 44.7383 59.2349C45.9439 59.2349 47.0536 59.3993 48.0674 59.7281C49.1086 60.0569 49.9306 60.4816 50.5334 61.0022C51.1636 61.5228 51.4787 62.0571 51.4787 62.6051C51.4787 62.7421 51.465 62.8517 51.4376 62.9339L49.547 69.2633ZM74.4825 78.182C74.6195 78.182 74.688 78.2368 74.688 78.3464C74.688 78.4286 74.6195 78.4697 74.4825 78.4697C73.6605 78.4149 72.085 78.3875 69.756 78.3875C69.1806 78.3875 68.7696 78.2779 68.523 78.0587C68.2764 77.8395 68.0983 77.5518 67.9887 77.1956L66.5913 73.4966C66.1529 72.3184 65.7282 71.4142 65.3172 70.784C64.9062 70.1264 64.3719 69.6469 63.7143 69.3455C63.0567 69.0167 62.1662 68.8523 61.0428 68.8523H60.3441V74.6885C60.3441 75.9489 60.5496 76.8394 60.9606 77.36C61.399 77.8806 62.0566 78.1409 62.9334 78.1409C63.0704 78.1409 63.1389 78.1957 63.1389 78.3053C63.1389 78.3875 63.0704 78.4286 62.9334 78.4286C62.495 78.4012 61.6593 78.3875 60.4263 78.3875H56.5218C55.2888 78.3875 54.4531 78.4012 54.0147 78.4286C53.9051 78.4286 53.8503 78.3875 53.8503 78.3053C53.8503 78.1957 53.9051 78.1409 54.0147 78.1409C54.8915 78.1409 55.5354 77.8806 55.9464 77.36C56.3848 76.8394 56.604 75.9489 56.604 74.6885V63.5504C56.604 62.3174 56.3848 61.4406 55.9464 60.92C55.5354 60.3994 54.8915 60.1391 54.0147 60.1391C53.9051 60.1391 53.8503 60.098 53.8503 60.0158C53.8503 59.9062 53.9051 59.8514 54.0147 59.8514L56.5218 59.8925H60.4263L62.9334 59.8514C63.0704 59.8514 63.1389 59.9062 63.1389 60.0158C63.1389 60.098 63.0704 60.1391 62.9334 60.1391C62.0566 60.1391 61.399 60.3994 60.9606 60.92C60.5496 61.4406 60.3441 62.3174 60.3441 63.5504V68.6057H61.0428C62.8512 68.6057 64.2486 68.2906 65.235 67.6604C66.2488 67.0028 67.1256 65.9616 67.8654 64.5368L68.523 63.2627C68.8518 62.5503 69.0162 61.9886 69.0162 61.5776C69.0162 60.5912 68.3449 60.098 67.0023 60.098C66.8927 60.098 66.8379 60.0569 66.8379 59.9747C66.8379 59.8651 66.8927 59.8103 67.0023 59.8103L69.5094 59.8514H70.4136L72.9207 59.8103C73.0577 59.8103 73.1262 59.8651 73.1262 59.9747C73.1262 60.0569 73.0577 60.098 72.9207 60.098C72.0987 60.098 71.4274 60.3309 70.9068 60.7967C70.3862 61.2351 69.7971 62.0434 69.1395 63.2216L68.2764 64.7012C67.6188 65.8246 66.9064 66.7014 66.1392 67.3316C65.3994 67.9618 64.4678 68.3865 63.3444 68.6057C65.2898 68.6605 66.8105 69.0441 67.9065 69.7565C69.0025 70.4415 69.893 71.6197 70.578 73.2911L71.3178 75.0173C71.8658 76.2503 72.3316 77.086 72.7152 77.5244C73.1262 77.9354 73.7153 78.1546 74.4825 78.182ZM89.6108 59.2349C91.0356 59.2349 92.3371 59.6322 93.5153 60.4268C94.7209 61.194 95.6662 62.29 96.3512 63.7148C97.0636 65.1396 97.4198 66.7973 97.4198 68.6879C97.4198 70.4689 97.0088 72.154 96.1868 73.7432C95.3922 75.305 94.2825 76.5654 92.8577 77.5244C91.4603 78.4834 89.9122 78.9629 88.2134 78.9629C87.0352 78.9629 86.0762 78.7985 85.3364 78.4697C84.624 78.1409 83.9527 77.7299 83.3225 77.2367C82.9115 76.9353 82.6512 76.7846 82.5416 76.7846C82.3224 76.7846 82.2128 77.0449 82.2128 77.5655V82.9907C82.2128 84.1963 82.4046 85.0594 82.7882 85.58C83.1992 86.1006 83.7883 86.3746 84.5555 86.402C84.6651 86.402 84.7199 86.4431 84.7199 86.5253C84.7199 86.6349 84.6651 86.6897 84.5555 86.6897C83.4047 86.6349 82.158 86.6075 80.8154 86.6075C79.0892 86.6075 77.5411 86.6349 76.1711 86.6897C76.0341 86.6897 75.9656 86.6349 75.9656 86.5253C75.993 86.4431 76.0752 86.402 76.2122 86.402C77.0068 86.402 77.5822 86.1417 77.9384 85.6211C78.322 85.1005 78.5138 84.21 78.5138 82.9496V64.3313C78.5138 63.4545 78.3768 62.8106 78.1028 62.3996C77.8562 61.9886 77.4041 61.7831 76.7465 61.7831C76.6369 61.7831 76.3903 61.8105 76.0067 61.8653C75.8971 61.8927 75.8286 61.879 75.8012 61.8242C75.8012 61.742 75.8286 61.6872 75.8834 61.6598C77.0616 61.3584 78.2261 61.0022 79.3769 60.5912C80.5277 60.1802 81.4456 59.7418 82.1306 59.276C82.2676 59.1938 82.3772 59.1664 82.4594 59.1938C82.5416 59.2212 82.5827 59.2897 82.5827 59.3993C82.3909 61.1803 82.2813 62.3448 82.2539 62.8928C82.3087 63.9066 82.4046 64.4272 82.5416 64.4546C84.2404 60.9748 86.5968 59.2349 89.6108 59.2349ZM88.46 78.2642C90.4876 78.2642 91.9535 77.7162 92.8577 76.6202C93.7619 75.5242 94.214 73.8939 94.214 71.7293C94.214 69.9209 93.9126 68.2221 93.3098 66.6329C92.707 65.0437 91.8576 63.7696 90.7616 62.8106C89.693 61.8516 88.4874 61.3721 87.1448 61.3721C85.6926 61.3721 84.5007 61.9749 83.5691 63.1805C82.6649 64.3861 82.2128 65.9616 82.2128 67.907V70.2908C82.2128 72.5924 82.7608 74.4967 83.8568 76.0037C84.9528 77.5107 86.4872 78.2642 88.46 78.2642ZM119.457 72.017C119.457 71.88 119.498 71.8115 119.58 71.8115C119.662 71.8115 119.703 71.88 119.703 72.017C119.703 73.9076 119.333 75.5242 118.593 76.8668C117.881 78.182 116.881 78.8396 115.593 78.8396C114.634 78.8396 113.84 78.4971 113.209 77.8121C112.607 77.0997 112.305 76.0448 112.305 74.6474V74.4419C111.648 75.8667 110.757 76.9764 109.634 77.771C108.51 78.5656 107.277 78.9629 105.935 78.9629C103.797 78.9629 102.195 78.3738 101.126 77.1956C100.085 76.0174 99.5641 74.62 99.5641 73.0034C99.5641 71.469 100.29 70.236 101.742 69.3044C103.222 68.3728 105.044 67.907 107.209 67.907C108.003 67.907 108.866 67.9755 109.798 68.1125C110.757 68.2495 111.593 68.4413 112.305 68.6879V66.7151C112.305 64.4957 111.826 62.8928 110.867 61.9064C109.908 60.8926 108.524 60.3857 106.716 60.3857C105.099 60.3857 103.715 60.9063 102.564 61.9475C101.441 62.9887 100.879 64.5094 100.879 66.5096C100.879 66.7288 100.811 66.8384 100.674 66.8384C100.564 66.8384 100.509 66.7288 100.509 66.5096C100.509 65.03 100.879 63.7422 101.619 62.6462C102.359 61.5502 103.318 60.7145 104.496 60.1391C105.702 59.5363 106.962 59.2349 108.277 59.2349C113.429 59.2349 116.004 61.7146 116.004 66.674V73.9076C116.004 74.8118 116.1 75.4831 116.292 75.9215C116.511 76.3325 116.867 76.538 117.36 76.538C118.21 76.538 118.758 76.1407 119.004 75.3461C119.278 74.5515 119.429 73.4418 119.457 72.017ZM107.62 76.9901C110.743 76.9901 112.305 75.1954 112.305 71.606V71.3594C111.922 70.51 111.264 69.825 110.332 69.3044C109.428 68.7838 108.455 68.5235 107.414 68.5235C104.263 68.5235 102.688 69.6195 102.688 71.8115C102.688 73.2089 103.112 74.4282 103.962 75.4694C104.839 76.4832 106.058 76.9901 107.62 76.9901Z" fill="black"/>
</svg>
