<svg width="30" height="30" viewBox="0 0 30 30" fill="none" xmlns="http://www.w3.org/2000/svg">
<circle cx="15" cy="15" r="15" fill="#1866A4"/>
<g clip-path="url(#clip0_756_5)">
<path d="M14.4625 6.475C9.57347 6.73047 6.34612 10.5648 6.55003 15.4C6.63909 17.5164 7.48987 19.3375 7.69143 21.3461C7.743 21.8664 7.593 22.5086 8.193 22.7359C8.93128 23.0148 10.0633 22.5461 10.6821 22.1172C10.893 21.9742 11.0946 21.8078 11.2492 21.6016C11.8891 22.0258 12.4961 22.4359 13.2578 22.6188C16.6117 23.4227 20.2867 21.5828 21.9203 18.6273C24.9907 13.075 20.8399 6.14219 14.4625 6.475ZM12.5641 18.0625C12.2992 18.2688 12.0438 18.55 11.7508 18.7117C11.3266 18.9391 11.1953 18.7023 11.036 18.3273C10.5344 17.1344 10.4735 15.1023 10.7664 13.8531C11.1602 12.1539 12.475 10.6586 14.2821 10.4992C16.1102 10.3375 17.8071 11.2656 18.5735 12.9414C20.2703 16.6703 15.9274 20.3523 12.5641 18.0648V18.0625Z" fill="white"/>
</g>
<defs>
<clipPath id="clip0_756_5">
<rect width="16.875" height="16.875" fill="white" transform="translate(6.25 6.25)"/>
</clipPath>
</defs>
</svg>
