<svg width="462" height="226" viewBox="0 0 462 226" fill="none" xmlns="http://www.w3.org/2000/svg">
<g clip-path="url(#clip0_1431_53)">
<path d="M22.2623 20.15C21.8185 20.8584 21.2343 21.3958 20.5096 21.7621C19.7889 22.1201 18.99 22.2852 18.1129 22.2574C17.2443 22.2337 16.3472 21.9996 15.4217 21.5551C14.3785 21.0541 13.5604 20.4076 12.9675 19.6155C12.3831 18.8275 12.0478 17.9624 11.9619 17.0203C11.8799 16.0699 12.0713 15.1108 12.536 14.1433C13.0047 13.1673 13.6335 12.4184 14.4226 11.8966C15.2116 11.3747 16.0963 11.0956 17.0767 11.0591C18.0656 11.0266 19.0816 11.2609 20.1249 11.7619C21.0504 12.2064 21.7939 12.7602 22.3555 13.4234C22.9255 14.0906 23.2961 14.8173 23.4673 15.6035C23.6424 16.3814 23.5903 17.1691 23.3108 17.9667L22.1119 17.391C22.2776 16.7872 22.2891 16.2026 22.1466 15.6371C22.008 15.0632 21.722 14.5376 21.2886 14.0603C20.8593 13.5745 20.2954 13.164 19.5971 12.8286C18.781 12.4367 17.9953 12.2509 17.2401 12.2713C16.4932 12.2957 15.8184 12.5151 15.2155 12.9297C14.6126 13.3442 14.1233 13.9427 13.7475 14.7251C13.3758 15.4992 13.2166 16.251 13.27 16.9807C13.3233 17.7104 13.5719 18.3786 14.0157 18.9851C14.472 19.5874 15.1082 20.0844 15.9243 20.4764C16.6226 20.8117 17.2935 20.9993 17.937 21.0392C18.5845 21.0706 19.1736 20.9652 19.704 20.723C20.2386 20.4724 20.6917 20.0894 21.0633 19.5742L22.2623 20.15ZM36.1506 22.1562L32.814 29.2971L31.6471 28.7519L34.794 22.0168L35.0778 22.7984L29.0784 19.9953L29.8727 19.7174L26.7258 26.4525L25.5589 25.9073L28.8954 18.7663L36.1506 22.1562ZM37.5477 32.3614C36.7635 31.8727 36.1618 31.2942 35.7424 30.626C35.331 29.9627 35.1243 29.262 35.1223 28.524C35.1204 27.7859 35.3342 27.0723 35.7636 26.3832C36.198 25.6862 36.7445 25.1799 37.403 24.8644C38.0614 24.549 38.7791 24.4298 39.5558 24.507C40.3404 24.5891 41.1248 24.8745 41.909 25.3632C42.7011 25.8568 43.3029 26.4353 43.7143 27.0986C44.1258 27.7619 44.3349 28.4586 44.3418 29.1887C44.3566 29.9238 44.1468 30.6398 43.7124 31.3369C43.2829 32.026 42.7325 32.5298 42.0612 32.8483C41.3978 33.1716 40.6777 33.2948 39.901 33.2176C39.1242 33.1405 38.3398 32.8551 37.5477 32.3614ZM38.1179 31.4465C38.704 31.8118 39.2751 32.0248 39.8312 32.0854C40.3922 32.1381 40.9085 32.042 41.3801 31.797C41.8597 31.557 42.2648 31.1716 42.5955 30.6409C42.9213 30.1181 43.0864 29.5886 43.0906 29.0523C43.1028 28.5211 42.9616 28.0152 42.6672 27.5348C42.3727 27.0543 41.9324 26.6315 41.3463 26.2662C40.768 25.9058 40.1944 25.6968 39.6255 25.6392C39.0645 25.5865 38.5482 25.6826 38.0766 25.9276C37.605 26.1726 37.2063 26.5565 36.8805 27.0792C36.5498 27.61 36.3783 28.141 36.3661 28.6722C36.3539 29.2035 36.4951 29.7094 36.7895 30.1898C37.0969 30.6673 37.5396 31.0862 38.1179 31.4465ZM47.3935 29.239L48.3503 30.0802L43.1459 35.9997L42.1891 35.1585L47.3935 29.239ZM52.4823 33.7131L53.4496 34.5636L48.2452 40.483L47.2779 39.6326L52.4823 33.7131ZM45.7019 32.2443L50.7066 36.6445L50.0133 37.4331L45.0086 33.0329L45.7019 32.2443ZM48.9248 41.2188L55.2067 36.4583L55.9762 37.4737L50.1629 41.8791L49.9227 41.4463L59.3246 41.8922L60.3309 43.22L54.0489 47.9806L53.2794 46.9652L59.1486 42.5175L59.386 42.9699L49.9141 42.5243L48.9248 41.2188ZM54.4226 48.6338L61.6861 45.573L62.4254 47.3275L57.1093 53.6393L56.8483 53.02L65.0731 53.6105L65.8125 55.365L58.549 58.4259L58.0761 57.3034L65.004 54.384L65.1726 54.7839L56.7332 54.1168L56.2385 52.9428L61.6422 46.4422L61.8107 46.8422L54.8956 49.7562L54.4226 48.6338ZM60.0785 66.6365L62.9678 65.8474L63.9797 66.0259L64.8572 65.5173L67.8429 65.2799L68.0694 66.5762L64.1315 66.8948L60.305 67.9329L60.0785 66.6365ZM64.0544 66.4535C63.2099 66.3926 62.4428 66.2045 61.7529 65.8892C61.0738 65.5815 60.5119 65.1585 60.0673 64.6203C59.6244 64.0914 59.3402 63.4683 59.2149 62.7512C59.0816 61.9881 59.1336 61.2826 59.371 60.6347C59.6175 59.9853 60.0145 59.4374 60.5619 58.9912C61.12 58.5526 61.799 58.2634 62.5989 58.1237C63.408 57.9823 64.1449 58.0241 64.8095 58.249C65.4757 58.4832 66.0304 58.8648 66.4734 59.3937C66.9163 59.9227 67.2045 60.5688 67.3378 61.3319C67.4631 62.049 67.4071 62.7315 67.1697 63.3794C66.934 64.0364 66.5497 64.6294 66.0167 65.1584C65.4838 65.6873 64.8297 66.119 64.0544 66.4535ZM62.8254 59.42C62.237 59.5228 61.7384 59.7331 61.3297 60.0509C60.9226 60.3778 60.6272 60.7753 60.4437 61.2432C60.271 61.7187 60.232 62.2276 60.3268 62.7701C60.4231 63.3217 60.6356 63.8057 60.9642 64.222C61.3035 64.646 61.7298 64.9978 62.243 65.2777C62.7577 65.5667 63.3294 65.7748 63.958 65.9018C64.5062 65.5692 64.9735 65.1796 65.3597 64.7331C65.7476 64.2958 66.0247 63.821 66.191 63.3088C66.3681 62.8041 66.4085 62.2759 66.3121 61.7243C66.2173 61.1818 66.0034 60.717 65.6705 60.3299C65.3484 59.9504 64.9404 59.6758 64.4465 59.5063C63.9542 59.346 63.4139 59.3172 62.8254 59.42ZM68.2732 68.882L68.2939 70.1558L60.413 70.284L60.3922 69.0102L68.2732 68.882ZM68.3834 75.6571L68.4043 76.9449L60.5234 77.0731L60.5024 75.7853L68.3834 75.6571ZM64.9112 69.6508L65.0196 76.3139L63.9698 76.331L63.8614 69.6679L64.9112 69.6508ZM60.4643 78.566L68.3121 79.3001L68.1934 80.5686L60.9311 79.8892L61.0465 79.4079L67.6771 86.0885L67.5219 87.7472L59.6742 87.0131L59.7928 85.7446L67.1248 86.4305L66.9942 86.9245L60.3118 80.1969L60.4643 78.566ZM58.5901 92.7852C58.7389 91.8922 59.0411 91.1288 59.4968 90.4951C59.9601 89.8721 60.5286 89.4133 61.2022 89.1187C61.8835 88.8348 62.6246 88.7596 63.4255 88.893C64.2357 89.028 64.9139 89.3303 65.4602 89.7998C66.0064 90.2693 66.3954 90.8592 66.6272 91.5696C66.8589 92.28 66.9042 93.0587 66.7631 93.9057C66.6235 94.7435 66.3174 95.4447 65.8448 96.0094C65.3723 96.5741 64.7716 96.9708 64.0427 97.1994C63.3216 97.4388 62.5191 97.4849 61.6353 97.3376L62.8916 89.7976L63.8997 89.9655L62.7331 96.967L62.4017 96.1454C62.9863 96.2144 63.511 96.1599 63.9759 95.9819C64.4408 95.8039 64.8237 95.5223 65.1244 95.1372C65.4251 94.752 65.6223 94.2786 65.7158 93.717C65.8171 93.1094 65.781 92.5593 65.6076 92.0668C65.4434 91.5758 65.1618 91.1646 64.7628 90.8332C64.3623 90.511 63.8629 90.3 63.2645 90.2003C62.6384 90.096 62.0715 90.1482 61.5636 90.3569C61.0557 90.5656 60.6346 90.907 60.3001 91.3812C59.9656 91.8553 59.7401 92.4422 59.6235 93.1419C59.5177 93.7772 59.52 94.4163 59.6305 95.0592C59.7395 95.7113 59.9374 96.312 60.2244 96.8613L59.2301 96.6956C58.9232 96.1524 58.7099 95.5303 58.5902 94.829C58.4797 94.1294 58.4796 93.4481 58.5901 92.7852ZM57.8489 98.0726L65.5532 99.7371L65.1511 101.598L57.1745 103.713L57.3164 103.057L63.7112 108.262L63.3091 110.123L55.6049 108.459L55.8621 107.268L63.2106 108.856L63.1189 109.28L56.5924 103.888L56.8614 102.643L65.0181 100.424L64.9265 100.848L57.5917 99.2631L57.8489 98.0726ZM54.2961 114.23L61.9832 115.973L61.7016 117.215L54.588 115.603L54.7645 115.14L60.4762 122.622L60.108 124.247L52.421 122.505L52.7025 121.262L59.8844 122.89L59.6911 123.363L53.9341 115.828L54.2961 114.23ZM50.1241 132.972C50.309 131.971 50.6696 131.15 51.2058 130.509C51.7511 129.87 52.4449 129.429 53.2871 129.186C54.1276 128.952 55.0848 128.934 56.1586 129.133C57.7739 129.431 58.9695 130.075 59.7454 131.063C60.5288 132.062 60.8402 133.33 60.6795 134.866C60.6226 135.482 60.576 135.991 60.5397 136.392C60.5018 136.803 60.4774 137.14 60.4666 137.404C60.465 137.669 60.471 137.893 60.4846 138.076C60.4966 138.268 60.5186 138.458 60.5506 138.644L59.3942 138.43C59.3513 138.251 59.3286 138.014 59.3262 137.72C59.3237 137.425 59.3411 137.049 59.3784 136.59C59.4231 136.143 59.4865 135.595 59.5686 134.946C59.7293 133.666 59.5037 132.627 58.8916 131.831C58.2796 131.034 57.3036 130.512 55.9636 130.264L55.4543 130.17L55.5297 130.07C56.0672 130.397 56.5022 130.791 56.8347 131.251C57.1656 131.72 57.3874 132.241 57.5 132.812C57.611 133.392 57.6071 134.004 57.4883 134.646C57.3407 135.445 57.0557 136.114 56.6333 136.652C56.2202 137.193 55.7077 137.578 55.096 137.806C54.4825 138.044 53.8133 138.096 53.0882 137.962C52.3265 137.821 51.6987 137.52 51.2051 137.058C50.7114 136.597 50.368 136.016 50.1747 135.316C49.9814 134.616 49.9646 133.834 50.1241 132.972ZM51.179 133.195C51.067 133.801 51.0804 134.344 51.2192 134.826C51.3564 135.316 51.6048 135.718 51.9645 136.031C52.3225 136.354 52.7676 136.564 53.2999 136.663C53.8414 136.763 54.3324 136.725 54.7729 136.55C55.2208 136.387 55.5965 136.1 55.8999 135.691C56.2016 135.291 56.4085 134.788 56.5205 134.183C56.6698 133.375 56.5802 132.628 56.2517 131.94C55.9214 131.262 55.3751 130.701 54.6125 130.256C53.7084 130.27 52.9525 130.533 52.3449 131.047C51.7356 131.571 51.347 132.287 51.179 133.195ZM48.6057 143.443C48.7023 142.543 48.9596 141.763 49.3777 141.104C49.804 140.455 50.3448 139.964 51.0001 139.63C51.6637 139.307 52.3992 139.189 53.2066 139.276C54.0232 139.363 54.7179 139.626 55.2905 140.063C55.8632 140.5 56.2858 141.066 56.5585 141.762C56.8311 142.457 56.9217 143.232 56.83 144.086C56.7394 144.93 56.4747 145.648 56.0357 146.239C55.5968 146.831 55.0202 147.262 54.3059 147.532C53.5999 147.813 52.8015 147.906 51.9106 147.81L52.7262 140.21L53.7423 140.319L52.985 147.376L52.6063 146.575C53.1939 146.61 53.7146 146.525 54.1684 146.321C54.6222 146.116 54.988 145.813 55.2658 145.411C55.5436 145.009 55.7129 144.525 55.7736 143.958C55.8393 143.346 55.7713 142.799 55.5695 142.317C55.3771 141.837 55.072 141.443 54.6545 141.135C54.2359 140.837 53.725 140.655 53.1218 140.59C52.4908 140.523 51.9278 140.608 51.433 140.846C50.9381 141.083 50.5375 141.449 50.2312 141.942C49.9248 142.434 49.7338 143.033 49.6581 143.739C49.5894 144.379 49.6289 145.017 49.7767 145.652C49.9234 146.297 50.156 146.885 50.4744 147.417L49.4721 147.309C49.1341 146.785 48.885 146.176 48.7247 145.483C48.5737 144.791 48.534 144.111 48.6057 143.443ZM48.1557 153.118C48.1445 152.334 48.2419 151.637 48.4479 151.028C48.6633 150.427 48.9738 149.951 49.3795 149.6C49.7852 149.249 50.2678 149.051 50.8272 149.005L50.8452 150.265C50.305 150.348 49.8937 150.634 49.6113 151.123C49.3384 151.622 49.2079 152.282 49.2196 153.103C49.2311 153.905 49.352 154.529 49.5824 154.974C49.8223 155.428 50.1848 155.651 50.6701 155.644C51.0714 155.639 51.3627 155.448 51.544 155.072C51.7348 154.705 51.8244 154.12 51.813 153.318L51.7895 151.68L52.7554 151.666L52.7783 153.262C52.7885 153.981 52.9175 154.511 53.1651 154.853C53.4128 155.204 53.7093 155.377 54.0546 155.372C54.4839 155.366 54.8074 155.147 55.0253 154.714C55.2526 154.291 55.3613 153.738 55.3516 153.057C55.3409 152.311 55.2015 151.701 54.9334 151.229C54.6746 150.757 54.288 150.482 53.7735 150.405L53.7555 149.146C54.2509 149.195 54.6969 149.38 55.0936 149.701C55.4902 150.022 55.8046 150.47 56.0369 151.045C56.2691 151.621 56.3909 152.305 56.4023 153.098C56.4127 153.826 56.3237 154.457 56.1354 154.992C55.9563 155.527 55.7009 155.941 55.3691 156.235C55.0372 156.529 54.6567 156.679 54.2274 156.686C53.8634 156.691 53.5305 156.584 53.2287 156.364C52.927 156.154 52.6843 155.826 52.5005 155.38C52.3169 154.944 52.2203 154.385 52.2105 153.704L52.4485 153.701C52.4911 154.718 52.3531 155.513 52.0346 156.087C51.7162 156.67 51.2491 156.966 50.6332 156.975C50.1572 156.982 49.735 156.834 49.3667 156.531C48.9984 156.238 48.7075 155.803 48.4939 155.228C48.2804 154.652 48.1676 153.949 48.1557 153.118ZM50.6863 168.056C50.3901 167.181 50.2918 166.352 50.3914 165.569C50.4941 164.795 50.7787 164.122 51.2454 163.551C51.712 162.979 52.3299 162.563 53.099 162.302C53.877 162.039 54.6205 161.994 55.3297 162.168C56.0389 162.342 56.6692 162.705 57.2208 163.257C57.7753 163.818 58.2007 164.537 58.497 165.412C58.7962 166.296 58.8945 167.125 58.7919 167.899C58.6892 168.672 58.409 169.344 57.9512 169.912C57.4964 170.49 56.88 170.911 56.1021 171.174C55.3329 171.434 54.5879 171.475 53.8669 171.295C53.1489 171.124 52.5141 170.763 51.9626 170.21C51.411 169.658 50.9856 168.94 50.6863 168.056ZM51.7074 167.71C51.9289 168.364 52.2353 168.891 52.6268 169.291C53.0271 169.687 53.4872 169.941 54.0072 170.05C54.5302 170.169 55.0878 170.128 55.6801 169.927C56.2636 169.73 56.727 169.425 57.0704 169.013C57.4168 168.61 57.6286 168.13 57.7057 167.572C57.7828 167.013 57.7106 166.407 57.4891 165.753C57.2707 165.108 56.9598 164.582 56.5565 164.177C56.1562 163.78 55.6961 163.527 55.1761 163.417C54.6561 163.308 54.1044 163.351 53.5209 163.549C52.9286 163.749 52.4593 164.051 52.1129 164.454C51.7665 164.857 51.5547 165.338 51.4776 165.896C51.4124 166.46 51.489 167.065 51.7074 167.71ZM61.332 180.144C60.7695 180.436 60.1747 180.56 59.5476 180.515C58.9261 180.478 58.3198 180.291 57.7288 179.951C57.1378 179.612 56.6161 179.14 56.1638 178.534C55.6389 177.831 55.3138 177.107 55.1884 176.362C55.0706 175.611 55.1439 174.898 55.4086 174.223C55.6863 173.55 56.1505 172.97 56.8011 172.485C57.4517 171.999 58.1355 171.721 58.8525 171.652C59.5825 171.584 60.2869 171.716 60.9656 172.048C61.6444 172.38 62.2462 172.898 62.7711 173.601C63.2234 174.206 63.5282 174.841 63.6855 175.504C63.8502 176.161 63.8619 176.793 63.7206 177.399C63.5849 178.013 63.2935 178.551 62.8464 179.013L62.0507 177.947C62.4904 177.444 62.6923 176.857 62.6564 176.185C62.6336 175.515 62.3876 174.865 61.9186 174.237C61.5389 173.729 61.1056 173.359 60.6189 173.128C60.1378 172.905 59.6358 172.826 59.113 172.89C58.5977 172.949 58.0895 173.165 57.5885 173.539C57.0874 173.913 56.7318 174.342 56.5217 174.825C56.3116 175.308 56.2452 175.812 56.3225 176.336C56.4128 176.863 56.6479 177.381 57.0276 177.889C57.5022 178.525 58.0576 178.949 58.6937 179.161C59.3353 179.381 59.9495 179.353 60.5363 179.078L61.332 180.144ZM60.736 186.663C60.4121 186.426 60.1523 186.172 59.9567 185.902C59.7612 185.632 59.5969 185.327 59.464 184.987L60.0672 184.162C60.2002 184.502 60.3559 184.795 60.5343 185.041C60.7128 185.287 60.9527 185.521 61.2541 185.741C61.578 185.978 61.9119 186.106 62.2556 186.126C62.5939 186.154 62.9633 186.06 63.3639 185.844L71.3571 181.578L72.4646 182.387L63.8853 186.815C63.4902 187.023 63.109 187.149 62.7418 187.193C62.3766 187.25 62.0263 187.231 61.691 187.136C61.3633 187.046 61.0449 186.889 60.736 186.663ZM63.418 185.225L64.9042 176.859L66.0456 177.694L64.469 185.993L63.418 185.225ZM69.1317 189.489L73.9999 186.138L74.4281 187.344L70.5649 190.052L69.1317 189.489ZM81.561 194.377L80.5906 189.768L81.7128 189.171L82.9942 194.941L81.561 194.377ZM77.1029 191.33L76.8024 191.061L84.2374 186.96L85.6315 187.508L76.532 192.399L75.6069 192.035L72.2641 182.251L73.6582 182.799L76.3203 190.872L75.9173 190.864L78.3615 184.649L79.5471 185.115L77.1029 191.33ZM94.6465 196.392L94.0121 199.42L92.8885 199.185L93.3076 197.184L85.0861 195.462L84.6669 197.463L83.557 197.23L84.1914 194.202L85.8769 194.555L86.244 194.646L92.2868 195.912L92.6596 195.976L94.6465 196.392ZM87.3736 187.888L94.5949 189.401L93.0562 196.746L91.7956 196.481L93.2424 189.575L93.711 190.274L87.8326 189.043L88.4531 188.744C88.4127 189.164 88.3595 189.578 88.2936 189.983C88.2296 190.38 88.1612 190.752 88.0885 191.099C87.8014 192.469 87.4102 193.517 86.9148 194.243C86.4305 194.962 85.9052 195.262 85.3388 195.143L84.9129 194.582C85.8008 194.167 86.4782 192.845 86.9451 190.616C87.0351 190.187 87.1142 189.741 87.1825 189.279C87.2618 188.809 87.3255 188.345 87.3736 187.888ZM100.085 198.332C99.187 198.22 98.4118 197.95 97.7598 197.52C97.1182 197.083 96.6363 196.534 96.3141 195.873C96.0024 195.204 95.8966 194.467 95.9969 193.661C96.0984 192.846 96.3724 192.156 96.8189 191.591C97.2655 191.026 97.8389 190.613 98.5391 190.352C99.2394 190.091 100.016 190.014 100.868 190.12C101.71 190.224 102.424 190.501 103.007 190.95C103.591 191.399 104.012 191.983 104.271 192.702C104.54 193.412 104.619 194.212 104.508 195.101L96.9227 194.157L97.049 193.143L104.093 194.02L103.285 194.385C103.33 193.798 103.254 193.276 103.057 192.819C102.86 192.361 102.563 191.991 102.166 191.706C101.768 191.421 101.287 191.244 100.722 191.174C100.111 191.098 99.5629 191.156 99.078 191.35C98.5941 191.534 98.1949 191.833 97.8803 192.245C97.5749 192.658 97.3847 193.166 97.3098 193.768C97.2314 194.398 97.3069 194.962 97.5364 195.461C97.7659 195.96 98.1244 196.367 98.6119 196.681C99.0995 196.996 99.6952 197.197 100.399 197.285C101.038 197.364 101.677 197.335 102.314 197.198C102.961 197.063 103.553 196.84 104.09 196.531L103.966 197.531C103.436 197.86 102.823 198.099 102.127 198.247C101.433 198.387 100.752 198.415 100.085 198.332ZM106.469 190.94L107.741 191.018L107.255 198.885L105.983 198.807L106.469 190.94ZM113.232 191.358L114.518 191.437L114.032 199.304L112.746 199.225L113.232 191.358ZM106.974 194.351L113.625 194.762L113.56 195.81L106.909 195.399L106.974 194.351ZM116.614 199.338L116.341 191.461L117.614 191.416L117.867 198.706L117.375 198.653L123.155 191.224L124.82 191.166L125.093 199.043L123.82 199.088L123.565 191.728L124.071 191.795L118.251 199.281L116.614 199.338ZM132.653 190.456L133.209 191.264L129.83 193.59L129.803 193.575C129.341 193.892 128.882 194.089 128.425 194.166C127.976 194.237 127.554 194.193 127.161 194.033C126.762 193.866 126.428 193.586 126.158 193.194C125.894 192.81 125.757 192.405 125.748 191.981C125.734 191.549 125.84 191.135 126.067 190.741C126.297 190.334 126.642 189.971 127.103 189.654L131.232 186.812L135.701 193.304L134.64 194.034L130.401 187.877L131.138 188.083L127.829 190.361C127.398 190.658 127.131 190.994 127.028 191.371C126.925 191.748 126.995 192.114 127.239 192.467C127.477 192.813 127.793 193.009 128.187 193.055C128.581 193.101 128.994 192.976 129.424 192.679L132.653 190.456ZM130.919 192.109L130.443 196.924L129.163 197.805L129.673 192.967L130.919 192.109ZM143.799 179.979L147.37 187.006L146.222 187.589L142.854 180.962L143.645 181.22L137.741 184.219L138.011 183.423L141.379 190.05L140.231 190.633L136.66 183.607L143.799 179.979ZM152.865 184.807C152.014 185.168 151.195 185.328 150.407 185.288C149.628 185.243 148.936 185.01 148.33 184.588C147.725 184.165 147.264 183.581 146.946 182.833C146.625 182.077 146.525 181.339 146.645 180.619C146.765 179.899 147.079 179.243 147.589 178.651C148.107 178.056 148.791 177.578 149.641 177.217C150.5 176.852 151.319 176.692 152.099 176.736C152.878 176.78 153.568 177.009 154.17 177.423C154.78 177.833 155.246 178.416 155.567 179.172C155.884 179.919 155.981 180.659 155.856 181.392C155.739 182.12 155.427 182.781 154.917 183.372C154.408 183.964 153.724 184.442 152.865 184.807ZM152.443 183.814C153.079 183.544 153.581 183.199 153.95 182.779C154.316 182.35 154.534 181.872 154.604 181.345C154.683 180.815 154.6 180.262 154.356 179.686C154.115 179.119 153.776 178.68 153.34 178.369C152.912 178.053 152.417 177.878 151.854 177.844C151.292 177.809 150.693 177.926 150.057 178.196C149.43 178.462 148.929 178.812 148.555 179.245C148.19 179.674 147.972 180.151 147.902 180.678C147.832 181.205 147.917 181.752 148.158 182.319C148.402 182.894 148.738 183.34 149.166 183.655C149.594 183.97 150.089 184.145 150.652 184.18C151.219 184.203 151.816 184.081 152.443 183.814ZM158.314 182.354L155.683 174.924L157.478 174.288L163.468 179.964L162.834 180.189L163.905 172.013L165.7 171.377L168.33 178.807L167.182 179.214L164.673 172.127L165.082 171.982L163.922 180.368L162.722 180.793L156.548 175.018L156.957 174.874L159.462 181.947L158.314 182.354ZM174.166 177.186C173.281 177.454 172.45 177.525 171.671 177.4C170.901 177.272 170.238 176.966 169.681 176.481C169.125 175.996 168.729 175.365 168.494 174.588C168.256 173.802 168.236 173.057 168.432 172.354C168.629 171.651 169.012 171.033 169.582 170.499C170.161 169.963 170.893 169.561 171.777 169.294C172.671 169.023 173.502 168.952 174.272 169.08C175.042 169.208 175.704 169.51 176.258 169.986C176.82 170.459 177.221 171.089 177.459 171.875C177.694 172.652 177.71 173.398 177.507 174.113C177.313 174.825 176.931 175.448 176.361 175.981C175.791 176.514 175.059 176.916 174.166 177.186ZM173.854 176.155C174.515 175.955 175.051 175.665 175.463 175.287C175.873 174.9 176.141 174.448 176.267 173.932C176.403 173.413 176.38 172.855 176.199 172.256C176.021 171.667 175.731 171.193 175.331 170.837C174.939 170.477 174.466 170.25 173.91 170.155C173.355 170.06 172.747 170.112 172.086 170.312C171.433 170.51 170.898 170.803 170.48 171.193C170.07 171.58 169.802 172.032 169.676 172.548C169.549 173.064 169.575 173.617 169.754 174.207C169.935 174.805 170.221 175.284 170.613 175.643C171.004 176.003 171.478 176.23 172.033 176.325C172.595 176.409 173.201 176.352 173.854 176.155ZM178.6 175.651L180.592 170.087L181.644 170.816L180.092 175.271L178.6 175.651ZM191.542 172.354L188.061 169.181L188.623 168.041L193.035 171.974L191.542 172.354ZM186.144 172.487L185.743 172.445L189.38 164.772L190.831 164.402L186.305 173.688L185.342 173.934L176.912 167.947L178.363 167.577L185.241 172.572L184.909 172.801L183.261 166.33L184.496 166.016L186.144 172.487ZM197.662 171.176C196.777 171.367 195.956 171.368 195.199 171.178C194.449 170.978 193.813 170.619 193.291 170.101C192.775 169.573 192.432 168.912 192.261 168.118C192.087 167.315 192.118 166.573 192.352 165.892C192.587 165.212 192.992 164.632 193.567 164.155C194.142 163.677 194.849 163.348 195.688 163.166C196.518 162.987 197.283 163.013 197.982 163.244C198.681 163.474 199.272 163.886 199.753 164.479C200.242 165.061 200.581 165.79 200.77 166.666L193.298 168.281L193.082 167.282L200.02 165.782L199.379 166.394C199.227 165.825 198.983 165.357 198.646 164.991C198.309 164.624 197.906 164.372 197.437 164.235C196.968 164.098 196.455 164.089 195.899 164.209C195.297 164.339 194.799 164.576 194.405 164.919C194.009 165.253 193.731 165.666 193.57 166.159C193.419 166.65 193.407 167.192 193.535 167.785C193.669 168.406 193.927 168.913 194.308 169.308C194.69 169.703 195.162 169.969 195.726 170.105C196.291 170.241 196.919 170.234 197.613 170.084C198.242 169.948 198.835 169.71 199.392 169.37C199.958 169.028 200.443 168.622 200.848 168.153L201.061 169.138C200.669 169.624 200.169 170.052 199.562 170.422C198.952 170.783 198.319 171.034 197.662 171.176ZM202.937 169.88L201.507 162.129L203.379 161.783L208.403 168.331L207.742 168.452L210.084 160.546L211.957 160.201L213.387 167.952L212.189 168.173L210.825 160.78L211.252 160.701L208.789 168.8L207.536 169.032L202.347 162.358L202.773 162.28L204.135 169.659L202.937 169.88ZM217.939 159.217L219.213 159.028L219.651 161.977L219.619 162.237L219.806 163.497L219.935 163.888L220.712 169.109L219.438 169.298L217.939 159.217ZM219.196 163.007C219.278 162.165 219.482 161.408 219.806 160.737C220.14 160.064 220.578 159.513 221.118 159.084C221.667 158.653 222.301 158.384 223.022 158.277C223.788 158.163 224.492 158.233 225.133 158.487C225.775 158.74 226.307 159.147 226.73 159.707C227.162 160.266 227.439 160.951 227.56 161.763C227.679 162.567 227.614 163.303 227.365 163.972C227.123 164.631 226.733 165.18 226.194 165.618C225.654 166.048 225.001 166.319 224.235 166.433C223.515 166.54 222.829 166.468 222.178 166.216C221.537 165.962 220.958 165.562 220.443 165.016C219.935 164.459 219.52 163.79 219.196 163.007ZM226.258 161.957C226.17 161.366 225.968 160.863 225.652 160.448C225.344 160.031 224.955 159.73 224.484 159.546C224.021 159.35 223.517 159.293 222.972 159.374C222.419 159.457 221.925 159.662 221.493 159.991C221.069 160.309 220.71 160.72 220.417 161.226C220.124 161.732 219.902 162.298 219.75 162.925C220.078 163.48 220.455 163.957 220.883 164.356C221.31 164.755 221.774 165.049 222.274 165.239C222.782 165.418 223.312 165.467 223.866 165.384C224.411 165.303 224.877 165.106 225.265 164.794C225.66 164.471 225.944 164.065 226.117 163.577C226.299 163.088 226.346 162.548 226.258 161.957ZM237.071 164.534L236.421 161.611L236.648 160.609L236.182 159.708L236.088 156.714L237.394 156.55L237.523 160.499L238.376 164.37L237.071 164.534ZM237.078 160.554C236.977 161.395 236.752 162.152 236.404 162.826C236.064 163.49 235.615 164.031 235.056 164.449C234.507 164.866 233.871 165.12 233.148 165.211C232.38 165.307 231.677 165.222 231.042 164.953C230.405 164.676 229.877 164.253 229.457 163.685C229.046 163.106 228.79 162.414 228.688 161.609C228.586 160.794 228.663 160.06 228.92 159.407C229.185 158.752 229.593 158.217 230.143 157.8C230.692 157.383 231.352 157.126 232.12 157.029C232.843 156.938 233.522 157.027 234.157 157.295C234.802 157.562 235.376 157.975 235.879 158.532C236.382 159.09 236.782 159.764 237.078 160.554ZM229.994 161.445C230.069 162.037 230.255 162.545 230.552 162.969C230.86 163.391 231.242 163.705 231.701 163.911C232.168 164.106 232.674 164.17 233.22 164.101C233.776 164.031 234.27 163.842 234.701 163.534C235.141 163.215 235.513 162.807 235.817 162.307C236.131 161.807 236.366 161.246 236.523 160.624C236.217 160.061 235.85 159.575 235.423 159.168C235.004 158.76 234.544 158.46 234.04 158.269C233.544 158.068 233.019 158.003 232.463 158.072C231.917 158.141 231.442 158.332 231.039 158.646C230.645 158.95 230.351 159.344 230.158 159.83C229.974 160.314 229.92 160.852 229.994 161.445ZM243.648 163.976C242.869 164.059 242.166 164.026 241.54 163.877C240.922 163.718 240.42 163.452 240.033 163.08C239.646 162.708 239.405 162.246 239.308 161.693L240.561 161.56C240.693 162.09 241.015 162.473 241.528 162.71C242.05 162.936 242.719 163.005 243.536 162.918C244.334 162.833 244.944 162.656 245.366 162.386C245.796 162.105 245.985 161.724 245.934 161.241C245.891 160.842 245.674 160.57 245.283 160.423C244.901 160.267 244.31 160.231 243.512 160.316L241.883 160.49L241.781 159.529L243.368 159.36C244.083 159.284 244.599 159.107 244.917 158.829C245.244 158.55 245.389 158.239 245.352 157.896C245.307 157.469 245.059 157.167 244.608 156.99C244.166 156.802 243.606 156.744 242.928 156.816C242.186 156.895 241.592 157.09 241.146 157.4C240.699 157.701 240.462 158.112 240.432 158.631L239.179 158.764C239.183 158.266 239.326 157.805 239.609 157.381C239.893 156.957 240.31 156.602 240.862 156.318C241.414 156.034 242.084 155.85 242.873 155.766C243.597 155.689 244.234 155.72 244.783 155.859C245.332 155.988 245.768 156.204 246.091 156.508C246.415 156.811 246.599 157.177 246.645 157.603C246.683 157.965 246.607 158.307 246.416 158.627C246.234 158.947 245.929 159.219 245.503 159.443C245.085 159.665 244.538 159.813 243.86 159.885L243.835 159.648C244.844 159.513 245.649 159.577 246.249 159.842C246.859 160.105 247.197 160.544 247.262 161.156C247.312 161.629 247.204 162.063 246.936 162.458C246.678 162.851 246.271 163.181 245.718 163.446C245.164 163.712 244.474 163.889 243.648 163.976ZM253.226 163.055C252.305 163.136 251.477 163.035 250.74 162.753C250.012 162.47 249.426 162.034 248.981 161.445C248.536 160.856 248.278 160.157 248.207 159.348C248.136 158.53 248.268 157.797 248.605 157.149C248.942 156.501 249.444 155.975 250.111 155.57C250.788 155.164 251.586 154.921 252.507 154.84C253.437 154.759 254.265 154.86 254.993 155.143C255.72 155.426 256.306 155.857 256.75 156.437C257.204 157.015 257.466 157.714 257.538 158.532C257.609 159.341 257.471 160.074 257.126 160.732C256.79 161.389 256.288 161.92 255.621 162.325C254.954 162.73 254.155 162.974 253.226 163.055ZM253.132 161.981C253.82 161.921 254.404 161.748 254.885 161.462C255.365 161.167 255.72 160.78 255.95 160.301C256.189 159.821 256.281 159.27 256.227 158.647C256.173 158.033 255.987 157.511 255.668 157.079C255.359 156.647 254.942 156.328 254.418 156.121C253.894 155.914 253.288 155.84 252.6 155.9C251.921 155.96 251.337 156.137 250.847 156.433C250.367 156.728 250.012 157.115 249.783 157.594C249.553 158.074 249.465 158.62 249.518 159.234C249.573 159.857 249.755 160.384 250.064 160.816C250.374 161.248 250.791 161.568 251.315 161.775C251.847 161.972 252.453 162.041 253.132 161.981ZM263.924 162.226C262.909 162.295 262.024 162.15 261.27 161.789C260.515 161.42 259.915 160.857 259.471 160.102C259.036 159.345 258.781 158.423 258.707 157.333C258.596 155.694 258.923 154.376 259.687 153.379C260.461 152.373 261.612 151.756 263.14 151.531C263.751 151.433 264.255 151.352 264.653 151.288C265.06 151.223 265.393 151.162 265.651 151.107C265.908 151.043 266.124 150.982 266.298 150.923C266.481 150.864 266.659 150.796 266.831 150.718L266.911 151.892C266.748 151.978 266.525 152.058 266.24 152.134C265.955 152.209 265.586 152.286 265.133 152.364C264.688 152.431 264.142 152.506 263.492 152.587C262.212 152.749 261.262 153.226 260.643 154.016C260.023 154.807 259.759 155.882 259.852 157.241L259.887 157.758L259.771 157.71C259.955 157.108 260.228 156.589 260.592 156.153C260.964 155.716 261.413 155.372 261.939 155.121C262.473 154.869 263.067 154.721 263.719 154.677C264.529 154.622 265.247 154.732 265.874 155.007C266.5 155.273 267 155.674 267.373 156.21C267.756 156.746 267.972 157.381 268.022 158.117C268.075 158.89 267.939 159.572 267.614 160.165C267.29 160.758 266.812 161.235 266.182 161.596C265.552 161.957 264.799 162.167 263.924 162.226ZM263.878 161.149C264.493 161.107 265.016 160.959 265.448 160.705C265.889 160.451 266.217 160.111 266.431 159.684C266.654 159.258 266.748 158.774 266.711 158.234C266.674 157.685 266.516 157.218 266.237 156.835C265.967 156.442 265.596 156.149 265.125 155.956C264.663 155.763 264.124 155.688 263.51 155.729C262.69 155.785 261.988 156.057 261.404 156.546C260.829 157.034 260.421 157.703 260.179 158.552C260.417 159.425 260.86 160.091 261.508 160.552C262.166 161.013 262.956 161.212 263.878 161.149ZM269.433 153.79L270.72 153.727L270.864 156.706L270.806 156.961L270.868 158.234L270.958 158.636L271.214 163.907L269.927 163.97L269.433 153.79ZM270.309 157.686C270.474 156.856 270.752 156.123 271.141 155.487C271.54 154.851 272.03 154.346 272.61 153.972C273.199 153.598 273.857 153.393 274.584 153.358C275.358 153.32 276.051 153.459 276.665 153.775C277.278 154.091 277.768 154.549 278.133 155.148C278.508 155.746 278.715 156.456 278.755 157.276C278.794 158.087 278.657 158.813 278.342 159.455C278.036 160.086 277.594 160.594 277.014 160.977C276.434 161.351 275.758 161.556 274.984 161.594C274.257 161.629 273.582 161.489 272.959 161.174C272.346 160.858 271.81 160.402 271.351 159.808C270.901 159.204 270.554 158.496 270.309 157.686ZM277.441 157.34C277.412 156.743 277.26 156.223 276.986 155.778C276.722 155.333 276.364 154.995 275.914 154.765C275.472 154.525 274.977 154.418 274.427 154.445C273.867 154.472 273.356 154.627 272.893 154.911C272.44 155.186 272.042 155.56 271.701 156.035C271.359 156.509 271.082 157.05 270.868 157.659C271.14 158.244 271.468 158.756 271.854 159.195C272.24 159.634 272.672 159.973 273.151 160.211C273.638 160.44 274.162 160.541 274.721 160.513C275.271 160.487 275.754 160.337 276.171 160.065C276.597 159.782 276.919 159.407 277.14 158.938C277.369 158.469 277.469 157.937 277.441 157.34ZM287.955 160.959L287.592 157.986L287.915 157.011L287.539 156.069L287.737 153.08L289.052 153.044L288.797 156.986L289.27 160.923L287.955 160.959ZM288.349 156.999C288.167 157.826 287.869 158.557 287.458 159.194C287.055 159.822 286.555 160.316 285.958 160.678C285.37 161.04 284.713 161.231 283.985 161.251C283.211 161.273 282.52 161.119 281.914 160.79C281.307 160.452 280.822 159.98 280.46 159.374C280.107 158.758 279.919 158.044 279.896 157.233C279.874 156.412 280.022 155.689 280.341 155.064C280.669 154.438 281.127 153.945 281.714 153.583C282.302 153.221 282.983 153.03 283.757 153.008C284.485 152.988 285.152 153.142 285.759 153.471C286.375 153.8 286.906 154.266 287.352 154.87C287.798 155.473 288.131 156.183 288.349 156.999ZM281.212 157.196C281.228 157.793 281.364 158.317 281.619 158.768C281.884 159.218 282.235 159.568 282.671 159.817C283.116 160.057 283.614 160.169 284.165 160.154C284.725 160.138 285.234 159.998 285.694 159.733C286.162 159.459 286.572 159.088 286.923 158.621C287.284 158.153 287.573 157.618 287.789 157.014C287.54 156.424 287.222 155.905 286.836 155.458C286.459 155.011 286.03 154.668 285.547 154.429C285.073 154.181 284.557 154.065 283.997 154.08C283.446 154.095 282.955 154.24 282.524 154.513C282.102 154.777 281.771 155.141 281.532 155.605C281.302 156.069 281.195 156.599 281.212 157.196ZM293.58 153.423L294.868 153.412L294.931 160.859L293.643 160.87L293.58 153.423ZM290.161 153.017L298.281 152.949L298.289 153.999L290.17 154.067L290.161 153.017ZM299.497 160.836L299.542 152.954L300.83 152.961L300.787 160.437L300.273 159.818L303.955 159.839C304.515 159.842 304.959 159.705 305.287 159.427C305.615 159.139 305.781 158.753 305.784 158.268C305.787 157.773 305.625 157.385 305.3 157.103C304.975 156.812 304.533 156.664 303.973 156.661L300.389 156.641L300.395 155.647L304.091 155.668C304.697 155.671 305.224 155.782 305.671 155.999C306.127 156.216 306.48 156.521 306.729 156.915C306.979 157.308 307.103 157.762 307.1 158.275C307.097 158.798 306.968 159.254 306.714 159.645C306.46 160.035 306.103 160.337 305.645 160.549C305.195 160.761 304.667 160.865 304.061 160.862L299.497 160.836ZM316.827 158.1C316.71 158.723 316.441 159.267 316.019 159.734C315.607 160.201 315.085 160.562 314.454 160.818C313.823 161.075 313.129 161.194 312.373 161.177C311.496 161.157 310.726 160.966 310.062 160.606C309.398 160.236 308.882 159.739 308.513 159.114C308.154 158.48 307.984 157.758 308.003 156.946C308.021 156.134 308.224 155.425 308.612 154.817C309.009 154.201 309.547 153.728 310.227 153.398C310.906 153.068 311.685 152.913 312.562 152.933C313.318 152.95 314.005 153.101 314.624 153.386C315.243 153.662 315.748 154.042 316.138 154.527C316.538 155.012 316.782 155.574 316.87 156.21L315.54 156.18C315.415 155.524 315.077 155.002 314.526 154.616C313.984 154.221 313.321 154.015 312.537 153.997C311.903 153.982 311.345 154.096 310.863 154.337C310.391 154.578 310.019 154.924 309.747 155.375C309.476 155.817 309.333 156.351 309.318 156.976C309.304 157.601 309.422 158.145 309.673 158.608C309.924 159.072 310.28 159.435 310.741 159.697C311.211 159.951 311.763 160.085 312.398 160.099C313.191 160.117 313.867 159.941 314.426 159.571C314.995 159.202 315.352 158.701 315.497 158.069L316.827 158.1ZM324.845 157.342L324.805 158.322L320.707 158.153L320.694 158.125C320.134 158.102 319.649 157.983 319.237 157.77C318.835 157.558 318.524 157.269 318.306 156.905C318.088 156.532 317.988 156.108 318.008 155.632C318.027 155.166 318.16 154.76 318.408 154.415C318.656 154.061 318.99 153.795 319.408 153.616C319.836 153.428 320.33 153.346 320.889 153.369L325.897 153.575L325.573 161.45L324.286 161.397L324.593 153.927L325.059 154.535L321.044 154.37C320.522 154.348 320.107 154.457 319.798 154.697C319.489 154.936 319.326 155.271 319.308 155.7C319.291 156.119 319.426 156.466 319.714 156.739C320.001 157.012 320.406 157.16 320.929 157.181L324.845 157.342ZM322.466 157.623L319.195 161.188L317.642 161.124L320.955 157.561L322.466 157.623ZM331.207 161.78L331.847 157.868L331.761 153.918L337.095 154.293C337.859 154.347 338.438 154.566 338.832 154.949C339.236 155.324 339.415 155.827 339.371 156.461C339.33 157.038 339.084 157.484 338.631 157.798C338.189 158.104 337.593 158.258 336.844 158.262L336.988 158.005C337.882 158.077 338.553 158.307 339.003 158.694C339.454 159.072 339.656 159.582 339.611 160.225C339.564 160.895 339.285 161.404 338.774 161.752C338.273 162.091 337.594 162.23 336.737 162.17L331.207 161.78ZM332.49 161.492L332.044 160.857L336.597 161.177C337.146 161.216 337.559 161.137 337.834 160.942C338.119 160.747 338.276 160.449 338.304 160.048C338.333 159.639 338.193 159.306 337.883 159.05C337.583 158.795 337.093 158.644 336.414 158.596L332.531 158.323L332.596 157.401L336.395 157.668C336.907 157.705 337.301 157.615 337.578 157.401C337.865 157.187 338.021 156.889 338.048 156.508C338.074 156.145 337.973 155.852 337.745 155.63C337.527 155.4 337.172 155.267 336.678 155.232L332.475 154.936L332.991 154.383L333.09 157.955L332.49 161.492ZM344.589 162.805L345.354 158.914L345.393 154.964L350.713 155.51C351.475 155.588 352.046 155.825 352.428 156.22C352.82 156.608 352.983 157.117 352.918 157.748C352.859 158.324 352.599 158.762 352.136 159.061C351.684 159.353 351.084 159.488 350.335 159.468L350.488 159.216C351.378 159.317 352.042 159.568 352.479 159.969C352.918 160.361 353.104 160.878 353.038 161.518C352.97 162.187 352.674 162.687 352.152 163.018C351.641 163.341 350.958 163.458 350.104 163.37L344.589 162.805ZM345.881 162.557L345.455 161.908L349.995 162.374C350.543 162.43 350.957 162.365 351.239 162.178C351.531 161.992 351.697 161.7 351.738 161.3C351.779 160.892 351.65 160.555 351.349 160.289C351.057 160.025 350.572 159.858 349.894 159.788L346.023 159.391L346.117 158.472L349.905 158.861C350.416 158.913 350.813 158.837 351.097 158.631C351.39 158.427 351.556 158.134 351.595 157.753C351.632 157.391 351.54 157.096 351.32 156.867C351.11 156.629 350.759 156.485 350.267 156.435L346.075 156.005L346.608 155.468L346.593 159.042L345.881 162.557ZM361.734 164.759L361.829 161.765L362.297 160.851L362.068 159.862L362.718 156.939L364.024 157.103L363.172 160.961L363.04 164.923L361.734 164.759ZM362.727 160.905C362.421 161.694 362.016 162.372 361.512 162.939C361.018 163.498 360.449 163.911 359.804 164.177C359.168 164.446 358.489 164.534 357.767 164.443C356.998 164.347 356.339 164.09 355.79 163.672C355.241 163.246 354.834 162.706 354.568 162.051C354.313 161.389 354.236 160.655 354.337 159.849C354.44 159.034 354.696 158.342 355.106 157.773C355.526 157.205 356.054 156.787 356.689 156.519C357.325 156.251 358.027 156.165 358.796 156.262C359.518 156.353 360.154 156.607 360.704 157.024C361.263 157.442 361.717 157.984 362.066 158.649C362.415 159.313 362.635 160.065 362.727 160.905ZM355.643 160.014C355.568 160.606 355.623 161.145 355.807 161.629C356 162.114 356.293 162.513 356.686 162.826C357.09 163.131 357.565 163.317 358.111 163.386C358.667 163.456 359.192 163.395 359.687 163.203C360.191 163.003 360.653 162.699 361.071 162.291C361.499 161.884 361.866 161.398 362.172 160.835C362.015 160.213 361.779 159.652 361.466 159.152C361.162 158.652 360.79 158.248 360.349 157.939C359.918 157.621 359.425 157.427 358.87 157.358C358.323 157.289 357.816 157.357 357.348 157.561C356.891 157.758 356.509 158.067 356.202 158.489C355.904 158.913 355.718 159.421 355.643 160.014ZM364.734 165.175L366.034 157.401L367.304 157.613L366.11 164.752L365.722 164.275L371.065 165.169L370.75 165.528L371.944 158.389L373.214 158.602L372.02 165.741L371.77 165.287L377.169 166.19L376.66 166.517L377.854 159.378L379.124 159.59L377.824 167.364L364.734 165.175ZM383.676 168.749C382.79 168.561 382.041 168.226 381.428 167.743C380.825 167.253 380.392 166.665 380.126 165.98C379.872 165.287 379.829 164.543 379.998 163.749C380.168 162.945 380.499 162.281 380.992 161.755C381.485 161.23 382.091 160.867 382.811 160.666C383.53 160.466 384.31 160.454 385.15 160.632C385.981 160.808 386.669 161.144 387.212 161.641C387.756 162.137 388.126 162.755 388.323 163.493C388.531 164.224 388.542 165.027 388.356 165.904L380.878 164.321L381.09 163.322L388.034 164.791L387.199 165.086C387.293 164.505 387.261 163.979 387.104 163.507C386.946 163.034 386.681 162.64 386.31 162.323C385.938 162.005 385.473 161.788 384.916 161.67C384.314 161.542 383.763 161.555 383.263 161.707C382.765 161.849 382.342 162.113 381.994 162.497C381.655 162.883 381.422 163.373 381.297 163.966C381.165 164.587 381.193 165.156 381.379 165.672C381.566 166.189 381.888 166.624 382.348 166.979C382.807 167.334 383.383 167.585 384.077 167.732C384.707 167.865 385.346 167.89 385.993 167.808C386.649 167.727 387.258 167.556 387.819 167.293L387.611 168.279C387.055 168.562 386.424 168.748 385.718 168.837C385.014 168.917 384.334 168.888 383.676 168.749ZM388.934 169.719L390.922 162.092L392.764 162.572L394.541 170.631L393.891 170.461L399.362 164.292L401.204 164.772L399.216 172.399L398.037 172.092L399.934 164.817L400.354 164.926L394.691 171.22L393.458 170.898L391.585 162.655L392.005 162.765L390.112 170.026L388.934 169.719ZM404.347 173.958L406.001 170.355L406.963 166.523L412.008 168.298C412.73 168.552 413.23 168.916 413.509 169.39C413.799 169.859 413.839 170.392 413.628 170.991C413.436 171.537 413.08 171.901 412.561 172.084C412.053 172.262 411.437 172.253 410.715 172.058L410.922 171.849C411.764 172.155 412.35 172.555 412.682 173.047C413.016 173.531 413.076 174.077 412.863 174.684C412.64 175.318 412.236 175.735 411.651 175.935C411.078 176.129 410.386 176.083 409.576 175.798L404.347 173.958ZM405.661 174.02L405.398 173.289L409.704 174.804C410.223 174.987 410.642 175.021 410.959 174.905C411.286 174.792 411.516 174.547 411.649 174.168C411.785 173.781 411.738 173.423 411.508 173.094C411.286 172.769 410.853 172.493 410.211 172.267L406.539 170.975L406.846 170.103L410.438 171.367C410.922 171.538 411.327 171.556 411.651 171.423C411.983 171.293 412.213 171.047 412.34 170.686C412.461 170.343 412.441 170.034 412.28 169.76C412.132 169.48 411.824 169.257 411.357 169.093L407.382 167.694L408.026 167.298L407.176 170.768L405.661 174.02ZM417.063 179.018C416.217 178.648 415.537 178.163 415.025 177.563C414.522 176.966 414.216 176.303 414.107 175.573C413.998 174.843 414.106 174.106 414.43 173.362C414.759 172.609 415.226 172.029 415.832 171.621C416.438 171.214 417.13 170.992 417.91 170.955C418.698 170.923 419.516 171.091 420.363 171.461C421.218 171.834 421.897 172.319 422.401 172.916C422.904 173.512 423.212 174.171 423.325 174.893C423.446 175.618 423.343 176.357 423.014 177.11C422.689 177.854 422.218 178.432 421.6 178.845C420.99 179.261 420.296 179.487 419.516 179.524C418.736 179.56 417.919 179.391 417.063 179.018ZM417.495 178.03C418.128 178.306 418.724 178.434 419.283 178.414C419.845 178.384 420.342 178.214 420.773 177.903C421.213 177.596 421.558 177.156 421.808 176.583C422.054 176.018 422.141 175.471 422.067 174.939C422.002 174.412 421.789 173.932 421.428 173.499C421.067 173.067 420.57 172.712 419.937 172.436C419.313 172.163 418.715 172.04 418.143 172.065C417.581 172.095 417.084 172.265 416.653 172.576C416.222 172.886 415.883 173.324 415.637 173.889C415.386 174.462 415.294 175.012 415.359 175.539C415.424 176.067 415.637 176.547 415.998 176.98C416.371 177.407 416.87 177.757 417.495 178.03ZM433.216 178.343L429.309 185.189L428.191 184.55L431.876 178.094L432.095 178.896L426.344 175.613L427.158 175.401L423.473 181.858L422.354 181.219L426.262 174.374L433.216 178.343ZM435.269 179.742L436.273 180.549L434.407 182.874L434.194 183.027L433.397 184.02L433.197 184.381L429.893 188.497L428.889 187.691L435.269 179.742ZM433.341 183.24C434.016 182.728 434.709 182.363 435.422 182.146C436.143 181.934 436.844 181.88 437.526 181.985C438.215 182.096 438.844 182.379 439.412 182.834C440.016 183.319 440.443 183.883 440.692 184.527C440.942 185.17 441.005 185.837 440.881 186.527C440.765 187.224 440.45 187.893 439.936 188.533C439.427 189.166 438.843 189.619 438.182 189.89C437.535 190.16 436.867 190.247 436.179 190.149C435.497 190.045 434.854 189.75 434.25 189.265C433.682 188.809 433.27 188.257 433.013 187.608C432.763 186.965 432.664 186.268 432.715 185.519C432.778 184.769 432.987 184.009 433.341 183.24ZM438.909 187.709C439.283 187.243 439.515 186.753 439.605 186.239C439.702 185.73 439.658 185.241 439.474 184.769C439.303 184.297 439.002 183.888 438.573 183.544C438.136 183.193 437.651 182.971 437.116 182.876C436.594 182.781 436.048 182.797 435.478 182.926C434.908 183.055 434.341 183.276 433.778 183.59C433.593 184.208 433.5 184.809 433.497 185.394C433.495 185.978 433.594 186.518 433.794 187.014C434.008 187.509 434.333 187.931 434.77 188.282C435.199 188.627 435.66 188.835 436.153 188.907C436.658 188.978 437.149 188.911 437.624 188.706C438.107 188.507 438.536 188.175 438.909 187.709ZM440.023 195.333C439.466 194.596 439.111 193.841 438.959 193.067C438.812 192.3 438.869 191.572 439.132 190.882C439.394 190.192 439.849 189.602 440.497 189.113C441.152 188.617 441.843 188.34 442.571 188.281C443.299 188.222 444.011 188.368 444.709 188.718C445.412 189.075 446.043 189.622 446.6 190.359C447.163 191.104 447.518 191.859 447.665 192.626C447.812 193.392 447.758 194.118 447.503 194.802C447.254 195.494 446.801 196.087 446.146 196.583C445.499 197.072 444.805 197.346 444.064 197.403C443.328 197.468 442.612 197.325 441.914 196.975C441.217 196.625 440.586 196.078 440.023 195.333ZM440.883 194.683C441.3 195.234 441.757 195.637 442.254 195.893C442.759 196.143 443.276 196.238 443.804 196.178C444.338 196.125 444.854 195.91 445.353 195.533C445.844 195.161 446.187 194.726 446.383 194.227C446.585 193.735 446.634 193.212 446.531 192.658C446.428 192.104 446.168 191.552 445.752 191.001C445.341 190.458 444.88 190.057 444.369 189.8C443.864 189.55 443.348 189.455 442.82 189.515C442.291 189.575 441.782 189.791 441.291 190.162C440.792 190.539 440.442 190.974 440.24 191.466C440.039 191.957 439.989 192.48 440.092 193.034C440.209 193.59 440.472 194.14 440.883 194.683ZM448.118 205.877C447.49 205.963 446.888 205.88 446.312 205.628C445.739 205.385 445.231 205.004 444.789 204.486C444.346 203.968 444.013 203.348 443.79 202.626C443.532 201.787 443.469 200.996 443.601 200.252C443.742 199.506 444.05 198.859 444.526 198.312C445.014 197.771 445.645 197.381 446.421 197.141C447.197 196.902 447.935 196.87 448.633 197.046C449.344 197.227 449.963 197.588 450.491 198.128C451.019 198.669 451.412 199.358 451.67 200.197C451.893 200.919 451.967 201.619 451.893 202.296C451.827 202.971 451.626 203.57 451.289 204.094C450.955 204.627 450.5 205.035 449.924 205.321L449.532 204.05C450.115 203.723 450.503 203.238 450.695 202.592C450.898 201.954 450.884 201.259 450.653 200.51C450.467 199.904 450.183 199.41 449.801 199.029C449.423 198.658 448.977 198.414 448.463 198.299C447.958 198.182 447.407 198.215 446.809 198.399C446.211 198.583 445.733 198.868 445.373 199.252C445.012 199.636 444.781 200.089 444.677 200.609C444.586 201.135 444.633 201.702 444.82 202.308C445.054 203.066 445.435 203.652 445.963 204.066C446.493 204.488 447.081 204.668 447.726 204.606L448.118 205.877ZM445.147 211.005C445.115 210.101 445.26 209.292 445.581 208.581C445.911 207.878 446.378 207.316 446.979 206.893C447.591 206.48 448.302 206.259 449.114 206.231C449.934 206.202 450.659 206.364 451.288 206.716C451.916 207.068 452.415 207.569 452.783 208.219C453.151 208.869 453.35 209.623 453.38 210.482C453.409 211.33 453.248 212.078 452.897 212.726C452.546 213.373 452.036 213.881 451.367 214.25C450.708 214.627 449.93 214.832 449.035 214.863L448.77 207.223L449.791 207.188L450.037 214.282L449.549 213.542C450.136 213.494 450.64 213.336 451.06 213.07C451.48 212.803 451.8 212.451 452.018 212.014C452.236 211.577 452.336 211.073 452.316 210.504C452.294 209.889 452.15 209.357 451.882 208.909C451.624 208.46 451.266 208.113 450.809 207.867C450.353 207.631 449.822 207.523 449.215 207.544C448.581 207.566 448.036 207.73 447.579 208.035C447.123 208.341 446.778 208.759 446.544 209.29C446.31 209.821 446.206 210.441 446.23 211.15C446.253 211.794 446.382 212.419 446.618 213.028C446.854 213.645 447.167 214.195 447.558 214.676L446.55 214.711C446.142 214.24 445.809 213.672 445.553 213.009C445.305 212.345 445.17 211.677 445.147 211.005ZM445.403 217.088C445.401 216.92 445.437 216.766 445.51 216.625C445.592 216.484 445.703 216.371 445.842 216.286C445.982 216.21 446.135 216.171 446.303 216.169C446.48 216.167 446.635 216.203 446.766 216.276C446.907 216.359 447.016 216.465 447.092 216.595C447.177 216.734 447.221 216.892 447.223 217.07C447.224 217.238 447.184 217.387 447.101 217.519C447.028 217.66 446.922 217.773 446.783 217.858C446.643 217.944 446.49 217.987 446.322 217.989C446.154 217.991 446 217.95 445.859 217.868C445.727 217.785 445.619 217.674 445.533 217.535C445.448 217.405 445.404 217.256 445.403 217.088Z" fill="black"/>
</g>
<defs>
<clipPath id="clip0_1431_53">
<rect width="462" height="226" fill="white"/>
</clipPath>
</defs>
</svg>
