<svg width="73" height="78" viewBox="0 0 73 78" fill="none" xmlns="http://www.w3.org/2000/svg">
<path d="M24.6993 10.3585C24.9551 8.28856 25.0566 7.21277 26.1206 5.3733C30.1409 -1.58023 41.4343 -1.76176 46.0028 4.69411C47.7936 7.22435 47.8627 8.9258 48.2403 12.044L51.5256 11.582C54.7906 12.8383 56.7033 13.3361 58.2058 16.7801C59.5703 19.6026 58.62 21.0251 59.489 22.3624C64.5205 22.8619 66.3073 28.8536 64.8454 32.8103C64.5449 34.8002 64.1713 35.5504 62.75 37.0253C64.6139 38.0936 66.7824 39.1818 67.7733 41.1831C69.7753 45.301 68.3581 44.8205 69.2312 48.3998C69.5723 49.7858 71.6393 50.4385 72.3418 53.5256C73.6535 59.4393 71.7895 60.8325 66.7946 63.3245C65.2474 62.7912 65.1012 62.5856 64.0251 61.3325L63.6433 61.5247C62.2586 61.3849 62.3317 61.0429 61.15 59.8792L59.6434 59.3572C57.6292 62.5361 55.9155 63.9407 52.9267 66.234C52.5855 69.2021 54.6281 74.7522 53.6495 75.9302C51.3997 78.6338 41.6332 78.5591 39.022 76.4582C37.0525 73.4082 40.6424 70.0547 35.3876 70.6424C33.2718 73.4224 37.4099 77.468 30.6972 77.758C14.0678 78.4762 20.4068 75.8104 20.1875 65.875C18.8393 64.7474 17.215 63.5321 16.1876 62.1344L15.9642 61.835C15.3145 61.1453 14.3236 59.6663 13.7348 58.845C13.4262 58.9888 12.4759 59.4043 12.2485 59.5628L10.5185 61.0925L9.12156 61.8001L7.6881 62.8155C6.5145 63.1206 6.47387 63.0995 5.28402 62.7518C2.54697 61.3216 1.56016 60.9333 0.354072 58.083C-0.519024 55.2096 0.191625 51.7054 2.83122 50.0027C4.97538 45.6995 -0.307859 42.9407 8.4231 37.4636L8.52462 36.6451C6.70533 35.0671 6.36828 32.6945 5.88503 30.4166C7.00178 25.602 8.50431 22.563 13.8525 22.0635C13.3206 19.5411 13.3652 18.3749 14.2546 16.0349C16.0698 11.4923 20.0495 10.5737 24.4231 10.9942L24.6993 10.3585Z" fill="#FF5F42"/>
<path d="M24.6985 10.3585C24.9543 8.28856 25.0559 7.21277 26.1198 5.3733C30.1401 -1.58023 41.4335 -1.76176 46.002 4.69411C47.7929 7.22435 47.8619 8.9258 48.2396 12.044L51.5249 11.582C54.7898 12.8383 56.7025 13.3361 58.2051 16.7801C59.5695 19.6026 58.6193 21.0251 59.4883 22.3624C64.5198 22.8619 66.3066 28.8536 64.8447 32.8103C64.5441 34.8002 64.1705 35.5504 62.7492 37.0253C62.3797 36.89 61.7259 36.5281 61.3442 36.3356C60.9462 35.6459 60.1381 34.7246 59.6061 34.076C58.6599 32.9874 56.9868 30.3317 56.1137 29.0224C53.7584 26.5117 52.7553 25.7657 50.0305 23.7571L49.9614 23.5287L46.7411 22.1832C40.9868 19.7787 33.2954 19.6915 27.5086 22.0981C27.334 22.1762 26.9117 22.3935 26.7533 22.4091C21.6528 25.2864 19.131 27.0392 15.7523 32.0125L15.4355 32.4865L14.7939 32.4455C13.6731 34.1775 12.8 36.5988 11.5574 37.3052C10.335 37.0562 9.92492 36.9623 8.7635 36.5237L8.52387 36.6451C6.70458 35.0671 6.36753 32.6945 5.88428 30.4166C7.00103 25.602 8.50356 22.563 13.8518 22.0635C13.3198 19.5411 13.3645 18.3749 14.2538 16.0349C16.069 11.4923 20.0487 10.5737 24.4223 10.9942L24.6985 10.3585Z" fill="#D1432B"/>
<path d="M27.5093 22.0984C29.4748 19.5511 29.3286 20.4945 29.2392 17.793L29.7144 17.9166L29.9905 18.9201C32.1306 19.8772 40.8291 19.7575 43.3509 19.5486L44.6179 18.2747L45.0362 18.3023L44.7316 20.1347C46.2666 21.7744 48.2402 21.5662 49.9621 23.529L46.7417 22.1835C40.9874 19.779 33.2961 19.6919 27.5093 22.0984Z" fill="#8E241A"/>
<path d="M15.7533 32.0129C15.4285 28.2841 22.9655 22.3134 26.7543 22.4095C21.6538 25.2868 19.132 27.0396 15.7533 32.0129Z" fill="#8E241A"/>
<path d="M50.0308 23.7572C52.382 23.4824 56.0206 26.2967 56.3089 28.5917L56.114 29.0225C53.7587 26.5118 52.7556 25.7657 50.0308 23.7572Z" fill="#8E241A"/>
<path d="M58.2057 16.7803C59.5702 19.6028 58.6199 21.0252 59.4889 22.3626C59.3143 22.5014 58.6889 22.7524 58.4494 22.8572L57.893 22.3886C57.6047 20.7231 57.9945 18.5096 58.2057 16.7803Z" fill="#B63A2D"/>
<path d="M61.3447 36.3358C62.1975 35.3199 63.7285 33.2244 64.8452 32.8105C64.5447 34.8004 64.1711 35.5506 62.7498 37.0255C62.3802 36.8903 61.7265 36.5283 61.3447 36.3358Z" fill="#B63A2D"/>
<path d="M14.2541 16.035C14.3557 17.4336 14.8471 21.6796 14.1405 22.5832L13.8521 22.0635C13.3201 19.5411 13.3648 18.375 14.2541 16.035Z" fill="#B63A2D"/>
<path d="M24.699 10.3588C25.6533 11.4511 26.4249 11.8946 26.4655 13.0655C25.3488 12.8077 24.6137 12.212 24.4229 10.9945L24.699 10.3588Z" fill="#B63A2D"/>
<path d="M51.5254 11.5823C50.3112 12.2583 49.2472 13.0623 47.9274 12.9965L47.3589 12.4271L47.631 11.2308L48.2401 12.0443L51.5254 11.5823Z" fill="#8E241A"/>
<path d="M16.1875 62.1344C16.886 62.3497 19.6027 64.3433 20.4596 64.9095C31.4728 72.2027 47.2291 71.3931 56.7641 61.9667C57.7875 60.9516 59.1154 59.1384 60.1225 57.9235L59.6433 59.3573C57.6291 62.5362 55.9154 63.9408 52.9266 66.2341C52.5855 69.2021 54.6281 74.7523 53.6494 75.9303C51.3997 78.6339 41.6332 78.5591 39.022 76.4583C37.0524 73.4082 40.6423 70.0547 35.3875 70.6425C33.2718 73.4225 37.4098 77.4681 30.6971 77.7581C14.0677 78.4763 20.4068 75.8105 20.1875 65.875C18.8393 64.7475 17.2149 63.5321 16.1875 62.1344Z" fill="#7C1F18"/>
<path d="M20.6989 66.1287C25.4827 68.567 28.5324 69.6877 33.8685 70.4355C34.0147 72.8804 34.6319 74.8467 32.8938 76.6193C30.3517 77.1677 22.8878 77.9472 20.9751 76.3647C19.4279 73.8934 20.9264 70.2824 20.7314 66.6661L20.6989 66.1287Z" fill="#FF5F42"/>
<path d="M52.1954 66.5134C52.0207 70.7488 55.0948 77.1914 48.6908 77.1613C46.1974 77.1499 43.7893 77.022 41.3202 76.693C40.4512 76.5065 40.3984 76.3648 39.7284 75.7985C39.1477 74.2274 39.4359 72.0665 39.5293 70.3223C44.4512 70.0444 47.8664 68.6943 52.1954 66.5134Z" fill="#FF5F42"/>
<path d="M59.6069 34.076C60.1389 34.7247 60.947 35.646 61.345 36.3357C61.7267 36.5282 62.3805 36.8901 62.7501 37.0254C64.614 38.0937 66.7826 39.1819 67.7734 41.1832C69.7754 45.3011 68.3582 44.8206 69.2313 48.3999C69.5724 49.7859 71.6394 50.4386 72.3419 53.5257C73.6536 59.4394 71.7896 60.8326 66.7947 63.3246C65.2475 62.7913 65.1013 62.5857 64.0252 61.3326L63.6435 61.5248C62.2587 61.385 62.3318 61.043 61.1501 59.8793L59.6435 59.3573L60.1227 57.9235C60.6222 57.4186 60.7237 56.6728 60.9592 55.9132C60.7399 54.9315 61.6536 51.2368 61.877 49.8391C62.9044 43.4416 61.6658 39.8878 59.6069 34.076Z" fill="#FF5F42"/>
<path d="M59.6069 34.076C60.1389 34.7247 60.947 35.646 61.345 36.3357C61.7267 36.5282 62.3805 36.8901 62.7501 37.0254C64.614 38.0937 66.7826 39.1819 67.7734 41.1832C69.7754 45.3011 68.3582 44.8206 69.2313 48.3999C69.5724 49.7859 71.6394 50.4386 72.3419 53.5257C68.7805 49.5283 67.5704 47.4815 63.1034 43.9964C63.079 48.0352 62.612 52.3181 62.4658 56.4356L61.9338 56.4653L61.7267 55.7967L60.9592 55.9132C60.7399 54.9315 61.6536 51.2368 61.877 49.8391C62.9044 43.4416 61.6658 39.8878 59.6069 34.076Z" fill="#8E241A"/>
<path d="M62.7499 37.0255C64.6139 38.0937 67.7733 41.1832 67.7733 41.1832C67.7733 41.1832 69.1796 44.6877 67.7688 45.8276C66.0664 47.203 64.7885 44.4165 62.953 42.9615C62.2667 40.3144 61.6453 39.3086 62.7499 37.0255Z" fill="#DB391C"/>
<path d="M60.9588 55.9133L61.7263 55.7968L61.9334 56.4653C61.6573 57.6002 61.3974 58.738 61.1497 59.8794L59.6431 59.3574L60.1223 57.9236C60.6218 57.4187 60.7233 56.6729 60.9588 55.9133Z" fill="#EFECEC"/>
<path d="M64.0249 61.3326L64.8777 59.2684L65.2229 59.248C65.4665 61.1454 65.1782 62.1019 66.7944 63.3246C65.2472 62.7912 65.101 62.5857 64.0249 61.3326Z" fill="#8E241A"/>
<path d="M8.52443 36.6452L8.76406 36.5238C9.92548 36.9625 10.3356 37.0563 11.5579 37.3053C12.8006 36.5989 13.6737 34.1776 14.7945 32.4456L15.4361 32.4866C13.2392 36.7395 12.825 38.4142 11.6554 43.193C10.6361 43.8035 2.35184 50.0637 2.83103 50.0028C4.97519 45.6996 -0.308048 42.9408 8.42291 37.4637L8.52443 36.6452Z" fill="#8E241A"/>
<path d="M8.36619 37.9096C9.60071 37.9604 10.5591 37.8487 11.5662 38.499C11.9439 39.9852 11.2941 40.9625 10.7499 42.6531C9.23116 43.7397 7.56623 45.0813 6.06775 46.2333C4.91039 47.3698 5.2799 47.3507 3.94792 47.6176C2.14487 44.3359 6.03523 39.917 8.36619 37.9096Z" fill="#DB391C"/>
<path d="M10.5186 61.0925C11.7003 58.6968 10.4698 54.4724 12.0292 53.253C12.5977 53.9947 15.9561 61.2562 15.9642 61.835C15.3145 61.1453 14.3236 59.6663 13.7348 58.845C13.4262 58.9888 12.4759 59.4043 12.2485 59.5627L10.5186 61.0925Z" fill="#8E241A"/>
<path d="M12.2485 59.5629C11.9723 58.2144 11.619 57.2801 12.0454 56.0071C13.0809 56.7062 13.154 57.519 13.7348 58.8452C13.4261 58.989 12.4759 59.4045 12.2485 59.5629Z" fill="#EFECEC"/>
<path d="M0.354004 58.0832C2.5672 59.1803 2.05148 60.457 3.72458 60.5991L4.84133 59.9574C5.30427 61.2369 5.01593 61.7954 5.28396 62.7519C2.5469 61.3217 1.56009 60.9334 0.354004 58.0832Z" fill="#8E241A"/>
<path d="M7.6875 62.8159C7.854 61.6314 8.03672 60.6155 8.27631 59.4429C8.90575 59.8478 8.91386 60.8609 9.12096 61.8004L7.6875 62.8159Z" fill="#8E241A"/>
<path d="M43.5781 44.9277L44.0492 45.6166L43.8421 46.7064C40.9913 49.5591 34.9771 49.0156 31.8218 46.6837L31.9761 45.9075C33.8441 44.8566 36.7355 50.6002 43.5781 44.9277Z" fill="#151516"/>
<path d="M30.9572 36.7842C32.4232 36.9284 34.7339 37.7262 34.3481 39.5435C32.8212 39.4927 32.6912 39.0041 31.2496 37.9419C30.1247 39.154 29.6374 40.1093 27.9602 39.7795L27.9521 38.9586C28.6303 37.6596 29.5846 37.4297 30.9572 36.7842Z" fill="#151516"/>
<path d="M43.4035 36.8393C45.1862 36.9612 47.5659 37.4218 47.6593 39.6152C46.3557 39.7846 46.3842 39.4596 45.0522 38.5883L43.8948 38.4535C42.6562 39.2427 42.4776 39.3106 41.0319 39.5843L40.6948 39.2232C41.4055 38.1683 42.3639 37.6001 43.4035 36.8393Z" fill="#2E2E2E"/>
<path d="M31.1598 31.0707C32.6989 31.5586 32.5852 31.2568 33.4217 32.3023C32.508 33.1898 31.1436 33.1435 29.5111 33.7963L29.2065 33.9202L28.7476 34.516L28.1791 34.4068L28.1182 33.6265C28.7801 32.1638 29.7588 31.8267 31.1598 31.0707Z" fill="#2A2A2B"/>
<path d="M42.9043 31.1328C45.1947 31.4123 47.6718 31.695 47.5906 34.5265C45.5602 33.4416 43.4931 33.4627 42.5063 32.407L42.9043 31.1328Z" fill="#2A2A2B"/>
</svg>
