<svg width="50" height="43" viewBox="0 0 50 43" fill="none" xmlns="http://www.w3.org/2000/svg">
<path d="M28.2504 6.87089C38.1448 -9.56544 58.5851 6.98636 45.3815 20.0521C50.0529 25.7254 50.2889 32.7773 49.8451 39.8367C49.8066 40.4674 49.6989 41.0514 49.25 41.4732C44.2604 43.1644 36.7082 42.4793 31.5853 41.8281C31.2877 40.8461 31.3287 39.4179 31.2954 38.339L30.8285 37.9317L30.4796 38.4693C30.6258 39.1991 30.7874 39.8662 30.9696 40.588C30.5976 41.8186 29.8947 42.1871 28.6172 42.3159C24.641 42.7162 7.75871 43.3466 5.57563 40.7735C5.11901 38.9674 6.48889 36.172 7.1533 34.3497C6.90447 34.1021 5.5859 32.2772 5.7116 32.3124C2.10478 31.3119 -1.01977 29.7831 0.314189 25.1455L1.52501 22.6288C-0.0526569 19.084 0.106416 17.2585 2.67172 14.3485C2.15096 12.8549 2.45878 11.4636 2.90514 10.1571C3.21041 7.19983 6.87881 7.83439 7.43548 7.27091C9.72886 4.96003 7.81001 3.50797 11.9812 1.37466C14.154 0.252574 16.686 0.0555209 19.0076 0.82761C19.8798 1.12474 22.168 2.37743 22.5246 3.07562C24.8462 7.60603 23.8252 5.4799 28.2504 6.87089Z" fill="#70C5F9"/>
<path d="M28.2503 6.87089C38.1447 -9.56544 58.5851 6.98636 45.3814 20.0521C50.0529 25.7254 50.2888 32.7773 49.845 39.8367C49.8066 40.4674 49.6988 41.0514 49.2499 41.4732C44.2604 43.1644 36.7081 42.4793 31.5852 41.8281C31.2876 40.8461 31.3287 39.4179 31.2953 38.339L30.8284 37.9317L29.0994 38.2263C27.1575 38.5052 25.8287 38.6505 23.9662 39.3684C22.5579 39.5193 22.2886 39.5688 20.9059 39.2642L20.8597 39.2039C20.2029 38.9273 19.8336 38.7333 19.2102 38.3864L18.515 38.2722C18.0712 36.9228 17.9865 35.9883 18.1148 34.6001L18.4714 33.8994C19.0229 33.3541 18.7767 33.5214 19.595 33.3398L19.7668 33.3013L20.5775 32.7309C21.4266 30.5683 23.1556 29.5045 24.977 31.4748L25.2002 31.9016C28.0477 30.9198 30.4437 29.6946 32.6216 27.6231L33.4528 26.8308C33.463 24.8658 33.4835 23.5818 33.2398 21.6204L33.6169 21.2814C32.7319 21.0358 32.3625 20.7616 31.598 20.2894L30.8105 19.4198L30.9311 18.8227C29.9255 17.8936 27.1139 14.4658 28.7172 13.2852C28.2375 12.4343 28.317 12.8174 28.4247 11.8401L27.9143 11.2653C27.5808 9.44144 27.7629 8.60675 28.2503 6.87089Z" fill="#FEF0D4"/>
<path d="M28.2504 6.87089C38.1447 -9.56544 58.5851 6.98636 45.3815 20.0521C50.0529 25.7254 50.2889 32.7773 49.8451 39.8367C49.8066 40.4674 49.6989 41.0514 49.2499 41.4732C48.6907 33.28 51.0354 28.7719 45.1839 20.4519C41.4668 21.8944 39.63 22.8856 35.2562 22.5133L34.9176 21.9504L33.617 21.2814C32.7319 21.0358 32.3625 20.7616 31.5981 20.2894L30.8105 19.4198L30.9311 18.8227C29.9255 17.8936 27.1139 14.4658 28.7172 13.2852C28.2375 12.4343 28.317 12.8174 28.4248 11.8401L27.9143 11.2653C27.5808 9.44144 27.7629 8.60675 28.2504 6.87089Z" fill="#FEF0D4"/>
<path d="M28.2504 6.87089C38.1447 -9.56544 58.5851 6.98636 45.3815 20.0521C50.0529 25.7254 50.2889 32.7773 49.8451 39.8367C49.8066 40.4674 49.6989 41.0514 49.2499 41.4732C48.6907 33.28 51.0354 28.7719 45.1839 20.4519C41.4668 21.8944 39.63 22.8856 35.2562 22.5133L34.9176 21.9504C41.7208 22.804 48.37 19.4858 48.9857 12.0497C49.2243 9.08067 48.2572 6.14012 46.305 3.89262C40.0277 -3.26941 28.4658 1.46113 27.9143 11.2653C27.5808 9.44144 27.7629 8.60675 28.2504 6.87089Z" fill="#A78D6B"/>
<path d="M28.4248 11.8401L29.1508 10.8582L29.4945 10.9166C29.456 11.8642 29.2816 12.4903 28.7172 13.2853C28.2375 12.4344 28.317 12.8175 28.4248 11.8401Z" fill="#151516"/>
<path d="M33.6093 11.2673C34.325 11.4893 34.3404 11.508 34.8304 12.1013C34.9997 12.9624 34.6841 13.3673 34.2916 14.1781C33.6349 13.9857 33.9504 14.1358 33.3963 13.5469C33.1655 12.6653 33.3887 12.1593 33.6093 11.2673Z" fill="#2E2E2E"/>
<path d="M33.6169 21.2814L34.9176 21.9503L35.2562 22.5133L35.2177 24.7105L35.4229 24.9178C36.0001 24.4282 36.2849 23.9841 36.8826 24.0087C36.4234 25.7533 27.8476 32.1702 25.2002 31.9015C28.0477 30.9198 30.4437 29.6946 32.6216 27.6231L33.4528 26.8307C33.463 24.8657 33.4835 23.5817 33.2398 21.6203L33.6169 21.2814Z" fill="#827B70"/>
<path d="M33.2399 21.6204C35.2921 23.1186 35.1048 25.1131 33.4528 26.8307C33.4631 24.8657 33.4836 23.5818 33.2399 21.6204Z" fill="#BCCDDA"/>
<path d="M30.8285 37.9319C32.4164 36.5275 37.506 35.1878 39.2401 32.7487C39.4069 32.5141 41.5284 30.3049 41.8568 30.2569C41.3052 32.2273 36.9801 35.2736 35.187 36.2727C34.2224 36.8154 33.2322 37.3096 32.2163 37.753C32.1188 38.8584 32.0393 40.9268 31.5853 41.8282C31.2877 40.8462 31.3287 39.4181 31.2954 38.3391L30.8285 37.9319Z" fill="#94795E"/>
<path d="M18.4714 33.8995C19.0229 33.3543 18.7767 33.5216 19.595 33.3399C19.0101 34.0104 18.7023 34.12 18.6407 34.8759C19.2153 35.1322 19.3025 35.1468 19.9259 35.288C19.0126 35.7177 18.8331 35.6097 18.4226 36.3751C18.9562 37.1642 20.0465 37.13 20.9956 37.2632L21.0264 37.4957C19.9105 37.7905 19.8797 37.6045 19.2102 38.3866L18.515 38.2724C18.0712 36.923 17.9865 35.9885 18.1148 34.6003L18.4714 33.8995Z" fill="#A78D6B"/>
<path d="M19.7669 33.3013L20.5775 32.7309C21.4266 30.5684 23.1556 29.5045 24.977 31.4749C23.661 31.2696 23.1069 31.1187 21.8012 31.4041L21.4805 31.801C21.7422 32.4969 21.7293 32.4612 22.2527 32.9973L22.0885 33.3734C21.3138 33.3424 20.5416 33.3183 19.7669 33.3013Z" fill="#A78D6B"/>
<path d="M2.67172 14.3485C2.15096 12.8548 2.45878 11.4636 2.90514 10.157C3.21041 7.19978 6.87881 7.83434 7.43548 7.27086C9.72886 4.95998 7.81001 3.50792 11.9812 1.3746C14.154 0.252521 16.686 0.0554679 19.0076 0.827557C19.8798 1.12469 22.168 2.37738 22.5246 3.07557C24.8462 7.60598 23.8252 5.47985 28.2504 6.87084C27.763 8.60669 27.5808 9.44138 27.9143 11.2652L28.4248 11.84C28.3171 12.8174 28.2375 12.4343 28.7172 13.2852C27.1139 14.4657 29.9255 17.8936 30.9311 18.8227L30.8105 19.4198L30.6489 19.4141C28.5736 19.3256 29.5715 17.3675 28.5223 16.3024C26.7753 14.5296 24.1587 14.9674 22.3348 12.9793C20.3056 13.9248 19.8413 14.1794 17.6069 14.2358C16.432 14.3113 14.9108 14.3664 13.7743 14.5155C13.3511 16.3745 10.8884 17.8628 9.08498 18.0437L8.98493 18.4583C8.49496 19.5252 7.24822 21.8654 6.48119 22.7655L6.2349 23.0105C3.53877 21.3086 1.21462 22.7244 0.704121 25.7132L0.31419 25.1454L1.52501 22.6287C-0.0526563 19.0839 0.106416 17.2585 2.67172 14.3485Z" fill="#2A70AB"/>
<path d="M13.7743 14.5158L13.6153 14.418L13.7743 12.7563L14.0308 12.6108C15.3956 14.6341 15.4905 13.6493 17.6069 14.2361C16.432 14.3116 14.9107 14.3667 13.7743 14.5158Z" fill="#235A89"/>
<path d="M8.98492 18.4586L7.68172 17.7678L7.59965 17.4186C8.57446 17.5279 8.19481 17.4101 9.08497 18.0439L8.98492 18.4586Z" fill="#154775"/>
<path d="M22.6502 11.8273L22.8658 12.2476C22.6708 12.6494 22.6887 12.7305 22.3347 12.9794C22.3424 12.1506 22.2193 12.3831 22.6502 11.8273Z" fill="#235A89"/>
<path d="M0.314189 25.1454L0.704121 25.7133C0.391153 30.2411 4.31093 34.216 7.23795 29.2648C7.15586 30.6522 7.04555 32.1166 7.01477 33.4994C10.5138 38.0913 13.2869 37.8858 18.515 38.2722L19.2102 38.3864C19.8336 38.7333 20.203 38.9273 20.8597 39.2039L20.9059 39.2642C22.2886 39.5688 22.5579 39.5193 23.9663 39.3684C25.8287 38.6505 27.1575 38.5052 29.0995 38.2263L30.8285 37.9317L30.4796 38.4693C30.6258 39.1991 30.7874 39.8662 30.9696 40.588C30.5976 41.8186 29.8947 42.1871 28.6172 42.3159C24.641 42.7162 7.75871 43.3466 5.57563 40.7735C5.11901 38.9674 6.48889 36.172 7.1533 34.3497C6.90447 34.1021 5.5859 32.2772 5.7116 32.3124C2.10478 31.3119 -1.01977 29.7831 0.314189 25.1454Z" fill="#235A89"/>
<path d="M23.9663 39.3684C25.8287 38.6505 27.1575 38.5052 29.0995 38.2263C29.7844 38.9091 29.9127 39.0461 30.395 39.8816C30.3103 42.8204 21.8499 43.1203 21.5395 40.1218L21.7832 39.6586C22.735 39.5062 23.6482 39.7433 23.9663 39.3684Z" fill="#53A1D8"/>
<path d="M19.7259 41.9898C19.9696 40.9187 19.8618 40.6988 20.2851 39.4954L20.9059 39.2642C21.0726 40.0173 21.1291 40.3861 21.1906 41.1551C20.6878 41.8948 20.8212 41.6636 19.7259 41.9898Z" fill="#FAF4EE"/>
<path d="M10.2137 37.5036C12.8765 38.3098 16.4217 38.0822 18.6792 39.0406C19.3179 39.3121 19.4308 39.5497 19.6976 40.1642C19.5591 40.9851 19.3898 41.1765 18.8664 41.8405C17.7839 42.2231 16.7655 42.3281 15.6214 42.3671C13.9385 42.4246 12.2249 42.2906 10.9705 40.9984C10.0316 40.0285 10.1778 38.7471 10.2137 37.5036Z" fill="#6BB9EB"/>
<path d="M7.17636 34.8865C8.105 35.6199 9.03108 36.3301 9.8648 37.1718C9.60827 38.4301 10.1957 40.5672 9.74937 41.4607L9.55698 41.4633C8.97722 41.4671 8.39231 41.501 7.81256 41.461C7.19175 41.4181 6.68894 41.1892 6.29645 40.704C5.23698 39.3923 6.97627 36.7012 7.14558 35.1732L7.17636 34.8865Z" fill="#53A1D8"/>
<path d="M31.5981 20.2895C32.3625 20.7616 32.7319 21.0359 33.617 21.2815L33.2399 21.6204C33.4836 23.5818 33.4631 24.8658 33.4528 26.8308L32.6217 27.6232C32.7037 25.2566 32.9115 22.3261 31.5981 20.2895Z" fill="#336894"/>
<path d="M18.1148 34.6003C17.5145 34.2923 16.2293 33.7517 15.9292 33.2424C16.9476 33.4263 17.494 33.5926 18.4714 33.8995L18.1148 34.6003Z" fill="#53A1D8"/>
<path d="M6.48117 22.7657L6.74794 23.458L6.56581 23.6399L6.23488 23.0107L6.48117 22.7657Z" fill="#336894"/>
<path d="M17.2298 22.4093C17.9609 22.0128 18.6536 22.031 19.495 21.9523C19.8362 23.3897 20.4954 25.239 18.9537 26.0798C18.4714 26.0403 18.1815 26.0534 17.7403 25.8445L17.2785 25.5654C16.8912 24.3999 17.0297 23.5603 17.2298 22.4093Z" fill="#2E2E2E"/>
<path d="M24.8206 20.7277L25.4952 21.0995C26.293 22.3671 26.9523 23.8825 25.6953 25.0359C24.7154 25.138 25.1053 25.2081 24.2203 24.7675C23.0274 23.2436 23.8509 22.0553 24.8206 20.7277Z" fill="#2A2A2B"/>
<path d="M16.532 21.9876L16.0036 21.8914L15.7881 21.5086C16.4525 20.6788 18.2559 19.2595 19.3641 19.1271C19.4642 21.2063 18.5484 20.2772 18.8485 21.4578L19.495 21.9522C18.6535 22.031 17.9609 22.0128 17.2298 22.4092L16.532 21.9876Z" fill="#151516"/>
<path d="M19.3641 19.1271C19.4642 21.2063 18.5484 20.2772 18.8485 21.4578L19.495 21.9522C18.6536 22.031 17.9609 22.0128 17.2298 22.4092L16.532 21.9876C17.9712 21.1368 18.5253 20.5217 19.3641 19.1271Z" fill="#6BB9EB"/>
<path d="M22.1064 27.8663C23.112 27.7865 23.7688 27.9797 24.5845 28.5668L24.1356 28.7949L24.6358 28.7772C23.9637 29.0528 23.0376 28.603 22.3655 28.39C21.6036 28.8178 21.3317 29.3995 20.4133 29.6194L20.1619 29.4379C20.6109 28.5791 21.2881 28.2915 22.1064 27.8663Z" fill="#151516"/>
<path d="M24.959 20.3849C24.4229 20.0062 23.7636 19.6439 23.502 19.0732C24.5845 18.9662 25.3439 19.4337 26.3033 19.9574L26.2982 20.5589C25.9621 20.7359 25.6158 20.8301 25.4952 21.0995L24.8205 20.7277L24.959 20.3849Z" fill="#151516"/>
<path d="M24.959 20.3849L26.2981 20.5589C25.9621 20.7359 25.6158 20.8301 25.4952 21.0995L24.8205 20.7277L24.959 20.3849Z" fill="#6BB9EB"/>
<path d="M17.2785 25.5654L17.7403 25.8445C16.9143 26.4601 16.4602 26.963 15.4649 26.6392L15.5341 26.2009C16.4037 25.5012 15.9984 25.705 17.2785 25.5654Z" fill="#A5C7E7"/>
<path d="M5.7321 24.898C6.5453 25.5482 6.38881 26.9954 6.81465 28.5665C5.56022 27.7287 5.74236 26.2621 5.7321 24.898Z" fill="#2A70AB"/>
</svg>
