<svg width="46" height="46" viewBox="0 0 46 46" fill="none" xmlns="http://www.w3.org/2000/svg">
<path d="M18.6094 3.95146C21.4856 -0.353686 26.0184 -1.08905 30.6445 1.49179C33.3748 3.01606 33.3991 6.85348 33.6253 6.969C35.8998 8.13545 41.4656 6.3576 40.1321 13.5507C40.6169 13.6606 41.1284 13.7479 41.5695 13.9649L42.2968 14.6016C43.3247 15.12 43.4495 14.9341 43.6413 16.1794C44.2818 18.0925 43.9204 20.1916 42.3923 21.6003C43.2669 22.2427 44.1328 22.8682 44.9815 23.5444C46.1916 26.7366 46.2114 27.8157 45.0072 31.022C43.354 32.3068 42.554 32.5858 40.6622 33.3718L40.7715 33.7747C44.3314 41.4665 39.1406 41.2017 38.4719 43.8502C38.4423 43.9657 38.3823 44.2643 38.3333 44.3798C38.1271 44.8701 37.726 45.149 37.2488 45.3293C34.9706 46.2 30.3369 46.1774 28.0527 45.2843C27.3415 44.5066 27.5632 44.4531 27.5153 43.1909C26.9037 42.7908 24.8469 42.9176 24.1036 43.05C23.8498 43.8107 23.8374 44.0868 23.745 44.8926C22.109 46.6113 16.1503 45.9266 13.8858 45.4899C11.6394 45.2476 13.225 41.5426 12.4363 40.7537C10.1499 38.4715 8.38148 37.2065 9.78679 33.4254L9.88651 33.1633C7.98375 32.5491 7.49024 32.4223 5.88578 31.2728C3.36501 26.0407 4.84047 25.3363 7.92602 21.3186L7.41982 20.1718C6.76378 18.4419 6.91083 17.7234 7.35701 16.0104C7.66996 15.3032 7.80658 15.244 8.40149 14.7087L8.75246 14.3058C9.52962 13.6352 9.64145 13.5197 10.6318 13.2802C10.584 10.4571 11.2921 7.91569 14.4092 6.79996C15.5314 6.39705 16.7604 6.47875 17.8384 7.03662C18.0068 5.57715 18.028 5.30105 18.6094 3.95146Z" fill="#9DDECF"/>
<path d="M18.6092 3.95146C21.4855 -0.353686 26.0183 -1.08905 30.6444 1.49179C33.3747 3.01606 33.3989 6.85348 33.6251 6.969C35.8997 8.13545 41.4655 6.3576 40.132 13.5507C40.6168 13.6606 41.1283 13.7479 41.5694 13.9649L42.2967 14.6016C43.3246 15.12 43.4493 14.9341 43.6412 16.1794C44.2817 18.0925 43.9203 20.1916 42.3922 21.6003C41.8038 21.4538 41.6649 21.5609 41.0317 21.6792C39.1498 21.0086 39.6106 18.7236 37.4222 16.5795L36.0991 16.8077C35.7099 16.7655 35.4873 16.5683 35.1237 16.3541C34.6857 15.2638 32.208 13.6268 31.0762 12.6716C28.8734 13.1112 23.8119 14.1762 21.8674 13.1985C21.4187 12.4237 21.5162 12.7702 21.5931 11.832C20.5573 12.6068 21.1556 17.5403 14.5412 16.8528C14.4992 18.9378 14.3947 18.6335 13.3021 20.355C11.2616 23.5697 9.2188 20.555 7.4197 20.1718C6.76366 18.4419 6.91071 17.7234 7.3569 16.0104C7.66984 15.3032 7.80646 15.244 8.40137 14.7087L8.75234 14.3058C9.5295 13.6352 9.64133 13.5197 10.6317 13.2802C10.5838 10.4571 11.292 7.91569 14.4091 6.79996C15.5313 6.39705 16.7603 6.47875 17.8383 7.03662C18.0067 5.57715 18.0279 5.30105 18.6092 3.95146Z" fill="#5DC0AD"/>
<path d="M10.6318 13.2803L11.3901 13.5648L11.5267 13.9114C10.6837 14.3115 9.68002 14.3707 8.75244 14.3058C9.5296 13.6353 9.64143 13.5198 10.6318 13.2803Z" fill="#3D8F84"/>
<path d="M17.8381 7.03657C18.0066 5.5771 18.0277 5.301 18.6091 3.95142L18.6232 4.16273C18.6793 5.15167 18.6283 5.44469 18.4612 6.41673C18.7308 6.9915 18.7711 7.14365 19.2204 7.61699L18.6736 7.88182L17.8381 7.03657Z" fill="#3D8F84"/>
<path d="M42.2966 14.6018C43.3245 15.1202 43.4493 14.9343 43.6411 16.1796C42.7608 15.8387 42.5206 15.4471 42.2966 14.6018Z" fill="#3D8F84"/>
<path d="M8.40141 14.7087L8.49972 15.5089C7.84368 16.0386 8.20733 15.8696 7.35693 16.0104C7.66988 15.3032 7.8065 15.2441 8.40141 14.7087Z" fill="#3D8F84"/>
<path d="M41.5696 13.9649C40.7956 14.1537 40.4102 14.2326 39.7852 13.9424L40.1322 13.5508C40.617 13.6607 41.1285 13.748 41.5696 13.9649Z" fill="#3D8F84"/>
<path d="M19.2206 7.61719L19.938 8.01725L19.9087 8.36944C19.1842 8.35817 19.3859 8.34127 18.6738 7.88202L19.2206 7.61719Z" fill="#4DAB98"/>
<path d="M7.41982 20.1718C9.21892 20.555 11.2617 23.5698 13.3022 20.355C14.3948 18.6335 14.4993 18.9378 14.5413 16.8528C21.1558 17.5403 20.5575 12.6068 21.5932 11.832C21.5163 12.7703 21.4188 12.4237 21.8676 13.1985C23.812 14.1762 28.8736 13.1112 31.0763 12.6716C32.2081 13.6268 34.6858 15.2638 35.1238 16.3541C28.5339 12.1786 28.8753 14.472 21.7462 13.886C20.0648 16.3598 18.2992 16.9148 15.4861 17.9122L11.749 23.2852C9.33385 21.451 8.90429 21.8962 6.38211 23.4627C4.10781 27.5481 6.28803 34.096 10.578 31.9377C11.0482 29.7683 10.2586 25.8632 11.311 24.353L11.7059 24.3587C11.4448 26.0971 10.7851 28.9343 11.36 30.4642C12.6597 30.9629 12.4045 29.8979 13.5833 30.4924C12.967 31.5856 11.8884 31.4531 11.1876 32.4703C7.71531 37.5249 12.2684 39.7225 16.0342 41.892C17.099 42.5062 17.4604 41.8187 17.9173 41.0524L18.306 41.4806C19.1933 41.3144 18.8493 41.5257 19.4096 40.8946C19.3682 40.3198 19.3282 39.9254 19.2451 39.359C19.744 39.3309 19.9316 39.3337 20.4302 39.3731C20.6206 38.4997 20.6155 38.8519 20.3211 37.97C20.16 37.8235 19.0172 36.7867 19.0113 36.7162C18.7713 33.8565 16.27 35.7019 14.63 34.6087C16.1339 33.3549 16.5784 35.2906 16.0536 31.98L16.3303 31.8138C17.0784 32.6224 17.1624 34.4707 17.4032 34.5327C21.2867 35.5244 23.6379 40.3255 16.839 42.988C15.7858 42.4386 14.7858 41.7455 13.6408 41.9484L12.9025 42.3766C12.2752 46.1014 20.8513 46.0422 22.6166 44.7602C23.0391 44.0277 22.856 43.4867 22.7447 42.6189L22.9965 42.1174C23.7391 41.9117 23.4808 41.83 24.0275 42.0244C26.8288 43.0275 30.9896 41.6215 33.5484 40.3001C33.9123 40.1113 34.2751 39.9197 34.6362 39.7282C35.2159 37.6517 37.9865 35.1525 39.589 33.6452C40.067 33.6649 40.3079 33.6508 40.7715 33.7748C44.3314 41.4666 39.1406 41.2017 38.4719 43.8502C38.4423 43.9657 38.3823 44.2643 38.3333 44.3799C38.1271 44.8701 37.726 45.149 37.2488 45.3294C34.9706 46.2 30.3369 46.1774 28.0527 45.2843C27.3415 44.5066 27.5632 44.4531 27.5153 43.1909C26.9037 42.7908 24.8469 42.9176 24.1036 43.05C23.8498 43.8107 23.8374 44.0868 23.745 44.8926C22.109 46.6113 16.1503 45.9267 13.8858 45.4899C11.6394 45.2476 13.225 41.5426 12.4363 40.7537C10.1499 38.4716 8.38148 37.2065 9.78679 33.4254L9.88651 33.1634C7.98375 32.5491 7.49024 32.4224 5.88578 31.2728C3.36501 26.0407 4.84047 25.3363 7.92602 21.3186L7.41982 20.1718Z" fill="#3D8F84"/>
<path d="M39.6427 34.6143C40.121 34.7918 40.4936 34.9749 40.8195 35.3834C41.3767 36.0794 41.6158 37.0261 41.5175 37.9051C41.3609 39.3111 40.3376 41.1621 39.1331 41.9426C38.5416 42.3286 38.2647 42.4103 37.6039 42.2384L37.4208 41.1847C36.9329 41.6834 36.8323 41.8919 36.1332 42.03L35.4876 41.4946C35.2189 40.7705 35.1659 40.0971 35.4329 39.3561C35.734 38.5193 36.4411 38.3277 37.1661 37.9586C37.8157 36.5442 38.4973 35.6652 39.6427 34.6143Z" fill="#9DDECF"/>
<path d="M34.5547 40.3789C35.2783 43.0471 36.2527 42.4301 37.4507 44.346L37.3084 44.7658C36.0482 45.4617 33.5088 45.2983 32.0401 45.3236C31.0404 45.2617 29.7047 45.3067 28.8216 44.8081C28.2774 44.5009 28.2456 44.4559 28.0901 43.8529C29.1354 42.1117 32.4931 41.5679 34.2367 40.5649L34.5547 40.3789Z" fill="#9DDECF"/>
<path d="M36.0991 16.8078L37.4222 16.5796C39.6106 18.7237 39.1497 21.0087 41.0317 21.6793C41.6649 21.5609 41.8037 21.4539 42.3922 21.6004C43.2668 22.2428 44.1327 22.8683 44.9814 23.5445C46.1915 26.7367 46.2112 27.8158 45.007 31.0221C43.3538 32.3069 42.5539 32.5858 40.6621 33.3719C40.4748 33.186 40.2601 32.8056 40.2996 32.6535C40.8858 30.391 41.1705 28.7005 40.9694 26.3225C40.6674 22.6316 38.9162 19.2112 36.0991 16.8078Z" fill="#3D8F84"/>
<path d="M41.0725 22.2542C41.8939 22.4711 42.8727 22.6712 43.5617 23.1839C44.5411 23.9109 45.2916 25.2379 45.4315 26.4466C45.638 28.2329 45.0051 29.8699 43.9226 31.2476C43.2218 31.6421 42.3573 32.1295 41.5424 31.9633C41.2105 31.056 41.7953 29.3317 41.7967 28.2583C41.7995 26.2663 41.4015 24.2208 41.0725 22.2542Z" fill="#9DDECF"/>
<path d="M23.8529 23.0203C24.3616 23.1921 24.8571 23.3809 25.2743 23.7331C25.7199 24.1106 26.005 24.7671 26.0548 25.3447C26.1548 26.5027 25.6075 27.4438 24.8923 28.2947C24.5259 28.227 24.1529 28.1707 23.8228 27.9875C23.287 27.6917 22.9141 27.1902 22.7837 26.5816C22.509 25.2996 23.1938 24.0571 23.8529 23.0203Z" fill="#2A2A2B"/>
<path d="M32.0085 22.7668L33.1809 23.6628C33.6476 25.2012 34.0606 26.8269 32.4902 27.7595C29.2416 27.4411 30.4449 24.4545 32.0085 22.7668Z" fill="#2A2A2B"/>
<path d="M31.9288 21.8652C31.1482 21.0172 31.1356 21.2567 30.9519 20.2959C31.8719 20.3044 33.6206 21.5356 34.4586 22.0681L34.618 22.6598C34.027 23.274 33.9603 23.2853 33.1808 23.6628L32.0085 22.7669L31.9288 21.8652Z" fill="#151516"/>
<path d="M31.9287 21.8652C32.9656 22.4034 33.5478 22.9697 34.6179 22.6598C34.027 23.274 33.9602 23.2853 33.1808 23.6628L32.0084 22.7669L31.9287 21.8652Z" fill="#9DDECF"/>
<path d="M24.767 20.0789C25.1949 20.2366 25.1143 20.2761 25.2994 20.6621C24.6374 21.9525 23.0299 22.547 21.7674 23.0964L21.2578 22.5414C21.9229 21.4369 23.7904 21.2199 24.767 20.0789Z" fill="#2E2E2E"/>
<path d="M28.3016 30.4446C28.7604 30.5235 29.2618 30.6362 29.6773 30.8531C30.2198 31.1349 30.6621 31.5406 30.8358 32.1351C30.0928 32.2083 29.7046 31.8336 29.0818 31.4673C28.1142 31.6138 27.4371 32.0703 26.4236 31.8702C26.7365 31.1546 27.6464 30.808 28.3016 30.4446Z" fill="#151516"/>
<path d="M2.9442 8.71021C3.37263 8.79755 3.80925 8.88768 4.22163 9.03701C4.87175 9.27086 5.32356 10.0795 5.57623 10.6937C5.88861 11.4516 5.85763 12.1363 5.55849 12.8745L4.97315 12.9928C4.33514 12.9336 3.5315 12.9224 2.95687 12.6096C2.18619 12.1898 1.9893 11.6432 1.80396 10.8628C1.97916 9.88511 2.26393 9.42867 2.9442 8.71021Z" fill="#5DC0AD"/>
<path d="M1.20622 16.1345C1.86479 16.1937 2.68224 16.1993 3.29152 16.4642C3.84249 16.7065 3.8684 16.8868 4.07797 17.4052C3.88107 18.4759 2.99574 19.1662 2.26139 19.9156C1.5631 20.0762 1.19749 20.0508 0.533566 19.7804C0.143718 19.2648 0.0110448 19.1211 0.00034091 18.442C-0.015715 17.4362 0.53751 16.8135 1.20622 16.1345Z" fill="#5DC0AD"/>
</svg>
