<svg width="59" height="41" viewBox="0 0 59 41" fill="none" xmlns="http://www.w3.org/2000/svg">
<path d="M12.7899 2.948C13.7098 1.51915 15.1602 0.516251 16.8199 0.155995C18.6791 -0.240773 20.6187 0.126798 22.2054 1.17349C22.8478 1.59703 23.6047 2.31998 24.0014 2.97233C24.6828 4.37928 24.7728 4.83203 25.1038 6.37772C27.7758 6.07589 29.5621 6.52863 30.5915 9.3133C30.6961 10.1847 30.6547 11.4602 31.1147 11.9665L32.0516 12.3098C32.9155 12.984 33.3122 14.0867 33.7965 15.0993C33.4314 15.978 33.1029 16.6474 32.9374 17.5943C33.3779 18.5996 34.619 19.2983 35.4951 20.1672C36.1911 22.5065 36.1643 23.1564 35.6995 25.5638L35.517 25.7682C34.8429 26.5155 33.0275 27.6693 32.8109 28.0612C35.5559 30.2203 35.6776 27.2336 38.1185 27.0875C38.1939 27.0705 38.2694 27.0559 38.3448 27.0389L38.4811 27.0145L38.8169 28.4044L39.0505 28.5261L40.0288 29.0008L40.097 29.4535L40.5447 29.2393L41.141 29.5388C42.9856 34.3365 35.8942 34.9913 32.7306 34.7308C31.1585 34.5994 30.6182 32.893 28.6397 33.8935C27.3913 35.5244 29.3309 37.5885 28.9439 39.6235C27.6931 41.5343 21.8185 41.0377 19.9324 40.3683C19.2997 39.6916 19.5455 39.2267 19.4457 38.0096C18.7205 37.6177 17.2458 37.7881 16.4622 38.0047C15.9852 38.7228 16.1239 39.3947 16.0728 40.3805C15.5228 40.5338 14.9655 40.6507 14.4009 40.7335C12.6512 40.9988 8.37787 41.3809 6.94937 40.0933C5.24344 38.5549 7.26085 37.2088 7.29735 35.7994C7.32656 34.614 5.31888 33.3214 4.96844 32.1652C4.64478 31.0869 4.84921 29.7602 4.79811 28.6941C4.75187 27.7545 2.62493 27.477 1.63447 26.5423C0.673213 25.7415 0.15728 24.9552 0.0356019 23.6797C-0.297797 20.1697 1.78535 19.6877 3.15301 17.8207C2.6152 16.9371 2.37913 15.8928 2.08224 14.8875C2.64926 13.1788 2.73687 12.3536 4.20917 11.3337L5.77153 11.2266C5.08527 8.2301 6.2777 6.86699 8.79887 5.55498C9.46567 5.46735 10.6411 5.45518 11.3298 5.44301C12.055 4.85881 12.1986 3.85838 12.7899 2.948Z" fill="#9DDECF"/>
<path d="M12.79 2.948C13.7099 1.51915 15.1602 0.516251 16.8199 0.155995C18.6792 -0.240773 20.6187 0.126798 22.2054 1.17349C22.8479 1.59703 23.6047 2.31998 24.0014 2.97233C24.6828 4.37928 24.7728 4.83203 25.1038 6.37772C27.7759 6.07589 29.5621 6.52862 30.5915 9.3133C30.6962 10.1847 30.6548 11.4602 31.1147 11.9665L32.0516 12.3098L32.1417 12.5848C33.1224 15.4571 33.9352 15.8977 31.4262 18.6191C30.6742 17.1465 29.4063 14.6246 27.8075 14.0599L27.3987 14.2011C26.8 14.021 26.5055 13.7045 26.0261 13.3053C25.0965 13.0108 22.8674 11.7524 22.0692 11.1633C21.3269 11.5016 21.2685 11.5454 20.4703 11.6331C18.19 10.3016 15.5496 12.4485 14.7271 9.62976C14.4983 10.6083 14.3061 11.7913 13.3959 12.283C12.0818 12.9938 10.3978 13.8287 9.00332 14.3131C8.10534 15.8442 7.16355 18.2783 5.59877 18.7773L5.20697 18.5096C4.56207 18.1907 3.81011 17.6893 3.15305 17.8207C2.61523 16.9371 2.37917 15.8928 2.08228 14.8875C2.6493 13.1788 2.7369 12.3536 4.20921 11.3337L5.77157 11.2265C5.0853 8.2301 6.27774 6.86699 8.79891 5.55497C9.46571 5.46734 10.6411 5.45518 11.3298 5.44301C12.055 4.85881 12.1986 3.85837 12.79 2.948Z" fill="#5DC0AD"/>
<path d="M12.7899 2.94824C13.0162 4.31867 12.6658 4.42575 12.6439 5.68908C12.6366 6.06151 13.7536 7.22261 13.5418 7.55122C11.1472 5.67691 11.4514 6.46803 8.79883 5.55522C9.46563 5.46759 10.641 5.45543 11.3297 5.44326C12.0549 4.85906 12.1985 3.85862 12.7899 2.94824Z" fill="#4DAB98"/>
<path d="M22.0691 11.1633C22.4585 10.5256 22.4706 10.489 23.0523 10.0436C23.4027 11.2558 22.529 11.0051 24.308 12.0055C24.7898 12.2733 25.8509 12.8404 26.0261 13.3054C25.0965 13.0108 22.8673 11.7524 22.0691 11.1633Z" fill="#28726C"/>
<path d="M24.001 2.97229C24.6824 4.37923 24.7724 4.83199 25.1034 6.37768C24.9866 6.86208 24.9963 6.82555 24.6556 7.19068C24.2224 6.63082 24.0253 3.75852 24.001 2.97229Z" fill="#3D8F84"/>
<path d="M30.5914 9.31335C30.696 10.1848 30.6546 11.4603 31.1146 11.9666C30.5768 12.193 30.8445 12.1638 30.2872 12.0932C29.9587 11.3094 30.2775 10.0752 30.5914 9.31335Z" fill="#3D8F84"/>
<path d="M5.77159 11.2266L6.15608 11.5016C5.51605 11.8108 4.82249 11.6647 4.20923 11.3337L5.77159 11.2266Z" fill="#3D8F84"/>
<path d="M5.59873 18.7774C7.16351 18.2784 8.1053 15.8443 9.00329 14.3132C10.3977 13.8288 12.0818 12.9939 13.3959 12.2831C14.306 11.7914 14.4983 10.6084 14.727 9.62988C15.5496 12.4486 18.19 10.3017 20.4702 11.6332C19.1294 11.7281 15.0824 11.4458 14.4399 11.9642C13.1063 13.0426 9.72364 14.8341 8.6261 16.1096C5.72042 19.4858 5.91754 23.7066 5.73746 27.8593C5.37486 32.1605 4.81514 32.1726 8.44845 35.2762C8.6188 35.4222 8.46305 36.1549 9.41214 36.9095C10.332 37.0117 10.4999 37.0166 11.415 36.8706C11.634 36.4519 11.6973 36.3229 11.8506 35.8774L12.8751 35.9261C13.1939 35.1472 12.8581 34.8526 12.9408 34.7577C13.6538 33.9374 13.5954 34.5386 13.5516 33.5041C12.5587 31.7393 9.93293 31.7686 10.2104 28.2536C10.8309 29.1178 10.8309 30.0914 11.2519 30.6975C12.1694 32.0217 14.0043 32.124 14.2355 34.0372C13.7901 35.3614 13.2912 35.3784 13.537 36.2718C15.3525 37.927 20.1247 36.7781 21.5167 37.3209C20.8402 37.7956 20.3291 38.0365 20.0103 38.7765C20.0493 39.1416 19.9616 39.4143 20.2853 39.609C21.8501 40.5437 27.0506 40.8163 28.3964 39.7112C28.5862 38.7473 27.8683 36.688 27.5738 35.6267L27.2526 35.3492C26.5907 35.7119 25.0819 36.6491 24.4248 36.5298C24.746 36.0673 26.6904 35.0498 27.2915 34.5776C33.8962 29.3709 33.3049 19.5321 27.3986 14.2012L27.8075 14.06C29.4063 14.6248 30.6742 17.1466 31.4262 18.6192C33.9352 15.8979 33.1224 15.4573 32.1417 12.585L32.0516 12.3099C32.9155 12.9842 33.3122 14.0868 33.7965 15.0994C33.4314 15.9782 33.1029 16.6476 32.9374 17.5944C33.3779 18.5998 34.619 19.2984 35.4951 20.1674C36.1911 22.5066 36.1643 23.1565 35.6995 25.5639L35.517 25.7684C34.8429 26.5157 33.0275 27.6694 32.8109 28.0613C35.5559 30.2204 35.6776 27.2337 38.1185 27.0877C38.1939 27.0706 38.2694 27.056 38.3448 27.039L38.4811 27.0147L38.8169 28.4046L39.0505 28.5263L40.0288 29.0009L40.097 29.4537L40.5447 29.2395L41.141 29.5389C42.9856 34.3366 35.8942 34.9914 32.7306 34.7309C31.1585 34.5995 30.6182 32.8932 28.6397 33.8936C27.3913 35.5245 29.3309 37.5886 28.9439 39.6236C27.6931 41.5344 21.8185 41.0379 19.9324 40.3685C19.2997 39.6918 19.5455 39.2268 19.4457 38.0097C18.7205 37.6178 17.2458 37.7882 16.4622 38.0049C15.9852 38.723 16.1239 39.3948 16.0728 40.3806C15.5228 40.534 14.9655 40.6508 14.4009 40.7336C12.6512 40.9989 8.37787 41.3811 6.94937 40.0934C5.24344 38.555 7.26085 37.2089 7.29735 35.7995C7.32656 34.6141 5.31888 33.3216 4.96844 32.1653C4.64478 31.087 4.84921 29.7604 4.79811 28.6942C4.75187 27.7546 2.62493 27.4771 1.63447 26.5424C0.673213 25.7416 0.15728 24.9553 0.0356019 23.6798C-0.297797 20.1698 1.78535 19.6878 3.15301 17.8208C3.81008 17.6894 4.56203 18.1908 5.20693 18.5097L5.59873 18.7774Z" fill="#3D8F84"/>
<path d="M32.0637 28.3631C37.437 30.5611 34.9962 28.3241 37.8459 27.6353C38.5151 28.3144 37.9457 27.9858 38.206 29.1858C38.6611 28.974 38.5394 28.9741 38.8169 28.4045L39.0505 28.5262L40.0288 29.0008L40.0969 29.4536C39.8852 31.1599 40.3281 29.8406 41.1434 30.9019L40.9073 31.4131L39.7076 31.7758L40.2454 32.3989C39.7489 33.9568 31.6427 35.1812 30.0999 32.7178C30.9443 31.0699 31.4091 30.1205 32.0637 28.3631Z" fill="#9DDECF"/>
<path d="M5.59907 18.7773C5.67938 18.8455 5.81322 18.9502 5.87163 19.0354C5.98114 19.1984 5.21458 25.9825 5.16104 26.8831C4.7157 27.4551 4.9055 27.2677 4.1949 27.5744C0.49831 27.1776 -1.66026 18.3246 5.20727 18.5096L5.59907 18.7773Z" fill="#9DDECF"/>
<path d="M8.13438 36.3835C8.37774 36.6489 8.90582 37.3767 9.19298 37.5178C10.4317 38.1215 12.7144 36.8387 14.1599 37.1381C14.8121 37.2744 14.963 37.5203 15.3183 38.0266C15.4424 38.7958 15.2866 39.3508 15.0846 40.0859C13.24 40.4827 9.33655 41.0401 7.72796 39.8619C7.32886 39.5698 7.13176 39.2437 7.04658 38.7593C6.8811 37.8367 7.6209 37.07 8.13438 36.3835Z" fill="#9DDECF"/>
<path d="M31.9178 18.4001C32.6479 18.5559 33.2319 18.7531 33.8379 19.2131C34.8697 19.9921 35.5122 21.1824 35.5974 22.4725C35.7239 24.1131 35.1885 25.3205 34.1202 26.5278C33.614 26.9343 33.2855 27.2069 32.6357 27.3116L32.424 26.9586C32.7671 24.7898 32.6138 22.8985 32.0662 20.7807C31.9592 20.3596 31.5941 19.5564 31.6112 19.1669C31.6209 18.9819 31.8424 18.59 31.9178 18.4001Z" fill="#9DDECF"/>
<path d="M17.0242 25.7902C17.708 25.8827 18.1095 26.5155 18.6571 26.8855C21.0858 28.5237 21.6917 26.2186 23.6313 25.8875L23.9525 26.3695C23.3052 27.1265 22.4096 27.7448 21.4411 28.0028C20.3971 28.2827 19.1681 28.3217 18.2312 27.7107C17.4135 27.1776 17.214 26.6786 17.0242 25.7902Z" fill="#151516"/>
<path d="M22.6945 20.2379C23.1082 20.233 23.5901 20.199 23.9867 20.3207C24.4078 20.4497 24.8288 20.8659 25.0088 21.2603C25.2644 21.8201 25.2133 22.0976 25.0186 22.6526L24.5732 22.6964L23.9673 21.9297L23.8456 21.584L23.4733 21.5499L22.2978 22.7548L22.0253 22.7135C22.0009 21.7495 22.3076 21.0899 22.6945 20.2379Z" fill="#2A2A2B"/>
<path d="M15.652 20.2183C16.0073 20.2085 16.3893 20.1842 16.7422 20.2328C17.2605 20.3034 17.6986 20.6637 17.942 21.1238C18.251 21.7055 18.1999 22.022 17.9736 22.6013L17.628 22.6305L17.0269 21.6763C16.8639 21.5741 16.5621 21.5692 16.3674 21.5376C15.9415 21.9051 15.5157 22.2143 15.046 22.5185L14.7783 22.4479C14.9073 21.6009 15.2553 20.9607 15.652 20.2183Z" fill="#2A2A2B"/>
<path d="M16.8296 17.3607L17.3844 17.4435L17.5012 17.811C16.815 18.5291 15.8683 18.8918 14.9825 19.3178L14.6077 19.3981L14.5542 18.9429C15.2088 18.2638 16.0265 17.8354 16.8296 17.3607Z" fill="#151516"/>
<path d="M22.5632 17.0078C23.3249 17.3072 24.639 18.0959 25.2206 18.6752C25.5223 18.9746 25.425 19.1085 25.4347 19.515C24.6098 19.1426 23.2908 18.7215 22.7092 18.0618C22.3952 17.704 22.5291 17.4557 22.5632 17.0078Z" fill="#151516"/>
<path d="M35.6337 10.0291C40.4959 9.50332 43.1437 8.96049 47.4024 6.18555C53.3963 9.72725 53.2843 8.71465 58.94 10.421C59.0884 17.1174 58.5287 23.5582 53.5885 28.7405C52.3864 30.0014 49.2057 32.7495 47.3659 33.027C45.6478 33.2851 42.3357 29.7482 41.1408 29.5389L40.5446 29.2395L40.0968 29.4537L40.0287 29.0009L39.0504 28.5263L38.8168 28.4046L38.4809 27.0147L38.7365 26.4962C35.7602 20.81 35.1251 16.4455 35.6337 10.0291Z" fill="#2A70AB"/>
<path d="M38.7367 26.4961C39.1967 27.0462 39.4473 27.3407 39.8245 27.9468C39.513 28.4678 39.7248 28.2389 39.0507 28.5262L38.817 28.4045L38.4812 27.0146L38.7367 26.4961Z" fill="#DFE0D9"/>
<path d="M47.3004 6.68213C50.9653 8.8607 54.4137 9.71996 58.4072 10.9151C58.4145 15.5498 58.3025 20.3159 56.0977 24.5075C54.3577 27.8131 51.0116 31.3304 47.3734 32.4623C44.986 31.6761 42.8835 30.3032 41.1191 28.5141C36.3153 23.6482 35.977 17.0687 36.0451 10.6449C39.7441 9.94148 44.4433 9.34997 47.3004 6.68213Z" fill="#6BB9EB"/>
<path d="M39.0017 12.3511C42.4354 11.9908 44.5697 11.0147 47.4389 9.23535C50.5538 11.1364 52.5907 11.9592 56.2873 12.575C56.2021 19.0596 55.601 24.7921 49.7069 28.7403C49.3541 29.2661 49.303 29.2539 48.7822 29.5801C45.6648 31.4763 41.7297 26.2696 40.3718 23.9888C38.7389 21.2479 37.5854 15.4668 38.4614 12.3584L39.0017 12.3511Z" fill="#53A1D8"/>
<path d="M39.002 12.3511C42.4357 11.9908 44.57 11.0147 47.4391 9.23535C50.5541 11.1364 52.591 11.9592 56.2876 12.575C56.2024 19.0596 55.6013 24.7921 49.7072 28.7403C50.1574 27.8299 52.0581 26.1163 52.8003 25.1523C55.5283 21.6009 55.5697 17.2048 55.9007 12.9572C52.5034 12.558 50.3716 11.5965 47.4075 9.9437C45.3901 11.1072 41.2773 13.3856 39.002 12.3511Z" fill="#2A70AB"/>
<path d="M38.4614 12.3584C39.5079 19.2885 38.4201 23.7089 45.1099 28.4117C46.5311 29.4121 46.7331 29.5509 48.4318 29.5776L48.7822 29.5801C45.6648 31.4763 41.7297 26.2696 40.3718 23.9888C38.7389 21.248 37.5854 15.4668 38.4614 12.3584Z" fill="#2A70AB"/>
<path d="M50.8 15.2966C51.0725 15.3794 51.3938 15.4573 51.642 15.6009C52.0338 15.8297 52.2236 16.1461 52.2698 16.594C52.4621 18.5073 48.2472 22.7476 46.9209 24.213C45.9182 23.434 45.0154 22.66 44.1588 21.7204C43.6721 21.1946 42.7741 20.4035 42.5696 19.717C42.3969 19.1401 42.5088 18.8943 42.7789 18.3856C43.1002 18.2468 43.346 18.1422 43.7037 18.1738C45.1322 18.3052 45.8501 19.515 46.6629 20.5471C48.0452 18.7896 49.1962 16.8715 50.8 15.2966Z" fill="#FAF4EE"/>
</svg>
