<svg width="98" height="78" viewBox="0 0 98 78" fill="none" xmlns="http://www.w3.org/2000/svg">
<path d="M35.5383 6.26516C41.0272 -2.07585 52.1793 -1.72713 58.4833 5.17116C60.7636 7.66486 61.084 9.75729 61.7531 12.9485C67.1572 12.1363 70.9546 12.6905 72.9523 18.5904C73.6166 21.7147 72.9617 23.0523 75.8734 24.4377C77.3717 25.1208 77.6308 25.7514 78.5825 27.1081C79.8546 30.6624 79.9772 31.5318 78.6108 35.0574L77.0183 37.8855C86.5733 42.3235 85.4425 53.12 87.0963 61.4563C87.6899 64.4277 98.1164 67.8578 97.0846 72.7544C91.0398 80.3884 65.6306 73.5139 57.2112 76.0602C48.2499 78.7689 6.13378 79.2562 0.3245 73.4614C-1.98414 67.1412 8.81464 64.3512 7.88177 55.265C7.50014 51.5483 12.2634 39.4381 15.3824 36.8297L15.9008 36.6052C15.9055 28.4792 15.8348 29.64 21.1164 24.9536C22.7041 23.5491 22.6052 15.1507 25.8467 13.7654C28.4852 12.6379 30.5912 12.294 33.2061 12.724C33.8327 10.2207 34.1248 8.40535 35.5383 6.26516Z" fill="#BCCDDA"/>
<path d="M35.5379 6.26516C41.0268 -2.07585 52.1789 -1.72713 58.4829 5.17116C60.7633 7.66486 61.0837 9.75729 61.7527 12.9485C67.1568 12.1363 70.9543 12.6905 72.952 18.5904C73.6163 21.7147 72.9614 23.0523 75.8731 24.4377C77.3713 25.1208 77.6305 25.7514 78.5822 27.1081C79.8543 30.6624 79.9768 31.5318 78.6105 35.0574L77.018 37.8855C71.9625 36.973 71.2794 30.4808 68.0803 28.5413C65.6067 27.0412 60.6267 26.468 58.874 23.6972L59.3121 21.7338C58.4122 21.8436 56.0047 24.1893 55.1001 24.9679C53.795 25.7753 51.4345 25.7036 49.7855 25.8087C48.2872 25.8422 42.4167 25.7944 41.4367 26.3629C41.3189 26.6304 40.6122 28.2642 40.5133 28.3837C35.3777 29.2101 38.1434 31.1544 30.5296 31.3503C30.4966 32.2102 30.5107 32.6067 30.5814 33.4618C29.1255 36.1848 28.2775 37.3361 26.4023 39.8107C23.5848 38.4349 20.3292 37.0304 17.2054 36.5861L16.5317 37.231L15.9004 36.6052C15.9051 28.4792 15.8344 29.64 21.116 24.9536C22.7038 23.5491 22.6049 15.1507 25.8464 13.7654C28.4848 12.6379 30.5908 12.294 33.2057 12.724C33.8324 10.2207 34.1244 8.40535 35.5379 6.26516Z" fill="#5DC0AD"/>
<path d="M41.4367 26.3631C40.975 25.2309 41.3943 22.9856 42.0963 21.9442C42.4355 23.0716 42.4214 23.4443 42.4921 24.5812C44.4285 25.3599 47.2601 24.6481 50.0728 25.0733L49.7854 25.809C48.2872 25.8425 42.4167 25.7946 41.4367 26.3631Z" fill="#3D8F84"/>
<path d="M33.2056 12.7242C33.8322 10.221 34.1243 8.40563 35.5377 6.26544C35.3823 7.24477 35.0949 9.51874 34.8028 10.3452C33.4694 14.1096 36.9323 12.5666 38.0631 14.8883C36.857 15.0125 34.1008 13.5364 33.2056 12.7242Z" fill="#3D8F84"/>
<path d="M78.6104 35.0574C78.0451 32.7262 78.2052 29.4824 78.5821 27.1082C79.8542 30.6624 79.9768 31.5319 78.6104 35.0574Z" fill="#3D8F84"/>
<path d="M72.9523 18.5903C73.6167 21.7146 72.9617 23.0522 75.8734 24.4376C74.7427 24.4854 74.1915 24.4233 73.0607 24.3039L72.4341 23.5204C72.4906 21.7672 72.7168 20.3149 72.9523 18.5903Z" fill="#28726C"/>
<path d="M55.1001 24.9683C59.8068 24.5431 65.9224 28.3983 69.1262 31.728C73.7435 36.5291 75.1192 42.0229 76.6081 48.3097L70.7988 53.9373C67.3075 54.0233 62.4312 55.2844 60.1885 58.6093C58.2238 61.5234 61.1308 66.3437 60.2638 68.4791C58.954 69.2243 57.8468 69.8215 56.4852 70.476C54.1342 65.2545 53.1966 63.2672 49.352 58.8291L49.6111 58.5711C50.1954 57.974 50.6477 57.6873 50.7514 56.8896C49.6724 56.7845 49.0222 57.5536 48.3108 57.5106C46.8832 57.4246 35.8583 46.3176 33.7852 44.6456C31.7781 43.0213 29.625 41.7219 27.3682 40.4942C28.1597 39.3477 30.0207 36.8683 30.4825 35.7265C32.6262 30.4525 36.7299 33.2328 40.5133 28.384C40.6122 28.2645 41.3189 26.6307 41.4367 26.3632C42.4167 25.7947 48.2872 25.8425 49.7855 25.8091C51.4345 25.704 53.795 25.7756 55.1001 24.9683Z" fill="#9DDECF"/>
<path d="M46.6237 41.3301C47.778 41.4638 48.9512 41.631 49.8369 42.4671C50.5672 43.1502 51.0572 44.1677 51.0949 45.1805C51.1609 47.0675 50.4259 48.2761 49.2245 49.6329C48.5601 49.5755 48.7439 49.6233 48.1926 49.48C47.1467 49.2172 46.308 48.9258 45.7945 47.8605C44.8333 45.8732 45.9123 43.2362 46.6237 41.3301Z" fill="#151516"/>
<path d="M63.0342 48.9067L61.3381 49.241C57.2909 47.7935 58.5394 42.4717 61.3239 40.9908C64.5324 41.7934 63.8587 45.1709 63.6797 47.8318L63.0342 48.9067Z" fill="#2A2A2B"/>
<path d="M54.2465 54.0181C55.3867 54.0133 56.885 54.0373 57.8414 54.7156C58.5952 55.2555 58.7555 55.4466 58.9345 56.3351C57.6671 56.6647 57.0546 56.1201 55.9191 55.5851C55.2972 55.5516 55.5516 55.4943 54.9768 55.7332C53.7471 56.2443 53.0592 56.5023 51.7306 56.2873L51.6505 55.5516L51.4526 55.8574C52.4232 55.8431 53.0121 54.4958 54.2465 54.0181Z" fill="#151516"/>
<path d="M58.9727 35.2773C59.0763 35.3108 59.1894 35.3299 59.2883 35.3776C60.3107 35.8888 64.5228 37.9 65.0364 38.631C65.2437 38.9271 65.3803 39.7775 65.4934 40.1596C64.0705 40.0307 62.5157 39.8109 61.2766 39.0418C59.8207 38.1341 59.4108 36.8729 58.9727 35.2773Z" fill="#151516"/>
<path d="M49.0603 36.2281C49.7058 36.4431 49.5927 36.4622 49.9178 37.0068C48.8719 39.2855 46.1957 40.2648 44.0756 41.2585L43.4112 40.8142L43.3877 40.1407L49.0603 36.2281Z" fill="#151516"/>
<path d="M55.1004 24.9682C56.005 24.1895 58.4126 21.8439 59.3125 21.734L58.8744 23.6974C60.627 26.4682 65.6071 27.0415 68.0806 28.5415C71.2798 30.4811 71.9629 36.9733 77.0183 37.8857C86.5733 42.3238 85.4425 53.1203 87.0963 61.4565C87.6899 64.4279 98.1164 67.858 97.0846 72.7546C91.0398 80.3886 65.6306 73.5142 57.2112 76.0604C48.2499 78.7691 6.13378 79.2564 0.3245 73.4617C-1.98414 67.1414 8.81465 64.3515 7.88177 55.2652C7.50014 51.5485 12.2634 39.4383 15.3824 36.83C10.0679 48.9736 9.59671 47.1057 7.95711 61.8387C5.91703 64.4518 4.36226 65.6748 2.51064 67.8627L2.07717 68.3643C0.960539 70.409 0.315077 71.1638 1.50238 73.2849C6.89233 76.8582 52.4808 79.715 56.0898 74.4696C57.1075 66.3484 44.0849 55.1028 38.7704 49.9912C31.7219 43.2076 25.564 40.2218 16.5321 37.2312L17.2058 36.5863C20.3295 37.0306 23.5852 38.4351 26.4027 39.811C28.2778 37.3364 29.1259 36.1851 30.5818 33.4621C30.5111 32.607 30.497 32.2104 30.5299 31.3505C38.1437 31.1547 35.3781 29.2104 40.5136 28.3839C36.7303 33.2328 32.6266 30.4524 30.4828 35.7265C30.0211 36.8682 28.1601 39.3476 27.3685 40.4941C29.6253 41.7219 31.7785 43.0212 33.7856 44.6455C35.8587 46.3175 46.8836 57.4245 48.3111 57.5105C49.0226 57.5535 49.6728 56.7844 50.7517 56.8895C50.6481 57.6873 50.1957 57.9739 49.6115 58.5711L49.3524 58.8291C53.197 63.2671 54.1345 65.2544 56.4856 70.4759C57.8472 69.8214 58.9544 69.2242 60.2642 68.479C61.1311 66.3436 58.2242 61.5234 60.1889 58.6093C62.4316 55.2843 67.3079 54.0232 70.7991 53.9372L76.6085 48.3096C75.1196 42.0228 73.7439 36.529 69.1266 31.728C65.9228 28.3982 59.8072 24.543 55.1004 24.9682Z" fill="#5B808C"/>
<path d="M82.3087 42.9686C85.4795 51.1807 84.2922 55.012 86.8223 62.4692C87.6845 65.0155 95.7789 68.6939 96.1322 72.1908C93.7859 75.7881 75.5053 75.5874 71.2743 74.9951C68.1223 68.2353 69.1212 68.4216 69.4463 60.9644C68.2166 58.8815 68.2919 58.1315 66.445 57.3911L65.1494 57.3385L65.041 56.4452C66.1388 55.2031 67.5145 55.0693 69.1494 54.9738C69.7855 54.9403 70.4168 54.926 71.0529 54.9212C75.2932 50.9991 79.1284 47.8748 82.3087 42.9686Z" fill="#BCCDDA"/>
<path d="M65.1492 57.3386L66.4448 57.3911C66.5155 60.3386 69.8984 62.5361 67.9054 67.2178C62.261 72.2148 57.46 61.1985 62.1244 57.8784L64.3152 58.2844L65.1492 57.3386Z" fill="#9DDECF"/>
<path d="M61.2818 68.9281C62.4785 68.6415 64.6269 69.0905 65.7341 69.6351C66.9073 70.2131 68.2124 71.4791 68.5328 72.7785C68.7118 73.519 68.5705 73.5811 68.203 74.2403L66.6388 74.3884C64.1417 74.4266 60.641 74.7897 58.502 73.2753C57.8707 72.8311 57.9885 72.6256 57.833 71.9091C58.5492 70.3469 59.8731 69.7641 61.2818 68.9281Z" fill="#5DC0AD"/>
<path d="M75.5195 38.8508C76.2734 38.9941 77.0743 39.1374 77.7999 39.4002C78.9071 39.7967 79.9106 40.6852 80.2781 41.8317C80.7304 43.241 80.3017 44.3828 79.7411 45.6774C78.8883 46.2841 78.7469 46.523 77.6727 46.4943C76.3347 44.6216 76.099 41.1343 75.5195 38.8508Z" fill="#9DDECF"/>
</svg>
