<svg width="451" height="198" viewBox="0 0 451 198" fill="none" xmlns="http://www.w3.org/2000/svg">
<g clip-path="url(#clip0_1416_56)">
<path d="M42.3623 75.9786L39.8088 87.7038L38.4018 87.3974L40.8804 76.0161L41.4554 76.1577L33.0551 86.233L31.4918 85.8925L28.0384 73.2522L28.6203 73.3625L26.1451 84.7281L24.7381 84.4217L27.2915 72.6966L29.5115 73.18L32.8514 85.6646L31.929 85.4638L40.1423 75.4952L42.3623 75.9786ZM53.8303 81.0651L55.2805 81.3174L53.7361 90.1921L52.2859 89.9397L53.8303 81.0651ZM42.5916 88.2526L44.136 79.378L45.5862 79.6304L44.1213 88.0479L43.6588 87.2528L47.8045 87.9743C48.435 88.084 48.9616 88.0132 49.3843 87.762C49.8088 87.5002 50.0686 87.0961 50.1637 86.5496C50.2606 85.9927 50.1526 85.5246 49.8396 85.1453C49.5285 84.7555 49.0577 84.5058 48.4272 84.396L44.3918 83.6938L44.5866 82.5746L48.7481 83.2988C49.4311 83.4177 50.0038 83.6418 50.4662 83.9713C50.9391 84.3026 51.279 84.7137 51.4859 85.2044C51.6928 85.6952 51.746 86.2295 51.6454 86.8075C51.543 87.396 51.3115 87.8862 50.951 88.2782C50.5904 88.6702 50.1317 88.9422 49.5747 89.0943C49.0282 89.2483 48.4134 89.2658 47.7303 89.1469L42.5916 88.2526ZM70.7719 88.7334C70.5833 89.4327 70.2281 90.0293 69.7065 90.5234C69.1954 91.0185 68.5689 91.384 67.8267 91.6199C67.0846 91.8558 66.2837 91.9304 65.4241 91.8435C64.4265 91.7427 63.5655 91.4573 62.841 90.9874C62.1177 90.5069 61.5738 89.8945 61.2095 89.1501C60.8569 88.3961 60.7272 87.5575 60.8205 86.6342C60.9138 85.7109 61.2081 84.9205 61.7034 84.263C62.2104 83.5959 62.8658 83.1046 63.6696 82.7892C64.4734 82.4737 65.374 82.3664 66.3716 82.4672C67.2313 82.5541 68.001 82.7874 68.681 83.167C69.362 83.536 69.9033 84.0142 70.305 84.6016C70.7172 85.19 70.9452 85.8509 70.9891 86.5844L69.4768 86.4316C69.3926 85.6726 69.0537 85.0487 68.4598 84.5598C67.8776 84.0614 67.1408 83.7672 66.2494 83.6771C65.5277 83.6041 64.8818 83.6836 64.3116 83.9154C63.752 84.1484 63.2973 84.5098 62.9476 84.9998C62.599 85.4792 62.3887 86.0744 62.3169 86.7854C62.245 87.4965 62.3314 88.127 62.576 88.6771C62.8206 89.2271 63.1937 89.6722 63.6954 90.0124C64.2088 90.343 64.8263 90.5448 65.5479 90.6177C66.45 90.7089 67.2361 90.5686 67.9062 90.1967C68.5869 89.826 69.0381 89.2872 69.2596 88.5806L70.7719 88.7334ZM86.2769 83.2363L86.4558 92.2425L84.9841 92.2717L84.8154 83.7774L85.5006 84.4359L77.9341 84.5863L78.6086 83.9007L78.7774 92.3951L77.3056 92.4243L77.1267 83.4181L86.2769 83.2363ZM94.5151 91.2653C93.4759 91.4527 92.5224 91.4241 91.6545 91.1795C90.7972 90.933 90.0847 90.4979 89.517 89.8741C88.9493 89.2502 88.5831 88.4817 88.4184 87.5684C88.2519 86.6446 88.3266 85.7966 88.6426 85.0243C88.9586 84.2519 89.4752 83.6006 90.1925 83.0702C90.9202 82.538 91.8037 82.1782 92.843 81.9908C93.8927 81.8016 94.8463 81.8302 95.7036 82.0766C96.5609 82.3231 97.2725 82.753 97.8383 83.3663C98.4146 83.9777 98.786 84.7454 98.9526 85.6691C99.1173 86.5824 99.0373 87.4314 98.7127 88.2161C98.3986 88.9989 97.8829 89.6555 97.1657 90.1859C96.4484 90.7162 95.5649 91.076 94.5151 91.2653ZM94.2965 90.0528C95.0733 89.9128 95.7206 89.6552 96.2382 89.2801C96.754 88.8944 97.1177 88.417 97.3294 87.8477C97.5516 87.2766 97.5993 86.6393 97.4725 85.936C97.3475 85.2432 97.0813 84.668 96.6736 84.2104C96.2764 83.7509 95.7689 83.4305 95.1509 83.2493C94.5329 83.0681 93.8356 83.0475 93.0587 83.1875C92.2924 83.3257 91.6462 83.5885 91.1199 83.9761C90.6041 84.3617 90.2404 84.8391 90.0287 85.4084C89.817 85.9777 89.7737 86.6087 89.8986 87.3015C90.0254 88.0049 90.2874 88.5863 90.6845 89.0458C91.0817 89.5052 91.5893 89.8256 92.2072 90.0068C92.8338 90.1757 93.5302 90.191 94.2965 90.0528ZM99.1049 80.8624L100.423 80.2442L104.248 88.3999L102.93 89.0181L99.1049 80.8624ZM106.116 77.5744L107.449 76.9494L111.274 85.1052L109.941 85.7302L106.116 77.5744ZM101.481 84.0071L108.376 80.7735L108.886 81.86L101.99 85.0936L101.481 84.0071ZM114.725 82.7521L108.566 76.1786L109.629 75.1831L115.328 81.2662L114.865 81.5907L114.252 70.851L115.642 69.5492L121.801 76.1226L120.738 77.1181L114.984 70.9767L115.47 70.6529L116.091 81.4721L114.725 82.7521ZM124.071 73.5742L116.845 68.1957L118.144 66.4502L127.443 68.0258L126.984 68.6419L122.796 60.1995L124.096 58.454L131.322 63.8324L130.491 64.9491L123.598 59.819L123.894 59.4211L128.131 68.1193L127.262 69.2873L117.726 67.7349L118.022 67.337L124.902 72.4575L124.071 73.5742ZM138.12 55.7412L135.317 53.7766L134.735 52.7565L133.647 52.3561L131.259 49.904L132.234 48.7585L135.388 51.9888L139.094 54.5957L138.12 55.7412ZM135.057 52.3787C135.619 53.1657 136.014 53.9776 136.24 54.8144C136.466 55.6362 136.504 56.439 136.355 57.2228C136.213 57.9985 135.873 58.7032 135.334 59.3369C134.76 60.0112 134.102 60.4805 133.359 60.7447C132.608 61.0019 131.836 61.0528 131.044 60.8972C130.251 60.7265 129.501 60.3406 128.794 59.7392C128.079 59.1309 127.578 58.4525 127.291 57.7038C127.01 56.947 126.941 56.1808 127.083 55.4051C127.225 54.6294 127.582 53.9044 128.156 53.2301C128.695 52.5964 129.336 52.1475 130.079 51.8833C130.829 51.611 131.631 51.516 132.485 51.5985C133.339 51.681 134.196 51.9411 135.057 52.3787ZM129.769 58.5937C130.289 59.0361 130.838 59.321 131.415 59.4485C132 59.5678 132.565 59.5374 133.111 59.3572C133.655 59.162 134.131 58.8247 134.539 58.3454C134.953 57.8579 135.224 57.3178 135.35 56.725C135.475 56.1171 135.473 55.4854 135.345 54.8299C135.223 54.1662 134.989 53.5117 134.642 52.8662C133.949 52.6269 133.265 52.5004 132.591 52.4867C131.923 52.4649 131.303 52.5678 130.732 52.7955C130.159 53.0082 129.665 53.3582 129.25 53.8457C128.842 54.325 128.589 54.8523 128.492 55.4277C128.393 55.988 128.45 56.5472 128.661 57.1053C128.88 57.6552 129.249 58.1513 129.769 58.5937ZM134.191 46.8659L135.318 45.9444L141.019 52.9188L139.892 53.8403L134.191 46.8659ZM140.187 41.9648L141.326 41.0332L147.027 48.0076L145.888 48.9392L140.187 41.9648ZM137.263 49.335L143.16 44.5149L143.919 45.444L138.023 50.264L137.263 49.335ZM148.033 47.3393L143.754 39.4123L145.035 38.7207L148.995 46.0564L148.464 46.252L150.611 35.7113L152.286 34.8069L156.565 42.7339L155.284 43.4255L151.286 36.0194L151.839 35.8303L149.68 46.4501L148.033 47.3393ZM162.456 40.7187C161.483 41.0692 160.553 41.1942 159.666 41.0938C158.786 40.9798 158.011 40.6692 157.341 40.1622C156.678 39.6415 156.189 38.9446 155.875 38.0714C155.557 37.1882 155.479 36.3432 155.642 35.5363C155.805 34.7294 156.176 34.012 156.755 33.3842C157.334 32.7563 158.085 32.2762 159.008 31.9439C159.922 31.6151 160.792 31.5286 161.619 31.6844C162.446 31.8402 163.177 32.2176 163.812 32.8165C164.453 33.4019 164.948 34.1763 165.294 35.1397L157.075 38.0986L156.679 36.9996L164.312 34.2521L163.678 35.0415C163.42 34.4201 163.072 33.9273 162.635 33.5632C162.198 33.1991 161.704 32.9746 161.152 32.8899C160.6 32.8052 160.017 32.873 159.405 33.0934C158.743 33.3318 158.215 33.6751 157.82 34.1231C157.423 34.561 157.17 35.0715 157.062 35.6544C156.965 36.2336 157.033 36.8495 157.268 37.5018C157.514 38.1843 157.882 38.7204 158.374 39.1102C158.866 39.5001 159.442 39.7293 160.101 39.798C160.761 39.8666 161.472 39.7637 162.235 39.4891C162.927 39.2398 163.563 38.8806 164.142 38.4113C164.732 37.9384 165.22 37.4055 165.608 36.8126L165.998 37.8965C165.628 38.5059 165.126 39.0661 164.494 39.5771C163.858 40.0781 163.179 40.4586 162.456 40.7187ZM167.739 38.7028L165.724 29.923L167.845 29.4363L173.903 36.6643L173.155 36.8361L175.44 27.6933L177.56 27.2066L179.575 35.9863L178.219 36.2977L176.297 27.9234L176.78 27.8125L174.367 37.1817L172.948 37.5074L166.694 30.1437L167.178 30.0327L169.096 38.3914L167.739 38.7028ZM185.632 34.9955L184.614 26.0452L186.061 25.8806L187.003 34.1632L186.438 34.147L192.356 25.1644L194.248 24.9492L195.266 33.8994L193.82 34.064L192.868 25.7019L193.451 25.7322L187.492 34.7839L185.632 34.9955ZM206.835 33.3805C205.673 33.4316 204.666 33.2409 203.815 32.8086C202.962 32.3656 202.293 31.7064 201.806 30.831C201.329 29.955 201.064 28.8937 201.009 27.6469C200.927 25.7714 201.336 24.2746 202.237 23.1566C203.148 22.0275 204.48 21.355 206.232 21.1391C206.933 21.0443 207.511 20.9654 207.968 20.9027C208.435 20.8394 208.816 20.7799 209.113 20.7242C209.409 20.6578 209.657 20.5935 209.857 20.5313C210.068 20.4686 210.273 20.3956 210.472 20.3121L210.531 21.6548C210.343 21.7485 210.085 21.8345 209.758 21.913C209.43 21.9915 209.006 22.0688 208.487 22.1451C207.977 22.2102 207.35 22.2805 206.606 22.3559C205.139 22.5058 204.041 23.0239 203.311 23.9101C202.581 24.7964 202.251 26.0174 202.319 27.5733L202.345 28.1647L202.214 28.1064C202.441 27.4238 202.767 26.8382 203.194 26.3496C203.632 25.8606 204.154 25.4799 204.762 25.2077C205.379 24.9349 206.061 24.7822 206.807 24.7493C207.734 24.7086 208.552 24.8541 209.261 25.186C209.969 25.5072 210.529 25.979 210.941 26.6016C211.363 27.2236 211.593 27.9555 211.63 28.7974C211.669 29.6819 211.495 30.4583 211.108 31.1266C210.721 31.7949 210.162 32.3266 209.432 32.7217C208.702 33.1169 207.836 33.3364 206.835 33.3805ZM206.812 32.1483C207.516 32.1173 208.118 31.9628 208.618 31.6845C209.129 31.4058 209.512 31.0259 209.769 30.5448C210.036 30.0633 210.156 29.5135 210.129 28.8954C210.101 28.2667 209.933 27.7296 209.625 27.284C209.328 26.8273 208.912 26.4826 208.379 26.2498C207.856 26.0165 207.243 25.9153 206.54 25.9463C205.602 25.9875 204.793 26.2793 204.112 26.8218C203.442 27.3637 202.957 28.1164 202.658 29.0798C202.905 30.0833 203.392 30.8573 204.121 31.4018C204.86 31.9458 205.757 32.1947 206.812 32.1483ZM218.841 32.4346C217.813 32.55 216.879 32.4562 216.04 32.1532C215.211 31.8384 214.529 31.3568 213.994 30.7083C213.469 30.0481 213.155 29.2568 213.052 28.3346C212.947 27.4018 213.067 26.5618 213.413 25.8146C213.758 25.0674 214.286 24.4555 214.994 23.9789C215.703 23.5022 216.545 23.2092 217.52 23.0997C218.484 22.9915 219.351 23.1089 220.119 23.4521C220.888 23.7952 221.511 24.3317 221.99 25.0615C222.479 25.7795 222.78 26.6473 222.894 27.6649L214.213 28.639L214.083 27.4783L222.144 26.5738L221.344 27.1948C221.238 26.5306 221.014 25.9707 220.673 25.5152C220.332 25.0597 219.903 24.7268 219.385 24.5165C218.868 24.3063 218.286 24.2374 217.64 24.3099C216.94 24.3884 216.346 24.5999 215.859 24.9444C215.371 25.2783 215.007 25.7163 214.767 26.2584C214.538 26.7993 214.462 27.4143 214.539 28.1033C214.62 28.8241 214.855 29.4311 215.243 29.9242C215.631 30.4174 216.138 30.7737 216.763 30.9933C217.389 31.2129 218.105 31.2775 218.91 31.1871C219.642 31.1051 220.344 30.9029 221.016 30.5806C221.699 30.2571 222.297 29.8518 222.811 29.3648L222.94 30.5096C222.439 31.0166 221.821 31.4455 221.088 31.7961C220.353 32.1362 219.604 32.349 218.841 32.4346ZM229.793 30.2962C228.93 30.5372 228.132 30.6328 227.398 30.5831C226.672 30.5201 226.056 30.3157 225.549 29.9699C225.043 29.624 224.683 29.1486 224.47 28.5437L225.857 28.1563C226.105 28.7292 226.541 29.1003 227.164 29.2696C227.795 29.4257 228.562 29.3775 229.466 29.125C230.35 28.8783 231.004 28.5627 231.428 28.1784C231.86 27.781 232.001 27.3152 231.852 26.781C231.728 26.3392 231.432 26.073 230.964 25.9823C230.503 25.8784 229.831 25.9499 228.947 26.1967L227.144 26.7002L226.848 25.6369L228.604 25.1463C229.395 24.9253 229.944 24.6282 230.249 24.2549C230.565 23.8788 230.67 23.5007 230.564 23.1205C230.432 22.648 230.095 22.3544 229.553 22.2398C229.019 22.1121 228.377 22.153 227.627 22.3624C226.806 22.592 226.173 22.9237 225.729 23.3577C225.283 23.7814 225.092 24.2887 225.158 24.8796L223.771 25.267C223.68 24.7052 223.754 24.1584 223.994 23.6265C224.233 23.0946 224.636 22.6164 225.204 22.192C225.772 21.7675 226.493 21.4333 227.366 21.1894C228.168 20.9656 228.891 20.8798 229.537 20.932C230.18 20.9739 230.712 21.1353 231.134 21.4162C231.556 21.6971 231.833 22.0739 231.965 22.5465C232.077 22.9471 232.055 23.3463 231.901 23.7439C231.756 24.1386 231.465 24.5025 231.026 24.8354C230.598 25.1654 230.008 25.4352 229.258 25.6447L229.185 25.3827C230.297 25.0391 231.216 24.9596 231.943 25.1441C232.68 25.3258 233.144 25.7557 233.333 26.4337C233.479 26.9577 233.439 27.4673 233.212 27.9627C232.995 28.4552 232.6 28.9034 232.026 29.3073C231.452 29.7112 230.708 30.0408 229.793 30.2962ZM243.931 27.7998C242.879 27.896 241.932 27.7845 241.088 27.4654C240.256 27.1453 239.584 26.6498 239.072 25.9789C238.561 25.308 238.263 24.5105 238.179 23.5864C238.093 22.6516 238.241 21.8133 238.623 21.0714C239.005 20.3295 239.577 19.7256 240.337 19.2597C241.109 18.7928 242.02 18.5112 243.072 18.415C244.134 18.3178 245.081 18.4292 245.914 18.7493C246.747 19.0695 247.418 19.5597 247.928 20.2199C248.449 20.8792 248.753 21.6762 248.838 22.6109C248.923 23.5351 248.769 24.3739 248.378 25.1274C247.997 25.8799 247.426 26.4891 246.665 26.9551C245.904 27.421 244.993 27.7026 243.931 27.7998ZM243.818 26.5729C244.604 26.501 245.272 26.3007 245.82 25.972C246.367 25.6327 246.771 25.1887 247.032 24.64C247.303 24.0904 247.406 23.4597 247.34 22.748C247.276 22.0469 247.061 21.4507 246.695 20.9594C246.339 20.4671 245.861 20.1038 245.261 19.8695C244.662 19.6352 243.969 19.554 243.183 19.6259C242.407 19.6969 241.74 19.9025 241.182 20.2427C240.635 20.582 240.231 21.026 239.971 21.5747C239.71 22.1234 239.612 22.7483 239.676 23.4493C239.742 24.161 239.952 24.763 240.308 25.2553C240.663 25.7476 241.141 26.1109 241.741 26.3452C242.35 26.568 243.043 26.6438 243.818 26.5729ZM260.074 23.7539C259.95 24.4674 259.65 25.0938 259.176 25.6331C258.712 26.1726 258.121 26.5934 257.403 26.8957C256.685 27.1979 255.895 27.3448 255.031 27.3362C254.028 27.3263 253.145 27.1202 252.381 26.718C251.617 26.305 251.019 25.7444 250.589 25.0361C250.17 24.3173 249.964 23.4939 249.974 22.5659C249.983 21.638 250.204 20.8241 250.638 20.1244C251.082 19.4141 251.69 18.8654 252.462 18.4784C253.234 18.0913 254.121 17.9027 255.124 17.9127C255.988 17.9212 256.776 18.0837 257.487 18.4001C258.199 18.7058 258.781 19.1329 259.235 19.6814C259.698 20.23 259.985 20.8676 260.096 21.594L258.576 21.579C258.423 20.8308 258.029 20.2402 257.393 19.8072C256.768 19.3637 256.008 19.1375 255.112 19.1286C254.386 19.1214 253.75 19.2591 253.204 19.5417C252.667 19.8245 252.247 20.2256 251.944 20.7453C251.64 21.2544 251.485 21.8662 251.477 22.5808C251.47 23.2954 251.614 23.9156 251.907 24.4412C252.201 24.9668 252.613 25.3762 253.143 25.6694C253.684 25.9521 254.317 26.0971 255.043 26.1043C255.949 26.1132 256.72 25.9022 257.353 25.4711C257.997 25.0401 258.398 24.4627 258.554 23.7389L260.074 23.7539ZM262.48 30.2497C262.023 30.2107 261.619 30.1174 261.267 29.9697C260.916 29.822 260.574 29.6216 260.243 29.3685L260.342 28.2047C260.674 28.4578 261 28.6515 261.32 28.7859C261.641 28.9203 262.013 29.0056 262.438 29.0418C262.895 29.0807 263.298 29.008 263.645 28.8235C263.992 28.6497 264.297 28.3384 264.56 27.8898L269.832 18.9774L271.394 19.1105L265.646 28.5283C265.383 28.9663 265.086 29.3156 264.753 29.5763C264.43 29.8486 264.077 30.0379 263.693 30.1444C263.32 30.2517 262.916 30.2868 262.48 30.2497ZM264.245 27.2528L260.729 18.2014L262.339 18.3387L265.728 27.3791L264.245 27.2528ZM270.404 28.0533L275.028 23.1295L275.799 24.3728L272.142 28.3348L270.404 28.0533ZM285.472 30.4951L283.269 25.5835L284.378 24.6448L287.209 30.7767L285.472 30.4951ZM279.754 28.1744L279.353 27.9474L286.66 21.5622L288.35 21.8361L279.375 29.5071L278.254 29.3254L272.146 19.2099L273.836 19.4838L278.768 27.8527L278.316 27.9415L279.537 20.4078L280.974 20.6407L279.754 28.1744ZM299.185 32.2946L298.396 35.7415L297.117 35.4487L297.638 33.1716L288.281 31.0295L287.759 33.3066L286.496 33.0174L287.285 29.5705L289.203 30.0097L289.621 30.1217L296.499 31.6961L296.924 31.7769L299.185 32.2946ZM291.055 22.4235L299.274 24.305L297.361 32.6648L295.926 32.3363L297.725 24.4757L298.246 25.2842L291.555 23.7526L292.27 23.424C292.215 23.9038 292.146 24.3748 292.062 24.837C291.98 25.2889 291.894 25.7124 291.804 26.1075C291.447 27.6672 290.977 28.8565 290.396 29.6754C289.827 30.4863 289.221 30.8179 288.576 30.6704L288.101 30.02C289.125 29.5649 289.927 28.0688 290.507 25.5318C290.619 25.0431 290.719 24.5352 290.807 24.0082C290.908 23.4731 290.99 22.9449 291.055 22.4235ZM304.453 35.1988C303.455 34.9253 302.622 34.4924 301.955 33.9002C301.301 33.3006 300.846 32.6007 300.59 31.8005C300.347 30.9928 300.348 30.1415 300.593 29.2465C300.841 28.3412 301.264 27.6055 301.862 27.0394C302.459 26.4733 303.176 26.1 304.01 25.9197C304.845 25.7393 305.736 25.7789 306.682 26.0383C307.618 26.295 308.38 26.725 308.966 27.3282C309.553 27.9315 309.934 28.6608 310.108 29.5161C310.296 30.364 310.255 31.2817 309.984 32.2692L301.559 29.9593L301.868 28.8328L309.691 30.9778L308.718 31.2585C308.865 30.602 308.865 29.999 308.716 29.4497C308.568 28.9003 308.293 28.4322 307.89 28.0453C307.488 27.6584 306.973 27.3789 306.345 27.2068C305.666 27.0207 305.037 26.9974 304.456 27.1369C303.879 27.2662 303.379 27.5382 302.955 27.953C302.542 28.3707 302.244 28.9138 302.06 29.5824C301.869 30.282 301.862 30.9326 302.04 31.5344C302.217 32.1362 302.556 32.6549 303.056 33.0906C303.556 33.5263 304.197 33.8513 304.979 34.0657C305.689 34.2603 306.416 34.3324 307.159 34.2819C307.913 34.2343 308.62 34.0795 309.278 33.8175L308.973 34.9285C308.32 35.2139 307.587 35.3836 306.776 35.4377C305.968 35.4816 305.193 35.4019 304.453 35.1988ZM313.142 28.072L314.531 28.5075L311.837 37.1032L310.448 36.6677L313.142 28.072ZM320.531 30.3881L321.936 30.8283L319.242 39.424L317.837 38.9838L320.531 30.3881ZM312.767 31.9956L320.034 34.2733L319.676 35.4184L312.408 33.1407L312.767 31.9956ZM321.304 40.1094L324.288 31.6099L325.662 32.0921L322.901 39.9576L322.399 39.6966L331.64 34.1907L333.437 34.8214L330.453 43.3209L329.079 42.8386L331.867 34.8977L332.378 35.179L323.071 40.7294L321.304 40.1094ZM341.133 42.4127L340.73 43.4577L336.356 41.7711L336.352 41.7355C335.755 41.5053 335.273 41.1993 334.906 40.8176C334.549 40.4398 334.318 40.0138 334.215 39.5397C334.116 39.0556 334.165 38.5597 334.36 38.0522C334.552 37.5545 334.845 37.1646 335.24 36.8823C335.638 36.5901 336.097 36.4239 336.615 36.3838C337.148 36.3375 337.712 36.4295 338.31 36.6597L343.654 38.7204L340.413 47.1253L339.04 46.5957L342.114 38.6238L342.394 39.4523L338.11 37.8003C337.553 37.5854 337.063 37.5509 336.641 37.6968C336.219 37.8427 335.919 38.1446 335.743 38.6024C335.57 39.0503 335.589 39.4749 335.8 39.8764C336.011 40.2779 336.396 40.5861 336.953 40.8009L341.133 42.4127ZM338.455 41.843L333.606 44.5005L331.949 43.8616L336.842 41.2213L338.455 41.843ZM358.481 44.9394L354.934 53.2196L353.581 52.6399L356.927 44.8304L357.28 45.7127L350.323 42.7326L351.22 42.3858L347.875 50.1953L346.522 49.6157L350.069 41.3355L358.481 44.9394ZM361.24 56.3148C360.28 55.8739 359.514 55.3048 358.943 54.6077C358.381 53.915 358.045 53.1504 357.937 52.314C357.828 51.4775 357.967 50.6377 358.355 49.7945C358.747 48.9416 359.293 48.2888 359.994 47.8362C360.695 47.3836 361.492 47.1451 362.384 47.1205C363.285 47.1004 364.215 47.3109 365.175 47.7519C366.144 48.1973 366.91 48.7663 367.472 49.459C368.034 50.1517 368.372 50.9114 368.485 51.7382C368.608 52.5694 368.473 53.4114 368.081 54.2643C367.693 55.1076 367.142 55.7581 366.427 56.2159C365.721 56.6782 364.923 56.9216 364.031 56.9462C363.139 56.9707 362.209 56.7603 361.24 56.3148ZM361.754 55.1954C362.471 55.525 363.15 55.6841 363.789 55.6726C364.432 55.6515 365.004 55.468 365.503 55.1223C366.012 54.781 366.416 54.2857 366.714 53.6363C367.008 52.9966 367.119 52.3725 367.047 51.764C366.984 51.1599 366.751 50.6067 366.348 50.1045C365.945 49.6023 365.384 49.1864 364.667 48.8568C363.96 48.5316 363.279 48.3774 362.626 48.3941C361.982 48.4152 361.411 48.5987 360.911 48.9444C360.412 49.2902 360.015 49.7829 359.721 50.4225C359.423 51.0719 359.305 51.6987 359.368 52.3027C359.431 52.9068 359.664 53.46 360.067 53.9622C360.484 54.4592 361.047 54.8702 361.754 55.1954ZM367.694 59.0883L371.694 51.017L373.644 51.9833L373.756 61.4138L373.068 61.0727L380.626 55.4432L382.575 56.4095L378.576 64.4807L377.328 63.8626L381.143 56.1641L381.588 56.3843L373.787 62.1077L372.483 61.4612L372.305 51.802L372.75 52.0222L368.942 59.7064L367.694 59.0883ZM384.721 67.9308C383.787 67.4373 383.054 66.8267 382.522 66.099C381.999 65.3762 381.706 64.5942 381.644 63.753C381.582 62.9119 381.768 62.081 382.202 61.2606C382.64 60.4307 383.222 59.8093 383.947 59.3962C384.672 58.9832 385.481 58.7891 386.372 58.814C387.273 58.8439 388.191 59.1056 389.124 59.5991C390.067 60.0975 390.8 60.7081 391.323 61.4309C391.846 62.1537 392.141 62.9309 392.208 63.7627C392.285 64.5994 392.104 65.4327 391.665 66.2626C391.231 67.083 390.645 67.702 389.905 68.1195C389.175 68.542 388.364 68.7408 387.473 68.7159C386.581 68.6909 385.664 68.4293 384.721 67.9308ZM385.296 66.8416C385.994 67.2105 386.663 67.4069 387.301 67.4308C387.945 67.4454 388.526 67.2939 389.044 66.9764C389.571 66.6638 390.001 66.1916 390.335 65.5598C390.664 64.9374 390.809 64.3204 390.771 63.7087C390.742 63.1021 390.54 62.5369 390.165 62.0131C389.79 61.4893 389.254 61.043 388.556 60.6741C387.868 60.3103 387.197 60.1186 386.544 60.099C385.9 60.0845 385.319 60.236 384.801 60.5535C384.284 60.871 383.86 61.341 383.531 61.9634C383.197 62.5953 383.045 63.2145 383.074 63.8211C383.103 64.4278 383.305 64.993 383.68 65.5168C384.069 66.0361 384.608 66.4777 385.296 66.8416ZM389.631 70.2895L395.68 67.2854L395.97 68.7196L391.161 71.1588L389.631 70.2895ZM402.903 77.829L402.55 72.4577L403.916 71.9641L404.433 78.6984L402.903 77.829ZM398.352 73.661L398.055 73.3085L407.13 69.8702L408.618 70.7158L397.533 74.7784L396.545 74.2173L394.345 62.6072L395.833 63.4529L397.54 73.0161L397.086 72.9419L400.855 66.3059L402.121 67.0251L398.352 73.661ZM408.95 81.6922C408.065 81.1562 407.383 80.5122 406.903 79.7602C406.438 79.0046 406.192 78.2069 406.164 77.3671C406.151 76.5237 406.385 75.7051 406.866 74.9114C407.352 74.1085 407.96 73.5165 408.69 73.1354C409.419 72.7542 410.21 72.5911 411.062 72.6458C411.915 72.7006 412.761 72.9822 413.6 73.4906C414.43 73.9934 415.045 74.6152 415.444 75.3559C415.844 76.0966 416.011 76.9022 415.945 77.7727C415.894 78.6396 415.603 79.511 415.072 80.3869L407.6 75.8611L408.205 74.8621L415.144 79.0646L414.131 79.0686C414.452 78.4772 414.616 77.8971 414.624 77.3282C414.632 76.7593 414.495 76.2337 414.213 75.7514C413.932 75.2691 413.513 74.8595 412.956 74.5224C412.354 74.1577 411.755 73.9631 411.159 73.9386C410.568 73.9051 410.012 74.0299 409.491 74.3131C408.98 74.6019 408.544 75.0428 408.185 75.6358C407.81 76.2562 407.625 76.8802 407.631 77.5076C407.638 78.1351 407.822 78.7268 408.184 79.2826C408.546 79.8384 409.073 80.3262 409.767 80.7462C410.396 81.1275 411.075 81.3956 411.805 81.5505C412.543 81.7108 413.265 81.755 413.969 81.6829L413.372 82.6683C412.666 82.7641 411.915 82.7272 411.12 82.5574C410.331 82.3785 409.607 82.0901 408.95 81.6922ZM414.36 84.7625L419.243 77.1929L421.072 78.3725L420.122 87.7556L419.476 87.3393L427.62 82.5964L429.448 83.776L424.565 91.3456L423.395 90.591L428.053 83.371L428.47 83.6398L420.074 88.4487L418.851 87.6594L419.762 78.0416L420.179 78.3105L415.53 85.5171L414.36 84.7625Z" fill="black"/>
<path d="M42.3623 117.979L39.8088 129.704L38.4018 129.397L40.8804 118.016L41.4554 118.158L33.0551 128.233L31.4918 127.893L28.0384 115.252L28.6203 115.363L26.1451 126.728L24.7381 126.422L27.2915 114.697L29.5115 115.18L32.8514 127.665L31.929 127.464L40.1423 117.495L42.3623 117.979ZM53.8303 123.065L55.2805 123.317L53.7361 132.192L52.2859 131.94L53.8303 123.065ZM42.5916 130.253L44.136 121.378L45.5862 121.63L44.1213 130.048L43.6588 129.253L47.8045 129.974C48.435 130.084 48.9616 130.013 49.3843 129.762C49.8088 129.5 50.0686 129.096 50.1637 128.55C50.2606 127.993 50.1526 127.525 49.8396 127.145C49.5285 126.756 49.0577 126.506 48.4272 126.396L44.3918 125.694L44.5866 124.575L48.7481 125.299C49.4311 125.418 50.0038 125.642 50.4662 125.971C50.9391 126.303 51.279 126.714 51.4859 127.204C51.6928 127.695 51.746 128.23 51.6454 128.807C51.543 129.396 51.3115 129.886 50.951 130.278C50.5904 130.67 50.1317 130.942 49.5747 131.094C49.0282 131.248 48.4134 131.266 47.7303 131.147L42.5916 130.253ZM70.7719 130.733C70.5833 131.433 70.2281 132.029 69.7065 132.523C69.1954 133.019 68.5689 133.384 67.8267 133.62C67.0846 133.856 66.2837 133.93 65.4241 133.843C64.4265 133.743 63.5655 133.457 62.841 132.987C62.1177 132.507 61.5738 131.894 61.2095 131.15C60.8569 130.396 60.7272 129.557 60.8205 128.634C60.9138 127.711 61.2081 126.92 61.7034 126.263C62.2104 125.596 62.8658 125.105 63.6696 124.789C64.4734 124.474 65.374 124.366 66.3716 124.467C67.2313 124.554 68.001 124.787 68.681 125.167C69.362 125.536 69.9033 126.014 70.305 126.602C70.7172 127.19 70.9452 127.851 70.9891 128.584L69.4768 128.432C69.3926 127.673 69.0537 127.049 68.4598 126.56C67.8776 126.061 67.1408 125.767 66.2494 125.677C65.5277 125.604 64.8818 125.684 64.3116 125.915C63.752 126.148 63.2973 126.51 62.9476 127C62.599 127.479 62.3887 128.074 62.3169 128.785C62.245 129.496 62.3314 130.127 62.576 130.677C62.8206 131.227 63.1937 131.672 63.6954 132.012C64.2088 132.343 64.8263 132.545 65.5479 132.618C66.45 132.709 67.2361 132.569 67.9062 132.197C68.5869 131.826 69.0381 131.287 69.2596 130.581L70.7719 130.733ZM86.2769 125.236L86.4558 134.243L84.9841 134.272L84.8154 125.777L85.5006 126.436L77.9341 126.586L78.6086 125.901L78.7774 134.395L77.3056 134.424L77.1267 125.418L86.2769 125.236ZM94.5151 133.265C93.4759 133.453 92.5224 133.424 91.6545 133.179C90.7972 132.933 90.0847 132.498 89.517 131.874C88.9493 131.25 88.5831 130.482 88.4184 129.568C88.2519 128.645 88.3266 127.797 88.6426 127.024C88.9586 126.252 89.4752 125.601 90.1925 125.07C90.9202 124.538 91.8037 124.178 92.843 123.991C93.8927 123.802 94.8463 123.83 95.7036 124.077C96.5609 124.323 97.2725 124.753 97.8383 125.366C98.4146 125.978 98.786 126.745 98.9526 127.669C99.1173 128.582 99.0373 129.431 98.7127 130.216C98.3986 130.999 97.8829 131.656 97.1657 132.186C96.4484 132.716 95.5649 133.076 94.5151 133.265ZM94.2965 132.053C95.0733 131.913 95.7206 131.655 96.2382 131.28C96.754 130.894 97.1177 130.417 97.3294 129.848C97.5516 129.277 97.5993 128.639 97.4725 127.936C97.3475 127.243 97.0813 126.668 96.6736 126.21C96.2764 125.751 95.7689 125.431 95.1509 125.249C94.5329 125.068 93.8356 125.047 93.0587 125.188C92.2924 125.326 91.6462 125.589 91.1199 125.976C90.6041 126.362 90.2404 126.839 90.0287 127.408C89.817 127.978 89.7737 128.609 89.8986 129.302C90.0254 130.005 90.2874 130.586 90.6845 131.046C91.0817 131.505 91.5893 131.826 92.2072 132.007C92.8338 132.176 93.5302 132.191 94.2965 132.053ZM99.1049 122.862L100.423 122.244L104.248 130.4L102.93 131.018L99.1049 122.862ZM106.116 119.574L107.449 118.949L111.274 127.105L109.941 127.73L106.116 119.574ZM101.481 126.007L108.376 122.774L108.886 123.86L101.99 127.094L101.481 126.007ZM114.725 124.752L108.566 118.179L109.629 117.183L115.328 123.266L114.865 123.591L114.252 112.851L115.642 111.549L121.801 118.123L120.738 119.118L114.984 112.977L115.47 112.653L116.091 123.472L114.725 124.752ZM124.071 115.574L116.845 110.196L118.144 108.45L127.443 110.026L126.984 110.642L122.796 102.2L124.096 100.454L131.322 105.832L130.491 106.949L123.598 101.819L123.894 101.421L128.131 110.119L127.262 111.287L117.726 109.735L118.022 109.337L124.902 114.458L124.071 115.574ZM138.12 97.7412L135.317 95.7766L134.735 94.7565L133.647 94.3561L131.259 91.904L132.234 90.7585L135.388 93.9888L139.094 96.5957L138.12 97.7412ZM135.057 94.3787C135.619 95.1657 136.014 95.9776 136.24 96.8144C136.466 97.6362 136.504 98.439 136.355 99.2228C136.213 99.9985 135.873 100.703 135.334 101.337C134.76 102.011 134.102 102.48 133.359 102.745C132.608 103.002 131.836 103.053 131.044 102.897C130.251 102.727 129.501 102.341 128.794 101.739C128.079 101.131 127.578 100.452 127.291 99.7038C127.01 98.947 126.941 98.1808 127.083 97.4051C127.225 96.6294 127.582 95.9044 128.156 95.2301C128.695 94.5964 129.336 94.1475 130.079 93.8833C130.829 93.611 131.631 93.516 132.485 93.5985C133.339 93.681 134.196 93.9411 135.057 94.3787ZM129.769 100.594C130.289 101.036 130.838 101.321 131.415 101.448C132 101.568 132.565 101.537 133.111 101.357C133.655 101.162 134.131 100.825 134.539 100.345C134.953 99.8579 135.224 99.3178 135.35 98.725C135.475 98.1171 135.473 97.4854 135.345 96.8299C135.223 96.1662 134.989 95.5117 134.642 94.8662C133.949 94.6269 133.265 94.5004 132.591 94.4867C131.923 94.4649 131.303 94.5678 130.732 94.7955C130.159 95.0082 129.665 95.3582 129.25 95.8457C128.842 96.325 128.589 96.8523 128.492 97.4277C128.393 97.988 128.45 98.5472 128.661 99.1053C128.88 99.6552 129.249 100.151 129.769 100.594ZM134.191 88.8659L135.318 87.9444L141.019 94.9188L139.892 95.8403L134.191 88.8659ZM140.187 83.9648L141.326 83.0332L147.027 90.0076L145.888 90.9392L140.187 83.9648ZM137.263 91.335L143.16 86.5149L143.919 87.444L138.023 92.264L137.263 91.335ZM148.033 89.3393L143.754 81.4123L145.035 80.7207L148.995 88.0564L148.464 88.252L150.611 77.7113L152.286 76.8069L156.565 84.7339L155.284 85.4255L151.286 78.0194L151.839 77.8303L149.68 88.4501L148.033 89.3393ZM162.456 82.7187C161.483 83.0692 160.553 83.1942 159.666 83.0938C158.786 82.9798 158.011 82.6692 157.341 82.1622C156.678 81.6415 156.189 80.9446 155.875 80.0714C155.557 79.1882 155.479 78.3432 155.642 77.5363C155.805 76.7294 156.176 76.012 156.755 75.3842C157.334 74.7563 158.085 74.2762 159.008 73.9439C159.922 73.6151 160.792 73.5286 161.619 73.6844C162.446 73.8402 163.177 74.2176 163.812 74.8165C164.453 75.4019 164.948 76.1763 165.294 77.1397L157.075 80.0986L156.679 78.9996L164.312 76.2521L163.678 77.0415C163.42 76.4201 163.072 75.9273 162.635 75.5632C162.198 75.1991 161.704 74.9746 161.152 74.8899C160.6 74.8052 160.017 74.873 159.405 75.0934C158.743 75.3318 158.215 75.6751 157.82 76.1231C157.423 76.561 157.17 77.0715 157.062 77.6544C156.965 78.2336 157.033 78.8495 157.268 79.5018C157.514 80.1843 157.882 80.7204 158.374 81.1102C158.866 81.5001 159.442 81.7293 160.101 81.798C160.761 81.8666 161.472 81.7637 162.235 81.4891C162.927 81.2398 163.563 80.8806 164.142 80.4113C164.732 79.9384 165.22 79.4055 165.608 78.8126L165.998 79.8965C165.628 80.5059 165.126 81.0661 164.494 81.5771C163.858 82.0781 163.179 82.4586 162.456 82.7187ZM167.739 80.7028L165.724 71.923L167.845 71.4363L173.903 78.6643L173.155 78.8361L175.44 69.6933L177.56 69.2066L179.575 77.9863L178.219 78.2977L176.297 69.9234L176.78 69.8125L174.367 79.1817L172.948 79.5074L166.694 72.1437L167.178 72.0327L169.096 80.3914L167.739 80.7028ZM185.632 76.9955L184.614 68.0452L186.061 67.8806L187.003 76.1632L186.438 76.147L192.356 67.1644L194.248 66.9492L195.266 75.8994L193.82 76.064L192.868 67.7019L193.451 67.7322L187.492 76.7839L185.632 76.9955ZM206.835 75.3805C205.673 75.4316 204.666 75.2409 203.815 74.8086C202.962 74.3656 202.293 73.7064 201.806 72.831C201.329 71.955 201.064 70.8937 201.009 69.6469C200.927 67.7714 201.336 66.2746 202.237 65.1566C203.148 64.0275 204.48 63.355 206.232 63.1391C206.933 63.0443 207.511 62.9654 207.968 62.9027C208.435 62.8394 208.816 62.7799 209.113 62.7242C209.409 62.6578 209.657 62.5935 209.857 62.5313C210.068 62.4686 210.273 62.3956 210.472 62.3121L210.531 63.6548C210.343 63.7485 210.085 63.8345 209.758 63.913C209.43 63.9915 209.006 64.0688 208.487 64.1451C207.977 64.2102 207.35 64.2805 206.606 64.3559C205.139 64.5058 204.041 65.0239 203.311 65.9101C202.581 66.7964 202.251 68.0174 202.319 69.5733L202.345 70.1647L202.214 70.1064C202.441 69.4238 202.767 68.8382 203.194 68.3496C203.632 67.8606 204.154 67.4799 204.762 67.2077C205.379 66.9349 206.061 66.7822 206.807 66.7493C207.734 66.7086 208.552 66.8541 209.261 67.186C209.969 67.5072 210.529 67.979 210.941 68.6016C211.363 69.2236 211.593 69.9555 211.63 70.7974C211.669 71.6819 211.495 72.4583 211.108 73.1266C210.721 73.7949 210.162 74.3266 209.432 74.7217C208.702 75.1169 207.836 75.3364 206.835 75.3805ZM206.812 74.1483C207.516 74.1173 208.118 73.9628 208.618 73.6845C209.129 73.4058 209.512 73.0259 209.769 72.5448C210.036 72.0633 210.156 71.5135 210.129 70.8954C210.101 70.2667 209.933 69.7296 209.625 69.284C209.328 68.8273 208.912 68.4826 208.379 68.2498C207.856 68.0165 207.243 67.9153 206.54 67.9463C205.602 67.9875 204.793 68.2793 204.112 68.8218C203.442 69.3637 202.957 70.1164 202.658 71.0798C202.905 72.0833 203.392 72.8573 204.121 73.4018C204.86 73.9458 205.757 74.1947 206.812 74.1483ZM218.841 74.4346C217.813 74.55 216.879 74.4562 216.04 74.1532C215.211 73.8384 214.529 73.3568 213.994 72.7083C213.469 72.0481 213.155 71.2568 213.052 70.3346C212.947 69.4018 213.067 68.5618 213.413 67.8146C213.758 67.0674 214.286 66.4555 214.994 65.9789C215.703 65.5022 216.545 65.2092 217.52 65.0997C218.484 64.9915 219.351 65.1089 220.119 65.4521C220.888 65.7952 221.511 66.3317 221.99 67.0615C222.479 67.7795 222.78 68.6473 222.894 69.6649L214.213 70.639L214.083 69.4783L222.144 68.5738L221.344 69.1948C221.238 68.5306 221.014 67.9707 220.673 67.5152C220.332 67.0597 219.903 66.7268 219.385 66.5165C218.868 66.3063 218.286 66.2374 217.64 66.3099C216.94 66.3884 216.346 66.5999 215.859 66.9444C215.371 67.2783 215.007 67.7163 214.767 68.2584C214.538 68.7993 214.462 69.4143 214.539 70.1033C214.62 70.8241 214.855 71.4311 215.243 71.9242C215.631 72.4174 216.138 72.7737 216.763 72.9933C217.389 73.2129 218.105 73.2775 218.91 73.1871C219.642 73.1051 220.344 72.9029 221.016 72.5806C221.699 72.2571 222.297 71.8518 222.811 71.3648L222.94 72.5096C222.439 73.0166 221.821 73.4455 221.088 73.7961C220.353 74.1362 219.604 74.349 218.841 74.4346ZM229.793 72.2962C228.93 72.5372 228.132 72.6328 227.398 72.5831C226.672 72.5201 226.056 72.3157 225.549 71.9699C225.043 71.624 224.683 71.1486 224.47 70.5437L225.857 70.1563C226.105 70.7292 226.541 71.1003 227.164 71.2696C227.795 71.4257 228.562 71.3775 229.466 71.125C230.35 70.8783 231.004 70.5627 231.428 70.1784C231.86 69.781 232.001 69.3152 231.852 68.781C231.728 68.3392 231.432 68.073 230.964 67.9823C230.503 67.8784 229.831 67.9499 228.947 68.1967L227.144 68.7002L226.848 67.6369L228.604 67.1463C229.395 66.9253 229.944 66.6282 230.249 66.2549C230.565 65.8788 230.67 65.5007 230.564 65.1205C230.432 64.648 230.095 64.3544 229.553 64.2398C229.019 64.1121 228.377 64.153 227.627 64.3624C226.806 64.592 226.173 64.9237 225.729 65.3577C225.283 65.7814 225.092 66.2887 225.158 66.8796L223.771 67.267C223.68 66.7052 223.754 66.1584 223.994 65.6265C224.233 65.0946 224.636 64.6164 225.204 64.192C225.772 63.7675 226.493 63.4333 227.366 63.1894C228.168 62.9656 228.891 62.8798 229.537 62.932C230.18 62.9739 230.712 63.1353 231.134 63.4162C231.556 63.6971 231.833 64.0739 231.965 64.5465C232.077 64.9471 232.055 65.3463 231.901 65.7439C231.756 66.1386 231.465 66.5025 231.026 66.8354C230.598 67.1654 230.008 67.4352 229.258 67.6447L229.185 67.3827C230.297 67.0391 231.216 66.9596 231.943 67.1441C232.68 67.3258 233.144 67.7557 233.333 68.4337C233.479 68.9577 233.439 69.4673 233.212 69.9627C232.995 70.4552 232.6 70.9034 232.026 71.3073C231.452 71.7112 230.708 72.0408 229.793 72.2962ZM243.931 69.7998C242.879 69.896 241.932 69.7845 241.088 69.4654C240.256 69.1453 239.584 68.6498 239.072 67.9789C238.561 67.308 238.263 66.5105 238.179 65.5864C238.093 64.6516 238.241 63.8133 238.623 63.0714C239.005 62.3295 239.577 61.7256 240.337 61.2597C241.109 60.7928 242.02 60.5112 243.072 60.415C244.134 60.3178 245.081 60.4292 245.914 60.7493C246.747 61.0695 247.418 61.5597 247.928 62.2199C248.449 62.8792 248.753 63.6762 248.838 64.6109C248.923 65.5351 248.769 66.3739 248.378 67.1274C247.997 67.8799 247.426 68.4891 246.665 68.9551C245.904 69.421 244.993 69.7026 243.931 69.7998ZM243.818 68.5729C244.604 68.501 245.272 68.3007 245.82 67.972C246.367 67.6327 246.771 67.1887 247.032 66.64C247.303 66.0904 247.406 65.4597 247.34 64.748C247.276 64.0469 247.061 63.4507 246.695 62.9594C246.339 62.4671 245.861 62.1038 245.261 61.8695C244.662 61.6352 243.969 61.554 243.183 61.6259C242.407 61.6969 241.74 61.9025 241.182 62.2427C240.635 62.582 240.231 63.026 239.971 63.5747C239.71 64.1234 239.612 64.7483 239.676 65.4493C239.742 66.161 239.952 66.763 240.308 67.2553C240.663 67.7476 241.141 68.1109 241.741 68.3452C242.35 68.568 243.043 68.6438 243.818 68.5729ZM260.074 65.7539C259.95 66.4674 259.65 67.0938 259.176 67.6331C258.712 68.1726 258.121 68.5934 257.403 68.8957C256.685 69.1979 255.895 69.3448 255.031 69.3362C254.028 69.3263 253.145 69.1202 252.381 68.718C251.617 68.305 251.019 67.7444 250.589 67.0361C250.17 66.3173 249.964 65.4939 249.974 64.5659C249.983 63.638 250.204 62.8241 250.638 62.1244C251.082 61.4141 251.69 60.8654 252.462 60.4784C253.234 60.0913 254.121 59.9027 255.124 59.9127C255.988 59.9212 256.776 60.0837 257.487 60.4001C258.199 60.7058 258.781 61.1329 259.235 61.6814C259.698 62.23 259.985 62.8676 260.096 63.594L258.576 63.579C258.423 62.8308 258.029 62.2402 257.393 61.8072C256.768 61.3637 256.008 61.1375 255.112 61.1286C254.386 61.1214 253.75 61.2591 253.204 61.5417C252.667 61.8245 252.247 62.2256 251.944 62.7453C251.64 63.2544 251.485 63.8662 251.477 64.5808C251.47 65.2954 251.614 65.9156 251.907 66.4412C252.201 66.9668 252.613 67.3762 253.143 67.6694C253.684 67.9521 254.317 68.0971 255.043 68.1043C255.949 68.1132 256.72 67.9022 257.353 67.4711C257.997 67.0401 258.398 66.4627 258.554 65.7389L260.074 65.7539ZM262.48 72.2497C262.023 72.2107 261.619 72.1174 261.267 71.9697C260.916 71.822 260.574 71.6216 260.243 71.3685L260.342 70.2047C260.674 70.4578 261 70.6515 261.32 70.7859C261.641 70.9203 262.013 71.0056 262.438 71.0418C262.895 71.0807 263.298 71.008 263.645 70.8235C263.992 70.6497 264.297 70.3384 264.56 69.8898L269.832 60.9774L271.394 61.1105L265.646 70.5283C265.383 70.9663 265.086 71.3156 264.753 71.5763C264.43 71.8486 264.077 72.0379 263.693 72.1444C263.32 72.2517 262.916 72.2868 262.48 72.2497ZM264.245 69.2528L260.729 60.2014L262.339 60.3387L265.728 69.3791L264.245 69.2528ZM270.404 70.0533L275.028 65.1295L275.799 66.3728L272.142 70.3348L270.404 70.0533ZM285.472 72.4951L283.269 67.5835L284.378 66.6448L287.209 72.7767L285.472 72.4951ZM279.754 70.1744L279.353 69.9474L286.66 63.5622L288.35 63.8361L279.375 71.5071L278.254 71.3254L272.146 61.2099L273.836 61.4838L278.768 69.8527L278.316 69.9415L279.537 62.4078L280.974 62.6407L279.754 70.1744ZM299.185 74.2946L298.396 77.7415L297.117 77.4487L297.638 75.1716L288.281 73.0295L287.759 75.3066L286.496 75.0174L287.285 71.5705L289.203 72.0097L289.621 72.1217L296.499 73.6961L296.924 73.7769L299.185 74.2946ZM291.055 64.4235L299.274 66.305L297.361 74.6648L295.926 74.3363L297.725 66.4757L298.246 67.2842L291.555 65.7526L292.27 65.424C292.215 65.9038 292.146 66.3748 292.062 66.837C291.98 67.2889 291.894 67.7124 291.804 68.1075C291.447 69.6672 290.977 70.8565 290.396 71.6754C289.827 72.4863 289.221 72.8179 288.576 72.6704L288.101 72.02C289.125 71.5649 289.927 70.0688 290.507 67.5318C290.619 67.0431 290.719 66.5352 290.807 66.0082C290.908 65.4731 290.99 64.9449 291.055 64.4235ZM304.453 77.1988C303.455 76.9253 302.622 76.4924 301.955 75.9002C301.301 75.3006 300.846 74.6007 300.59 73.8005C300.347 72.9928 300.348 72.1415 300.593 71.2465C300.841 70.3412 301.264 69.6055 301.862 69.0394C302.459 68.4733 303.176 68.1 304.01 67.9197C304.845 67.7393 305.736 67.7789 306.682 68.0383C307.618 68.295 308.38 68.725 308.966 69.3282C309.553 69.9315 309.934 70.6608 310.108 71.5161C310.296 72.364 310.255 73.2817 309.984 74.2692L301.559 71.9593L301.868 70.8328L309.691 72.9778L308.718 73.2585C308.865 72.602 308.865 71.999 308.716 71.4497C308.568 70.9003 308.293 70.4322 307.89 70.0453C307.488 69.6584 306.973 69.3789 306.345 69.2068C305.666 69.0207 305.037 68.9974 304.456 69.1369C303.879 69.2662 303.379 69.5382 302.955 69.953C302.542 70.3707 302.244 70.9138 302.06 71.5824C301.869 72.282 301.862 72.9326 302.04 73.5344C302.217 74.1362 302.556 74.6549 303.056 75.0906C303.556 75.5263 304.197 75.8513 304.979 76.0657C305.689 76.2603 306.416 76.3324 307.159 76.2819C307.913 76.2343 308.62 76.0795 309.278 75.8175L308.973 76.9285C308.32 77.2139 307.587 77.3836 306.776 77.4377C305.968 77.4816 305.193 77.4019 304.453 77.1988ZM313.142 70.072L314.531 70.5075L311.837 79.1032L310.448 78.6677L313.142 70.072ZM320.531 72.3881L321.936 72.8283L319.242 81.424L317.837 80.9838L320.531 72.3881ZM312.767 73.9956L320.034 76.2733L319.676 77.4184L312.408 75.1407L312.767 73.9956ZM321.304 82.1094L324.288 73.6099L325.662 74.0921L322.901 81.9576L322.399 81.6966L331.64 76.1907L333.437 76.8214L330.453 85.3209L329.079 84.8386L331.867 76.8977L332.378 77.179L323.071 82.7294L321.304 82.1094ZM341.133 84.4127L340.73 85.4577L336.356 83.7711L336.352 83.7355C335.755 83.5053 335.273 83.1993 334.906 82.8176C334.549 82.4398 334.318 82.0138 334.215 81.5397C334.116 81.0556 334.165 80.5597 334.36 80.0522C334.552 79.5545 334.845 79.1646 335.24 78.8823C335.638 78.5901 336.097 78.4239 336.615 78.3838C337.148 78.3375 337.712 78.4295 338.31 78.6597L343.654 80.7204L340.413 89.1253L339.04 88.5957L342.114 80.6238L342.394 81.4523L338.11 79.8003C337.553 79.5854 337.063 79.5509 336.641 79.6968C336.219 79.8427 335.919 80.1446 335.743 80.6024C335.57 81.0503 335.589 81.4749 335.8 81.8764C336.011 82.2779 336.396 82.5861 336.953 82.8009L341.133 84.4127ZM338.455 83.843L333.606 86.5005L331.949 85.8616L336.842 83.2213L338.455 83.843ZM358.481 86.9394L354.934 95.2196L353.581 94.6399L356.927 86.8304L357.28 87.7127L350.323 84.7326L351.22 84.3858L347.875 92.1953L346.522 91.6157L350.069 83.3355L358.481 86.9394ZM361.24 98.3148C360.28 97.8739 359.514 97.3048 358.943 96.6077C358.381 95.915 358.045 95.1504 357.937 94.314C357.828 93.4775 357.967 92.6377 358.355 91.7945C358.747 90.9416 359.293 90.2888 359.994 89.8362C360.695 89.3836 361.492 89.1451 362.384 89.1205C363.285 89.1004 364.215 89.3109 365.175 89.7519C366.144 90.1973 366.91 90.7663 367.472 91.459C368.034 92.1517 368.372 92.9114 368.485 93.7382C368.608 94.5694 368.473 95.4114 368.081 96.2643C367.693 97.1076 367.142 97.7581 366.427 98.2159C365.721 98.6782 364.923 98.9216 364.031 98.9462C363.139 98.9707 362.209 98.7603 361.24 98.3148ZM361.754 97.1954C362.471 97.525 363.15 97.6841 363.789 97.6726C364.432 97.6515 365.004 97.468 365.503 97.1223C366.012 96.781 366.416 96.2857 366.714 95.6363C367.008 94.9966 367.119 94.3725 367.047 93.764C366.984 93.1599 366.751 92.6067 366.348 92.1045C365.945 91.6023 365.384 91.1864 364.667 90.8568C363.96 90.5316 363.279 90.3774 362.626 90.3941C361.982 90.4152 361.411 90.5987 360.911 90.9444C360.412 91.2902 360.015 91.7829 359.721 92.4225C359.423 93.0719 359.305 93.6987 359.368 94.3027C359.431 94.9068 359.664 95.46 360.067 95.9622C360.484 96.4592 361.047 96.8702 361.754 97.1954ZM367.694 101.088L371.694 93.017L373.644 93.9833L373.756 103.414L373.068 103.073L380.626 97.4432L382.575 98.4095L378.576 106.481L377.328 105.863L381.143 98.1641L381.588 98.3843L373.787 104.108L372.483 103.461L372.305 93.802L372.75 94.0222L368.942 101.706L367.694 101.088ZM384.721 109.931C383.787 109.437 383.054 108.827 382.522 108.099C381.999 107.376 381.706 106.594 381.644 105.753C381.582 104.912 381.768 104.081 382.202 103.261C382.64 102.431 383.222 101.809 383.947 101.396C384.672 100.983 385.481 100.789 386.372 100.814C387.273 100.844 388.191 101.106 389.124 101.599C390.067 102.098 390.8 102.708 391.323 103.431C391.846 104.154 392.141 104.931 392.208 105.763C392.285 106.599 392.104 107.433 391.665 108.263C391.231 109.083 390.645 109.702 389.905 110.12C389.175 110.542 388.364 110.741 387.473 110.716C386.581 110.691 385.664 110.429 384.721 109.931ZM385.296 108.842C385.994 109.21 386.663 109.407 387.301 109.431C387.945 109.445 388.526 109.294 389.044 108.976C389.571 108.664 390.001 108.192 390.335 107.56C390.664 106.937 390.809 106.32 390.771 105.709C390.742 105.102 390.54 104.537 390.165 104.013C389.79 103.489 389.254 103.043 388.556 102.674C387.868 102.31 387.197 102.119 386.544 102.099C385.9 102.084 385.319 102.236 384.801 102.554C384.284 102.871 383.86 103.341 383.531 103.963C383.197 104.595 383.045 105.214 383.074 105.821C383.103 106.428 383.305 106.993 383.68 107.517C384.069 108.036 384.608 108.478 385.296 108.842ZM389.631 112.29L395.68 109.285L395.97 110.72L391.161 113.159L389.631 112.29ZM402.903 119.829L402.55 114.458L403.916 113.964L404.433 120.698L402.903 119.829ZM398.352 115.661L398.055 115.309L407.13 111.87L408.618 112.716L397.533 116.778L396.545 116.217L394.345 104.607L395.833 105.453L397.54 115.016L397.086 114.942L400.855 108.306L402.121 109.025L398.352 115.661ZM408.95 123.692C408.065 123.156 407.383 122.512 406.903 121.76C406.438 121.005 406.192 120.207 406.164 119.367C406.151 118.524 406.385 117.705 406.866 116.911C407.352 116.108 407.96 115.516 408.69 115.135C409.419 114.754 410.21 114.591 411.062 114.646C411.915 114.701 412.761 114.982 413.6 115.491C414.43 115.993 415.045 116.615 415.444 117.356C415.844 118.097 416.011 118.902 415.945 119.773C415.894 120.64 415.603 121.511 415.072 122.387L407.6 117.861L408.205 116.862L415.144 121.065L414.131 121.069C414.452 120.477 414.616 119.897 414.624 119.328C414.632 118.759 414.495 118.234 414.213 117.751C413.932 117.269 413.513 116.859 412.956 116.522C412.354 116.158 411.755 115.963 411.159 115.939C410.568 115.905 410.012 116.03 409.491 116.313C408.98 116.602 408.544 117.043 408.185 117.636C407.81 118.256 407.625 118.88 407.631 119.508C407.638 120.135 407.822 120.727 408.184 121.283C408.546 121.838 409.073 122.326 409.767 122.746C410.396 123.128 411.075 123.396 411.805 123.55C412.543 123.711 413.265 123.755 413.969 123.683L413.372 124.668C412.666 124.764 411.915 124.727 411.12 124.557C410.331 124.378 409.607 124.09 408.95 123.692ZM414.36 126.763L419.243 119.193L421.072 120.372L420.122 129.756L419.476 129.339L427.62 124.596L429.448 125.776L424.565 133.346L423.395 132.591L428.053 125.371L428.47 125.64L420.074 130.449L418.851 129.659L419.762 120.042L420.179 120.31L415.53 127.517L414.36 126.763Z" fill="black"/>
<path d="M42.3623 161.979L39.8088 173.704L38.4018 173.397L40.8804 162.016L41.4554 162.158L33.0551 172.233L31.4918 171.893L28.0384 159.252L28.6203 159.363L26.1451 170.728L24.7381 170.422L27.2915 158.697L29.5115 159.18L32.8514 171.665L31.929 171.464L40.1423 161.495L42.3623 161.979ZM53.8303 167.065L55.2805 167.317L53.7361 176.192L52.2859 175.94L53.8303 167.065ZM42.5916 174.253L44.136 165.378L45.5862 165.63L44.1213 174.048L43.6588 173.253L47.8045 173.974C48.435 174.084 48.9616 174.013 49.3843 173.762C49.8088 173.5 50.0686 173.096 50.1637 172.55C50.2606 171.993 50.1526 171.525 49.8396 171.145C49.5285 170.756 49.0577 170.506 48.4272 170.396L44.3918 169.694L44.5866 168.575L48.7481 169.299C49.4311 169.418 50.0038 169.642 50.4662 169.971C50.9391 170.303 51.279 170.714 51.4859 171.204C51.6928 171.695 51.746 172.23 51.6454 172.807C51.543 173.396 51.3115 173.886 50.951 174.278C50.5904 174.67 50.1317 174.942 49.5747 175.094C49.0282 175.248 48.4134 175.266 47.7303 175.147L42.5916 174.253ZM70.7719 174.733C70.5833 175.433 70.2281 176.029 69.7065 176.523C69.1954 177.019 68.5689 177.384 67.8267 177.62C67.0846 177.856 66.2837 177.93 65.4241 177.843C64.4265 177.743 63.5655 177.457 62.841 176.987C62.1177 176.507 61.5738 175.894 61.2095 175.15C60.8569 174.396 60.7272 173.557 60.8205 172.634C60.9138 171.711 61.2081 170.92 61.7034 170.263C62.2104 169.596 62.8658 169.105 63.6696 168.789C64.4734 168.474 65.374 168.366 66.3716 168.467C67.2313 168.554 68.001 168.787 68.681 169.167C69.362 169.536 69.9033 170.014 70.305 170.602C70.7172 171.19 70.9452 171.851 70.9891 172.584L69.4768 172.432C69.3926 171.673 69.0537 171.049 68.4598 170.56C67.8776 170.061 67.1408 169.767 66.2494 169.677C65.5277 169.604 64.8818 169.684 64.3116 169.915C63.752 170.148 63.2973 170.51 62.9476 171C62.599 171.479 62.3887 172.074 62.3169 172.785C62.245 173.496 62.3314 174.127 62.576 174.677C62.8206 175.227 63.1937 175.672 63.6954 176.012C64.2088 176.343 64.8263 176.545 65.5479 176.618C66.45 176.709 67.2361 176.569 67.9062 176.197C68.5869 175.826 69.0381 175.287 69.2596 174.581L70.7719 174.733ZM86.2769 169.236L86.4558 178.243L84.9841 178.272L84.8154 169.777L85.5006 170.436L77.9341 170.586L78.6086 169.901L78.7774 178.395L77.3056 178.424L77.1267 169.418L86.2769 169.236ZM94.5151 177.265C93.4759 177.453 92.5224 177.424 91.6545 177.179C90.7972 176.933 90.0847 176.498 89.517 175.874C88.9493 175.25 88.5831 174.482 88.4184 173.568C88.2519 172.645 88.3266 171.797 88.6426 171.024C88.9586 170.252 89.4752 169.601 90.1925 169.07C90.9202 168.538 91.8037 168.178 92.843 167.991C93.8927 167.802 94.8463 167.83 95.7036 168.077C96.5609 168.323 97.2725 168.753 97.8383 169.366C98.4146 169.978 98.786 170.745 98.9526 171.669C99.1173 172.582 99.0373 173.431 98.7127 174.216C98.3986 174.999 97.8829 175.656 97.1657 176.186C96.4484 176.716 95.5649 177.076 94.5151 177.265ZM94.2965 176.053C95.0733 175.913 95.7206 175.655 96.2382 175.28C96.754 174.894 97.1177 174.417 97.3294 173.848C97.5516 173.277 97.5993 172.639 97.4725 171.936C97.3475 171.243 97.0813 170.668 96.6736 170.21C96.2764 169.751 95.7689 169.431 95.1509 169.249C94.5329 169.068 93.8356 169.047 93.0587 169.188C92.2924 169.326 91.6462 169.589 91.1199 169.976C90.6041 170.362 90.2404 170.839 90.0287 171.408C89.817 171.978 89.7737 172.609 89.8986 173.302C90.0254 174.005 90.2874 174.586 90.6845 175.046C91.0817 175.505 91.5893 175.826 92.2072 176.007C92.8338 176.176 93.5302 176.191 94.2965 176.053ZM99.1049 166.862L100.423 166.244L104.248 174.4L102.93 175.018L99.1049 166.862ZM106.116 163.574L107.449 162.949L111.274 171.105L109.941 171.73L106.116 163.574ZM101.481 170.007L108.376 166.774L108.886 167.86L101.99 171.094L101.481 170.007ZM114.725 168.752L108.566 162.179L109.629 161.183L115.328 167.266L114.865 167.591L114.252 156.851L115.642 155.549L121.801 162.123L120.738 163.118L114.984 156.977L115.47 156.653L116.091 167.472L114.725 168.752ZM124.071 159.574L116.845 154.196L118.144 152.45L127.443 154.026L126.984 154.642L122.796 146.2L124.096 144.454L131.322 149.832L130.491 150.949L123.598 145.819L123.894 145.421L128.131 154.119L127.262 155.287L117.726 153.735L118.022 153.337L124.902 158.458L124.071 159.574ZM138.12 141.741L135.317 139.777L134.735 138.757L133.647 138.356L131.259 135.904L132.234 134.759L135.388 137.989L139.094 140.596L138.12 141.741ZM135.057 138.379C135.619 139.166 136.014 139.978 136.24 140.814C136.466 141.636 136.504 142.439 136.355 143.223C136.213 143.999 135.873 144.703 135.334 145.337C134.76 146.011 134.102 146.48 133.359 146.745C132.608 147.002 131.836 147.053 131.044 146.897C130.251 146.727 129.501 146.341 128.794 145.739C128.079 145.131 127.578 144.452 127.291 143.704C127.01 142.947 126.941 142.181 127.083 141.405C127.225 140.629 127.582 139.904 128.156 139.23C128.695 138.596 129.336 138.147 130.079 137.883C130.829 137.611 131.631 137.516 132.485 137.599C133.339 137.681 134.196 137.941 135.057 138.379ZM129.769 144.594C130.289 145.036 130.838 145.321 131.415 145.448C132 145.568 132.565 145.537 133.111 145.357C133.655 145.162 134.131 144.825 134.539 144.345C134.953 143.858 135.224 143.318 135.35 142.725C135.475 142.117 135.473 141.485 135.345 140.83C135.223 140.166 134.989 139.512 134.642 138.866C133.949 138.627 133.265 138.5 132.591 138.487C131.923 138.465 131.303 138.568 130.732 138.795C130.159 139.008 129.665 139.358 129.25 139.846C128.842 140.325 128.589 140.852 128.492 141.428C128.393 141.988 128.45 142.547 128.661 143.105C128.88 143.655 129.249 144.151 129.769 144.594ZM134.191 132.866L135.318 131.944L141.019 138.919L139.892 139.84L134.191 132.866ZM140.187 127.965L141.326 127.033L147.027 134.008L145.888 134.939L140.187 127.965ZM137.263 135.335L143.16 130.515L143.919 131.444L138.023 136.264L137.263 135.335ZM148.033 133.339L143.754 125.412L145.035 124.721L148.995 132.056L148.464 132.252L150.611 121.711L152.286 120.807L156.565 128.734L155.284 129.425L151.286 122.019L151.839 121.83L149.68 132.45L148.033 133.339ZM162.456 126.719C161.483 127.069 160.553 127.194 159.666 127.094C158.786 126.98 158.011 126.669 157.341 126.162C156.678 125.642 156.189 124.945 155.875 124.071C155.557 123.188 155.479 122.343 155.642 121.536C155.805 120.729 156.176 120.012 156.755 119.384C157.334 118.756 158.085 118.276 159.008 117.944C159.922 117.615 160.792 117.529 161.619 117.684C162.446 117.84 163.177 118.218 163.812 118.817C164.453 119.402 164.948 120.176 165.294 121.14L157.075 124.099L156.679 123L164.312 120.252L163.678 121.042C163.42 120.42 163.072 119.927 162.635 119.563C162.198 119.199 161.704 118.975 161.152 118.89C160.6 118.805 160.017 118.873 159.405 119.093C158.743 119.332 158.215 119.675 157.82 120.123C157.423 120.561 157.17 121.071 157.062 121.654C156.965 122.234 157.033 122.849 157.268 123.502C157.514 124.184 157.882 124.72 158.374 125.11C158.866 125.5 159.442 125.729 160.101 125.798C160.761 125.867 161.472 125.764 162.235 125.489C162.927 125.24 163.563 124.881 164.142 124.411C164.732 123.938 165.22 123.405 165.608 122.813L165.998 123.896C165.628 124.506 165.126 125.066 164.494 125.577C163.858 126.078 163.179 126.459 162.456 126.719ZM167.739 124.703L165.724 115.923L167.845 115.436L173.903 122.664L173.155 122.836L175.44 113.693L177.56 113.207L179.575 121.986L178.219 122.298L176.297 113.923L176.78 113.812L174.367 123.182L172.948 123.507L166.694 116.144L167.178 116.033L169.096 124.391L167.739 124.703ZM185.632 120.995L184.614 112.045L186.061 111.881L187.003 120.163L186.438 120.147L192.356 111.164L194.248 110.949L195.266 119.899L193.82 120.064L192.868 111.702L193.451 111.732L187.492 120.784L185.632 120.995ZM206.835 119.38C205.673 119.432 204.666 119.241 203.815 118.809C202.962 118.366 202.293 117.706 201.806 116.831C201.329 115.955 201.064 114.894 201.009 113.647C200.927 111.771 201.336 110.275 202.237 109.157C203.148 108.027 204.48 107.355 206.232 107.139C206.933 107.044 207.511 106.965 207.968 106.903C208.435 106.839 208.816 106.78 209.113 106.724C209.409 106.658 209.657 106.593 209.857 106.531C210.068 106.469 210.273 106.396 210.472 106.312L210.531 107.655C210.343 107.748 210.085 107.835 209.758 107.913C209.43 107.991 209.006 108.069 208.487 108.145C207.977 108.21 207.35 108.28 206.606 108.356C205.139 108.506 204.041 109.024 203.311 109.91C202.581 110.796 202.251 112.017 202.319 113.573L202.345 114.165L202.214 114.106C202.441 113.424 202.767 112.838 203.194 112.35C203.632 111.861 204.154 111.48 204.762 111.208C205.379 110.935 206.061 110.782 206.807 110.749C207.734 110.709 208.552 110.854 209.261 111.186C209.969 111.507 210.529 111.979 210.941 112.602C211.363 113.224 211.593 113.956 211.63 114.797C211.669 115.682 211.495 116.458 211.108 117.127C210.721 117.795 210.162 118.327 209.432 118.722C208.702 119.117 207.836 119.336 206.835 119.38ZM206.812 118.148C207.516 118.117 208.118 117.963 208.618 117.685C209.129 117.406 209.512 117.026 209.769 116.545C210.036 116.063 210.156 115.514 210.129 114.895C210.101 114.267 209.933 113.73 209.625 113.284C209.328 112.827 208.912 112.483 208.379 112.25C207.856 112.017 207.243 111.915 206.54 111.946C205.602 111.988 204.793 112.279 204.112 112.822C203.442 113.364 202.957 114.116 202.658 115.08C202.905 116.083 203.392 116.857 204.121 117.402C204.86 117.946 205.757 118.195 206.812 118.148ZM218.841 118.435C217.813 118.55 216.879 118.456 216.04 118.153C215.211 117.838 214.529 117.357 213.994 116.708C213.469 116.048 213.155 115.257 213.052 114.335C212.947 113.402 213.067 112.562 213.413 111.815C213.758 111.067 214.286 110.456 214.994 109.979C215.703 109.502 216.545 109.209 217.52 109.1C218.484 108.992 219.351 109.109 220.119 109.452C220.888 109.795 221.511 110.332 221.99 111.061C222.479 111.779 222.78 112.647 222.894 113.665L214.213 114.639L214.083 113.478L222.144 112.574L221.344 113.195C221.238 112.531 221.014 111.971 220.673 111.515C220.332 111.06 219.903 110.727 219.385 110.517C218.868 110.306 218.286 110.237 217.64 110.31C216.94 110.388 216.346 110.6 215.859 110.944C215.371 111.278 215.007 111.716 214.767 112.258C214.538 112.799 214.462 113.414 214.539 114.103C214.62 114.824 214.855 115.431 215.243 115.924C215.631 116.417 216.138 116.774 216.763 116.993C217.389 117.213 218.105 117.278 218.91 117.187C219.642 117.105 220.344 116.903 221.016 116.581C221.699 116.257 222.297 115.852 222.811 115.365L222.94 116.51C222.439 117.017 221.821 117.445 221.088 117.796C220.353 118.136 219.604 118.349 218.841 118.435ZM229.793 116.296C228.93 116.537 228.132 116.633 227.398 116.583C226.672 116.52 226.056 116.316 225.549 115.97C225.043 115.624 224.683 115.149 224.47 114.544L225.857 114.156C226.105 114.729 226.541 115.1 227.164 115.27C227.795 115.426 228.562 115.378 229.466 115.125C230.35 114.878 231.004 114.563 231.428 114.178C231.86 113.781 232.001 113.315 231.852 112.781C231.728 112.339 231.432 112.073 230.964 111.982C230.503 111.878 229.831 111.95 228.947 112.197L227.144 112.7L226.848 111.637L228.604 111.146C229.395 110.925 229.944 110.628 230.249 110.255C230.565 109.879 230.67 109.501 230.564 109.121C230.432 108.648 230.095 108.354 229.553 108.24C229.019 108.112 228.377 108.153 227.627 108.362C226.806 108.592 226.173 108.924 225.729 109.358C225.283 109.781 225.092 110.289 225.158 110.88L223.771 111.267C223.68 110.705 223.754 110.158 223.994 109.627C224.233 109.095 224.636 108.616 225.204 108.192C225.772 107.767 226.493 107.433 227.366 107.189C228.168 106.966 228.891 106.88 229.537 106.932C230.18 106.974 230.712 107.135 231.134 107.416C231.556 107.697 231.833 108.074 231.965 108.546C232.077 108.947 232.055 109.346 231.901 109.744C231.756 110.139 231.465 110.502 231.026 110.835C230.598 111.165 230.008 111.435 229.258 111.645L229.185 111.383C230.297 111.039 231.216 110.96 231.943 111.144C232.68 111.326 233.144 111.756 233.333 112.434C233.479 112.958 233.439 113.467 233.212 113.963C232.995 114.455 232.6 114.903 232.026 115.307C231.452 115.711 230.708 116.041 229.793 116.296ZM243.931 113.8C242.879 113.896 241.932 113.785 241.088 113.465C240.256 113.145 239.584 112.65 239.072 111.979C238.561 111.308 238.263 110.511 238.179 109.586C238.093 108.652 238.241 107.813 238.623 107.071C239.005 106.329 239.577 105.726 240.337 105.26C241.109 104.793 242.02 104.511 243.072 104.415C244.134 104.318 245.081 104.429 245.914 104.749C246.747 105.069 247.418 105.56 247.928 106.22C248.449 106.879 248.753 107.676 248.838 108.611C248.923 109.535 248.769 110.374 248.378 111.127C247.997 111.88 247.426 112.489 246.665 112.955C245.904 113.421 244.993 113.703 243.931 113.8ZM243.818 112.573C244.604 112.501 245.272 112.301 245.82 111.972C246.367 111.633 246.771 111.189 247.032 110.64C247.303 110.09 247.406 109.46 247.34 108.748C247.276 108.047 247.061 107.451 246.695 106.959C246.339 106.467 245.861 106.104 245.261 105.869C244.662 105.635 243.969 105.554 243.183 105.626C242.407 105.697 241.74 105.902 241.182 106.243C240.635 106.582 240.231 107.026 239.971 107.575C239.71 108.123 239.612 108.748 239.676 109.449C239.742 110.161 239.952 110.763 240.308 111.255C240.663 111.748 241.141 112.111 241.741 112.345C242.35 112.568 243.043 112.644 243.818 112.573ZM260.074 109.754C259.95 110.467 259.65 111.094 259.176 111.633C258.712 112.173 258.121 112.593 257.403 112.896C256.685 113.198 255.895 113.345 255.031 113.336C254.028 113.326 253.145 113.12 252.381 112.718C251.617 112.305 251.019 111.744 250.589 111.036C250.17 110.317 249.964 109.494 249.974 108.566C249.983 107.638 250.204 106.824 250.638 106.124C251.082 105.414 251.69 104.865 252.462 104.478C253.234 104.091 254.121 103.903 255.124 103.913C255.988 103.921 256.776 104.084 257.487 104.4C258.199 104.706 258.781 105.133 259.235 105.681C259.698 106.23 259.985 106.868 260.096 107.594L258.576 107.579C258.423 106.831 258.029 106.24 257.393 105.807C256.768 105.364 256.008 105.137 255.112 105.129C254.386 105.121 253.75 105.259 253.204 105.542C252.667 105.824 252.247 106.226 251.944 106.745C251.64 107.254 251.485 107.866 251.477 108.581C251.47 109.295 251.614 109.916 251.907 110.441C252.201 110.967 252.613 111.376 253.143 111.669C253.684 111.952 254.317 112.097 255.043 112.104C255.949 112.113 256.72 111.902 257.353 111.471C257.997 111.04 258.398 110.463 258.554 109.739L260.074 109.754ZM262.48 116.25C262.023 116.211 261.619 116.117 261.267 115.97C260.916 115.822 260.574 115.622 260.243 115.368L260.342 114.205C260.674 114.458 261 114.652 261.32 114.786C261.641 114.92 262.013 115.006 262.438 115.042C262.895 115.081 263.298 115.008 263.645 114.824C263.992 114.65 264.297 114.338 264.56 113.89L269.832 104.977L271.394 105.111L265.646 114.528C265.383 114.966 265.086 115.316 264.753 115.576C264.43 115.849 264.077 116.038 263.693 116.144C263.32 116.252 262.916 116.287 262.48 116.25ZM264.245 113.253L260.729 104.201L262.339 104.339L265.728 113.379L264.245 113.253ZM270.404 114.053L275.028 109.129L275.799 110.373L272.142 114.335L270.404 114.053ZM285.472 116.495L283.269 111.584L284.378 110.645L287.209 116.777L285.472 116.495ZM279.754 114.174L279.353 113.947L286.66 107.562L288.35 107.836L279.375 115.507L278.254 115.325L272.146 105.21L273.836 105.484L278.768 113.853L278.316 113.942L279.537 106.408L280.974 106.641L279.754 114.174ZM299.185 118.295L298.396 121.741L297.117 121.449L297.638 119.172L288.281 117.029L287.759 119.307L286.496 119.017L287.285 115.571L289.203 116.01L289.621 116.122L296.499 117.696L296.924 117.777L299.185 118.295ZM291.055 108.424L299.274 110.305L297.361 118.665L295.926 118.336L297.725 110.476L298.246 111.284L291.555 109.753L292.27 109.424C292.215 109.904 292.146 110.375 292.062 110.837C291.98 111.289 291.894 111.712 291.804 112.108C291.447 113.667 290.977 114.856 290.396 115.675C289.827 116.486 289.221 116.818 288.576 116.67L288.101 116.02C289.125 115.565 289.927 114.069 290.507 111.532C290.619 111.043 290.719 110.535 290.807 110.008C290.908 109.473 290.99 108.945 291.055 108.424ZM304.453 121.199C303.455 120.925 302.622 120.492 301.955 119.9C301.301 119.301 300.846 118.601 300.59 117.8C300.347 116.993 300.348 116.141 300.593 115.246C300.841 114.341 301.264 113.606 301.862 113.039C302.459 112.473 303.176 112.1 304.01 111.92C304.845 111.739 305.736 111.779 306.682 112.038C307.618 112.295 308.38 112.725 308.966 113.328C309.553 113.932 309.934 114.661 310.108 115.516C310.296 116.364 310.255 117.282 309.984 118.269L301.559 115.959L301.868 114.833L309.691 116.978L308.718 117.259C308.865 116.602 308.865 115.999 308.716 115.45C308.568 114.9 308.293 114.432 307.89 114.045C307.488 113.658 306.973 113.379 306.345 113.207C305.666 113.021 305.037 112.997 304.456 113.137C303.879 113.266 303.379 113.538 302.955 113.953C302.542 114.371 302.244 114.914 302.06 115.582C301.869 116.282 301.862 116.933 302.04 117.534C302.217 118.136 302.556 118.655 303.056 119.091C303.556 119.526 304.197 119.851 304.979 120.066C305.689 120.26 306.416 120.332 307.159 120.282C307.913 120.234 308.62 120.079 309.278 119.817L308.973 120.928C308.32 121.214 307.587 121.384 306.776 121.438C305.968 121.482 305.193 121.402 304.453 121.199ZM313.142 114.072L314.531 114.507L311.837 123.103L310.448 122.668L313.142 114.072ZM320.531 116.388L321.936 116.828L319.242 125.424L317.837 124.984L320.531 116.388ZM312.767 117.996L320.034 120.273L319.676 121.418L312.408 119.141L312.767 117.996ZM321.304 126.109L324.288 117.61L325.662 118.092L322.901 125.958L322.399 125.697L331.64 120.191L333.437 120.821L330.453 129.321L329.079 128.839L331.867 120.898L332.378 121.179L323.071 126.729L321.304 126.109ZM341.133 128.413L340.73 129.458L336.356 127.771L336.352 127.736C335.755 127.505 335.273 127.199 334.906 126.818C334.549 126.44 334.318 126.014 334.215 125.54C334.116 125.056 334.165 124.56 334.36 124.052C334.552 123.555 334.845 123.165 335.24 122.882C335.638 122.59 336.097 122.424 336.615 122.384C337.148 122.338 337.712 122.43 338.31 122.66L343.654 124.72L340.413 133.125L339.04 132.596L342.114 124.624L342.394 125.452L338.11 123.8C337.553 123.585 337.063 123.551 336.641 123.697C336.219 123.843 335.919 124.145 335.743 124.602C335.57 125.05 335.589 125.475 335.8 125.876C336.011 126.278 336.396 126.586 336.953 126.801L341.133 128.413ZM338.455 127.843L333.606 130.501L331.949 129.862L336.842 127.221L338.455 127.843ZM358.481 130.939L354.934 139.22L353.581 138.64L356.927 130.83L357.28 131.713L350.323 128.733L351.22 128.386L347.875 136.195L346.522 135.616L350.069 127.336L358.481 130.939ZM361.24 142.315C360.28 141.874 359.514 141.305 358.943 140.608C358.381 139.915 358.045 139.15 357.937 138.314C357.828 137.478 357.967 136.638 358.355 135.794C358.747 134.942 359.293 134.289 359.994 133.836C360.695 133.384 361.492 133.145 362.384 133.121C363.285 133.1 364.215 133.311 365.175 133.752C366.144 134.197 366.91 134.766 367.472 135.459C368.034 136.152 368.372 136.911 368.485 137.738C368.608 138.569 368.473 139.411 368.081 140.264C367.693 141.108 367.142 141.758 366.427 142.216C365.721 142.678 364.923 142.922 364.031 142.946C363.139 142.971 362.209 142.76 361.24 142.315ZM361.754 141.195C362.471 141.525 363.15 141.684 363.789 141.673C364.432 141.651 365.004 141.468 365.503 141.122C366.012 140.781 366.416 140.286 366.714 139.636C367.008 138.997 367.119 138.373 367.047 137.764C366.984 137.16 366.751 136.607 366.348 136.105C365.945 135.602 365.384 135.186 364.667 134.857C363.96 134.532 363.279 134.377 362.626 134.394C361.982 134.415 361.411 134.599 360.911 134.944C360.412 135.29 360.015 135.783 359.721 136.423C359.423 137.072 359.305 137.699 359.368 138.303C359.431 138.907 359.664 139.46 360.067 139.962C360.484 140.459 361.047 140.87 361.754 141.195ZM367.694 145.088L371.694 137.017L373.644 137.983L373.756 147.414L373.068 147.073L380.626 141.443L382.575 142.409L378.576 150.481L377.328 149.863L381.143 142.164L381.588 142.384L373.787 148.108L372.483 147.461L372.305 137.802L372.75 138.022L368.942 145.706L367.694 145.088ZM384.721 153.931C383.787 153.437 383.054 152.827 382.522 152.099C381.999 151.376 381.706 150.594 381.644 149.753C381.582 148.912 381.768 148.081 382.202 147.261C382.64 146.431 383.222 145.809 383.947 145.396C384.672 144.983 385.481 144.789 386.372 144.814C387.273 144.844 388.191 145.106 389.124 145.599C390.067 146.098 390.8 146.708 391.323 147.431C391.846 148.154 392.141 148.931 392.208 149.763C392.285 150.599 392.104 151.433 391.665 152.263C391.231 153.083 390.645 153.702 389.905 154.12C389.175 154.542 388.364 154.741 387.473 154.716C386.581 154.691 385.664 154.429 384.721 153.931ZM385.296 152.842C385.994 153.21 386.663 153.407 387.301 153.431C387.945 153.445 388.526 153.294 389.044 152.976C389.571 152.664 390.001 152.192 390.335 151.56C390.664 150.937 390.809 150.32 390.771 149.709C390.742 149.102 390.54 148.537 390.165 148.013C389.79 147.489 389.254 147.043 388.556 146.674C387.868 146.31 387.197 146.119 386.544 146.099C385.9 146.084 385.319 146.236 384.801 146.554C384.284 146.871 383.86 147.341 383.531 147.963C383.197 148.595 383.045 149.214 383.074 149.821C383.103 150.428 383.305 150.993 383.68 151.517C384.069 152.036 384.608 152.478 385.296 152.842ZM389.631 156.29L395.68 153.285L395.97 154.72L391.161 157.159L389.631 156.29ZM402.903 163.829L402.55 158.458L403.916 157.964L404.433 164.698L402.903 163.829ZM398.352 159.661L398.055 159.309L407.13 155.87L408.618 156.716L397.533 160.778L396.545 160.217L394.345 148.607L395.833 149.453L397.54 159.016L397.086 158.942L400.855 152.306L402.121 153.025L398.352 159.661ZM408.95 167.692C408.065 167.156 407.383 166.512 406.903 165.76C406.438 165.005 406.192 164.207 406.164 163.367C406.151 162.524 406.385 161.705 406.866 160.911C407.352 160.108 407.96 159.516 408.69 159.135C409.419 158.754 410.21 158.591 411.062 158.646C411.915 158.701 412.761 158.982 413.6 159.491C414.43 159.993 415.045 160.615 415.444 161.356C415.844 162.097 416.011 162.902 415.945 163.773C415.894 164.64 415.603 165.511 415.072 166.387L407.6 161.861L408.205 160.862L415.144 165.065L414.131 165.069C414.452 164.477 414.616 163.897 414.624 163.328C414.632 162.759 414.495 162.234 414.213 161.751C413.932 161.269 413.513 160.859 412.956 160.522C412.354 160.158 411.755 159.963 411.159 159.939C410.568 159.905 410.012 160.03 409.491 160.313C408.98 160.602 408.544 161.043 408.185 161.636C407.81 162.256 407.625 162.88 407.631 163.508C407.638 164.135 407.822 164.727 408.184 165.283C408.546 165.838 409.073 166.326 409.767 166.746C410.396 167.128 411.075 167.396 411.805 167.55C412.543 167.711 413.265 167.755 413.969 167.683L413.372 168.668C412.666 168.764 411.915 168.727 411.12 168.557C410.331 168.378 409.607 168.09 408.95 167.692ZM414.36 170.763L419.243 163.193L421.072 164.372L420.122 173.756L419.476 173.339L427.62 168.596L429.448 169.776L424.565 177.346L423.395 176.591L428.053 169.371L428.47 169.64L420.074 174.449L418.851 173.659L419.762 164.042L420.179 164.31L415.53 171.517L414.36 170.763Z" fill="black"/>
</g>
<defs>
<clipPath id="clip0_1416_56">
<rect width="451" height="198" fill="white"/>
</clipPath>
</defs>
</svg>
