<svg width="40" height="40" viewBox="0 0 40 40" fill="none" xmlns="http://www.w3.org/2000/svg">
<path d="M21.8174 15.4971L21.8271 15.5723L21.8926 15.5352L27.8672 12.1318L24.4648 18.1074L24.4277 18.1729L24.5029 18.1826L39.5801 20L24.5029 21.8174L24.4277 21.8271L24.4648 21.8926L27.8672 27.8672L21.8926 24.4648L21.8271 24.4277L21.8174 24.5029L20 39.5801L18.1826 24.5029L18.1729 24.4277L18.1074 24.4648L12.1318 27.8672L15.5352 21.8926L15.5723 21.8271L15.4971 21.8174L0.418945 20L15.4971 18.1826L15.5723 18.1729L15.5352 18.1074L12.1318 12.1318L18.1074 15.5352L18.1729 15.5723L18.1826 15.4971L20 0.418945L21.8174 15.4971Z" fill="#FFD754" stroke="black" stroke-width="0.1"/>
</svg>
