<svg width="64" height="50" viewBox="0 0 64 50" fill="none" xmlns="http://www.w3.org/2000/svg">
<path d="M23.093 4.01612C26.6597 -1.33067 33.9064 -1.10714 38.0028 3.31484C39.4846 4.91337 39.6928 6.25467 40.1275 8.30029C43.6392 7.7797 46.1068 8.13495 47.4049 11.9169C47.8366 13.9197 47.411 14.7771 49.303 15.6652C50.2766 16.1031 50.445 16.5073 51.0634 17.377C51.8901 19.6554 51.9697 20.2127 51.0818 22.4727L50.047 24.2855C56.2559 27.1304 55.5211 34.0513 56.5957 39.395C56.9815 41.2998 63.7567 43.4985 63.0862 46.6374C59.1582 51.531 42.6472 47.1243 37.1762 48.7565C31.3531 50.4928 3.98577 50.8052 0.210862 47.0906C-1.2893 43.0392 5.72781 41.2508 5.12162 35.4262C4.87364 33.0438 7.96885 25.2808 9.99561 23.6088L10.3324 23.4649C10.3355 18.2559 10.2895 19 13.7215 15.9959C14.7533 15.0956 14.689 9.71201 16.7954 8.82394C18.5098 8.10123 19.8784 7.88077 21.5775 8.15637C21.9847 6.55172 22.1745 5.38804 23.093 4.01612Z" fill="#BCCDDA"/>
<path d="M23.093 4.01612C26.6597 -1.33067 33.9064 -1.10714 38.0028 3.31484C39.4846 4.91337 39.6928 6.25467 40.1275 8.3003C43.6391 7.7797 46.1068 8.13495 47.4049 11.9169C47.8365 13.9197 47.411 14.7771 49.303 15.6652C50.2766 16.1031 50.445 16.5073 51.0634 17.377C51.89 19.6554 51.9697 20.2127 51.0818 22.4727L50.047 24.2855C46.7619 23.7006 46.318 19.539 44.2392 18.2957C42.6319 17.3341 39.3958 16.9666 38.2569 15.1905L38.5416 13.9319C37.9569 14.0023 36.3924 15.5059 35.8046 16.0051C34.9565 16.5226 33.4227 16.4767 32.3511 16.5441C31.3776 16.5655 27.5629 16.5348 26.9261 16.8993C26.8495 17.0707 26.3903 18.1181 26.326 18.1946C22.9889 18.7244 24.786 19.9708 19.8385 20.0963C19.8171 20.6475 19.8263 20.9017 19.8722 21.4499C18.9262 23.1954 18.3751 23.9334 17.1566 25.5197C15.3258 24.6377 13.2102 23.7374 11.1804 23.4526L10.7426 23.866L10.3324 23.4649C10.3355 18.2559 10.2895 19 13.7215 15.9959C14.7533 15.0956 14.689 9.71201 16.7954 8.82394C18.5098 8.10123 19.8783 7.88077 21.5775 8.15638C21.9847 6.55172 22.1745 5.38804 23.093 4.01612Z" fill="#5DC0AD"/>
<path d="M26.9261 16.8995C26.626 16.1737 26.8985 14.7344 27.3547 14.0668C27.5751 14.7895 27.5659 15.0284 27.6118 15.7572C28.8701 16.2564 30.7101 15.8001 32.5379 16.0727L32.3511 16.5443C31.3776 16.5657 27.5629 16.5351 26.9261 16.8995Z" fill="#3D8F84"/>
<path d="M21.5775 8.15661C21.9847 6.55196 22.1745 5.38827 23.093 4.01636C22.9919 4.64413 22.8052 6.1018 22.6154 6.63158C21.749 9.04469 23.9992 8.05556 24.734 9.54385C23.9502 9.62347 22.1592 8.6772 21.5775 8.15661Z" fill="#3D8F84"/>
<path d="M51.0818 22.4727C50.7144 20.9783 50.8185 18.899 51.0634 17.377C51.89 19.6554 51.9696 20.2127 51.0818 22.4727Z" fill="#3D8F84"/>
<path d="M47.4049 11.9169C47.8366 13.9196 47.411 14.7771 49.303 15.6651C48.5683 15.6958 48.2101 15.6559 47.4753 15.5794L47.0681 15.0772C47.1049 13.9533 47.2518 13.0224 47.4049 11.9169Z" fill="#28726C"/>
<path d="M35.8046 16.0053C38.8631 15.7327 42.837 18.204 44.9189 20.3384C47.9192 23.4161 48.8132 26.9377 49.7807 30.9677L46.0057 34.5751C43.7371 34.6302 40.5684 35.4387 39.1111 37.57C37.8344 39.438 39.7234 42.5279 39.1601 43.8968C38.309 44.3745 37.5895 44.7573 36.7047 45.1768C35.177 41.8297 34.5677 40.5558 32.0695 37.7109L32.2379 37.5455C32.6175 37.1628 32.9114 36.979 32.9788 36.4676C32.2777 36.4002 31.8552 36.8933 31.3929 36.8657C30.4652 36.8106 23.3012 29.6907 21.9541 28.6189C20.6499 27.5777 19.2507 26.7448 17.7842 25.9578C18.2986 25.2228 19.5079 23.6335 19.8079 22.9016C21.2009 19.5208 23.8676 21.3031 26.326 18.1948C26.3903 18.1183 26.8495 17.0709 26.9261 16.8994C27.5629 16.535 31.3776 16.5657 32.3512 16.5442C33.4227 16.4769 34.9566 16.5228 35.8046 16.0053Z" fill="#9DDECF"/>
<path d="M30.2968 26.4937C31.0469 26.5794 31.8092 26.6866 32.3848 27.2225C32.8594 27.6604 33.1778 28.3126 33.2023 28.9619C33.2451 30.1715 32.7675 30.9463 31.9868 31.816C31.5551 31.7792 31.6745 31.8098 31.3163 31.7179C30.6367 31.5495 30.0917 31.3627 29.758 30.6798C29.1334 29.4059 29.8345 27.7155 30.2968 26.4937Z" fill="#151516"/>
<path d="M40.9603 31.3504L39.8581 31.5647C37.2282 30.6369 38.0395 27.2254 39.8489 26.2761C41.9338 26.7906 41.496 28.9557 41.3797 30.6614L40.9603 31.3504Z" fill="#2A2A2B"/>
<path d="M35.2504 34.627C35.9913 34.624 36.9649 34.6393 37.5864 35.0742C38.0762 35.4202 38.1804 35.5427 38.2967 36.1123C37.4731 36.3236 37.0751 35.9745 36.3373 35.6315C35.9332 35.6101 36.0985 35.5733 35.725 35.7264C34.9259 36.0541 34.4789 36.2194 33.6156 36.0816L33.5635 35.6101L33.4349 35.8061C34.0656 35.7969 34.4483 34.9333 35.2504 34.627Z" fill="#151516"/>
<path d="M38.3212 22.6137C38.3885 22.6351 38.462 22.6474 38.5263 22.678C39.1907 23.0057 41.9277 24.2949 42.2614 24.7635C42.3961 24.9533 42.4849 25.4984 42.5584 25.7434C41.6338 25.6607 40.6235 25.5198 39.8183 25.0268C38.8723 24.445 38.6059 23.6365 38.3212 22.6137Z" fill="#151516"/>
<path d="M31.8796 23.2231C32.2991 23.3609 32.2256 23.3731 32.4369 23.7222C31.7572 25.183 30.0182 25.8107 28.6405 26.4477L28.2088 26.1629L28.1935 25.7311L31.8796 23.2231Z" fill="#151516"/>
<path d="M35.8046 16.0053C36.3924 15.5061 37.9569 14.0025 38.5416 13.9321L38.2569 15.1907C39.3958 16.9668 42.6319 17.3343 44.2392 18.2959C46.318 19.5392 46.762 23.7008 50.047 24.2857C56.2559 27.1306 55.5211 34.0515 56.5957 39.3952C56.9815 41.3 63.7567 43.4987 63.0862 46.6376C59.1582 51.5312 42.6472 47.1245 37.1762 48.7567C31.3531 50.493 3.98577 50.8054 0.210862 47.0908C-1.2893 43.0394 5.72781 41.2509 5.12162 35.4264C4.87364 33.0439 7.96885 25.281 9.99561 23.609C6.54217 31.3934 6.23601 30.196 5.17058 39.6402C3.84492 41.3152 2.83463 42.0992 1.63143 43.5017L1.34976 43.8233C0.624164 45.134 0.204739 45.6178 0.976253 46.9775C4.47868 49.2681 34.1024 51.0994 36.4475 47.7369C37.1088 42.531 28.6467 35.3223 25.1932 32.0457C20.6131 27.6972 16.6117 25.7832 10.7427 23.8662L11.1804 23.4528C13.2103 23.7376 15.3258 24.6379 17.1566 25.5198C18.3751 23.9336 18.9262 23.1956 19.8722 21.4501C19.8263 20.9019 19.8171 20.6477 19.8385 20.0965C24.786 19.9709 22.9889 18.7246 26.326 18.1948C23.8676 21.3031 21.201 19.5208 19.8079 22.9016C19.5079 23.6335 18.2986 25.2228 17.7842 25.9578C19.2507 26.7448 20.6499 27.5777 21.9541 28.6189C23.3012 29.6907 30.4652 36.8106 31.3929 36.8657C31.8552 36.8933 32.2777 36.4002 32.9788 36.4676C32.9114 36.979 32.6175 37.1628 32.2379 37.5456L32.0695 37.7109C34.5678 40.5558 35.177 41.8297 36.7047 45.1768C37.5895 44.7573 38.309 44.3745 39.1601 43.8968C39.7234 42.5279 37.8344 39.438 39.1111 37.57C40.5684 35.4387 43.7371 34.6302 46.0057 34.5751L49.7807 30.9677C48.8132 26.9377 47.9192 23.4161 44.9189 20.3384C42.837 18.204 38.8631 15.7327 35.8046 16.0053Z" fill="#5B808C"/>
<path d="M53.4852 27.5439C55.5456 32.8081 54.7741 35.2641 56.4181 40.0443C56.9784 41.6765 62.2382 44.0345 62.4678 46.2761C60.9431 48.582 49.0643 48.4534 46.315 48.0737C44.2668 43.7405 44.9158 43.86 45.1271 39.0797C44.328 37.7445 44.377 37.2637 43.1769 36.7891L42.3349 36.7554L42.2645 36.1828C42.9779 35.3866 43.8718 35.3008 44.9342 35.2395C45.3475 35.2181 45.7578 35.2089 46.1711 35.2059C48.9265 32.6917 51.4186 30.6889 53.4852 27.5439Z" fill="#BCCDDA"/>
<path d="M42.3349 36.7554L43.1768 36.7891C43.2227 38.6786 45.4209 40.0872 44.1259 43.0883C40.4581 46.2915 37.3384 39.2298 40.3694 37.1015L41.793 37.3618L42.3349 36.7554Z" fill="#9DDECF"/>
<path d="M39.8214 44.1846C40.599 44.0009 41.9951 44.2887 42.7145 44.6378C43.4769 45.0084 44.3249 45.8199 44.5331 46.6528C44.6495 47.1275 44.5576 47.1673 44.3188 47.5899L43.3024 47.6848C41.6797 47.7093 39.405 47.9421 38.015 46.9713C37.6048 46.6865 37.6814 46.5549 37.5803 46.0955C38.0457 45.0941 38.906 44.7205 39.8214 44.1846Z" fill="#5DC0AD"/>
<path d="M49.0734 24.9043C49.5633 24.9962 50.0837 25.088 50.5552 25.2565C51.2747 25.5106 51.9268 26.0802 52.1656 26.8152C52.4595 27.7186 52.1809 28.4505 51.8166 29.2804C51.2625 29.6693 51.1706 29.8224 50.4726 29.804C49.6031 28.6036 49.45 26.3681 49.0734 24.9043Z" fill="#9DDECF"/>
</svg>
