<svg width="28" height="28" viewBox="0 0 28 28" fill="none" xmlns="http://www.w3.org/2000/svg">
<path d="M12.6721 0.0450266C20.2643 -0.564267 26.912 5.08147 27.5125 12.6486C28.113 20.2157 22.4384 26.8327 14.8445 27.4202C7.26604 28.0068 0.642862 22.3654 0.0435826 14.8136C-0.555697 7.26179 5.09537 0.653091 12.6721 0.0450266ZM5.33733 14.4536C5.89667 15.1155 6.60788 15.1197 7.35976 15.3828C8.29875 15.7113 8.92181 15.9411 9.87568 15.4782C10.4862 15.182 10.9576 14.7211 11.5399 14.3728C12.4238 13.8208 13.2967 13.2582 14.1552 12.6674C14.2897 12.5748 14.7209 12.1987 14.825 12.1562C15.0961 12.0455 15.7869 11.4975 15.9801 11.4415C16.1604 11.3768 16.3515 11.2614 16.4565 11.4776C16.4529 11.5537 16.4187 11.6785 16.3646 11.7286C15.9673 12.0968 15.6049 12.6759 15.2184 13.0221C14.4506 13.7097 13.719 14.4006 13.0171 15.1605C12.7208 15.4812 11.9436 16.1086 11.8217 16.5229C11.6685 17.0434 12.5643 17.5213 12.9036 17.7517C13.7746 18.397 14.6493 18.9909 15.5711 19.5557C16.2042 19.9463 17.2959 20.947 18.0254 20.2596C18.281 20.0188 18.3613 19.7736 18.4581 19.4509C18.6255 18.8882 18.7536 18.3146 18.8413 17.7343C18.8809 17.464 18.8985 17.1674 18.9403 16.9087L19.5282 13.127C19.5651 12.8765 19.6449 12.621 19.678 12.373C19.7309 11.9008 19.7984 11.4425 19.8756 10.9734C19.962 10.4478 20.0481 9.86833 20.0604 9.33543C20.0805 8.46924 19.7381 8.29292 18.9682 8.37367C18.0318 8.56305 17.0189 9.0949 16.1314 9.45435C15.9833 9.51435 15.8952 9.62457 15.748 9.68007C12.6282 10.8559 9.58808 12.2153 6.5209 13.5178C5.83075 13.8109 5.67223 13.7564 5.33733 14.4536Z" fill="#53A1D8"/>
</svg>
