<svg width="43" height="50" viewBox="0 0 43 50" fill="none" xmlns="http://www.w3.org/2000/svg">
<path d="M12.0487 5.71212C13.1978 3.13 14.3229 1.68251 17.1007 0.614241C19.3356 -0.263361 21.83 -0.198208 24.0167 0.794637C28.0371 2.65211 27.2861 4.53855 28.9209 7.12218C29.6508 8.27582 35.7342 5.87652 36.3978 12.1612L36.6542 14.3819C39.4531 14.6378 39.6884 16.6078 40.4484 18.9591C39.9508 20.1664 39.5527 21.4721 38.6629 22.3742C40.2614 23.3547 40.8616 23.955 42.1284 25.3699C42.7196 28.5467 42.991 32.3328 39.4773 34.0343L39.3023 35.1204C43.0845 36.662 41.4287 42.3125 37.5892 43.6098C37.4082 45.3656 37.381 46.5934 37.375 48.3643C31.0653 49.1638 31.6022 49.6736 24.7315 49.5319C23.4074 49.6374 17.0193 50.2469 16.0632 49.8879C9.04467 49.4625 8.3781 49.1608 8.24841 41.9535C5.54296 39.5702 5.87172 38.3303 4.3335 35.2109C3.77552 34.87 3.30499 34.5834 2.92194 34.3481L2.8556 34.2244C-1.03821 32.3599 -0.652136 26.8331 2.22222 24.1239C1.26611 22.2988 0.4789 20.6555 0.632722 18.4526C0.747335 16.7888 3.42565 15.8457 3.84791 15.0179C4.88244 12.9827 4.32443 9.49584 6.57747 7.93371C7.69645 7.15929 10.1908 6.83347 11.5812 7.08839L12.0487 5.71212Z" fill="#BEA4DA"/>
<path d="M12.0487 5.71212C13.1978 3.13 14.3228 1.68251 17.1007 0.614241C19.3356 -0.263361 21.83 -0.198208 24.0166 0.794637C28.0371 2.65211 27.2861 4.53855 28.9209 7.12218C29.6508 8.27582 35.7342 5.87652 36.3978 12.1612L36.6541 14.3819C39.4531 14.6378 39.6884 16.6078 40.4484 18.9591C39.9508 20.1664 39.5526 21.4721 38.6629 22.3742C38.1743 22.5522 38.1622 22.5733 37.6525 22.6668C35.8006 21.0317 35.505 17.9295 32.8388 17.8402L32.2476 17.3291L30.5797 16.3824C30.0519 16.1911 28.2211 15.261 27.6299 14.9766C27.446 14.8885 27.259 14.8001 27.075 14.7117L26.8397 14.6088C25.8173 14.1575 25.585 14.2878 24.4449 14.5807C23.2445 15.0245 18.5484 14.9141 17.0374 14.9144C16.0149 16.6675 13.3517 19.4895 11.1258 19.0225L10.0641 20.8175C9.5031 21.795 9.15924 22.6487 8.23028 23.231L7.49738 23.1525C7.11132 23.59 6.69809 24.0968 6.26679 24.4679L5.7812 23.8947L4.01376 23.9309L2.68368 24.5101L2.2222 24.1239C1.2661 22.2988 0.478884 20.6555 0.632705 18.4526C0.747318 16.7888 3.42564 15.8457 3.84789 15.0179C4.88242 12.9827 4.32442 9.49584 6.57746 7.93371C7.69643 7.15929 10.1908 6.83347 11.5812 7.08839L12.0487 5.71212Z" fill="#856BB1"/>
<path d="M24.4449 14.5809L24.3755 13.9914C24.8189 13.8339 25.6182 13.5676 26.0344 13.4958C26.14 13.4774 26.5834 12.2742 26.9091 12.1792C27.259 13.0396 27.2982 13.0773 27.078 13.9392L27.6299 14.9767C27.446 14.8886 27.259 14.8002 27.075 14.7119L26.8397 14.609C25.8173 14.1577 25.585 14.288 24.4449 14.5809Z" fill="#5C498B"/>
<path d="M12.0487 5.71228L12.2025 5.98861C13.3366 7.99904 13.8765 7.53204 14.8084 9.27789C14.0665 8.80967 11.8858 7.62465 11.5812 7.08855L12.0487 5.71228Z" fill="#6B5A98"/>
<path d="M36.6542 14.3818C36.069 14.7795 36.3858 14.7019 35.6649 14.5939C35.3904 13.5996 35.5563 13.4023 35.9183 12.3693L36.3978 12.1611L36.6542 14.3818Z" fill="#5C498B"/>
<path d="M10.0641 20.8174L9.73831 19.115L10.0852 18.7937L11.1258 19.0224L10.0641 20.8174Z" fill="#5C498B"/>
<path d="M4.01376 23.9309C4.50841 23.0228 4.16156 23.3366 5.04227 22.9112L5.63643 23.234L5.7812 23.8947L4.01376 23.9309Z" fill="#5C498B"/>
<path d="M30.5797 16.3825L31.3096 16.1843C32.1239 16.6636 31.8585 16.3885 32.2476 17.3292L30.5797 16.3825Z" fill="#5C498B"/>
<path d="M20.5723 28.414L21.7757 29.117C23.9352 30.8004 33.9608 28.3657 37.7822 28.6554L38.4488 28.4955C39.2058 28.5558 40.3761 28.4231 40.6988 29.1954C40.8496 30.2905 40.6898 30.6646 41.3624 31.2619C40.6626 32.2605 40.4243 32.6738 39.4501 33.4672L39.4773 34.0344L39.3023 35.1205C43.0845 36.6621 41.4287 42.3126 37.5892 43.6099C37.4082 45.3657 37.3811 46.5935 37.375 48.3644C31.0653 49.1639 31.6022 49.6737 24.7315 49.532C23.4074 49.6375 17.0193 50.247 16.0632 49.888L15.5686 48.9497L16.024 46.491L16.5518 44.9433C16.9017 44.4154 20.3219 44.3913 22.1588 43.8452L22.6805 42.913C25.6786 40.219 22.4785 35.9893 19.2512 35.567C18.0629 35.4131 17.4687 36.0467 16.5699 36.6923C16.3376 36.7315 16.0541 36.6319 15.7917 36.5716C15.3755 34.2094 14.9834 31.8442 14.6154 29.4729C16.0149 29.2286 19.6946 29.2829 20.5723 28.414Z" fill="#FEF0D4"/>
<path d="M39.3023 35.1203C43.0845 36.6619 41.4286 42.3125 37.5891 43.6097L36.6752 43.6731C34.2382 42.759 33.083 40.5718 34.6725 38.291L35.0887 37.5519C36.2319 36.0193 36.9045 36.0133 38.7262 35.7267C39.1635 35.5638 38.9614 35.6482 39.3023 35.1203Z" fill="#BBA0D5"/>
<path d="M39.3023 35.1203C43.0845 36.6619 41.4286 42.3125 37.5891 43.6097L36.6752 43.6731C34.2382 42.759 33.083 40.5718 34.6725 38.291C34.3166 38.2005 36.7446 39.0422 36.1685 38.7043C35.3662 38.9095 35.3059 38.8944 34.7811 39.4918L34.8294 40.1434C35.3753 40.4813 35.4748 40.4812 35.8005 41.0424C35.4477 41.5311 35.3662 41.6126 35.1189 42.1828C38.6146 44.5721 41.7272 40.3364 40.37 36.6438C39.619 35.9107 39.9567 36.0254 39.067 35.956L38.9283 36.665C38.7624 36.7917 36.0147 37.2381 35.0887 37.5519C36.2319 36.0193 36.9045 36.0133 38.7262 35.7267C39.1635 35.5638 38.9614 35.6482 39.3023 35.1203Z" fill="#5C498B"/>
<path d="M20.5723 28.414L21.7757 29.117C23.9352 30.8004 33.9608 28.3657 37.7822 28.6554L38.4488 28.4955C39.2058 28.5558 40.3761 28.4231 40.6988 29.1954C40.8496 30.2905 40.6898 30.6646 41.3624 31.2619C40.6626 32.2605 40.4243 32.6738 39.4501 33.4672L39.4773 34.0344L39.3023 35.1205C38.9615 35.6484 39.1636 35.5639 38.7263 35.7268C38.4277 34.4205 39.4954 30.9602 39.794 29.2768C36.0691 29.1893 29.5603 29.2346 26.3089 30.8607L26.1521 30.7732C23.0907 29.1079 18.8018 29.6087 15.2338 29.7957C15.3936 31.4098 16.0602 35.1114 16.5699 36.6923C16.3376 36.7315 16.0541 36.6319 15.7917 36.5716C15.3755 34.2094 14.9834 31.8442 14.6154 29.4729C16.0149 29.2286 19.6946 29.2829 20.5723 28.414Z" fill="#94795E"/>
<path d="M40.6987 29.1954C40.8496 30.2906 40.6897 30.6646 41.3623 31.262C40.6626 32.2605 40.4243 32.6738 39.4501 33.4673C39.6341 32.5049 40.376 30.6224 40.6987 29.1954Z" fill="#BBA0D5"/>
<path d="M36.6753 43.6733L37.5892 43.6099C37.4082 45.3657 37.381 46.5936 37.375 48.3645C31.0653 49.1639 31.6022 49.6738 24.7315 49.532L24.46 48.7778C27.7054 48.2619 32.4407 48.5425 36.802 47.8607C36.8442 46.5815 36.992 44.868 36.6753 43.6733Z" fill="#94795E"/>
<path d="M16.024 46.4909L16.5518 44.9433L16.6272 45.5889L16.3738 49.2121C18.8983 49.0673 21.9687 48.8139 24.46 48.7777L24.7315 49.5319C23.4074 49.6375 17.0193 50.2469 16.0632 49.8879L15.5685 48.9497L16.024 46.4909Z" fill="#A78D6B"/>
<path d="M22.1587 43.8452C20.702 46.4668 19.0883 45.3657 16.6272 45.5889L16.5518 44.9433C16.9017 44.4153 20.3219 44.3912 22.1587 43.8452Z" fill="#EDD19D"/>
<path d="M2.92197 34.3482C4.39383 34.2004 5.77523 34.49 6.90024 33.8686C7.8473 32.2576 6.55037 28.9903 7.31043 27.5452L7.55471 27.7323C7.65425 30.1789 7.77791 34.0888 7.10833 36.4841C6.59861 38.3124 5.02118 38.1283 7.89855 40.8073C11.2223 43.9026 18.7264 45.1486 22.6112 42.5028L22.6805 42.9131L22.1588 43.8453C20.3219 44.3913 16.9017 44.4155 16.5518 44.9434L16.024 46.491L15.5686 48.9498L16.0632 49.888C9.0447 49.4626 8.37813 49.1609 8.24843 41.9537C5.54298 39.5704 5.87174 38.3305 4.33352 35.211C3.77554 34.8701 3.30501 34.5835 2.92197 34.3482Z" fill="#5C498B"/>
<path d="M15.5685 48.9497C13.4301 48.8501 8.17599 49.0613 9.20448 45.4501L9.92832 45.2359C11.2645 45.8725 11.7832 45.8725 13.243 46.0475L16.0239 46.4909L15.5685 48.9497Z" fill="#BEA4DA"/>
<path d="M9.92831 45.2358C9.33112 44.2946 9.14113 44.0774 8.96921 42.9883L9.30399 42.6655C10.4441 43.1331 11.2946 43.5977 12.3865 44.0774C13.1194 44.4002 14.6998 44.2252 15.3121 44.8165C14.914 45.631 14.1448 45.8543 13.243 46.0474C11.7832 45.8724 11.2645 45.8724 9.92831 45.2358Z" fill="#BBA0D5"/>
<path d="M32.8388 17.8402C35.5051 17.9295 35.8006 21.0317 37.6525 22.6669C38.1622 22.5733 38.1743 22.5522 38.6629 22.3742C40.2614 23.3547 40.8616 23.9551 42.1284 25.37C42.7196 28.5467 42.991 32.3328 39.4773 34.0343L39.4501 33.4672C40.4243 32.6737 40.6626 32.2605 41.3623 31.2619C40.6898 30.6645 40.8496 30.2905 40.6988 29.1953C40.3761 28.423 39.2058 28.5558 38.4488 28.4954L37.7822 28.6553C37.1096 23.8042 36.3858 21.445 32.8388 17.8402Z" fill="#BEA4DA"/>
<path d="M32.8388 17.8402C35.5051 17.9295 35.8006 21.0317 37.6525 22.6669C38.1622 22.5733 38.1743 22.5522 38.6629 22.3742C40.2614 23.3547 40.8616 23.9551 42.1284 25.37C42.7196 28.5467 42.991 32.3328 39.4773 34.0343L39.4501 33.4672C40.4243 32.6737 40.6626 32.2605 41.3623 31.2619C42.053 29.2979 42.2189 27.2374 41.0849 25.3911C40.4243 24.3171 39.0188 22.4979 37.6495 23.2853C37.3992 24.308 38.2979 26.3173 38.4276 28.1636L38.4488 28.4954L37.7822 28.6553C37.1096 23.8042 36.3858 21.445 32.8388 17.8402Z" fill="#6B5A98"/>
<path d="M22.6111 42.5026L22.0532 41.7514C23.6517 38.6863 23.3742 38.1312 20.0867 37.2864L19.8423 36.3422C17.5682 34.526 17.158 39.89 13.0802 35.5518L13.2702 35.3617C14.1781 35.8957 14.5672 36.1038 15.5534 36.484L15.7917 36.5715C16.0541 36.6318 16.3376 36.7314 16.5699 36.6921C17.4687 36.0465 18.0628 35.413 19.2512 35.5669C22.4784 35.9892 25.6785 40.2188 22.6805 42.9129L22.6111 42.5026Z" fill="#6B5A98"/>
<path d="M19.8092 26.8755C19.9359 25.7442 19.8725 25.2434 20.6266 24.4198C21.5917 24.0789 21.1212 24.0728 22.0894 24.462C23.4979 26.2359 22.9188 27.4577 21.7757 29.117L20.5723 28.4141L20.3159 28.3628L19.8092 26.8755Z" fill="#2E2E2E"/>
<path d="M2.22222 24.1241L2.68369 24.5103C-0.691337 27.8771 0.448738 30.8818 2.8556 34.2245C-1.03821 32.3601 -0.652136 26.8332 2.22222 24.1241Z" fill="#6B5A98"/>
<path d="M20.3158 28.3626C19.5105 28.6311 18.6962 28.794 18.0296 28.2842L18.2015 27.6868C18.8772 27.1317 18.9827 26.9477 19.8091 26.8753L20.3158 28.3626Z" fill="#BBA0D5"/>
<path d="M6.26675 24.4679C6.69806 24.0968 7.11129 23.59 7.49735 23.1525L8.23025 23.231C8.0342 23.9309 7.88641 24.4829 7.62401 25.1617C7.19572 24.9053 6.7252 24.5554 6.26675 24.4679Z" fill="#5C498B"/>
<path d="M28.0672 23.6082L29.1772 24.0245C29.6356 24.4921 30.0549 24.9476 30.1755 25.6113C30.3746 26.7215 30.0428 27.6477 29.4125 28.5347C28.9992 28.4623 28.589 28.3205 28.1849 28.2058C27.7898 27.8016 27.461 27.5663 27.2982 27.0112C26.9242 25.729 27.4821 24.7063 28.0672 23.6082Z" fill="#151516"/>
<path d="M21.6007 20.4084C22.032 20.8718 22.0139 20.905 22.0652 21.5415C21.3805 22.6457 20.0052 23.2551 18.9133 23.8977L18.5665 23.5628C18.5936 22.8026 20.9341 21.3756 21.6007 20.4084Z" fill="#151516"/>
<path d="M27.081 20.4351C28.4352 20.7809 30.085 22.1025 31.3066 22.8567C30.4832 22.899 29.699 22.9201 28.9178 22.6094C27.8652 22.187 27.4852 21.4358 27.081 20.4351Z" fill="#151516"/>
</svg>
