<svg width="77" height="76" viewBox="0 0 77 76" fill="none" xmlns="http://www.w3.org/2000/svg">
<path d="M20.021 11.2208C24.3401 0.784917 34.4317 -3.73362 44.4382 3.61154C46.8708 5.39687 47.3524 8.5686 48.865 11.2696C52.702 11.6428 58.4767 12.1181 60.775 15.9561C61.6463 17.4101 62.2572 20.5285 61.7586 22.19L64.3788 23.4642C65.9029 24.5699 66.443 25.0093 67.8019 26.305C68.733 29.5499 69.3163 31.0665 68.1676 34.3059C67.8299 35.2216 67.7196 35.6909 67.1054 36.4731L67.0944 36.7814C68.4712 37.9456 70.2078 39.1741 70.844 40.8398C72.7062 40.688 74.199 40.3429 75.8164 41.1435C77.4468 43.5501 73.8273 48.11 72.9082 51.5564C76.8446 55.8357 72.9744 61.8267 67.9206 63.3497C66.5005 64.9694 66.3666 65.3283 65.5192 67.2609C63.83 67.4725 59.1843 67.8959 57.731 68.2364C63.2638 76.8823 48.4533 76.2474 44.066 75.4329C38.9602 74.485 42.0828 73.4497 40.2206 70.7717C38.594 70.468 36.5901 70.4957 35.262 71.5862C34.8825 73.1 34.5039 74.6829 32.7682 75.1338C27.9771 76.3716 21.1029 76.3302 16.4663 74.7013C14.175 73.8961 15.153 70.2518 14.5904 68.6275C12.7549 65.9403 11.9577 66.3912 10.9801 62.9494L9.96373 58.8055C5.14083 59.2519 5.40919 59.641 3.91503 56.7652C0.544431 50.2819 -1.48244 48.6576 1.95395 41.2355L2.25435 40.7018C-1.10981 34.039 -1.25426 28.2233 5.60885 25.0958C8.13576 23.9441 5.28269 15.9161 9.34747 13.654C13.4527 11.3695 15.176 10.6544 20.021 11.2208Z" fill="#BEA4DA"/>
<path d="M20.021 11.2208C24.3401 0.784916 34.4317 -3.73362 44.4382 3.61154C46.8708 5.39687 47.3524 8.5686 48.865 11.2696C52.702 11.6428 58.4767 12.1181 60.775 15.9561C61.6463 17.4101 62.2572 20.5285 61.7585 22.19L64.3788 23.4642C65.9029 24.5699 66.443 25.0093 67.8019 26.305C68.733 29.5499 69.3163 31.0665 68.1676 34.3059C67.8299 35.2216 67.7195 35.6909 67.1054 36.4731L67.0944 36.7814L67.0143 37.8628L63.9239 37.0161C63.1874 36.9471 61.6523 36.6158 60.855 36.4731C60.2855 35.8059 59.6433 34.2691 59.2454 33.4224L57.2057 30.709L56.5313 30.0956L54.2325 28.3623C53.2122 28.1732 49.8296 26.0948 48.7127 25.451C46.9784 24.845 46.0505 24.6927 44.9571 23.1756L44.8255 22.9686L42.8602 23.0937C41.6002 23.7255 41.5133 23.7991 40.1392 23.979C36.9351 24.2482 28.2204 23.9712 26.8767 25.4961C25.8421 28.2565 21.7152 30.8369 18.8042 30.7789C17.5727 31.5635 17.0621 32.9025 16.3412 34.2415C15.3655 36.3949 14.3866 37.8398 12.8482 39.7585C12.995 40.3843 13.1252 40.9411 13.2379 41.4196C10.6208 41.5669 9.3171 35.5069 2.6932 41.9718L1.95395 41.2355L2.25435 40.7018C-1.10981 34.039 -1.25426 28.2233 5.60884 25.0958C8.13576 23.9441 5.28269 15.9161 9.34747 13.654C13.4527 11.3695 15.176 10.6544 20.021 11.2208Z" fill="#856BB1"/>
<path d="M26.8768 25.4963C26.9297 24.6749 27.525 22.4401 27.7426 21.5239C28.2785 22.1097 28.8145 22.6954 29.3504 23.2807C32.2053 23.3636 37.8351 22.4953 40.1393 23.9792C36.9353 24.2484 28.2206 23.9714 26.8768 25.4963Z" fill="#5C498B"/>
<path d="M16.3412 34.2418C15.8674 33.1789 15.4262 31.5822 15.723 30.4249C16.8178 29.9247 17.8874 30.0375 18.8042 30.7792C17.5727 31.5638 17.0621 32.9028 16.3412 34.2418Z" fill="#5C498B"/>
<path d="M44.957 23.1758C47.1233 23.4371 46.7341 23.0934 48.3336 24.2737L48.7127 25.4512C46.9784 24.8452 46.0505 24.6929 44.957 23.1758Z" fill="#6B5A98"/>
<path d="M61.7588 22.1902L64.3791 23.4643C63.0965 24.0639 61.9303 24.264 60.5618 23.9718L60.5001 23.2807L61.7588 22.1902Z" fill="#6B5A98"/>
<path d="M42.8602 23.0938C43.6506 22.0742 44.3286 20.7927 45.3504 20.4651C45.3195 21.7056 45.2653 21.7884 44.8255 22.9687L42.8602 23.0938Z" fill="#5C498B"/>
<path d="M57.2059 30.709L58.0869 30.4877C59.6726 31.5083 59.2567 30.952 59.8617 32.516L59.2457 33.4224L57.2059 30.709Z" fill="#5C498B"/>
<path d="M67.1056 36.4734L66.3562 36.1789L66.307 35.208C67.4005 34.1405 66.7781 34.3798 68.1678 34.3062C67.8301 35.2218 67.7198 35.6912 67.1056 36.4734Z" fill="#6B5A98"/>
<path d="M54.2327 28.3626L56.7104 28.1436L57.2021 28.6345L56.5314 30.0959L54.2327 28.3626Z" fill="#5C498B"/>
<path d="M20.3883 11.2263C22.3241 11.963 23.6637 13.209 25.0281 14.7054C24.1283 14.3341 23.1862 13.9775 22.3291 13.516C21.1179 12.863 20.76 12.5423 20.3883 11.2263Z" fill="#5C498B"/>
<path d="M60.8551 36.4731C61.6523 36.6158 63.1874 36.9471 63.9239 37.0161L67.0143 37.8628L67.0944 36.7814C68.4713 37.9456 70.2078 39.1741 70.8441 40.8398C72.7062 40.688 74.199 40.3429 75.8164 41.1435C77.4468 43.5501 73.8273 48.11 72.9082 51.5564C76.8446 55.8357 72.9744 61.8267 67.9206 63.3497C66.5005 64.9694 66.3666 65.3283 65.5193 67.2609C63.8301 67.4726 59.1843 67.8959 57.7311 68.2364L57.1073 68.4664C54.153 69.1889 49.342 69.5018 47.4601 66.7226C47.2889 64.9326 47.847 64.2746 48.6952 62.6641L49.0016 61.5414C50.4429 59.1303 51.396 56.3234 52.3994 53.6869C52.709 53.4154 52.9822 52.6102 53.1713 52.173C54.5877 48.041 55.4369 45.432 57.4403 41.5669C58.8397 41.346 60.7405 41.254 62.1905 41.1435C62.335 39.4825 61.5244 38.0698 60.8551 36.4731Z" fill="#FEF0D4"/>
<path d="M60.8551 36.4731C61.6523 36.6158 63.1874 36.9471 63.9239 37.0161L67.0143 37.8628L67.0944 36.7814C68.4713 37.9456 70.2078 39.1741 70.8441 40.8398C72.7062 40.688 74.199 40.3429 75.8164 41.1435C77.4468 43.5501 73.8273 48.11 72.9082 51.5564L71.3211 51.0089L75.2745 43.932C69.8527 44.3277 63.9037 44.7372 58.4731 44.8522C56.7268 49.2143 50.8376 64.4173 48.6019 67.2839C52.9238 67.4174 61.9945 68.3928 65.1664 65.5492C65.5832 65.1765 66.2208 63.1611 66.3418 62.5031L67.9206 63.3497C66.5005 64.9694 66.3666 65.3283 65.5193 67.2609C63.8301 67.4726 59.1843 67.8959 57.7311 68.2364L57.1073 68.4664C54.153 69.1889 49.342 69.5018 47.4601 66.7226C47.2889 64.9326 47.847 64.2746 48.6952 62.6641L49.0016 61.5414C50.4429 59.1303 51.396 56.3234 52.3994 53.6869C52.709 53.4154 52.9822 52.6102 53.1713 52.173C54.5877 48.041 55.4369 45.432 57.4403 41.5669C58.8397 41.346 60.7405 41.254 62.1905 41.1435C62.335 39.4825 61.5244 38.0698 60.8551 36.4731Z" fill="#A78D6B"/>
<path d="M60.855 36.4731C61.6522 36.6158 63.1873 36.9471 63.9238 37.0161L67.0143 37.8628L67.0943 36.7814C68.4712 37.9456 70.2078 39.1741 70.844 40.8398L70.3632 41.6681C67.3248 41.5576 65.1742 41.461 62.1155 41.7371L62.1904 41.1435C62.3349 39.4825 61.5243 38.0698 60.855 36.4731Z" fill="#BBA0D5"/>
<path d="M60.855 36.4731C61.6522 36.6158 63.1873 36.9471 63.9238 37.0161C63.0263 38.102 62.9628 38.2493 62.9315 39.6573C64.141 41.6819 66.3905 41.9212 68.5029 41.1527L69.1635 40.4073C68.6658 38.8843 68.3635 38.9993 67.0143 37.8628L67.0943 36.7814C68.4712 37.9456 70.2078 39.1741 70.844 40.8398L70.3632 41.6681C67.3248 41.5576 65.1742 41.461 62.1155 41.7371L62.1904 41.1435C62.3349 39.4825 61.5243 38.0698 60.855 36.4731Z" fill="#5C498B"/>
<path d="M62.1157 41.7371C65.1744 41.4611 67.325 41.5577 70.3634 41.6681C72.2127 41.6497 72.9065 41.5945 74.7567 42.0546L74.8639 42.4641C71.2844 43.4442 62.2592 44.0102 58.6135 43.3706L58.2814 42.8046C59.7387 41.7233 60.115 41.9948 62.1157 41.7371Z" fill="#EDD19D"/>
<path d="M66.3419 62.5034C62.94 59.4343 64.8579 55.4587 67.2849 52.6058C68.6153 51.0414 69.3827 51.184 71.3212 51.0092L72.9083 51.5567C76.8447 55.836 72.9745 61.8269 67.9207 63.35L66.3419 62.5034Z" fill="#6B5A98"/>
<path d="M67.4157 52.6703C69.5208 52.5276 70.9468 52.3896 72.7464 53.5261C73.39 54.5154 73.7079 55.2977 73.4337 56.4894C72.7869 59.31 70.9395 60.8515 68.6766 62.3607L68.1849 62.1583C67.0366 61.6797 66.4469 61.422 65.9542 60.2303C66.3797 59.7609 66.7767 59.3653 67.0546 58.7901C67.2547 58.376 65.9685 57.6213 65.7233 56.8621L66.4837 56.0384C67.2616 55.9372 68.0206 55.928 68.6527 55.4173C68.1352 54.612 67.8219 53.8942 67.5192 52.9877L67.4157 52.6703Z" fill="#BEA4DA"/>
<path d="M1.95395 41.2356L2.69321 41.9718C-2.00962 49.0257 5.2367 60.7086 11.8141 55.6103C12.7452 53.3096 12.5143 48.3539 12.5046 45.6851C12.7645 46.8355 14.2325 52.8725 13.944 53.6317C10.8582 61.7577 9.03558 66.0554 19.7592 69.1843C24.0517 68.0892 25.1595 68.5355 27.3013 65.0477C29.3057 65.4664 28.6786 66.221 30.4976 66.014C31.4908 64.744 36.2622 58.7944 36.7185 57.7821C36.0133 57.0045 35.8081 56.8067 34.998 56.1441L35.1429 53.9492C33.5549 52.8541 32.7292 52.2743 31.2879 50.9629L31.2442 50.5166C34.238 50.3877 37.2705 54.147 37.2075 56.8619C37.1325 60.1104 33.3861 64.0492 31.4447 66.7686C32.5681 67.9466 33.732 69.1199 34.7675 70.3715L42.5594 69.4926C42.6845 71.7151 41.4186 70.7396 42.0741 73.2059C45.5413 76.1922 60.194 76.6293 57.1072 68.4665L57.731 68.2364C63.2638 76.8824 48.4533 76.2474 44.066 75.433C38.9602 74.4851 42.0828 73.4498 40.2207 70.7718C38.594 70.4681 36.5901 70.4957 35.2621 71.5862C34.8825 73.1001 34.5039 74.6829 32.7682 75.1339C27.9771 76.3716 21.1029 76.3303 16.4663 74.7014C14.175 73.8961 15.153 70.2518 14.5904 68.6275C12.7549 65.9403 11.9577 66.3913 10.9801 62.9495L10.1591 58.8055C5.33618 59.2518 5.4092 59.6411 3.91504 56.7652C0.544438 50.2819 -1.48243 48.6576 1.95395 41.2356Z" fill="#6B5A98"/>
<path d="M27.3937 66.7964C29.2798 67.008 31.3066 67.6891 32.6821 69.0649C33.5686 69.953 33.5888 70.657 33.6436 71.8165C33.2824 72.6862 32.9282 73.3764 32.1439 73.9377C29.3745 75.9209 25.5784 75.3365 22.4153 74.9224C20.6317 74.7798 17.5234 74.0113 16.1295 72.9024C15.5761 72.4607 15.692 71.8533 15.6143 71.1815C17.0661 68.3379 23.7627 70.8456 27.0919 67.1415C27.194 67.0265 27.2929 66.9114 27.3937 66.7964Z" fill="#BEA4DA"/>
<path d="M49.0016 61.5416C46.5414 58.2654 47.0852 53.3603 52.3994 53.687C51.3961 56.3236 50.4429 59.1305 49.0016 61.5416Z" fill="#BEA4DA"/>
<path d="M53.1714 52.1735C52.9823 52.6106 52.7091 53.4158 52.3995 53.6873C47.0853 53.3606 46.5415 58.2657 49.0017 61.5418L48.6953 62.6646C44.1788 56.4205 46.4656 53.7609 53.1714 52.1735Z" fill="#6B5A98"/>
<path d="M31.934 42.5793C32.4795 40.9182 32.589 39.8968 33.9843 38.9167C35.6735 38.636 35.0028 38.5071 36.4905 39.4366C38.1926 42.2711 37.7818 44.65 34.8385 46.2696L34.413 45.9659C32.7146 44.7512 32.6525 44.5027 31.934 42.5793Z" fill="#2E2E2E"/>
<path d="M49.1249 43.5362C48.3848 44.889 47.732 45.2617 46.2995 45.3399C42.7798 43.1726 43.7233 39.1143 47.0912 38.2124L48.1179 38.875C49.032 40.4993 49.0118 41.1113 49.1953 42.9058L49.1249 43.5362Z" fill="#2A2A2B"/>
<path d="M25.2986 55.8775C23.2768 56.6091 21.272 57.3914 19.2856 58.215C20.404 57.2303 20.5935 57.1291 21.3346 55.8683L20.3211 54.5155L21.0526 54.3039L22.9175 55.583L23.6039 55.376C24.2636 53.5354 24.0579 52.0722 25.4431 50.7654L25.7347 51.451C25.3124 52.7118 25.3524 54.4971 25.2986 55.8775Z" fill="#5C498B"/>
<path d="M35.5679 33.2018L35.9493 33.5469C36.1374 34.1221 36.3407 34.3015 36.0932 34.8905C35.3558 36.6482 32.0924 37.6237 30.4736 38.3001L30.1147 37.7019C30.463 36.3445 34.2964 34.8491 35.5679 33.2018Z" fill="#151516"/>
<path d="M39.4996 49.477C40.3423 49.4218 41.2076 49.3758 42.0522 49.4356C43.2713 49.523 44.1159 50.1534 44.8708 51.0553L44.3675 51.4464L42.3154 50.4663C40.7895 50.4295 39.1127 51.2992 37.5012 51.4556C37.7998 50.4939 38.7175 50.0338 39.4996 49.477Z" fill="#151516"/>
<path d="M43.7911 33.1006C45.5102 33.2938 49.345 35.8844 50.9505 36.8783C49.8156 36.9888 48.4595 37.1268 47.355 36.7679C45.4744 36.1651 44.6647 34.7203 43.7911 33.1006Z" fill="#151516"/>
<path d="M25.4429 50.7653C27.2475 49.3159 26.5999 49.4263 28.4367 49.2699C30.0533 50.1718 29.5454 49.638 30.3628 51.2807L30.0905 52.3758L29.2795 52.6657C28.7951 51.8421 28.7228 51.3037 28.5002 50.3834C27.0898 50.1212 26.9412 50.5721 25.7345 51.4509L25.4429 50.7653Z" fill="#856BB1"/>
</svg>
