<svg width="50" height="50" viewBox="0 0 50 50" fill="none" xmlns="http://www.w3.org/2000/svg">
<path d="M24.52 1C11.5301 1 1 11.5301 1 24.52C1 37.5099 11.5301 48.04 24.52 48.04C37.5099 48.04 48.04 37.5099 48.04 24.52C48.04 11.5301 37.5099 1 24.52 1ZM33.5654 27.536C33.5654 27.536 35.6455 29.5891 36.1575 30.5421C36.1722 30.5633 36.1812 30.5797 36.1845 30.5911C36.3919 30.939 36.4433 31.2142 36.3388 31.4167C36.1673 31.7549 35.5793 31.9215 35.3784 31.9362H31.7034C31.4486 31.9362 30.9145 31.87 30.2677 31.4241C29.7704 31.0762 29.2804 30.5054 28.8026 29.9492C28.0897 29.1211 27.4723 28.4057 26.85 28.4057C26.7709 28.4054 26.6923 28.4178 26.6172 28.4425C26.1468 28.5944 25.5441 29.2657 25.5441 31.0542C25.5441 31.6128 25.1031 31.9337 24.792 31.9337H23.1088C22.5355 31.9337 19.549 31.7328 16.9029 28.9423C13.664 25.5245 10.7485 18.6694 10.724 18.6057C10.5403 18.1623 10.92 17.9246 11.3341 17.9246H15.0458C15.5407 17.9246 15.7024 18.226 15.8152 18.493C15.9474 18.8041 16.4326 20.0414 17.2288 21.433C18.52 23.7017 19.3113 24.6229 19.9459 24.6229C20.0648 24.6215 20.1817 24.5912 20.2864 24.5347C21.1145 24.0741 20.9601 21.1218 20.9234 20.5093C20.9234 20.3942 20.9209 19.1888 20.4971 18.6106C20.1933 18.1917 19.6763 18.0324 19.3628 17.9736C19.4897 17.7985 19.6569 17.6564 19.8503 17.5595C20.4187 17.2754 21.4428 17.2337 22.4596 17.2337H23.0255C24.128 17.2484 24.4122 17.3195 24.8116 17.4199C25.6201 17.6135 25.6372 18.1353 25.5662 19.9214C25.5441 20.4285 25.5221 21.0018 25.5221 21.678L25.5147 22.1484C25.4902 23.0574 25.4608 24.0888 26.1027 24.5127C26.1855 24.5672 26.2829 24.5954 26.382 24.5935C26.605 24.5935 27.2763 24.5935 29.0942 21.4747C29.6527 20.4697 30.1398 19.4267 30.5519 18.3533C30.5887 18.2896 30.6965 18.0937 30.8239 18.0177C30.9189 17.9725 31.0225 17.9483 31.1277 17.9466H35.4911C35.9664 17.9466 36.2923 18.0177 36.3535 18.2015C36.4613 18.493 36.3339 19.3824 34.3421 22.0798L33.4527 23.2534C31.6471 25.6201 31.6471 25.7401 33.5654 27.536Z" fill="#0D99FF"/>
</svg>
