<svg width="510" height="218" viewBox="0 0 510 218" fill="none" xmlns="http://www.w3.org/2000/svg">
<path d="M146.03 195.194C176.767 201.453 224.415 177.564 224.415 177.564C224.415 177.564 277.939 225.125 315.5 216.44C342.769 210.135 372.428 171.687 372.428 171.687C372.428 171.687 437.365 214.466 452.565 185.701C460.263 171.132 452.565 143.207 452.565 143.207C452.565 143.207 508.761 152.775 509.493 129.194C509.98 113.486 485.408 97.5498 485.408 97.5498C485.408 97.5498 493.889 69.8823 485.408 56.4127C472.36 35.6903 424.101 56.4127 424.101 56.4127C424.101 56.4127 426.454 24.7364 413.591 13.9195C393.963 -2.58575 355.349 43.3031 355.349 43.3031C355.349 43.3031 324.021 16.328 299.735 13.9195C273.626 11.3303 235.801 35.1661 235.801 35.1661C235.801 35.1661 225.472 12.3884 213.03 4.42637C185.197 -13.3834 134.644 35.1661 134.644 35.1661C134.644 35.1661 102.364 -2.82073 78.592 4.42637C56.2515 11.2371 46.6247 56.4127 46.6247 56.4127C46.6247 56.4127 12.6219 52.8899 3.2719 68.1662C-7.65461 86.0182 16.9265 98.2536 21.664 118.796C26.3264 139.013 13.2184 156.892 27.3568 171.687C45.2355 190.395 92.1671 164.454 92.1671 164.454C92.1671 164.454 122.449 190.392 146.03 195.194Z" fill="#60BDFF" stroke="#60BDFF"/>
</svg>
