<svg width="383" height="190" viewBox="0 0 383 190" fill="none" xmlns="http://www.w3.org/2000/svg">
<path d="M152.713 175.378C169.46 175.645 186.829 149.396 186.829 149.396C186.829 149.396 220.597 187.99 242.604 177.465C260.335 168.984 269.698 145.566 269.698 145.566C269.698 145.566 387.326 191.8 382.18 145.566C378.706 114.348 350.186 94.6447 350.186 94.6447C350.186 94.6447 389.929 69.5206 374.518 48.3086C360.741 29.3451 315.195 57.8251 315.195 57.8251C315.195 57.8251 335.195 15.8877 318.045 3.02246C297.761 -12.1932 269.698 46.401 269.698 46.401C269.698 46.401 267.288 12.1445 251.024 5.40796C228.484 -3.92737 209.497 52.077 209.497 52.077C209.497 52.077 208.93 18.8559 194.501 18.3257C178.738 17.7465 185.273 57.6132 185.273 57.6132C185.273 57.6132 174.025 31.1621 158.742 26.4982C133.574 18.8178 111.448 74.4854 111.448 74.4854C111.448 74.4854 95.9649 43.3212 78.7643 44.7763C57.8168 46.5485 60.6863 81.8732 60.6863 81.8732C60.6863 81.8732 16.1246 63.8549 3.08762 81.8732C-10.5547 100.728 34.1863 131.995 34.1863 131.995C34.1863 131.995 10.369 161.032 24.153 174.046C36.6865 185.88 67.2178 164.204 67.2178 164.204C67.2178 164.204 71.2318 181.539 79.7564 187.202C96.8297 198.544 122.574 156.807 122.574 156.807C122.574 156.807 138.882 175.157 152.713 175.378Z" stroke="#60BDFF"/>
</svg>
