<svg width="59" height="60" viewBox="0 0 59 60" fill="none" xmlns="http://www.w3.org/2000/svg">
<path d="M25.3477 25.7646L25.3799 25.9775L25.5029 25.8008L38.7939 6.60156L28.752 27.6689L28.6514 27.8799L28.8643 27.7832L46.1504 19.998L30.7402 31.0195L30.5459 31.1582L30.7842 31.1748L57.7598 33.042L30.7842 34.9111L30.5459 34.9277L30.7402 35.0664L46.1533 46.0889L28.8643 38.3018L28.6133 38.1885L28.7559 38.4248L41.2852 59.0889L25.498 40.2783L25.3672 40.123L25.3477 40.3252L23.4717 59.1387L21.5957 40.3252L21.5732 40.0996L21.4414 40.2832L10.376 55.6387L18.1924 38.415L18.2861 38.209L18.0791 38.3018L0.789062 46.0889L16.2031 35.0664L16.3828 34.9375L16.1641 34.9111L0.749023 33.042L16.1641 31.1738L16.3828 31.1475L16.2031 31.0195L0.755859 19.998L18.0791 27.7832L18.2725 27.8701L18.1934 27.6738L13.3555 15.5869L21.4434 25.8047L21.5967 25.998V1.13477L25.3477 25.7646Z" fill="#FF8D1B" stroke="#6D6D6D" stroke-width="0.17125"/>
</svg>
